<?xml version="1.0" encoding="UTF-8"?>
<svg id="Layer_1" data-name="Layer 1" xmlns="http://www.w3.org/2000/svg" viewBox="0 0 122.88 103.61">
  <defs>
    <style>
      .cls-1 {
        fill: #fff;
        fill-rule: evenodd;
      }
    </style>
  </defs>
  <path class="cls-1" d="m10.37,0h102.14c5.7,0,10.37,4.66,10.37,10.37h0c0,5.7-4.66,10.37-10.37,10.37H10.37C4.67,20.74,0,16.07,0,10.37h0C0,4.66,4.67,0,10.37,0h0Zm0,82.88h102.14c5.7,0,10.37,4.67,10.37,10.37h0c0,5.7-4.66,10.37-10.37,10.37H10.37c-5.7,0-10.37-4.66-10.37-10.37h0c0-5.7,4.67-10.37,10.37-10.37h0Zm0-41.44h102.14c5.7,0,10.37,4.67,10.37,10.37h0c0,5.7-4.66,10.37-10.37,10.37H10.37c-5.7,0-10.37-4.67-10.37-10.37h0c0-5.7,4.67-10.37,10.37-10.37h0Z"/>
</svg>