<svg width="69" height="28" viewBox="0 0 69 28" fill="none" xmlns="http://www.w3.org/2000/svg">
<path d="M14.3677 27.5776C14.2342 27.571 14.1219 27.5565 14.0017 27.5565C13.8682 27.5565 13.7493 27.571 13.6304 27.5776C13.4269 26.9949 13.1745 26.321 12.8931 25.6815H11.1093C10.8648 26.2999 10.6112 26.9169 10.4143 27.5776C10.3152 27.571 10.2385 27.5565 10.154 27.5565C10.0628 27.5565 9.98484 27.571 9.9082 27.5776L12.099 22.6702H12.2602L14.3677 27.5776ZM12.0091 23.5898L11.2441 25.3868H12.7887L12.0091 23.5898Z" fill="white"/>
<path d="M14.9991 26.6316C15.2739 27.0808 15.5897 27.3623 16.1368 27.3623C16.7049 27.3623 17.1119 26.8905 17.1119 26.3369C17.1119 25.0314 14.9145 25.6062 14.9145 24.0206C14.9145 23.1142 15.6307 22.6729 16.4724 22.6729C16.808 22.6729 17.2176 22.7772 17.4766 23.0085C17.392 23.1908 17.3431 23.3877 17.2863 23.5846H17.2163C17.0683 23.2053 16.7591 22.9741 16.3455 22.9741C15.8606 22.9741 15.4602 23.2978 15.4602 23.7947C15.4602 25.0869 17.6722 24.5676 17.6722 26.0621C17.6722 27.0663 16.8926 27.6635 15.9372 27.6635C15.5924 27.6635 15.0321 27.5169 14.793 27.2566C14.863 27.0531 14.8974 26.8417 14.9264 26.6316H14.9991Z" fill="white"/>
<path d="M20.2879 27.5921C20.1756 27.5855 20.0778 27.571 19.9787 27.571C19.8743 27.571 19.7686 27.5855 19.6695 27.5921V23.1128C18.9613 23.1128 18.5332 23.1551 18.1328 23.1974C18.1394 23.1274 18.1526 23.056 18.1526 22.986C18.1526 22.9159 18.1394 22.8525 18.1328 22.7759H21.7546C21.7493 22.8538 21.7348 22.9159 21.7348 22.986C21.7348 23.056 21.7493 23.1274 21.7546 23.1974C21.4058 23.1551 20.9129 23.1128 20.2879 23.1128V27.5921Z" fill="white"/>
<path d="M21.9316 25.1767C21.9316 23.6387 23.0759 22.6702 24.5294 22.6702C25.8494 22.6702 27.1905 23.385 27.1905 25.071C27.1905 26.6368 26.0819 27.6622 24.5148 27.6622C22.9636 27.6622 21.9316 26.6791 21.9316 25.1767ZM26.0608 23.5832C25.7093 23.1406 25.1623 22.9014 24.5994 22.9014C23.364 22.9014 22.6187 23.8369 22.6187 25.2613C22.6187 26.687 23.4908 27.4309 24.536 27.4309C26.0185 27.4309 26.551 25.8995 26.5035 25.1278C26.5035 24.5451 26.4255 24.0536 26.0608 23.5832Z" fill="white"/>
<path d="M32.2618 27.5777H32.0504C31.9738 27.4799 31.8324 27.3108 31.6857 27.1496L28.6532 23.7934H28.5819V27.5777C28.5119 27.5711 28.4484 27.5566 28.3863 27.5566C28.3163 27.5566 28.2529 27.5711 28.1895 27.5777V22.7747H28.463L31.7993 26.3898H31.868V22.7747C31.9315 22.7813 31.9949 22.7958 32.0662 22.7958C32.1283 22.7958 32.1918 22.7799 32.2631 22.7747V27.5777H32.2618Z" fill="white"/>
<path d="M40.2241 22.7759C40.4077 24.5108 40.6033 26.2378 40.7936 27.5789C40.668 27.5723 40.5689 27.5578 40.4646 27.5578C40.3522 27.5578 40.2399 27.5723 40.1342 27.5789C40.014 26.1691 39.8752 24.6522 39.7761 23.9558C38.9622 25.4106 38.3584 26.5324 37.9355 27.5023H37.8602L37.4731 26.7082C37.0225 25.7819 36.5323 24.8689 36.0539 23.9558C35.9007 25.3247 35.7091 26.7161 35.7091 27.5789C35.6192 27.5723 35.5413 27.5578 35.4646 27.5578C35.3721 27.5578 35.2955 27.5723 35.2109 27.5789C35.3933 26.4492 35.8148 23.5132 35.8861 22.7759H36.0685C36.63 23.8924 37.3039 25.2124 38.0558 26.4558C38.723 25.2547 39.3692 24.0325 40.0774 22.7759H40.2241Z" fill="white"/>
<path d="M45.7147 27.5776C45.5812 27.571 45.4689 27.5565 45.3487 27.5565C45.2165 27.5565 45.095 27.571 44.976 27.5776C44.7739 26.9949 44.5202 26.321 44.2414 25.6815H42.4576C42.2118 26.2999 41.9594 26.9169 41.7626 27.5776C41.6648 27.571 41.5868 27.5565 41.5023 27.5565C41.4111 27.5565 41.3331 27.571 41.2578 27.5776L43.4459 22.6702H43.6085L45.7147 27.5776ZM43.3548 23.5898L42.5897 25.3868H44.1344L43.3548 23.5898Z" fill="white"/>
<path d="M46.459 22.7759H47.9481C49.029 22.7759 49.506 23.134 49.506 23.8435C49.506 24.6575 48.7766 25.0512 48.067 25.1781L49.5139 27.0094L49.8508 27.4032L49.9843 27.5789C49.8376 27.5723 49.7095 27.5578 49.5773 27.5578C49.4439 27.5578 49.3038 27.5723 49.177 27.5789C49.0211 27.3622 48.881 27.164 48.7343 26.9685L47.9072 25.8942L47.3443 25.2349H47.0774V27.5789C46.9651 27.5723 46.8673 27.5578 46.7669 27.5578C46.6625 27.5578 46.5568 27.5723 46.459 27.5789V22.7759ZM47.0774 24.9667C47.1751 24.9733 47.6244 25.0023 47.9838 24.931C48.4952 24.8253 48.881 24.4751 48.881 23.9268C48.881 23.4432 48.6365 23.1274 48.1093 23.0415C47.8503 23.0005 47.372 23.0203 47.0774 23.0349V24.9667Z" fill="white"/>
<path d="M52.1551 27.5921C52.0428 27.5855 51.945 27.571 51.8459 27.571C51.7402 27.571 51.6358 27.5855 51.538 27.5921V23.1128C50.8285 23.1128 50.399 23.1551 50 23.1974C50.0066 23.1274 50.0225 23.056 50.0225 22.986C50.0225 22.9159 50.0066 22.8525 50 22.7759H53.6231C53.6152 22.8538 53.602 22.9159 53.602 22.986C53.602 23.056 53.6152 23.1274 53.6231 23.1974C53.2716 23.1551 52.7827 23.1128 52.1564 23.1128V27.5921H52.1551Z" fill="white"/>
<path d="M54.4297 22.7759C54.5261 22.7825 54.6332 22.797 54.7376 22.797C54.8353 22.797 54.9331 22.7812 55.0468 22.7759V27.5789C54.9331 27.5723 54.8353 27.5578 54.7376 27.5578C54.6332 27.5578 54.5261 27.5723 54.4297 27.5789V22.7759Z" fill="white"/>
<path d="M60.491 27.5777H60.2796C60.203 27.4799 60.0616 27.3108 59.9136 27.1496L56.8798 23.7934H56.8098V27.5777C56.7397 27.5711 56.6776 27.5566 56.6142 27.5566C56.5442 27.5566 56.4808 27.5711 56.416 27.5777V22.7747H56.6909L60.0259 26.3898H60.0946V22.7747C60.158 22.7813 60.2215 22.7958 60.2928 22.7958C60.3562 22.7958 60.4183 22.7799 60.4897 22.7747V27.5777H60.491Z" fill="white"/>
<path d="M68.3478 0.60649C68.102 0.247087 67.5801 0.22066 67.5207 0.218018C67.518 0.218018 67.5154 0.218018 67.514 0.218018H40.2761C39.4185 0.218018 38.746 0.461144 38.2782 0.939466C37.7986 1.42968 37.6664 2.03881 37.6308 2.36518H31.6491C31.6134 2.03881 31.4813 1.42968 31.0016 0.939466C30.5339 0.461144 29.8626 0.218018 29.0038 0.218018H1.76713C1.76449 0.218018 1.76185 0.218018 1.76053 0.218018C1.70239 0.219339 1.18046 0.247087 0.933373 0.60649C0.872592 0.696341 0.814453 0.827153 0.814453 1.00553C0.814453 1.10595 0.832952 1.21959 0.877877 1.3504C0.883162 1.36626 0.891091 1.38343 0.90034 1.39797L1.63368 2.54621C1.67596 2.61095 1.85434 2.8118 2.4278 2.8184C2.47801 2.83294 2.64186 2.88976 2.74492 3.06021C2.75021 3.06946 3.38709 4.20448 3.38709 4.20448C3.38973 4.20845 3.39237 4.21241 3.3937 4.21637C3.41087 4.24148 3.80463 4.84136 4.44283 4.84797C4.44416 4.84797 4.44548 4.84797 4.4468 4.84797C4.44812 4.84797 4.45076 4.84797 4.45208 4.84797C4.81809 4.84797 4.98722 5.23248 4.99383 5.24833C4.99647 5.25494 5.00044 5.26287 5.00308 5.26815C5.00308 5.26815 5.49858 6.17988 5.51179 6.20498C5.52369 6.23405 5.54351 6.26972 5.57522 6.31069C5.59107 6.33315 5.60825 6.35429 5.62807 6.37279C5.80381 6.56042 6.20417 6.82733 7.11721 7.11142C7.11853 7.11142 8.31434 7.46421 9.9039 7.93328H9.90523C12.9786 8.8384 17.5187 10.1769 17.7381 10.2417C17.9574 10.3209 18.334 10.5218 18.4239 10.7266L18.6577 11.2657C18.6961 11.3503 19.0687 12.0823 20.7957 12.5897C20.797 12.5897 22.0628 12.9385 23.6656 13.3798C26.3664 14.1237 30.0265 15.1306 30.2115 15.1808C30.333 15.2244 31.4694 15.597 32.352 14.7144L34.5045 12.5619C34.5124 12.554 34.527 12.5355 34.5336 12.5262L34.5243 12.5381C34.527 12.5355 34.5441 12.5183 34.5851 12.5104C34.6076 12.5091 34.626 12.5077 34.6393 12.5064C34.6525 12.5077 34.6697 12.5091 34.6934 12.5104C34.7344 12.5196 34.7516 12.5355 34.7542 12.5381L34.745 12.5262C34.7516 12.5355 34.7661 12.554 34.774 12.5619L36.9265 14.7144C37.8091 15.597 38.9442 15.2244 39.0657 15.1808C39.075 15.1782 42.8461 14.1409 45.6103 13.3798C47.2118 12.9385 48.4749 12.591 48.4749 12.591C48.6137 12.55 48.7419 12.5077 48.8634 12.4655C48.878 12.4615 48.8912 12.4562 48.9057 12.4509C50.2693 11.9581 50.5825 11.345 50.6155 11.2697C50.6168 11.267 50.8507 10.7279 50.8507 10.7279C50.9406 10.5231 51.3171 10.3223 51.5365 10.243C51.547 10.239 56.2259 8.86086 59.368 7.93461C59.3693 7.93461 59.3693 7.93461 59.3707 7.93461C60.9589 7.46685 62.1547 7.11406 62.1547 7.11406C63.0691 6.82997 63.4708 6.56306 63.6465 6.37543C63.6663 6.35561 63.6848 6.33447 63.7007 6.31201C63.7324 6.27105 63.7509 6.23537 63.7641 6.2063C63.7773 6.1812 64.2728 5.26948 64.2728 5.26948C64.2755 5.26287 64.2794 5.25626 64.2834 5.24966C64.29 5.2338 64.4591 4.84929 64.8251 4.84929C64.8264 4.84929 64.8291 4.84929 64.8304 4.84929C64.8317 4.84929 64.8331 4.84929 64.8344 4.84929C65.4726 4.84268 65.8663 4.24412 65.8822 4.21769C65.8848 4.21373 65.8875 4.20977 65.8901 4.2058C65.8901 4.2058 66.527 3.07078 66.5323 3.06153C66.6354 2.89108 66.7992 2.83426 66.8494 2.81972C67.4229 2.81312 67.6012 2.61227 67.6422 2.55017C67.6435 2.54753 68.3769 1.39929 68.3769 1.39929C68.3861 1.38476 68.394 1.3689 68.3993 1.35172C68.4456 1.22091 68.4628 1.10728 68.4628 1.00685C68.4667 0.827152 68.4086 0.695019 68.3478 0.60649ZM38.6072 1.25262C38.9865 0.866793 39.548 0.671236 40.2761 0.671236C40.2761 0.671236 46.382 0.671236 52.8116 0.671236C52.1086 1.19713 51.6699 2.03221 51.5153 2.36518H48.4195C48.4195 2.36518 38.5557 2.36518 38.0893 2.36518C38.1263 2.09299 38.2425 1.62392 38.6072 1.25262ZM48.6467 5.28269V4.73302L49.7487 4.87968C49.6007 5.06203 49.4501 5.24041 49.2968 5.41614L48.6467 5.28269ZM48.948 5.80858C48.8489 5.91825 48.7471 6.02528 48.6454 6.13231V5.74516L48.948 5.80858ZM48.6467 4.27583V3.76448L50.5124 3.89C50.3697 4.08556 50.2257 4.27848 50.0777 4.46743C49.4104 4.37758 48.907 4.31019 48.6467 4.27583ZM48.6467 3.30994V2.81972H51.2484C51.1084 3.0351 50.9657 3.24784 50.8216 3.45661L48.6467 3.30994ZM29.0051 0.671236C29.7345 0.671236 30.296 0.866793 30.6739 1.25262C31.0386 1.62392 31.1536 2.09299 31.1906 2.36518C30.7242 2.36518 20.8604 2.36518 20.8604 2.36518H17.7658C17.6099 2.03221 17.1712 1.19713 16.4683 0.671236C22.8992 0.671236 29.0051 0.671236 29.0051 0.671236ZM19.9844 5.41747C19.8311 5.24173 19.6805 5.06335 19.5325 4.881L20.6345 4.73434V5.28401L19.9844 5.41747ZM20.6345 5.74648V6.13363C20.5327 6.0266 20.4323 5.91825 20.3332 5.8099L20.6345 5.74648ZM19.2034 4.46743C19.0568 4.27848 18.9114 4.08556 18.7687 3.89L20.6345 3.76448V4.27583C20.3742 4.31019 19.8707 4.37758 19.2034 4.46743ZM18.4595 3.45528C18.3142 3.24651 18.1728 3.03378 18.0327 2.8184H20.6345V3.30862L18.4595 3.45528ZM2.45819 2.36518C2.14636 2.36518 2.02876 2.29912 2.00233 2.28194C1.92173 2.15509 1.39716 1.33455 1.29938 1.18127C1.27824 1.11653 1.26635 1.05706 1.26635 1.00685C1.26635 0.950036 1.27956 0.902468 1.30599 0.86415C1.40509 0.718803 1.68125 0.676521 1.77242 0.672557C1.77903 0.672557 8.45705 0.672557 15.1972 0.672557C16.2331 0.672557 16.9585 1.8023 17.2571 2.36651H2.45819V2.36518ZM4.44812 4.39475C4.0755 4.39211 3.80727 4.01817 3.77688 3.97457C3.76763 3.95871 3.13604 2.83294 3.13604 2.83294C3.13471 2.83162 3.13339 2.82897 3.13339 2.82765C3.13207 2.82501 3.12943 2.82237 3.12811 2.81972H17.4936C17.6377 3.04699 17.7843 3.27162 17.9336 3.49096L4.44812 4.39475ZM5.96237 6.06492C5.93726 6.03849 5.92933 6.02396 5.92801 6.02396L5.9333 6.03717C5.92933 6.02528 5.92273 6.00942 5.91876 6.00281C5.91876 6.00281 5.41534 5.07656 5.40741 5.06071C5.39023 5.02239 5.33738 4.91404 5.24224 4.79644L18.2362 3.92568C18.3829 4.13313 18.5322 4.33661 18.6842 4.53614C14.7506 5.06203 6.7882 6.1257 6.77895 6.1257C6.44069 6.16005 6.06015 6.12966 5.96237 6.06492ZM7.24935 6.67934C7.12514 6.64102 7.01283 6.6027 6.91109 6.56702L19.0066 4.95103C19.1612 5.14527 19.3171 5.33554 19.4756 5.52317L9.98186 7.48535L7.24935 6.67934ZM13.6961 8.57942L10.9068 7.75755L19.8192 5.91561C20.0531 6.17723 20.2909 6.43357 20.534 6.68066C19.3818 7.04799 14.7836 8.51731 14.7624 8.52392C14.5497 8.56752 13.9696 8.66002 13.6961 8.57942ZM17.7288 9.7673L14.9342 8.9441L20.8948 7.04006C21.2991 7.4325 21.7153 7.80644 22.1447 8.15923C20.5248 8.91768 18.918 9.67084 18.9048 9.67612C18.8163 9.70519 18.1715 9.89811 17.7288 9.7673ZM29.231 11.3899C29.0527 11.3384 28.8716 11.2842 28.6893 11.226C28.1859 11.0662 27.6904 10.8838 27.2028 10.6817C28.5506 9.26651 30.3106 7.41928 30.6713 7.04006C31.0571 7.04006 31.4258 7.04006 31.772 7.04006L29.231 11.3899ZM32.2979 7.04006C32.6084 7.04006 32.8938 7.04006 33.1475 7.04006C32.9229 7.86986 32.2609 10.3262 31.8275 11.9303C31.1893 11.8444 30.4665 11.7136 29.6856 11.5115C30.2194 10.5971 31.9398 7.65184 32.2979 7.04006ZM26.7588 10.4914C26.2065 10.2456 25.6661 9.9721 25.1389 9.67348L28.8148 7.04138C29.2337 7.04138 29.6459 7.04138 30.045 7.04138L26.7588 10.4914ZM24.7108 9.4211C24.2034 9.11455 23.7079 8.78422 23.2269 8.4301C23.1516 8.37461 23.0763 8.31779 23.001 8.26097L25.6053 7.04138C26.3915 7.04138 27.216 7.04138 28.0352 7.04138C27.3045 7.56463 25.9832 8.50938 24.7108 9.4211ZM22.6019 7.9465C22.2438 7.65845 21.895 7.35718 21.5541 7.04138C22.2121 7.04138 23.2837 7.04138 24.5364 7.04138C24.0131 7.28583 23.3207 7.60956 22.6019 7.9465ZM20.5393 12.0307C19.3554 11.6053 19.0819 11.0966 19.074 11.082C19.07 11.0715 18.8414 10.5482 18.8414 10.5482C18.7859 10.4227 18.6947 10.3117 18.589 10.2179C18.852 10.1716 19.0436 10.1095 19.0607 10.1029C19.0687 10.1003 19.0766 10.0963 19.0845 10.0937L22.5398 8.47635C22.6812 8.58734 22.8252 8.69701 22.9692 8.80272C23.4053 9.1238 23.8519 9.42639 24.3091 9.70783C22.7697 10.8098 21.4048 11.7876 21.3942 11.7942C21.1458 11.9316 20.7098 12.0994 20.5393 12.0307ZM23.7885 12.9451L21.4167 12.2924C21.5158 12.2474 21.5898 12.2065 21.6255 12.1867C21.6334 12.1827 21.64 12.1787 21.6466 12.1734L24.7332 9.96285C25.2842 10.2839 25.8484 10.576 26.4272 10.8402L25.2618 12.0638C25.2591 12.0664 25.2565 12.0691 25.2538 12.0717C25.0226 12.3386 24.2562 13.0733 23.7885 12.9451ZM27.2636 13.9017L24.6407 13.1803C25.123 12.9015 25.5168 12.4615 25.5934 12.3743C25.5947 12.373 26.1378 11.8035 26.8685 11.0345C27.4261 11.271 27.993 11.4824 28.5717 11.6661C28.7184 11.7123 28.8637 11.7559 29.0064 11.7982C28.5109 12.7218 27.7208 13.8634 27.2636 13.9017ZM30.3317 14.7461L27.8952 14.0762C28.1687 13.8568 28.4647 13.5106 28.7897 13.031C29.0936 12.5831 29.3381 12.1417 29.4544 11.9224C30.2775 12.1417 31.0373 12.2844 31.7072 12.3769C31.5434 12.9861 31.4337 13.3917 31.4324 13.3957C31.0981 14.3735 30.8351 14.8518 30.3317 14.7461ZM32.0323 14.3959C31.7839 14.643 31.509 14.7633 31.254 14.8135C31.5473 14.4607 31.7257 13.9414 31.8645 13.5357C31.8658 13.5305 31.8671 13.5265 31.8684 13.5212L32.1618 12.4324C32.8753 12.513 33.4659 12.5342 33.894 12.5342C33.31 13.1182 32.0323 14.3959 32.0323 14.3959ZM34.4133 12.0677C34.0698 12.0836 33.3126 12.0968 32.282 11.9858L33.6166 7.04006C34.0685 7.04006 34.3539 7.04006 34.4133 7.04006C34.4133 7.43382 34.4133 11.5907 34.4133 12.0677ZM21.0877 6.58685C21.0877 6.20366 21.0877 3.20291 21.0877 2.81972C21.5303 2.81972 47.7495 2.81972 48.1922 2.81972C48.1922 3.20291 48.1922 6.20366 48.1922 6.58685C47.7509 6.58685 21.5303 6.58685 21.0877 6.58685ZM37.5092 7.04006C37.8554 7.04006 38.224 7.04006 38.6099 7.04006C38.9706 7.41928 40.7306 9.26651 42.0784 10.6817C41.5921 10.8838 41.0966 11.0662 40.5919 11.226C40.4095 11.2842 40.2285 11.3384 40.0501 11.3899L37.5092 7.04006ZM39.5956 11.5128C38.8147 11.7136 38.0919 11.8457 37.4537 11.9316C37.0216 10.3275 36.3583 7.87118 36.1337 7.04138C36.3874 7.04138 36.6728 7.04138 36.982 7.04138C37.3401 7.65184 39.0618 10.5971 39.5956 11.5128ZM39.2362 7.04006C39.6352 7.04006 40.0488 7.04006 40.4677 7.04006L44.1436 9.67216C43.6164 9.9721 43.076 10.2443 42.5237 10.4901L39.2362 7.04006ZM41.2459 7.04006C42.0638 7.04006 42.8897 7.04006 43.6745 7.04006L46.2789 8.25965C46.2036 8.31647 46.1283 8.37329 46.0529 8.42879C45.5733 8.78422 45.0778 9.11456 44.5691 9.41978C43.298 8.50939 41.9766 7.56463 41.2459 7.04006ZM44.7448 7.04006C45.9974 7.04006 47.069 7.04006 47.7271 7.04006C47.3862 7.35586 47.0373 7.65845 46.6793 7.94518C45.9604 7.60956 45.2681 7.28583 44.7448 7.04006ZM34.8679 12.0677V7.04006C34.926 7.04006 35.214 7.04006 35.6659 7.04006L36.9992 11.9858C35.9672 12.0968 35.2101 12.0836 34.8679 12.0677ZM37.2489 14.3959C37.2489 14.3959 35.9751 13.1222 35.3871 12.5355C35.8153 12.5355 36.4046 12.5143 37.1194 12.4337L37.4127 13.5225C37.4141 13.5278 37.4154 13.5318 37.4167 13.5371C37.5555 13.9427 37.7325 14.462 38.0258 14.8148C37.7721 14.7633 37.4973 14.6443 37.2489 14.3959ZM38.9495 14.7461C38.4473 14.8518 38.1844 14.3735 37.8501 13.3957C37.8488 13.3917 37.7391 12.9861 37.5753 12.3769C38.2452 12.2844 39.005 12.1417 39.8281 11.9224C39.9444 12.1417 40.1902 12.5831 40.4928 13.031C40.8178 13.5106 41.1138 13.8568 41.386 14.0762C40.0607 14.4395 39.0499 14.717 38.9495 14.7461ZM42.0176 13.9017C41.5617 13.8634 40.7703 12.7231 40.2734 11.7982C40.4175 11.7559 40.5615 11.7123 40.7082 11.6661C41.2869 11.4824 41.8551 11.271 42.4113 11.0345C43.1434 11.8021 43.6851 12.3716 43.6864 12.3743C43.7631 12.4628 44.1568 12.9028 44.6391 13.1803C43.771 13.4181 42.8553 13.6705 42.0176 13.9017ZM45.494 12.9451C45.0249 13.0746 44.2586 12.3399 44.0273 12.0717C44.0247 12.0691 44.0221 12.0664 44.0207 12.0638L42.8553 10.8402C43.4327 10.5773 43.9983 10.2839 44.5493 9.96285L47.6372 12.1734C47.6438 12.1787 47.6518 12.1827 47.6584 12.1867C47.694 12.2065 47.768 12.2474 47.8671 12.2924C47.3531 12.4324 46.489 12.6703 45.494 12.9451ZM50.4398 10.5482C50.4398 10.5482 50.2297 11.0292 50.2072 11.0833C50.1993 11.0979 49.9258 11.6066 48.7392 12.0334C48.5661 12.0981 48.1327 11.933 47.887 11.7969C47.8764 11.7889 46.5114 10.8125 44.9721 9.71048C45.4293 9.42771 45.8759 9.12645 46.3119 8.80537C46.4559 8.69834 46.6 8.58999 46.7414 8.479L50.1966 10.0963C50.2046 10.1003 50.2125 10.1029 50.2218 10.1056C50.2376 10.1108 50.4305 10.1743 50.6935 10.2192C50.5864 10.313 50.4953 10.4227 50.4398 10.5482ZM51.551 9.7673C51.1097 9.89811 50.4649 9.70387 50.3763 9.67612C50.3631 9.66952 48.7564 8.91768 47.1351 8.15923C47.5645 7.80644 47.9808 7.4325 48.3851 7.04006L54.3456 8.9441C53.015 9.33654 51.9329 9.65498 51.551 9.7673ZM55.585 8.57942C55.3115 8.66002 54.7315 8.56752 54.5201 8.52392C54.4989 8.51731 49.9007 7.04931 48.7485 6.68066C48.9916 6.43225 49.2308 6.17723 49.4646 5.91561L58.3757 7.75755C57.4759 8.02181 56.5073 8.30722 55.585 8.57942ZM62.0279 6.68066C62.0292 6.68066 60.8611 7.02421 59.2993 7.48535L49.8042 5.52317C49.9628 5.33554 50.12 5.14527 50.2746 4.95103L62.3688 6.56702C62.2657 6.60402 62.1534 6.64102 62.0279 6.68066ZM63.8738 5.06071C63.8645 5.07656 63.3624 6.00281 63.3624 6.00281C63.3584 6.00942 63.3518 6.02528 63.3479 6.03717L63.3532 6.02396C63.3532 6.02396 63.3439 6.03981 63.3188 6.06492C63.2197 6.12966 62.8392 6.16005 62.5009 6.12702C62.4917 6.1257 54.5293 5.06203 50.5957 4.53746C50.7476 4.33661 50.8969 4.13313 51.0449 3.927L64.0376 4.79776C63.9438 4.91404 63.8909 5.02239 63.8738 5.06071ZM66.1465 2.82765C66.1451 2.82897 66.1438 2.83162 66.1438 2.83294C66.1438 2.83294 65.5122 3.95871 65.503 3.97457C65.4739 4.01685 65.2043 4.39211 64.8317 4.39475L51.3462 3.49096C51.4955 3.2703 51.6422 3.04699 51.7862 2.81972H66.1517C66.1504 2.82237 66.1491 2.82501 66.1465 2.82765ZM67.9805 1.17995C67.9488 1.23016 67.3013 2.24362 67.2775 2.28062C67.2511 2.29912 67.1348 2.36386 66.8217 2.36386H52.0227C52.3213 1.79965 53.0468 0.669915 54.0814 0.669915C60.8215 0.669915 67.5008 0.669915 67.5061 0.669915C67.5973 0.673879 67.8748 0.717483 67.9725 0.861508C67.999 0.899827 68.0122 0.947395 68.0122 1.00421C68.0135 1.05707 68.0016 1.1152 67.9805 1.17995Z" fill="white"/>
<path d="M23.9171 5.97123C23.8497 5.96726 23.7928 5.96065 23.7321 5.96065C23.6647 5.96065 23.6039 5.96726 23.5431 5.97123C23.44 5.67525 23.3119 5.33434 23.1692 5.01062H22.2654C22.1412 5.32377 22.013 5.63693 21.9126 5.97123C21.8624 5.96726 21.8241 5.96065 21.7805 5.96065C21.7342 5.96065 21.6946 5.96726 21.6562 5.97123L22.7662 3.48315H22.8481L23.9171 5.97123ZM22.7212 3.94958L22.3328 4.8613H23.1163L22.7212 3.94958Z" fill="white"/>
<path d="M24.2372 5.49148C24.3759 5.71875 24.5371 5.86145 24.8146 5.86145C25.1027 5.86145 25.3088 5.62229 25.3088 5.34217C25.3088 4.68018 24.1949 4.9722 24.1949 4.1675C24.1949 3.70768 24.5583 3.48438 24.9851 3.48438C25.1555 3.48438 25.363 3.53723 25.4938 3.65483C25.4515 3.74732 25.4264 3.84642 25.3973 3.94684H25.3617C25.2863 3.75393 25.1304 3.63765 24.9203 3.63765C24.6746 3.63765 24.4711 3.80149 24.4711 4.05387C24.4711 4.70925 25.5929 4.44631 25.5929 5.20343C25.5929 5.71347 25.1978 6.01473 24.7129 6.01473C24.5385 6.01473 24.2544 5.94074 24.1328 5.8086C24.1685 5.70554 24.1857 5.59851 24.2002 5.49148H24.2372Z" fill="white"/>
<path d="M26.9189 5.97903C26.8621 5.97639 26.8119 5.96846 26.7617 5.96846C26.7088 5.96846 26.656 5.97639 26.6044 5.97903V3.70766C26.245 3.70766 26.0283 3.7288 25.8262 3.74995C25.8288 3.71427 25.8354 3.67859 25.8354 3.64292C25.8354 3.60724 25.8288 3.57553 25.8262 3.53589H27.6615C27.6589 3.57553 27.6509 3.60724 27.6509 3.64292C27.6509 3.67859 27.6575 3.71427 27.6615 3.74995C27.4844 3.7288 27.2347 3.70766 26.9176 3.70766V5.97903H26.9189Z" fill="white"/>
<path d="M27.752 4.75428C27.752 3.97469 28.332 3.48315 29.0693 3.48315C29.7392 3.48315 30.4184 3.8452 30.4184 4.7001C30.4184 5.4929 29.8568 6.01351 29.0627 6.01351C28.2765 6.01483 27.752 5.51536 27.752 4.75428ZM29.8463 3.94562C29.6679 3.72099 29.3904 3.59943 29.105 3.59943C28.4787 3.59943 28.1008 4.07379 28.1008 4.79524C28.1008 5.51801 28.5434 5.89591 29.0733 5.89591C29.8251 5.89591 30.0947 5.12029 30.0709 4.72785C30.0709 4.43451 30.0313 4.18478 29.8463 3.94562Z" fill="white"/>
<path d="M32.9891 5.97111H32.882C32.8437 5.92222 32.7724 5.83633 32.6971 5.75441L31.159 4.05253H31.1234V5.97111C31.0877 5.96714 31.056 5.96054 31.0243 5.96054C30.9886 5.96054 30.9569 5.96714 30.9238 5.97111V3.53589H31.0626L32.7539 5.36858H32.7895V3.53589C32.8213 3.53853 32.8543 3.54646 32.89 3.54646C32.9217 3.54646 32.9534 3.53853 32.9904 3.53589V5.97111H32.9891Z" fill="white"/>
<path d="M37.0253 3.53735C37.1178 4.41604 37.2169 5.29208 37.3134 5.97257C37.2499 5.96861 37.1997 5.962 37.1469 5.962C37.09 5.962 37.0319 5.96861 36.9791 5.97257C36.9183 5.25773 36.8482 4.48871 36.798 4.13592C36.3844 4.87322 36.0792 5.44272 35.8652 5.93425H35.8269L35.63 5.53125C35.4014 5.06085 35.153 4.59838 34.9112 4.13592C34.8332 4.82962 34.7368 5.53521 34.7368 5.97257C34.6918 5.96861 34.6522 5.962 34.6125 5.962C34.565 5.962 34.5267 5.96861 34.4844 5.97257C34.5769 5.39911 34.7909 3.91129 34.8266 3.53735H34.9191C35.2032 4.10288 35.5454 4.7728 35.926 5.40308C36.2642 4.79394 36.5919 4.17424 36.95 3.53735H37.0253Z" fill="white"/>
<path d="M39.8083 5.97123C39.7409 5.96726 39.6841 5.96065 39.6233 5.96065C39.5559 5.96065 39.4952 5.96726 39.4344 5.97123C39.3313 5.67525 39.2031 5.33434 39.0618 5.01062H38.1566C38.0324 5.32377 37.9043 5.63693 37.8052 5.97123C37.755 5.96726 37.7153 5.96065 37.673 5.96065C37.6268 5.96065 37.5871 5.96726 37.5488 5.97123L38.6588 3.48315H38.7407L39.8083 5.97123ZM38.6125 3.94958L38.224 4.8613H39.0063L38.6125 3.94958Z" fill="white"/>
<path d="M40.1875 3.53735H40.942C41.4903 3.53735 41.7321 3.71837 41.7321 4.0791C41.7321 4.49135 41.3622 4.69088 41.0028 4.75562L41.7361 5.68452L41.9066 5.88404L41.9753 5.97257C41.9013 5.96861 41.8365 5.962 41.7691 5.962C41.7017 5.962 41.6304 5.96861 41.567 5.97257C41.4877 5.8629 41.4163 5.76248 41.3423 5.66338L40.9235 5.11899L40.6381 4.78469H40.5033V5.97389C40.4465 5.96993 40.3963 5.96332 40.3461 5.96332C40.2932 5.96332 40.2404 5.96993 40.1901 5.97389V3.53735H40.1875ZM40.5007 4.64727C40.5495 4.65124 40.7781 4.66577 40.9605 4.62877C41.2195 4.57592 41.415 4.39754 41.415 4.12006C41.415 3.87429 41.2908 3.71441 41.0239 3.67213C40.8931 3.65099 40.65 3.66156 40.5007 3.66816V4.64727Z" fill="white"/>
<path d="M43.0732 5.97903C43.0164 5.97639 42.9662 5.96846 42.916 5.96846C42.8618 5.96846 42.8089 5.97639 42.7601 5.97903V3.70766C42.4007 3.70766 42.1826 3.7288 41.9805 3.74995C41.9831 3.71427 41.991 3.67859 41.991 3.64292C41.991 3.60724 41.9831 3.57553 41.9805 3.53589H43.8171C43.8132 3.57553 43.8066 3.60724 43.8066 3.64292C43.8066 3.67859 43.8132 3.71427 43.8171 3.74995C43.6387 3.7288 43.3903 3.70766 43.0732 3.70766V5.97903Z" fill="white"/>
<path d="M44.2266 3.53735C44.2755 3.54 44.3296 3.54792 44.3825 3.54792C44.4327 3.54792 44.4816 3.54 44.5384 3.53735V5.97257C44.4816 5.96861 44.4314 5.962 44.3825 5.962C44.3296 5.962 44.2755 5.96861 44.2266 5.97257V3.53735Z" fill="white"/>
<path d="M47.3003 5.97111H47.1932C47.1549 5.92222 47.0836 5.83633 47.0082 5.75441L45.4702 4.05253H45.4359V5.97111C45.4002 5.96714 45.3685 5.96054 45.3354 5.96054C45.2998 5.96054 45.268 5.96714 45.2363 5.97111V3.53589H45.3751L47.0664 5.36858H47.1007V3.53589C47.1324 3.53853 47.1655 3.54646 47.2012 3.54646C47.2329 3.54646 47.2646 3.53853 47.3016 3.53589V5.97111H47.3003Z" fill="white"/>
</svg>
