<svg width="55" height="55" viewBox="0 0 55 55" fill="none" xmlns="http://www.w3.org/2000/svg">
<path d="M26.1482 54.8969C25.885 54.8715 25.6218 54.8366 25.357 54.8208C24.0203 54.7447 22.6995 54.5592 21.3914 54.2769C17.6161 53.4651 14.1674 51.9176 11.0739 49.6073C6.98306 46.5535 3.95616 42.6672 2.04551 37.9246C1.3082 36.0933 0.791298 34.2001 0.480521 32.2482C0.33306 31.3174 0.22841 30.3835 0.179257 29.4433C0.168157 29.2308 0.128518 29.0199 0.101562 28.8074C0.101562 28.2176 0.101562 27.6293 0.101562 27.0395C0.126932 26.835 0.166571 26.6304 0.177671 26.4243C0.355258 23.177 1.10049 20.066 2.41178 17.0914C3.9514 13.5968 6.14111 10.5635 8.96348 7.99485C11.8524 5.36751 15.1584 3.44893 18.8782 2.25339C20.3164 1.7904 21.7846 1.46218 23.2799 1.24495C25.0066 0.994425 26.7428 0.938929 28.4822 1.01187C29.7095 1.06261 30.9272 1.22117 32.137 1.44791C34.7596 1.93944 37.249 2.81469 39.61 4.05305C41.5349 5.06149 43.3044 6.29509 44.9312 7.73481C47.0131 9.57728 48.7747 11.6877 50.2081 14.0693C51.6367 16.4429 52.669 18.9815 53.3064 21.6786C53.587 22.8614 53.7789 24.0586 53.9041 25.2668C54.0215 26.3989 54.0183 27.5342 54.0024 28.6695C53.9596 31.6282 53.3936 34.4886 52.3756 37.2619C51.1801 40.5171 49.4042 43.4251 47.0781 45.9953C44.7965 48.5149 42.1422 50.546 39.0978 52.065C37.1554 53.0354 35.1243 53.7553 33.0059 54.2278C31.8342 54.4894 30.6513 54.6797 29.4542 54.7716C29.0324 54.8049 28.6091 54.8319 28.1857 54.8636C28.1366 54.8668 28.089 54.8842 28.0414 54.8953C27.4135 54.8969 26.7809 54.8969 26.1482 54.8969ZM26.8459 53.944C41.1258 54.0597 52.7704 42.6561 53.0955 28.5458C53.4316 13.9329 41.8124 2.19631 27.6498 1.9109C13.0194 1.61598 1.3526 13.2654 1.07036 27.3519C0.773856 42.109 12.5882 53.8377 26.8459 53.944Z" fill="white"/>
<path d="M26.9062 2.98434C40.5757 2.88286 51.9682 13.8631 52.0237 27.883C52.076 41.3765 41.2971 52.5439 27.6657 52.8626C13.6855 53.1892 2.22477 42.0123 2.13915 28.0368C2.05511 14.4324 13.0259 3.09692 26.9062 2.98434ZM27.0822 43.8595C35.876 43.8627 43.0064 36.7465 43.0159 27.9528C43.0254 19.1368 35.8997 11.9969 27.0902 11.9937C18.3043 11.9905 11.1612 19.121 11.1501 27.902C11.1406 36.7116 18.2726 43.8548 27.0822 43.8595ZM44.508 12.2997C43.2189 12.8484 41.9456 13.389 40.6724 13.9313C40.6676 13.9329 40.6597 13.9266 40.6534 13.9234C40.6486 13.9202 40.647 13.9139 40.6359 13.8964C41.4684 12.8071 42.304 11.7131 43.1428 10.6158C42.7987 10.1909 42.4673 9.78181 42.1264 9.36004C40.7406 11.1423 39.377 12.8975 38.007 14.6591C38.4177 15.1633 38.8157 15.6501 39.2121 16.1353C40.5138 15.601 41.7903 15.0761 43.0651 14.5513C43.073 14.564 43.0809 14.5767 43.0889 14.5878C42.3072 15.7294 41.527 16.871 40.7406 18.0206C41.1449 18.5248 41.5381 19.0148 41.9345 19.5079C43.9546 18.5264 45.9525 17.556 47.9725 16.5761C47.6237 16.1464 47.2955 15.7421 46.9561 15.3266C45.6956 15.9244 44.4477 16.5158 43.1999 17.1073C43.1903 17.0962 43.1808 17.0867 43.1713 17.0756C43.9768 15.9355 44.7823 14.7939 45.5941 13.6443C45.2342 13.1972 44.8774 12.7564 44.508 12.2997ZM11.9144 19.3699C11.9572 19.3224 11.9826 19.297 12.0063 19.27C13.0956 17.9714 14.1865 16.676 15.2743 15.3758C15.4994 15.1063 15.7008 14.8161 15.8229 14.4799C15.9228 14.2056 15.9672 13.925 15.9069 13.6348C15.6849 12.5629 14.5179 11.962 13.5158 12.4012C13.4492 12.4298 13.3826 12.4599 13.2923 12.4995C13.3097 12.4171 13.3224 12.3695 13.3287 12.3204C13.3668 12.0397 13.3811 11.7591 13.2447 11.499C13.1686 11.3531 13.0782 11.2136 12.9847 11.0772C12.8134 10.8315 12.5867 10.6428 12.333 10.489C11.935 10.2496 11.5275 10.2733 11.1184 10.4684C10.7077 10.665 10.3874 10.971 10.0989 11.3151C9.06822 12.5408 8.03917 13.768 7.0117 14.9953C6.97206 15.0428 6.93718 15.0967 6.89437 15.1554C8.56876 16.5634 10.2352 17.9619 11.9144 19.3699ZM28.9834 4.36381C28.3951 5.90026 27.8084 7.43353 27.2027 9.01913C26.8904 8.20255 26.597 7.43353 26.3021 6.6661C26.0072 5.89709 25.7123 5.12649 25.4221 4.36698C25.0289 4.32417 23.6034 4.34161 23.4528 4.3876C23.4084 4.78875 23.4274 10.7522 23.4734 10.9012C23.8952 10.9012 24.3154 10.9012 24.7593 10.9012C24.7593 10.646 24.7593 10.4034 24.7593 10.1608C24.7593 9.90865 24.7593 9.65813 24.7593 9.40602C24.7593 9.16184 24.7593 8.91766 24.7593 8.67347C24.7593 8.42929 24.7593 8.18511 24.7593 7.94093C24.7593 7.68882 24.7561 7.43829 24.7609 7.18618C24.7657 6.94993 24.7387 6.71209 24.8101 6.47425C25.3682 7.9552 25.9279 9.43456 26.4829 10.9044C26.9776 10.9044 27.4437 10.9044 27.9226 10.9044C28.4823 9.42346 29.0404 7.94568 29.5986 6.46632C29.616 6.46949 29.6335 6.47266 29.6509 6.47583C29.6509 7.94885 29.6509 9.42188 29.6509 10.8917C29.968 10.933 30.8068 10.9203 30.9574 10.8759C30.9574 8.70994 30.9574 6.54401 30.9574 4.36223C30.3026 4.36381 29.6588 4.36381 28.9834 4.36381Z" fill="white"/>
<path d="M27.0904 27.9575C26.9921 27.948 26.8937 27.9305 26.7939 27.9305C22.0307 27.9289 17.2676 27.9289 12.5044 27.9289C12.4045 27.9289 12.3062 27.9289 12.2095 27.9289C12.0842 26.8761 12.4061 24.2932 13.3289 22.151C14.6196 19.1526 16.6555 16.8012 19.4509 15.122C21.7865 13.7188 24.3282 13.0322 27.0872 13.0227C27.0872 13.1226 27.0872 13.2051 27.0872 13.2891C27.0872 14.7542 27.0872 16.2209 27.0872 17.686C27.0872 21.0125 27.0872 24.3375 27.0872 27.6641C27.0872 27.764 27.084 27.8655 27.0824 27.9654L27.0904 27.9575Z" fill="white"/>
<path d="M27.0859 27.9638C27.1842 27.9527 27.281 27.9305 27.3793 27.9305C31.4828 27.929 35.5863 27.929 39.6899 27.929C40.3733 27.929 41.0551 27.929 41.7385 27.929C41.8162 27.929 41.8923 27.9353 41.9684 27.9385C42.1571 35.6096 35.6402 42.8606 27.1018 42.8193C27.0986 42.7448 27.0923 42.6703 27.0923 42.5942C27.0923 41.8616 27.0923 41.1275 27.0923 40.3949C27.0923 36.2486 27.0923 32.1023 27.0923 27.9559C27.0907 27.9575 27.0859 27.9638 27.0859 27.9638Z" fill="white"/>
<path d="M12.1643 17.3341C11.7377 16.9773 11.3302 16.638 10.918 16.2923C10.9497 16.2464 10.9703 16.2115 10.9972 16.1798C11.6236 15.4314 12.2499 14.6814 12.8778 13.9346C13.1188 13.6491 13.4565 13.5572 13.7863 13.6824C14.113 13.8061 14.3476 14.1581 14.3365 14.507C14.3302 14.7036 14.243 14.8621 14.1193 15.0096C13.5358 15.7009 12.9555 16.3938 12.3736 17.0867C12.3101 17.1628 12.2451 17.2389 12.1643 17.3341Z" fill="white"/>
<path d="M8.87891 14.5576C8.9122 14.5148 8.94392 14.4688 8.98038 14.426C9.55754 13.7395 10.1379 13.0561 10.7087 12.3632C10.9164 12.1111 11.1653 12.0302 11.4714 12.1126C11.8012 12.2014 12.0327 12.3949 12.104 12.7421C12.1516 12.972 12.066 13.1639 11.9201 13.3367C11.5919 13.7268 11.2637 14.1168 10.937 14.5069C10.6516 14.8478 10.3646 15.1871 10.0808 15.5264C9.93809 15.4805 9.14053 14.8351 8.87891 14.5576Z" fill="white"/>
</svg>
