<svg width="64" height="6" viewBox="0 0 64 6" fill="none" xmlns="http://www.w3.org/2000/svg">
<path fill-rule="evenodd" clip-rule="evenodd" d="M55.8852 0.30127H42.6309V1.43101H45.5206V5.60378H46.6834V1.43101H51.649V5.60378H52.7787V1.43101H55.8852V0.30127Z" fill="white"/>
<path fill-rule="evenodd" clip-rule="evenodd" d="M15.5007 0.276123H9.69869C8.76451 0.276123 8.39453 0.644775 8.39453 1.36226V4.51232C8.39453 5.2298 8.78565 5.59845 9.71983 5.59845H15.4993C16.4335 5.59845 16.8035 5.22848 16.8035 4.51232V1.36226C16.8048 0.646097 16.4348 0.276123 15.5007 0.276123ZM15.7002 4.29562C15.7002 4.44757 15.613 4.51232 15.4822 4.51232H9.74626C9.61544 4.51232 9.50709 4.44757 9.50709 4.29562V1.58028C9.50709 1.42833 9.61544 1.37415 9.74626 1.37415H15.4822C15.613 1.37415 15.7002 1.42833 15.7002 1.58028V4.29562Z" fill="white"/>
<path fill-rule="evenodd" clip-rule="evenodd" d="M25.8693 5.59977L22.6756 3.44864H23.697C25.6301 3.44864 25.6301 0.298584 23.697 0.298584H17.5039V5.59977H18.6125V1.36226H23.697C24.2189 1.36226 24.2189 2.38365 23.697 2.38365H20.8072C20.3725 2.38365 20.1994 2.86197 20.5905 3.14473L24.0022 5.59977H25.8693Z" fill="white"/>
<path fill-rule="evenodd" clip-rule="evenodd" d="M29.6659 4.77785L26.7973 0.30249H25.5156L28.9273 5.60368H30.3821L33.7938 0.30249H32.4896L29.6659 4.77785Z" fill="white"/>
<path fill-rule="evenodd" clip-rule="evenodd" d="M41.66 1.43223V0.30249H35.4247C34.6636 0.30249 34.2949 0.671141 34.2949 1.43223V4.4964C34.2949 5.32223 34.5988 5.605 35.4247 5.605H41.66V4.4964H35.4247V3.53976H41.66V2.38887H35.4247V1.43223H41.66Z" fill="white"/>
<path fill-rule="evenodd" clip-rule="evenodd" d="M56.5449 1.43223V4.4964C56.5449 5.32223 56.8488 5.605 57.6747 5.605H63.9114V4.4964H57.676V3.53976H63.9114V2.38887H57.676V1.43223H63.9114V0.30249H57.676C56.9149 0.30249 56.5449 0.671141 56.5449 1.43223Z" fill="white"/>
<path fill-rule="evenodd" clip-rule="evenodd" d="M1.55328 5.59978H7.59309V4.51364H1.83472C1.63916 4.51364 1.55195 4.36169 1.55195 4.12253V1.66749C1.55195 1.47193 1.6603 1.38472 1.83472 1.38472H7.59309V0.276123H1.55328C0.81465 0.276123 0.488281 0.602491 0.488281 1.427V4.44757C0.488281 5.29455 0.792188 5.59978 1.55328 5.59978Z" fill="white"/>
</svg>
