<svg width="50" height="52" viewBox="0 0 50 52" fill="none" xmlns="http://www.w3.org/2000/svg">
<path d="M22.5919 48.5996V50.6318C22.5919 50.6318 24.6703 50.6318 25.368 50.6318C26.9021 50.6318 27.4808 50.024 27.4808 49.1691C27.4808 48.6141 27.2073 47.7169 25.3878 47.7169C24.7496 47.7169 20.709 47.7169 20.709 47.7169V46.5674C20.709 46.5674 23.8828 46.5674 25.5926 46.5674C28.7017 46.5674 29.4245 47.8887 29.4245 49.1691C29.4245 50.715 28.382 51.7814 25.5887 51.7814C23.863 51.7814 20.709 51.7814 20.709 51.7814V48.5996H22.5919Z" fill="white"/>
<path d="M1.88681 48.5996V50.6318C1.88681 50.6318 3.96526 50.6318 4.66293 50.6318C6.19699 50.6318 6.77574 50.024 6.77574 49.1691C6.77574 48.6141 6.50222 47.7169 4.68275 47.7169C4.04983 47.7169 0.00390625 47.7169 0.00390625 47.7169V46.5674C0.00390625 46.5674 3.17775 46.5674 4.88755 46.5674C7.99665 46.5674 8.71942 47.8887 8.71942 49.1691C8.71942 50.715 7.67821 51.7814 4.88359 51.7814C3.16453 51.7814 0.00522686 51.7814 0.00522686 51.7814V48.5996H1.88681Z" fill="white"/>
<path d="M34.9994 48.593V49.7439H37.7597V50.6318C37.7597 50.6318 35.7116 50.6318 35.0139 50.6318C33.4548 50.6318 32.872 50.024 32.872 49.1691C32.872 48.2257 33.6596 47.7169 34.9109 47.7169C35.5438 47.7169 39.6452 47.7169 39.6452 47.7169V46.5674C39.6452 46.5674 36.5506 46.5674 34.8369 46.5674C32.3647 46.5674 30.9297 47.3496 30.9297 49.1691C30.9297 50.9582 32.3158 51.7814 34.7616 51.7814C36.4846 51.7814 39.6452 51.7814 39.6452 51.7814V48.593H34.9994Z" fill="white"/>
<path d="M43.8352 47.7115H49.7693V46.5659H41.832V51.7812H49.834V50.6317H43.8352V49.7437H49.4561V48.5994H43.8352V47.7115Z" fill="white"/>
<path d="M17.1447 49.1742C17.1447 48.281 16.2779 47.6283 14.6487 47.6283C13.0036 47.6283 12.1513 48.281 12.1513 49.1742C12.1513 50.0238 12.919 50.7188 14.6487 50.7188C16.4021 50.7188 17.1447 50.0225 17.1447 49.1742ZM14.6487 51.8644C11.4339 51.8644 10.209 50.8074 10.209 49.1742C10.209 47.545 11.4748 46.4893 14.6487 46.4893C17.8278 46.4893 19.0883 47.545 19.0883 49.1742C19.087 50.8074 17.8265 51.8644 14.6487 51.8644Z" fill="white"/>
<path d="M40.5951 0.652264C38.0343 0.393282 31.2783 0.0153809 24.9042 0.0153809C18.5314 0.0153809 11.7741 0.393282 9.21339 0.652264C6.29325 0.942957 4.93359 2.42549 4.93359 5.31921C4.93359 10.8146 5.13708 19.3703 5.51102 24.394C5.84531 28.8746 6.10958 32.4092 11.6856 35.8011C15.6774 38.2217 19.644 40.3002 24.8104 42.9706L24.9042 43.0182L24.9941 42.9706C30.1724 40.2949 34.1483 38.2098 38.1242 35.8011C43.7002 32.4092 43.9645 28.8733 44.2988 24.394C44.6727 19.3438 44.8775 10.7988 44.8775 5.31921C44.8762 2.42549 43.5152 0.942957 40.5951 0.652264ZM42.5123 24.2962C42.1846 28.6989 41.9904 31.3574 37.2561 34.23C33.3647 36.6005 29.8857 38.4199 24.9082 41.0018C19.8951 38.4028 16.4173 36.5793 12.555 34.23C7.82071 31.3574 7.62251 28.6976 7.2935 24.2962C6.91956 19.2302 6.71079 10.5874 6.71079 5.02852C6.71079 3.1879 7.25386 2.59594 9.14336 2.40964C11.7094 2.15065 18.4958 1.76747 24.9095 1.76747C31.318 1.76747 38.1043 2.15065 40.6717 2.40964C42.5559 2.59727 43.103 3.1879 43.103 5.02852C43.1016 10.5874 42.8929 19.2302 42.5123 24.2962Z" fill="white"/>
<path d="M24.6406 12.8589L24.0381 14.8871C21.8605 10.4329 19.2641 8.09941 16.1207 8.09941C12.7169 8.09941 11.052 10.3708 10.5645 11.0909C11.4365 8.89749 13.7436 6.97363 16.813 6.97363C21.0175 6.97363 23.3946 10.2915 24.6406 12.8589Z" fill="white"/>
<path d="M8.87308 17.4212C8.89819 24.8366 11.0559 28.3976 14.2747 28.3976C15.7652 28.3976 16.8354 27.4607 16.8354 25.9346C16.8354 24.6278 16.2673 23.6011 16.0387 23.1809C16.1285 23.6064 16.2025 24.0927 16.2025 24.6384C16.2025 25.9135 15.341 26.3284 14.6381 26.3284C12.4962 26.3284 10.353 22.1648 9.74912 17.4199C9.48089 17.4212 8.8678 17.4212 8.87308 17.4212Z" fill="white"/>
<path d="M33.0066 6.97363C36.0761 6.97363 38.3792 8.89749 39.2552 11.0909C38.761 10.3708 37.0962 8.09941 33.699 8.09941C30.5542 8.09941 27.9578 10.4329 25.7816 14.8871L25.1777 12.8589C26.4238 10.2915 28.8008 6.97363 33.0066 6.97363Z" fill="white"/>
<path d="M40.0674 17.4214C39.4649 22.1663 37.3217 26.3298 35.1798 26.3298C34.4729 26.3298 33.6114 25.9149 33.6114 24.6398C33.6114 24.0954 33.6907 23.6079 33.7752 23.1824C33.5453 23.6013 32.9824 24.6293 32.9824 25.9361C32.9824 27.4609 34.0487 28.399 35.5432 28.399C38.758 28.399 40.921 24.838 40.9461 17.4227C40.9501 17.4214 40.337 17.4214 40.0674 17.4214Z" fill="white"/>
<path d="M35.6972 11.0486C32.9409 11.0486 30.2559 13.2367 28.6505 18.3027L29.6878 19.0228L29.1896 21.5109L27.2459 22.3196L26.8918 24.7667L27.8379 23.6052L28.854 23.1797L28.5395 24.7614L26.7861 25.4881L26.1743 29.719L26.6025 31.0668L24.9085 31.7367L23.2146 31.0668L23.6427 29.719L23.0296 25.4881L21.2762 24.7614L20.9577 23.1797L21.9738 23.6052L22.9252 24.7667L22.5671 22.3196L20.6234 21.5109L20.1253 19.0228L21.1665 18.3027C19.5624 13.2367 16.8708 11.0486 14.1211 11.0486C10.7227 11.0486 9.31149 14.274 9.49647 16.9391H10.3131C10.9962 20.693 12.9095 23.8761 14.3444 23.8761C14.7884 23.8761 15.017 23.5444 15.017 23C15.017 21.6668 14.1106 20.2781 14.1106 17.7477C14.1106 16.5757 14.4898 15.845 15.3711 15.845C15.9697 15.845 16.4573 16.4779 16.7466 17.1611C16.2128 19.0585 16.2974 20.6401 17.8077 21.314C18.5555 21.6457 19.458 22.0447 19.458 22.0447C19.458 22.0447 20.4146 26.1091 20.4847 26.3998C20.5494 26.6694 20.7146 27.0328 20.8335 27.2561C21.0132 27.5613 22.2685 29.719 22.2685 29.719C22.2685 29.719 22.6966 31.8715 22.7917 32.3273C23.0362 33.5628 23.9175 33.5628 24.9098 33.5628C25.9008 33.5628 26.7835 33.5628 27.0279 32.3273C27.1178 31.8728 27.5459 29.719 27.5459 29.719C27.5459 29.719 28.8064 27.5613 28.9861 27.2561C29.1064 27.0341 29.2702 26.6694 29.3297 26.3998C29.3997 26.1091 30.3603 22.0447 30.3603 22.0447C30.3603 22.0447 31.2628 21.6457 32.0107 21.314C33.521 20.6401 33.6055 19.0585 33.0664 17.1611C33.3611 16.4766 33.8486 15.845 34.4472 15.845C35.3246 15.845 35.7025 16.5757 35.7025 17.7477C35.7025 20.2781 34.8 21.6681 34.8 23C34.8 23.5444 35.0299 23.8761 35.4673 23.8761C36.9075 23.8761 38.8208 20.693 39.504 16.9391H40.3219C40.5055 14.274 39.0957 11.0486 35.6972 11.0486ZM18.4009 20.5833C17.3293 20.1275 17.2197 18.8629 17.5791 17.1716L18.7498 19.0175L19.1832 20.9255C19.1832 20.9269 18.759 20.7392 18.4009 20.5833ZM31.4174 20.5833C31.0527 20.7392 30.6286 20.9255 30.6286 20.9255L31.0633 19.0175L32.2393 17.1716C32.5973 18.8629 32.4877 20.1275 31.4174 20.5833Z" fill="white"/>
</svg>
