<svg width="51" height="54" viewBox="0 0 51 54" fill="none" xmlns="http://www.w3.org/2000/svg">
<path d="M23.68 1.74652C23.8924 1.84959 24.1097 1.92411 24.3523 1.87813C24.5647 1.83849 24.6234 1.74652 24.4934 1.58479C24.3491 1.4072 24.3872 1.25499 24.4918 1.0885C24.579 0.950551 24.6615 0.807848 24.7614 0.644531C24.9707 0.837974 25.172 1.01398 25.3607 1.20266C25.5446 1.38659 25.7159 1.58321 25.9046 1.78616C26.1424 1.80836 26.4009 1.82105 26.6561 1.85751C27.116 1.92411 27.5171 2.12072 27.8263 2.47114C27.9373 2.5964 28.0515 2.63446 28.21 2.62653C28.6175 2.6075 29.025 2.59323 29.4325 2.5964C29.6117 2.59799 29.7925 2.63922 29.9685 2.68044C30.0335 2.69471 30.0858 2.75972 30.135 2.79619C30.089 2.94524 29.9986 3.00073 29.8844 3.03562C29.6609 3.1038 29.4405 3.18466 29.2153 3.24809C29.0504 3.29407 28.922 3.38603 28.7967 3.53349C28.8903 3.56203 28.9664 3.59058 29.0456 3.60802C29.3865 3.68254 29.6783 3.84903 29.9003 4.11699C30.0858 4.34215 30.303 4.48168 30.5979 4.51974C30.7026 4.53242 30.8009 4.60695 30.9008 4.65768C30.9468 4.68147 30.9832 4.72269 31.0276 4.74648C31.4256 4.96371 31.6587 5.32681 31.887 5.71687C31.8458 5.76285 31.8014 5.812 31.7602 5.85798C31.4875 5.77395 31.3099 5.58526 31.145 5.38389C31.0625 5.284 30.9722 5.23326 30.8358 5.23643C30.33 5.24911 29.8654 5.08897 29.4151 4.87491C29.2867 4.81307 29.1551 4.75599 29.0266 4.69574C29.0139 4.71159 29.0012 4.72587 28.9901 4.74172C29.0187 4.78453 29.0393 4.84003 29.0789 4.86698C29.4246 5.08897 29.7259 5.36011 29.9954 5.6693C30.0382 5.71845 30.1302 5.73906 30.2015 5.74699C30.3823 5.7676 30.5647 5.78029 30.747 5.78187C31.3083 5.7898 31.7285 6.07838 32.1011 6.45893C32.182 6.54138 32.1804 6.54296 32.155 6.74275C32.0583 6.69677 31.9568 6.67298 31.8855 6.61114C31.5636 6.33366 31.1957 6.2861 30.7898 6.34635C30.4648 6.3955 30.1365 6.41136 29.8131 6.26707C29.9161 6.46844 29.913 6.47795 30.0541 6.54772C30.4727 6.75702 30.8929 6.96315 31.3162 7.16135C31.4161 7.20892 31.5303 7.23111 31.6413 7.24855C31.7602 7.26758 31.803 7.33101 31.7967 7.45785C31.5176 7.63386 31.2195 7.60214 30.9373 7.47371C30.7105 7.37065 30.4774 7.34845 30.238 7.30564C29.9796 7.26124 29.737 7.12963 29.488 7.03291C29.3866 6.99327 29.2978 6.90448 29.1424 6.98217C29.2153 7.0567 29.2708 7.13122 29.3422 7.18513C29.6878 7.44517 29.9447 7.77973 30.1651 8.146C30.1698 8.15393 30.1762 8.16027 30.1793 8.1682C30.2872 8.52496 30.5694 8.74853 30.8136 9.00223C30.8723 9.06407 30.9468 9.13383 30.961 9.20994C31.0165 9.50962 31.2338 9.6555 31.4875 9.7982C31.4462 9.86162 31.4066 9.92505 31.3638 9.99164C31.0942 9.94725 30.8707 9.8315 30.6883 9.65708C30.3728 9.35423 30.0208 9.10688 29.6434 8.89124C29.4722 8.79293 29.32 8.65974 29.1582 8.5424C29.0916 8.49325 29.0234 8.4441 28.9426 8.4108C29.0964 8.61376 29.2756 8.78659 29.488 8.9277C29.7623 9.10846 30.0287 9.30032 30.2935 9.49535C30.3522 9.53816 30.3902 9.61268 30.4283 9.67928C30.4949 9.7982 30.5504 9.92505 30.617 10.044C30.7311 10.2469 30.8992 10.3595 31.1386 10.3754C31.3479 10.3896 31.5493 10.442 31.6841 10.6481C31.5303 10.8399 31.3226 10.8542 31.1038 10.8257C30.9674 10.8082 30.831 10.786 30.6963 10.7559C30.525 10.7178 30.3569 10.6576 30.2602 10.5006C30.1762 10.3643 30.0573 10.2961 29.9098 10.2549C29.6513 10.1835 29.3945 10.1058 29.1344 10.036C29.0552 10.0154 28.9664 9.97262 28.8823 10.0789C28.9029 10.1137 28.9172 10.1756 28.9505 10.1898C29.1963 10.2929 29.3374 10.5054 29.496 10.6972C29.5911 10.8146 29.6973 10.9034 29.84 10.9604C30.2729 11.1333 30.5979 11.4345 30.8469 11.823C30.8897 11.888 30.9309 11.9546 30.9753 12.018C31.0387 12.1084 31.0879 12.2147 31.2338 12.2004C31.2655 12.1972 31.302 12.2606 31.359 12.313C31.256 12.37 31.1751 12.416 31.0895 12.4636C30.839 12.3161 30.5567 12.2226 30.4648 11.8928C30.1984 11.8801 29.951 11.8151 29.7211 11.6851C29.6529 11.6454 29.5578 11.6534 29.4642 11.6359C29.4674 11.7754 29.5689 11.8119 29.6371 11.869C29.7211 11.9372 29.7655 12.0085 29.6894 12.1259C29.5578 12.1385 29.4325 12.1116 29.3104 12.0291C29.1519 11.9213 28.9711 11.8753 28.7666 11.8769C28.803 12.0165 28.8823 12.091 28.9949 12.1274C29.1344 12.1718 29.2756 12.2226 29.4198 12.2432C29.6862 12.2812 29.9209 12.3843 30.1175 12.5619C30.3141 12.7395 30.5456 12.8172 30.8057 12.8172C30.9468 12.8172 31.0816 12.833 31.191 12.9345C31.126 13.1438 31.0213 13.239 30.812 13.2453C30.5789 13.2532 30.3458 13.2548 30.1302 13.1327C29.9954 13.0566 29.848 13.0011 29.7084 12.9313C29.5086 12.833 29.2993 12.7886 29.0789 12.8124C29.0012 12.8204 28.9267 12.8552 28.8506 12.8774C28.8522 12.8949 28.8538 12.9139 28.8554 12.9313C28.9553 12.9472 29.0552 12.971 29.1551 12.9773C29.5435 13.0011 29.8638 13.1628 30.1524 13.4213C30.303 13.5561 30.4933 13.6465 30.6709 13.7606C30.636 13.8288 30.5567 13.8684 30.4521 13.8668C30.2507 13.8653 30.0573 13.8415 29.8844 13.7194C29.8384 13.6861 29.7766 13.6528 29.7227 13.6544C29.1994 13.6718 28.6762 13.6972 28.0959 13.7226C28.21 13.7876 28.2782 13.8415 28.3559 13.8684C28.5684 13.9398 28.7824 14.0222 29.0028 14.0587C29.2867 14.1063 29.496 14.2553 29.6846 14.4519C29.7925 14.5645 29.9035 14.6739 30.0097 14.7865C30.154 14.9387 30.3379 14.9799 30.5329 14.9577C30.8326 14.9229 31.1355 14.8832 31.3812 14.6771C31.4066 14.6565 31.4415 14.6438 31.4748 14.6375C31.5065 14.6311 31.5398 14.639 31.5778 14.6406C31.6191 14.7643 31.5398 14.8293 31.4684 14.8848C31.0879 15.1829 30.6756 15.3637 30.1714 15.286C29.9114 15.2447 29.6704 15.1766 29.4309 15.0656C29.0948 14.907 28.7507 14.7659 28.3718 14.7247C28.2291 14.7088 28.0943 14.6375 27.9548 14.5931C27.9056 14.5772 27.8549 14.5709 27.7613 14.5534C27.8295 14.6961 27.9278 14.712 28.0087 14.7484C28.348 14.9007 28.6905 15.0465 29.025 15.2083C29.3279 15.3541 29.5578 15.5872 29.7576 15.8647C29.7227 15.917 29.691 15.9662 29.6545 16.0201C29.4452 15.982 29.293 15.8489 29.1218 15.7521C28.9648 15.6633 28.8046 15.5761 28.635 15.5143C28.5287 15.4746 28.4051 15.4826 28.2814 15.5159C28.3179 15.5317 28.3527 15.5555 28.3908 15.5634C28.8443 15.6649 29.155 15.9487 29.3802 16.3404C29.4103 16.3927 29.4468 16.4419 29.4769 16.4942C29.5594 16.6385 29.6609 16.7431 29.8495 16.6924C29.867 16.6876 29.8924 16.713 29.932 16.7336C29.9019 16.7891 29.8749 16.8383 29.8464 16.8953C29.6276 16.916 29.4389 16.8652 29.266 16.7273C28.914 16.4434 28.5446 16.1866 28.1228 16.0153C28.0515 15.9868 27.9706 15.9472 27.9008 15.9567C27.5615 16.0074 27.2999 15.8314 27.0303 15.6792C26.9622 15.6411 26.8987 15.5952 26.8147 15.5412C26.7814 15.5983 26.7354 15.6443 26.7275 15.6966C26.6942 15.9186 26.6815 16.1358 26.7402 16.3642C26.8432 16.7637 26.9955 17.13 27.2222 17.4757C27.5219 17.9323 27.7883 18.4064 28.1403 18.8298C28.4082 19.1517 28.6905 19.4497 29.0108 19.7177C29.6085 20.2203 30.2237 20.696 30.8707 21.1337C31.5398 21.5871 32.1709 22.1009 32.6989 22.7097C33.1444 23.2235 33.5963 23.7483 33.8833 24.3794C33.9547 24.5364 34.0117 24.6981 34.0879 24.8868C34.4018 24.8741 34.7221 24.8995 35.0456 24.733C35.7718 24.3604 36.3045 23.7895 36.7596 23.1394C36.888 22.9555 36.9403 22.7097 36.9911 22.4846C37.137 21.8519 37.1465 21.2145 37.0339 20.5739C36.9483 20.0872 36.8849 19.5972 36.785 19.1136C36.7199 18.8012 36.5963 18.5016 36.5138 18.1924C36.3711 17.6659 36.2062 17.1427 36.1158 16.6068C36.0588 16.2722 36.1127 15.917 36.1333 15.573C36.1555 15.194 36.2934 14.8483 36.4789 14.5217C36.6201 14.2743 36.7596 14.0222 36.9292 13.7939C37.3098 13.2786 37.8124 12.8933 38.3325 12.5318C38.4292 12.4652 38.5434 12.424 38.6306 12.3796C38.7495 12.4319 38.7416 12.5016 38.6972 12.5635C38.6528 12.6253 38.591 12.6777 38.5355 12.73C38.3515 12.9012 38.1565 13.0614 37.9853 13.2437C37.5159 13.7416 37.2384 14.3489 37.0846 15.0037C37.0117 15.3097 37.0323 15.6396 37.018 15.9583C37.0165 16.0042 37.0513 16.0518 37.0672 16.093C37.1909 16.1089 37.2226 16.0122 37.2781 15.9519C37.5793 15.6285 37.8774 15.3034 38.1787 14.9799C38.231 14.9229 38.2897 14.8674 38.3531 14.8246C38.6687 14.6105 38.8415 14.295 38.981 13.9541C39.0318 13.8288 39.0603 13.6845 39.2236 13.6068C39.3441 13.8906 39.3045 14.1713 39.184 14.425C39.0222 14.7675 38.8225 15.0941 38.629 15.4207C38.4974 15.6443 38.3452 15.8552 38.2041 16.074C37.8933 16.5608 37.8362 17.0888 37.9488 17.6453C37.9551 17.6786 37.9662 17.7119 37.9757 17.7452C38.0043 17.8435 38.082 17.8816 38.1724 17.8879C38.258 17.8943 38.3166 17.8419 38.3452 17.7595C38.4641 17.4154 38.6972 17.1459 38.9287 16.8763C39.0524 16.7336 39.1697 16.5846 39.2981 16.445C39.4139 16.3182 39.4837 16.1787 39.4615 16.0011C39.7643 16.0772 39.8468 16.1977 39.7564 16.4593C39.6961 16.6385 39.6216 16.8192 39.5169 16.9746C39.176 17.4804 38.943 18.0259 38.9065 18.6363C38.889 18.9439 38.9176 19.2579 38.962 19.5655C39.046 20.1474 39.157 20.7262 39.2553 21.3065C39.333 21.7631 39.287 22.2214 39.2712 22.6812C39.249 23.363 38.916 23.9148 38.564 24.4634C38.1724 25.0739 37.6047 25.4227 36.9261 25.6193C36.8801 25.632 36.842 25.6701 36.7897 25.7034C36.8991 25.9111 36.999 26.1124 37.11 26.3059C37.2606 26.5675 37.2686 26.8466 37.2353 27.1367C37.2004 27.438 37.1623 27.7393 37.1576 28.0405C37.1544 28.2451 37.1988 28.4512 37.2369 28.6542C37.2575 28.7667 37.3003 28.8746 37.1877 28.9618C37.0751 28.9649 37.0196 28.9015 36.9752 28.8064C36.7897 28.4131 36.6343 28.0167 36.6185 27.5696C36.6042 27.1795 36.5265 26.7942 36.2871 26.466C36.1983 26.3439 36.1301 26.1949 35.9493 26.16C35.8606 26.2758 35.9319 26.3582 35.9922 26.4375C36.1016 26.5834 36.1856 26.7372 36.2395 26.9179C36.3394 27.243 36.3204 27.568 36.2934 27.8962C36.2792 28.077 36.2443 28.2562 36.2141 28.4353C36.1571 28.7778 36.0699 29.1092 35.8748 29.4073C35.6084 29.8132 35.3643 30.2302 35.0931 30.633C35.0075 30.7598 35.0138 30.8724 35.044 30.9993C35.109 31.2736 35.0519 31.337 34.757 31.3084C34.6 30.9675 34.554 30.6108 34.6888 30.254C34.8378 29.8576 35.0202 29.4739 35.1851 29.0839C35.4071 28.5574 35.4642 28.0167 35.3072 27.4618C35.2945 27.4142 35.2644 27.373 35.2263 27.2937C35.1787 27.3603 35.1328 27.3999 35.1217 27.4475C35.09 27.5728 35.0662 27.7012 35.0503 27.8296C35.0218 28.0707 34.9726 28.3053 34.9108 28.54C34.8664 28.7065 34.9044 28.8983 34.9155 29.0775C34.9235 29.1917 34.9583 29.3058 34.803 29.3471C34.6603 29.2821 34.6381 29.1504 34.6159 29.022C34.5318 28.54 34.5493 28.058 34.5778 27.5712C34.5952 27.281 34.5619 26.9845 34.5302 26.6944C34.5191 26.5929 34.4383 26.5009 34.3907 26.4074C34.202 26.4296 34.1449 26.5184 34.1307 26.6706C34.1037 26.9544 34.0736 27.2398 34.0149 27.5173C33.9372 27.8851 33.747 28.2086 33.5805 28.5416C33.2126 29.2757 32.6529 29.856 32.0678 30.4094C31.7047 30.7535 31.3273 31.0896 30.8865 31.3417C30.7898 31.3972 30.7026 31.5114 30.6661 31.6176C30.5456 31.9585 30.414 32.2979 30.433 32.6752C30.4441 32.902 30.5092 33.0954 30.6455 33.273C30.7502 33.411 30.8501 33.5521 30.9468 33.6964C31.0911 33.912 31.1418 34.1562 31.1656 34.4083C31.1783 34.5367 31.2005 34.6636 31.2211 34.8095C31.1339 35.0489 30.9515 35.2138 30.7074 35.3343C30.0715 35.6451 29.5863 36.1429 29.1059 36.644C29.0758 36.6741 29.0456 36.7106 29.0345 36.7502C28.96 36.9865 28.7729 37.1054 28.5684 37.2085C28.4177 37.2846 28.2861 37.3686 28.2972 37.5779C28.302 37.6651 28.2497 37.7618 28.2037 37.8443C28.0198 38.1678 27.8422 38.4991 27.5029 38.6926C27.4283 38.7354 27.3395 38.756 27.2349 38.7941C27.3316 39.0081 27.2238 39.2476 27.2111 39.4933C27.2 39.6899 27.0906 39.8279 26.9241 39.8929C26.6355 40.0039 26.404 40.21 26.1266 40.34C25.949 40.4241 25.7793 40.4875 25.5843 40.4875C25.4368 40.4875 25.2894 40.4891 25.1419 40.4875C24.9183 40.4843 24.7851 40.3638 24.7788 40.1434C24.774 40.0245 24.7931 39.9024 24.8168 39.7851C24.9263 39.2555 25.1498 38.7909 25.5494 38.4104C25.7682 38.2026 25.9585 37.9632 26.1551 37.7317C26.2328 37.6398 26.2946 37.5351 26.3533 37.4289C26.4579 37.2402 26.5975 37.0848 26.8036 37.0214C27.1049 36.9278 27.3284 36.7423 27.5393 36.5124C28.0261 35.9812 28.505 35.4453 28.9172 34.8539C28.9759 34.7682 29.0345 34.681 29.0869 34.5922C29.2486 34.3195 29.2407 34.2053 29.0488 33.9564C28.8855 33.7439 28.7143 33.5362 28.562 33.3142C28.153 32.7181 27.8882 32.0458 27.5758 31.3988C27.1588 30.5347 27.1176 29.6388 27.3443 28.7144C27.4236 28.3878 27.5599 28.096 27.7296 27.8122C27.8327 27.641 27.9246 27.4634 28.0388 27.3016C28.2624 26.9845 28.3559 26.6293 28.3496 26.2488C28.3432 25.9047 28.4717 25.6114 28.6572 25.3339C28.6651 25.3212 28.6619 25.3006 28.6651 25.2848C28.4907 25.2356 28.394 25.2626 28.3321 25.4005C28.2941 25.4845 28.2782 25.5828 28.2655 25.6764C28.2402 25.8825 28.2243 26.0902 28.2005 26.2964C28.1799 26.4866 28.1323 26.669 28.0182 26.8307C27.9183 26.9734 27.8453 27.1288 27.8358 27.3096C27.8263 27.4745 27.6836 27.5553 27.5837 27.66C27.3633 27.8931 27.2793 27.9169 26.9891 27.7852C26.8258 27.7107 26.6672 27.614 26.5293 27.4998C26.3834 27.3793 26.3406 27.1891 26.3279 27.0099C26.3168 26.845 26.2502 26.7181 26.1646 26.5834C25.7428 25.9095 25.1118 25.4687 24.4775 25.0247C24.0225 24.706 23.5547 24.4063 23.0537 24.1685C22.4828 23.8974 21.985 23.5168 21.522 23.103C21.0067 22.6416 20.5341 22.131 20.0521 21.6331C19.9443 21.5221 19.8682 21.381 19.7842 21.251C19.6573 21.0544 19.5178 20.8562 19.7001 20.5914C19.6034 20.5819 19.54 20.5708 19.475 20.5692C19.2926 20.566 19.1103 20.5597 18.9279 20.5708C18.3872 20.6025 17.9385 20.3742 17.5041 20.0998C17.4977 20.0095 17.4914 19.9318 17.4834 19.8382C17.3376 19.7542 17.1933 19.6575 17.0379 19.5829C16.6003 19.3736 16.1531 19.185 15.7203 18.9677C15.4824 18.8488 15.2573 18.6998 15.0416 18.5444C14.8292 18.3922 14.6056 18.4365 14.493 18.6776C14.4217 18.8314 14.4042 18.9852 14.428 19.1564C14.4629 19.4085 14.5358 19.6432 14.65 19.8699C14.7118 19.992 14.7404 20.13 14.7768 20.2632C14.9021 20.7135 15.0115 21.167 15.1558 21.6109C15.2065 21.7695 15.3239 21.9106 15.4317 22.0438C15.5236 22.1564 15.5918 22.261 15.568 22.4164C15.5554 22.4989 15.5855 22.5877 15.5982 22.6812C15.7361 22.7399 15.8693 22.7969 16.0041 22.854C16.3767 23.0126 16.6034 23.2742 16.716 23.6801C16.8159 24.0353 16.827 24.3794 16.7541 24.7266C16.7128 24.9248 16.6098 25.1135 16.5146 25.2974C16.4433 25.437 16.1864 25.456 15.9962 25.3545C15.7092 25.2007 15.4729 24.9787 15.2795 24.7235C15.1304 24.5253 15.0099 24.3001 14.91 24.0718C14.7467 23.6976 14.5311 23.3678 14.2044 23.1252C14.0379 23.0015 13.9602 22.8429 13.9206 22.6511C13.7034 21.6268 13.4846 20.6041 13.2642 19.5814C13.2325 19.4371 13.1817 19.2991 13.1468 19.1564C13.0676 18.8282 12.9867 18.5016 12.9169 18.1718C12.8487 17.8467 12.9756 17.555 13.1104 17.2743C13.1912 17.1046 13.2864 16.9318 13.4116 16.7923C13.6828 16.4894 14.0126 16.3214 14.4454 16.3562C14.7911 16.3848 15.1336 16.4165 15.4761 16.4799C15.8757 16.5544 16.2784 16.6084 16.6811 16.6702C16.6954 16.6718 16.7128 16.6607 16.743 16.6512C16.7604 16.5544 16.7065 16.5005 16.6241 16.4593C16.1151 16.2024 15.7425 15.7981 15.4158 15.343C15.3254 15.2162 15.2382 15.083 15.1288 14.9752C15.0337 14.88 14.9148 14.8024 14.7927 14.7421C14.6484 14.6707 14.539 14.7151 14.4787 14.8626C14.4407 14.9577 14.4296 15.064 14.4137 15.1655C14.3995 15.2511 14.3963 15.3367 14.3868 15.4239C14.344 15.8362 14.0982 16.12 13.7779 16.3483C13.6907 16.4102 13.5749 16.4355 13.4243 16.4958C13.3387 16.6004 13.1912 16.7304 13.1024 16.8953C12.8186 17.4265 12.6648 17.9847 12.825 18.5935C12.9312 18.9947 13.0089 19.4054 13.1262 19.8033C13.1928 20.0332 13.1595 20.2441 13.0454 20.4265C12.8725 20.7055 12.6664 20.9624 12.465 21.2209C12.3667 21.3461 12.2304 21.4254 12.0401 21.4492C11.8292 21.343 11.7753 21.1257 11.7467 20.9037C11.7198 20.6992 11.7214 20.4915 11.7103 20.2838C11.7087 20.2584 11.7071 20.2299 11.715 20.2061C11.8577 19.7922 11.7832 19.3641 11.7959 18.9424C11.8054 18.6522 11.8355 18.3763 11.9767 18.1163C12.0972 17.8943 12.1606 17.6549 12.186 17.398C12.2161 17.0951 12.3081 16.8081 12.4492 16.5338C12.5284 16.3816 12.5776 16.2135 12.6299 16.0502C12.7219 15.7712 12.8091 15.4905 12.8916 15.2083C12.9201 15.11 12.9439 15.0053 12.9407 14.9054C12.9312 14.6375 13.0184 14.3949 13.1088 14.1507C13.1833 13.9493 13.2547 13.7448 13.326 13.5418C13.372 13.4118 13.4307 13.2833 13.4608 13.1486C13.567 12.6761 13.946 12.489 14.3376 12.3478C14.8783 12.1528 15.3873 12.2812 15.8154 12.6475C16.3799 13.1295 16.9824 13.5418 17.6753 13.8177C17.8656 13.8938 18.0321 14.0318 18.2176 14.1237C18.5157 14.2728 18.7773 14.2363 18.9755 13.9731C19.2118 13.6591 19.5051 13.4435 19.846 13.258C20.1473 13.0931 20.4184 12.8695 20.6943 12.6618C20.818 12.5682 20.9321 12.4509 20.9591 12.2876C21.0067 12.0038 21.1747 11.7976 21.3904 11.6312C22.1007 11.0794 22.6097 10.3547 23.0981 9.61903C23.263 9.37167 23.3581 9.07517 23.4675 8.79293C23.5864 8.48691 23.6879 8.17296 23.7862 7.85901C23.8306 7.71948 23.8623 7.5736 23.8782 7.42931C23.9051 7.19782 23.8385 7.10902 23.6023 7.08048C23.4501 7.06145 23.2899 7.05828 23.1377 7.08207C22.9696 7.10902 22.8111 7.09951 22.6509 7.05194C22.3877 6.97583 22.1261 6.87911 21.8565 6.83471C21.4554 6.76812 21.0495 6.73165 20.6737 6.96473C20.3756 7.14866 20.041 7.11854 19.7112 7.08841C19.6129 7.08048 19.5257 7.02974 19.5098 6.91875C19.494 6.81727 19.5717 6.71738 19.6969 6.67457C19.9015 6.60163 20.1076 6.53662 20.309 6.45893C20.3914 6.42721 20.5008 6.4066 20.4929 6.27024C20.3962 6.17352 20.3026 6.24487 20.2091 6.275C19.9284 6.36538 19.6494 6.45575 19.3687 6.54613C19.2466 6.58577 19.1325 6.57309 19.0215 6.50174C18.8899 6.41611 18.8265 6.31305 18.8185 6.14181C18.8011 5.81993 18.8534 5.53928 19.0484 5.26655C19.2229 5.02396 19.3497 4.74331 19.4845 4.47375C19.5416 4.35959 19.6161 4.29458 19.7413 4.29141C19.8793 4.28824 20.0188 4.28348 20.1568 4.28507C20.5151 4.28507 20.8354 4.16773 21.1398 3.99015C21.3491 3.86806 21.5648 3.75706 21.7773 3.6429C21.8312 3.61436 21.8882 3.59216 21.9374 3.55728C22.3338 3.27663 22.7461 3.02293 23.1916 2.82473C23.2122 2.81522 23.2233 2.78668 23.2503 2.75021C23.1884 2.71215 23.1345 2.66617 23.0727 2.64556C22.7952 2.55042 22.5193 2.43943 22.2339 2.37601C22.0167 2.32844 21.7899 2.33478 21.5695 2.42516C21.3872 2.49968 21.3333 2.46321 21.2207 2.26026C21.3745 2.09694 21.6013 2.13341 21.7899 2.07316C21.9755 2.01449 22.1816 2.01925 22.421 1.99071C22.2783 1.85276 22.1467 1.93362 22.0199 1.88764C21.9992 1.84166 21.9739 1.78141 21.9437 1.71005C21.9802 1.68944 22.0072 1.66724 22.0373 1.65614C22.5193 1.50075 22.995 1.57211 23.4691 1.70213C23.5357 1.72115 23.6039 1.72908 23.672 1.74335L23.68 1.74652ZM37.9139 20.1601C37.8901 20.1649 37.8648 20.1696 37.841 20.1744C37.841 20.2584 37.833 20.3424 37.8426 20.4249C37.8949 20.9244 37.9409 21.4254 37.9012 21.928C37.8743 22.2674 37.8283 22.6067 37.6602 22.9032C37.4414 23.2853 37.1845 23.6468 36.9483 24.0179C36.8563 24.1637 36.7675 24.3128 36.6898 24.4666C36.6692 24.5062 36.6946 24.5697 36.7041 24.6632C36.8167 24.6077 36.9039 24.5839 36.9625 24.5316C37.3827 24.1495 37.7474 23.7261 37.9615 23.1886C38.3167 22.2959 38.2865 21.3953 38.0344 20.4867C38.0011 20.3757 37.9535 20.2695 37.9139 20.1601ZM21.3143 21.3699C21.2445 21.6395 21.3174 21.8519 21.5029 22.02C21.92 22.3974 22.3259 22.7874 22.7714 23.1299C23.2297 23.4819 23.7291 23.7832 24.2111 24.1051C24.2524 24.132 24.3031 24.1463 24.3491 24.1669C23.9987 23.7943 23.6308 23.4518 23.2487 23.1283C22.884 22.8191 22.5526 22.4814 22.245 22.1167C22.0722 21.9122 21.8867 21.7172 21.698 21.5269C21.6028 21.4302 21.4934 21.3366 21.3143 21.3699ZM24.931 8.57412C24.7455 8.56936 24.6678 8.69304 24.5965 8.80562C24.4347 9.06248 24.2841 9.32411 24.1366 9.5889C23.8147 10.1629 23.5801 10.7829 23.2075 11.3283C23.1773 11.3711 23.1742 11.4314 23.1393 11.5487C23.282 11.4663 23.3803 11.4298 23.4501 11.3632C23.5801 11.2379 23.6974 11.0968 23.8132 10.9573C24.1572 10.5403 24.3903 10.0519 24.6535 9.58573C24.7836 9.35582 24.847 9.08626 24.9278 8.83098C24.9516 8.75329 24.931 8.6645 24.931 8.57412ZM28.0166 19.8858C28.0213 19.8779 28.0277 19.8683 28.0324 19.8604C27.6456 19.2975 27.2618 18.7331 26.8702 18.1749C26.6213 17.8213 26.4627 17.4344 26.3898 17.0095C26.3723 16.908 26.3327 16.8097 26.2978 16.713C26.2645 16.6195 26.1852 16.5671 26.0964 16.5973C26.0473 16.6147 26.006 16.6924 25.9886 16.7511C25.9696 16.8145 25.9743 16.889 25.987 16.9556C26.0647 17.3488 26.2043 17.723 26.3882 18.075C26.718 18.7045 27.1937 19.2198 27.7169 19.6923C27.8041 19.77 27.9151 19.8208 28.0166 19.8858ZM23.439 13.5592C23.4453 13.4847 23.4532 13.4657 23.4469 13.4514C23.4326 13.4197 23.4168 13.388 23.3946 13.3626C23.2059 13.1438 22.9522 13.0645 22.6763 13.0582C22.1943 13.0503 21.7329 13.1597 21.2905 13.3499C21.216 13.3817 21.1494 13.4165 21.1509 13.5418C21.4157 13.591 21.6504 13.4403 21.9009 13.4292C22.1594 13.4181 22.421 13.3928 22.6779 13.415C22.93 13.4356 23.1773 13.5085 23.439 13.5592ZM17.5437 16.9524C17.6309 16.9207 17.7023 16.9175 17.734 16.8811C17.8672 16.7273 18.0178 16.5766 18.1066 16.3975C18.2208 16.1676 18.2873 15.9139 18.3635 15.6681C18.3999 15.5539 18.4174 15.4334 18.4316 15.3145C18.4364 15.2749 18.4047 15.2289 18.3809 15.1655C18.3238 15.2194 18.2747 15.2479 18.2541 15.2891C18.1716 15.4493 18.0749 15.6063 18.0273 15.7775C17.9227 16.1533 17.8117 16.5211 17.5596 16.8303C17.5469 16.8462 17.5532 16.8779 17.5437 16.9524ZM23.9844 4.56572C23.9955 4.39765 23.9527 4.20579 23.8861 4.11382C23.7371 3.9077 23.3026 3.91245 23.1583 4.12175C23.0854 4.22957 23.0949 4.31044 23.2106 4.38179C23.3422 4.46107 23.4818 4.52925 23.6245 4.59267C23.7386 4.64183 23.8576 4.64024 23.9844 4.56572ZM29.377 35.144C29.312 35.1963 29.2438 35.2455 29.1836 35.3026C29.09 35.3914 28.9981 35.4849 28.9093 35.5785C28.5826 35.9241 28.2576 36.2698 27.9357 36.6186C27.8882 36.6694 27.8041 36.7185 27.8771 36.8121C28.2798 36.6059 29.32 35.5008 29.377 35.144ZM26.7925 5.02237C27.1065 4.93041 27.5964 4.67354 27.682 4.53876C27.4854 4.5784 27.3142 4.61487 27.1318 4.65134C27.1096 4.53401 27.0922 4.43887 27.0716 4.33422C26.7608 4.52449 26.6926 4.69732 26.7925 5.02237ZM28.3305 28.1483C27.8961 28.4338 27.6693 29.1679 27.8707 29.5421C27.9991 29.0775 28.237 28.6684 28.3305 28.1483ZM27.6281 23.3931C27.6741 23.3694 27.7106 23.363 27.7169 23.3472C27.7803 23.1664 27.8771 23.011 28.0055 22.8667C28.0626 22.8017 28.0626 22.6764 28.0626 22.5781C28.0626 22.4782 28.0071 22.3958 27.8897 22.3895C27.7803 22.3831 27.7359 22.4624 27.7169 22.548C27.6662 22.7748 27.6218 23.0015 27.5837 23.2298C27.5774 23.2774 27.6107 23.3313 27.6281 23.3931ZM13.4814 15.2368C13.7589 14.9657 13.9491 14.3505 13.8508 14.0888C13.5638 14.2601 13.3974 14.7548 13.4814 15.2368ZM22.5399 3.99649C22.4797 3.85854 22.3798 3.89184 22.2831 3.93782C21.9374 4.09797 21.5933 4.25811 21.2493 4.42143C21.2128 4.43887 21.1858 4.47851 21.1224 4.53718C21.6789 4.51181 22.1102 4.28824 22.5399 3.99649ZM14.1902 20.9069C14.1902 20.8578 14.1981 20.807 14.1886 20.761C14.0966 20.3313 14.0031 19.9016 13.9079 19.4719C13.9047 19.4545 13.8857 19.4402 13.8619 19.4085C13.7256 19.9698 13.881 20.4503 14.1902 20.9069ZM19.4417 5.8342C19.5542 5.79456 19.6526 5.7676 19.7429 5.72479C19.8666 5.66454 19.9506 5.56148 19.9443 5.42036C19.938 5.29034 19.8286 5.24119 19.7271 5.20155C19.4528 5.33474 19.3481 5.54721 19.4417 5.8342ZM24.5552 15.2558C24.5584 15.1528 24.5711 15.0465 24.5616 14.9419C24.5457 14.7706 24.422 14.7072 24.273 14.796C24.1715 14.8563 24.0732 14.9308 24.0573 15.0545C24.1382 15.2812 24.2999 15.3097 24.5552 15.2558ZM33.165 26.929C33.322 26.7847 33.3696 26.4296 33.2538 26.2567C33.1777 26.1426 33.0826 26.1077 32.9922 26.1584C32.9034 26.2092 32.878 26.3186 32.932 26.4327C33.0065 26.5945 33.0826 26.7546 33.165 26.929ZM25.7587 6.59687C25.5399 6.57467 25.4289 6.73165 25.2814 6.80617C25.126 6.88387 24.9754 6.97425 24.7867 7.07731C25.2687 7.17562 25.6239 6.99486 25.7587 6.59687ZM28.8173 32.5674C28.7904 32.3565 28.7729 32.1789 28.7428 32.0029C28.7238 31.8935 28.6952 31.7825 28.6524 31.6795C28.6302 31.6272 28.5652 31.5939 28.4954 31.5288C28.4146 31.9538 28.5557 32.2614 28.8173 32.5674ZM24.181 5.79932C23.8813 5.9658 23.6165 6.14339 23.3422 6.37647C23.8227 6.44466 24.0526 6.21316 24.181 5.79932ZM16.1357 18.4651C16.7921 18.9772 16.8334 18.9963 17.1156 18.9202C16.8127 18.6744 16.4766 18.5666 16.1357 18.4651ZM25.2354 6.0213C24.9818 6.12436 24.8406 6.30354 24.7122 6.51918C25.0594 6.54455 25.3036 6.31622 25.2354 6.0213ZM25.5415 39.6994C25.8332 39.655 25.9426 39.506 25.9077 39.2222C25.6461 39.2919 25.532 39.4347 25.5415 39.6994ZM14.7974 13.0344C14.6484 12.8965 14.5073 12.9773 14.3757 13.0186C14.3424 13.0297 14.3313 13.1089 14.3075 13.1613C14.5707 13.2247 14.6262 13.2104 14.7974 13.0344ZM27.5409 10.0995C27.7185 10.2057 27.7835 10.1946 27.9341 10.0297C27.7724 9.88858 27.7026 9.90126 27.5409 10.0995Z" fill="white"/>
<path d="M5.73986 45.9815C6.02844 45.9815 6.29482 45.9815 6.55962 45.9815C6.60719 46.1702 6.61987 48.7849 6.57389 49.1369C6.30434 49.1369 6.03161 49.1369 5.74621 49.1369C5.69547 48.9276 5.6035 48.7373 5.44494 48.5819C5.24991 48.3901 5.01841 48.325 4.75362 48.3663C4.54273 48.3996 4.41113 48.5264 4.37783 48.7405C4.36198 48.842 4.36039 48.9482 4.36039 49.0513C4.35881 49.7442 4.35881 50.4387 4.36039 51.1316C4.36039 51.5803 4.56969 51.8689 4.99939 51.9941C5.13099 52.0322 5.27211 52.0465 5.40847 52.0544C5.57179 52.0639 5.73669 52.056 5.93489 52.056C5.94441 52.4 5.93806 52.7314 5.93965 53.0787C4.25574 53.0787 2.59562 53.0787 0.921225 53.0787C0.916468 53.0057 0.90854 52.9471 0.906955 52.8884C0.905369 52.622 0.906955 52.3541 0.906955 52.056C1.1004 52.056 1.27164 52.0623 1.4413 52.0544C1.58718 52.0465 1.73781 52.0385 1.87734 52.0005C2.15799 51.9228 2.30704 51.7214 2.34192 51.4376C2.34985 51.3694 2.34668 51.2996 2.34668 51.2299C2.34668 49.1749 2.34985 47.12 2.34351 45.0651C2.34351 44.8431 2.31497 44.6132 2.2563 44.3991C2.14848 43.9995 1.92967 43.8521 1.51582 43.8489C1.34299 43.8473 1.17016 43.8489 0.952937 43.8489C1.19236 43.3875 1.44447 42.9721 1.67914 42.5471C16.3888 42.5471 31.0889 42.5471 45.8032 42.5471C45.8032 42.9784 45.8032 43.397 45.8032 43.833C45.7319 43.8394 45.6653 43.8473 45.5971 43.8489C45.5194 43.8521 45.4417 43.8489 45.3624 43.8489C32.0402 43.8489 18.7164 43.8489 5.3942 43.8489C5.25625 43.8489 5.11514 43.8457 4.97878 43.8679C4.59347 43.9329 4.40479 44.1454 4.3699 44.5323C4.36356 44.61 4.36039 44.6877 4.36039 44.7654C4.35881 45.3283 4.35881 45.8927 4.36039 46.4556C4.36039 46.6998 4.43016 46.7981 4.65531 46.8853C5.13575 47.0724 5.56703 46.8473 5.6923 46.3415C5.70657 46.2828 5.71766 46.2225 5.72559 46.1623C5.73194 46.1116 5.73352 46.0608 5.73986 45.9815Z" fill="white"/>
<path d="M33.4129 47.4578C32.7897 47.4578 32.1856 47.4578 31.5656 47.4578C31.5181 47.128 31.5419 46.8124 31.6417 46.5064C31.8399 45.9055 32.2157 45.4694 32.8167 45.2363C33.1766 45.0984 33.5492 45.0175 33.9298 44.9953C34.5434 44.9589 35.1602 44.9398 35.7722 45.0334C36.0735 45.0794 36.3668 45.1539 36.6396 45.295C37.1533 45.5598 37.4609 45.9768 37.5338 46.5524C37.5608 46.7585 37.5751 46.9662 37.5766 47.1739C37.5798 48.5423 37.5909 49.9123 37.5735 51.2806C37.5671 51.842 37.694 52.1099 38.3076 52.2796C38.3076 52.5396 38.3076 52.8028 38.3076 53.0803C38.2347 53.0851 38.176 53.093 38.1173 53.093C36.7569 53.093 35.3949 53.0977 34.0344 53.0866C33.6983 53.0835 33.3574 53.0534 33.026 52.9947C32.2998 52.8678 31.5799 52.3478 31.4515 51.4471C31.3754 50.9207 31.3643 50.3975 31.4293 49.8679C31.5133 49.1877 32.138 48.6121 32.7358 48.5249C33.1306 48.4678 33.5239 48.4075 33.9203 48.3727C34.3341 48.3362 34.7511 48.3251 35.1665 48.3061C35.4773 48.2918 35.5645 48.2078 35.5677 47.8938C35.5709 47.5466 35.5534 47.1993 35.5709 46.8537C35.6073 46.1623 34.981 45.7786 34.3515 45.9435C33.9837 46.0387 33.7125 46.2464 33.6174 46.6364C33.5524 46.9028 33.4842 47.1708 33.4129 47.4578ZM35.5677 50.8097C35.5677 50.6369 35.5693 50.4641 35.5677 50.2896C35.5661 50.0566 35.5724 49.8219 35.555 49.5888C35.5312 49.2986 35.3695 49.1258 35.1047 49.1052C34.7749 49.0798 34.4451 49.1004 34.1296 49.2083C33.7157 49.3494 33.4906 49.6459 33.4795 50.0835C33.4684 50.4894 33.4636 50.8985 33.481 51.3044C33.5001 51.7706 33.7744 52.2542 34.4467 52.2273C34.7226 52.2162 35.0016 52.2288 35.2775 52.2241C35.509 52.2209 35.5661 52.1622 35.5677 51.9276C35.5709 51.5534 35.5677 51.1808 35.5677 50.8097Z" fill="white"/>
<path d="M12.5559 50.6876C13.2409 50.6876 13.8957 50.6876 14.5696 50.6876C14.6124 51.2743 14.5632 51.8292 14.2303 52.316C14.1161 52.4825 13.9496 52.6236 13.78 52.7378C13.3772 53.0121 12.9142 53.1389 12.437 53.1881C11.5871 53.2769 10.7404 53.2452 9.9 53.0819C9.00413 52.909 8.56492 52.3081 8.38575 51.4709C8.33976 51.2521 8.32549 51.0238 8.32391 50.8002C8.31757 49.6649 8.3144 48.528 8.32708 47.3927C8.33025 47.1184 8.37624 46.8409 8.43966 46.573C8.58553 45.9594 8.98352 45.5566 9.57178 45.3521C9.82389 45.2649 10.0903 45.2062 10.3551 45.1761C11.3255 45.0603 12.2927 45.0904 13.2504 45.2997C13.7784 45.4155 14.1589 45.7088 14.3968 46.1908C14.5173 46.4366 14.5601 46.7062 14.5632 46.9741C14.5743 47.7368 14.5696 48.4995 14.5696 49.2622C14.5696 49.2859 14.5553 49.3097 14.541 49.3589C14.4507 49.3589 14.3587 49.3589 14.2652 49.3589C13.1108 49.3589 11.9581 49.3589 10.8038 49.3589C10.4328 49.3589 10.3218 49.4667 10.3186 49.8346C10.317 50.3118 10.3138 50.7875 10.3186 51.2648C10.3265 51.964 10.7499 52.3985 11.4507 52.4223C11.5966 52.427 11.7472 52.4207 11.8899 52.3905C12.2958 52.3033 12.521 52.0417 12.5464 51.6295C12.5622 51.3789 12.5527 51.1268 12.5543 50.8763C12.5575 50.8224 12.5559 50.7701 12.5559 50.6876ZM11.4491 48.4916C11.6997 48.4916 11.9518 48.4979 12.2023 48.4884C12.4116 48.482 12.5479 48.3679 12.5511 48.1792C12.5575 47.721 12.5717 47.2611 12.5337 46.8061C12.4956 46.351 12.2055 46.0672 11.752 45.9974C11.5585 45.9673 11.3524 45.9689 11.1605 46.0022C10.6865 46.083 10.4359 46.3494 10.3535 46.8251C10.336 46.9266 10.3234 47.0312 10.3218 47.1343C10.317 47.4451 10.317 47.7574 10.3202 48.0682C10.3234 48.371 10.4391 48.4868 10.7483 48.4916C10.9814 48.4963 11.2145 48.4916 11.4491 48.4916Z" fill="white"/>
<path d="M45.7091 49.3445C45.0416 49.3445 44.3946 49.3445 43.7303 49.3445C43.7255 49.2526 43.7176 49.1685 43.7176 49.0861C43.716 48.3837 43.7192 47.6812 43.716 46.9804C43.716 46.8694 43.7097 46.7537 43.6811 46.6474C43.6098 46.3858 43.41 46.2843 43.161 46.389C42.771 46.5539 42.4539 46.8234 42.1764 47.1374C42.132 47.1881 42.1161 47.2801 42.1161 47.353C42.113 48.7484 42.1114 50.1437 42.1145 51.539C42.1145 51.8482 42.3001 52.0924 42.6045 52.205C42.6774 52.2319 42.7535 52.2494 42.8407 52.2763C42.8407 52.5332 42.8407 52.7916 42.8407 53.0485C42.6616 53.1056 39.9454 53.1278 39.3841 53.077C39.3286 52.9502 39.3619 52.8107 39.3572 52.6759C39.3524 52.5379 39.3556 52.4 39.3556 52.2494C39.4349 52.2351 39.4999 52.224 39.5665 52.2113C39.8947 52.1495 40.0675 51.9624 40.0961 51.631C40.104 51.5454 40.1024 51.4581 40.1024 51.3709C40.1024 49.9154 40.1024 48.4582 40.1024 47.0026C40.1024 46.5047 39.9613 46.3287 39.4682 46.2082C39.4349 46.2003 39.4032 46.1876 39.3556 46.1718C39.3556 45.9561 39.3556 45.7389 39.3556 45.5232C39.3556 45.4725 39.3604 45.4234 39.3635 45.3583C40.2071 45.3583 41.0363 45.3583 41.8941 45.3583C41.9623 45.5724 42.1177 45.7389 42.3556 45.8499C42.4221 45.8118 42.4967 45.7706 42.5712 45.7294C43.1293 45.4249 43.7049 45.1665 44.3502 45.1142C44.6214 45.092 44.8878 45.1253 45.1383 45.2363C45.4744 45.3869 45.6647 45.6469 45.7091 46.0132C45.717 46.0734 45.7186 46.1337 45.7186 46.194C45.7186 47.1818 45.7186 48.1696 45.7186 49.159C45.7202 49.2129 45.7139 49.2637 45.7091 49.3445Z" fill="white"/>
<path d="M19.5678 52.2732C19.5678 52.5507 19.5678 52.8076 19.5678 53.0771C18.4056 53.0771 17.2576 53.0771 16.0969 53.0771C16.0969 52.7965 16.0969 52.5317 16.0969 52.2495C16.1492 52.2384 16.2047 52.2241 16.2618 52.213C16.6408 52.148 16.8152 51.9466 16.8247 51.5565C16.8279 51.4519 16.8247 51.3488 16.8247 51.2442C16.8247 49.8219 16.8247 48.4012 16.8247 46.9789C16.8247 46.5128 16.6741 46.3225 16.2238 46.2131C16.1825 46.2036 16.1429 46.1893 16.0938 46.175C16.0938 45.9039 16.0938 45.6391 16.0938 45.3569C16.9405 45.3569 17.7761 45.3569 18.6244 45.3569C18.7021 45.5883 18.8575 45.7501 19.0461 45.8278C19.4964 45.6312 19.9119 45.433 20.3384 45.2696C20.6967 45.1333 21.0725 45.0762 21.461 45.1269C22.1 45.2094 22.4457 45.5772 22.4472 46.2147C22.452 47.1946 22.4488 48.1745 22.4488 49.1528C22.4488 49.2114 22.4425 49.2701 22.4377 49.3415C21.7765 49.3415 21.1312 49.3415 20.4637 49.3415C20.4589 49.2543 20.451 49.1718 20.451 49.0878C20.4494 48.3949 20.4526 47.7004 20.4494 47.0075C20.4494 46.887 20.4399 46.7633 20.4098 46.6475C20.3447 46.3875 20.137 46.2813 19.8928 46.3843C19.5028 46.5492 19.1841 46.8172 18.9066 47.1311C18.8622 47.1819 18.8448 47.2723 18.8448 47.3452C18.8416 48.7405 18.84 50.1358 18.8448 51.5328C18.8464 51.8483 19.0271 52.0861 19.3315 52.2003C19.4029 52.2304 19.479 52.2479 19.5678 52.2732Z" fill="white"/>
<path d="M26.3685 45.3601C26.4493 45.5916 26.6031 45.7565 26.8045 45.8342C27.1962 45.655 27.5609 45.4695 27.9366 45.3205C28.3505 45.1572 28.7802 45.07 29.2337 45.1302C29.8679 45.2158 30.2056 45.6519 30.1993 46.2163C30.1866 47.1867 30.1961 48.1571 30.1961 49.1275C30.1961 49.1941 30.1961 49.2623 30.1961 49.3416C29.5254 49.3416 28.8801 49.3416 28.1983 49.3416C28.1983 49.2448 28.1983 49.1529 28.1983 49.0609C28.1983 48.3854 28.1998 47.7084 28.1967 47.0329C28.1967 46.9045 28.1872 46.7713 28.157 46.646C28.0952 46.3908 27.8827 46.2814 27.6385 46.3828C27.2469 46.5461 26.9314 46.8173 26.6523 47.1296C26.6079 47.1804 26.5936 47.2724 26.5936 47.3453C26.5905 48.7406 26.5952 50.1359 26.5889 51.5313C26.5873 51.8738 26.8346 52.11 27.0757 52.2004C27.1549 52.2305 27.239 52.248 27.323 52.2733C27.323 52.5429 27.323 52.7998 27.323 53.0725C26.1639 53.0725 25.016 53.0725 23.8521 53.0725C23.8521 52.7934 23.8521 52.5223 23.8521 52.2369C23.933 52.2242 24.0091 52.2163 24.082 52.1988C24.3785 52.1322 24.545 51.9388 24.5704 51.6359C24.5767 51.5503 24.5752 51.4631 24.5752 51.3759C24.5752 49.9108 24.5752 48.4473 24.5752 46.9822C24.5752 46.5065 24.4293 46.3242 23.952 46.2052C23.9187 46.1973 23.887 46.1846 23.8474 46.1719C23.8426 46.1101 23.8347 46.0514 23.8347 45.9912C23.8331 45.7851 23.8347 45.5789 23.8347 45.3554C24.6893 45.3601 25.5265 45.3601 26.3685 45.3601Z" fill="white"/>
<path d="M50.3763 52.2764C50.3763 52.5412 50.3763 52.7996 50.3763 53.0755C49.222 53.0755 48.074 53.0755 46.9133 53.0755C46.9133 52.7996 46.9133 52.5333 46.9133 52.2478C46.972 52.2367 47.0386 52.2241 47.1036 52.213C47.4445 52.1511 47.6205 51.9561 47.6427 51.6136C47.6475 51.5359 47.6443 51.4582 47.6443 51.3789C47.6443 49.9138 47.6443 48.4487 47.6443 46.9837C47.6443 46.5064 47.4952 46.324 47.0196 46.2115C46.9863 46.2035 46.953 46.1924 46.9102 46.1798C46.9102 45.9134 46.9102 45.647 46.9102 45.3838C47.1068 45.3362 50.0496 45.3251 50.3715 45.3711C50.3715 45.6343 50.3715 45.9007 50.3715 46.1845C50.3033 46.2035 50.2304 46.221 50.1575 46.2432C49.815 46.3478 49.658 46.5651 49.658 46.9377C49.658 48.4376 49.658 49.9376 49.658 51.4376C49.658 51.88 49.8229 52.102 50.251 52.2367C50.2907 52.2463 50.3303 52.2605 50.3763 52.2764Z" fill="white"/>
<path d="M48.5452 42.4759C48.9464 42.468 49.3443 42.5076 49.7233 42.644C49.8914 42.7042 50.0595 42.7883 50.2006 42.8977C50.394 43.0467 50.3972 43.2576 50.2037 43.4035C50.0484 43.5208 49.8644 43.616 49.6789 43.6746C49.1683 43.8348 48.6403 43.876 48.1107 43.8142C47.8364 43.7824 47.5653 43.7206 47.2973 43.6508C47.1657 43.6175 47.0373 43.5494 46.9247 43.4733C46.6314 43.2751 46.6282 43.0293 46.9215 42.8343C47.05 42.7486 47.1959 42.6868 47.3417 42.6361C47.7302 42.5029 48.1345 42.468 48.5452 42.4759Z" fill="white"/>
</svg>
