<svg width="65" height="25" viewBox="0 0 65 25" fill="none" xmlns="http://www.w3.org/2000/svg">
<path d="M32.3475 0.69165C34.0588 0.753504 35.7733 0.789981 37.483 0.883555C39.8684 1.01519 42.2426 1.27371 44.6042 1.64484C47.5319 2.10478 50.42 2.73918 53.2415 3.6543C55.2193 4.29663 57.1399 5.0706 58.9543 6.09357C60.1533 6.77079 61.2841 7.54475 62.2563 8.52807C63.0033 9.28301 63.6219 10.1252 63.9676 11.145C64.4117 12.455 64.2769 13.7175 63.6504 14.9339C63.0922 16.0188 62.2659 16.88 61.3285 17.6412C59.8631 18.8307 58.212 19.7078 56.4896 20.4564C54.1281 21.4825 51.6714 22.22 49.1671 22.8068C47.1021 23.2906 45.0165 23.6569 42.9151 23.9345C40.9278 24.1962 38.9326 24.3738 36.9311 24.4832C34.7979 24.6006 32.6632 24.6355 30.5284 24.5832C29.2231 24.5514 27.9147 24.5102 26.6142 24.4071C24.9504 24.2771 23.2883 24.1042 21.6325 23.9059C19.455 23.6458 17.3027 23.2382 15.1696 22.7244C12.4068 22.0598 9.70581 21.2097 7.13808 19.9727C5.56318 19.2145 4.06917 18.3248 2.77658 17.1305C2.03591 16.4454 1.392 15.6825 0.962192 14.7595C0.204084 13.1306 0.342066 11.5494 1.2445 10.0205C1.83608 9.01815 2.6497 8.21405 3.55847 7.50035C4.92561 6.42663 6.44341 5.60984 8.02941 4.912C10.475 3.8351 13.0221 3.07699 15.62 2.47749C17.6231 2.01437 19.6437 1.65118 21.6833 1.40218C23.1963 1.2182 24.7141 1.0707 26.2335 0.951754C27.4769 0.853422 28.7267 0.807427 29.9733 0.764605C30.7631 0.737643 31.5561 0.759847 32.3475 0.759847C32.346 0.739229 32.3475 0.71544 32.3475 0.69165ZM31.8654 23.5665C34.3776 23.5649 36.4093 23.5142 38.4362 23.3429C39.9397 23.216 41.4448 23.0733 42.942 22.8893C44.9674 22.6403 46.9736 22.2771 48.9609 21.814C51.3811 21.2494 53.7554 20.5436 56.036 19.546C57.557 18.8815 59.013 18.1012 60.3103 17.0544C61.0954 16.42 61.7916 15.7063 62.2912 14.8197C62.8321 13.8602 63.0287 12.842 62.7781 11.7588C62.591 10.9436 62.1802 10.2394 61.6505 9.60021C60.9067 8.70095 60.001 7.99042 59.0225 7.36712C57.4603 6.3727 55.7775 5.62728 54.0393 5.00557C50.5136 3.74311 46.869 2.9739 43.1641 2.487C41.5463 2.27448 39.9175 2.13332 38.2903 1.99217C36.5679 1.8415 34.8407 1.79551 33.1136 1.77965C31.0724 1.7622 29.0328 1.79551 26.9964 1.95252C25.3755 2.07781 23.7562 2.22531 22.1401 2.40612C20.5541 2.58375 18.9792 2.85495 17.4138 3.16898C14.7858 3.69712 12.2006 4.38227 9.70264 5.36401C8.02306 6.02378 6.40534 6.80568 4.93671 7.86671C4.06124 8.49953 3.26506 9.2164 2.65445 10.1172C1.5395 11.7603 1.52522 13.5065 2.61322 15.1671C3.03509 15.8094 3.56165 16.3582 4.14371 16.8562C5.2666 17.8157 6.53381 18.5484 7.85971 19.1828C9.68361 20.0551 11.5884 20.7117 13.5328 21.2541C16.0736 21.9631 18.6572 22.4627 21.2677 22.8275C23.0235 23.0717 24.7855 23.2525 26.5523 23.3746C28.4825 23.5047 30.4126 23.5713 31.8654 23.5665Z" fill="white"/>
<path d="M47.3914 13.7793C47.4422 13.7174 47.4929 13.6699 47.5294 13.6128C48.546 12.0585 49.5595 10.5026 50.5793 8.95151C50.6268 8.87855 50.7347 8.80401 50.8172 8.80243C51.4135 8.78974 52.0083 8.79608 52.6046 8.79767C52.6315 8.79767 52.6585 8.81194 52.7267 8.82939C52.6855 8.91979 52.6601 9.00543 52.6141 9.0768C52.0305 9.98717 51.4373 10.8912 50.8584 11.8031C49.661 13.6889 48.4683 15.5778 47.2804 17.4699C47.1583 17.665 47.0568 17.8791 46.9886 18.098C46.8839 18.4279 47.0805 18.6737 47.4247 18.6816C47.7054 18.688 47.9608 18.5944 48.1749 18.4294C48.6126 18.0948 49.0567 17.7633 49.4564 17.3859C49.9734 16.899 50.4492 16.3676 50.9393 15.8585C51.2834 15.9331 51.4246 16.1821 51.6371 16.3597C51.6022 16.4232 51.5832 16.4771 51.5483 16.5199C50.6982 17.5445 49.8005 18.5214 48.7094 19.3002C48.167 19.6871 47.5817 19.9917 46.9124 20.0884C46.7142 20.1169 46.5032 20.1249 46.3066 20.0947C45.7166 20.0091 45.3153 19.6015 45.2075 19.0131C45.19 18.9148 45.1742 18.8164 45.1504 18.6737C45.0616 18.7355 44.995 18.7704 44.9426 18.818C44.4414 19.2811 43.8943 19.6729 43.2345 19.8727C42.4637 20.1058 41.7373 20.0361 41.1108 19.4841C40.681 19.1051 40.4701 18.6055 40.4209 18.0488C40.3908 17.7126 40.4241 17.37 40.4289 17.0306C40.4305 16.9703 40.4289 16.9101 40.4289 16.8006C40.3067 16.8704 40.2274 16.9116 40.1513 16.9592C39.639 17.2748 39.0966 17.5207 38.486 17.5413C37.6169 17.5698 36.9857 17.0385 36.8413 16.1821C36.8191 16.0489 36.8001 15.9156 36.77 15.7269C36.6986 15.8221 36.6558 15.8728 36.6193 15.9299C35.839 17.1432 35.0539 18.3565 34.2831 19.5761C34.161 19.7696 34.0294 19.86 33.793 19.8505C33.3363 19.8315 32.8779 19.8473 32.4196 19.8426C32.3419 19.8426 32.2626 19.814 32.1452 19.7918C32.2197 19.6491 32.2641 19.5444 32.3244 19.4492C32.9493 18.4532 33.5821 17.4636 34.1991 16.4644C34.5718 15.8601 34.9239 15.2416 35.2744 14.6246C35.3584 14.4755 35.4219 14.309 35.4631 14.1425C35.5519 13.7761 35.3108 13.535 34.9619 13.6667C34.6875 13.7698 34.4211 13.9157 34.1848 14.0901C33.4616 14.6262 32.8763 15.3019 32.3244 16.006C31.8772 16.577 31.4569 17.1686 31.0144 17.7427C30.4656 18.4548 29.8423 19.0908 29.0366 19.519C28.2531 19.9361 27.4332 20.1106 26.5577 19.8648C25.7029 19.6253 25.1446 19.0718 24.8512 18.2391C24.8226 18.1567 24.7798 18.0774 24.7275 17.9616C24.2786 18.4183 23.8694 18.8561 23.3302 19.1336C23.0891 18.9512 22.9464 18.734 22.829 18.5008C22.7735 18.3914 22.8401 18.3089 22.921 18.236C23.1478 18.0314 23.3714 17.8252 23.5966 17.6206C24.0154 17.2431 24.3024 16.78 24.5023 16.2566C24.7433 15.6238 25.0637 15.0322 25.4634 14.4835C26.2944 13.3416 27.4078 12.6342 28.7892 12.3487C28.9589 12.3138 29.135 12.2948 29.3078 12.2948C29.514 12.2932 29.6679 12.3836 29.7313 12.5993C29.7805 12.769 29.8423 12.9371 29.9026 13.1211C29.7916 13.1734 29.717 13.2115 29.6393 13.2448C28.7623 13.6064 27.9645 14.0838 27.3618 14.8356C26.9368 15.3669 26.637 15.9569 26.5752 16.6436C26.5561 16.8498 26.5641 17.0671 26.6069 17.2685C26.7655 18.0123 27.4062 18.3993 28.1532 18.2217C28.6956 18.0932 29.1365 17.7919 29.5029 17.3874C30.3229 16.4818 30.6432 15.4018 30.5655 14.198C30.5449 13.8745 30.4704 13.5541 30.4022 13.2353C30.3625 13.0434 30.3879 12.8848 30.5576 12.7785C30.7543 12.6548 30.9525 12.5311 31.1603 12.4328C31.3633 12.3376 31.56 12.4217 31.6948 12.639C31.9644 13.0735 32.0833 13.5573 32.1262 14.0616C32.1373 14.1853 32.1531 14.3106 32.1674 14.4343C32.1864 14.4391 32.207 14.4454 32.2261 14.4502C32.3085 14.3645 32.3926 14.2789 32.4751 14.1932C32.9429 13.7174 33.3918 13.2226 33.8834 12.7722C34.3212 12.3709 34.8446 12.0934 35.4425 11.9982C35.6201 11.9697 35.8073 11.9649 35.9849 11.9887C36.5226 12.0585 36.8699 12.4169 36.9571 12.9815C36.9904 13.1925 37.0015 13.4066 37.0285 13.6762C37.1173 13.5779 37.1823 13.5176 37.2347 13.4478C37.6232 12.9324 38.1022 12.5327 38.7112 12.3043C39.0728 12.1695 39.4487 12.1251 39.8246 12.2155C40.7397 12.4359 41.1283 13.4478 40.6239 14.2995C40.3527 14.7579 39.9594 15.0259 39.4059 14.9831C38.8651 14.9418 38.4955 14.4866 38.5447 13.949C38.551 13.8776 38.5463 13.8047 38.5463 13.7222C38.4908 13.7333 38.4638 13.7285 38.4511 13.7412C37.988 14.2059 37.7089 14.7452 37.831 15.4208C37.9277 15.9585 38.4004 16.2709 38.9428 16.1821C39.3012 16.1234 39.62 15.9711 39.9229 15.7824C40.5922 15.3653 41.16 14.8229 41.7532 14.309C42.2242 13.9014 42.7016 13.497 43.2012 13.1259C43.6992 12.7547 44.2591 12.4946 44.8808 12.39C45.3471 12.3122 45.8086 12.3265 46.2527 12.5041C46.7951 12.7214 47.1916 13.0751 47.2978 13.6825C47.2994 13.6968 47.3073 13.7095 47.3169 13.7206C47.3343 13.7317 47.347 13.7396 47.3914 13.7793ZM45.9751 15.4335C45.9973 15.3558 46.0132 15.267 46.0481 15.1845C46.1591 14.9228 46.2622 14.6611 46.2622 14.3709C46.2606 14.0061 46.0671 13.7571 45.7134 13.6556C45.4295 13.5747 45.1662 13.6556 44.9141 13.7698C44.5049 13.9569 44.1655 14.2392 43.8594 14.5628C43.2535 15.2019 42.7539 15.9061 42.5319 16.7737C42.4494 17.0956 42.3844 17.4239 42.4605 17.7617C42.5541 18.182 42.819 18.393 43.2504 18.3819C43.5358 18.3755 43.7848 18.2613 44.0243 18.1233C44.9157 17.6079 45.5072 16.8197 46.0037 15.9458C46.0671 15.8332 46.1194 15.7158 46.1797 15.5968C46.1131 15.5445 46.0592 15.5001 45.9751 15.4335Z" fill="white"/>
<path d="M22.8981 11.5637C22.5492 11.5399 22.2383 11.6002 21.9322 11.6858C21.523 11.8 21.1535 11.9999 20.8046 12.2394C20.7126 12.3028 20.5984 12.3567 20.4905 12.3678C20.2082 12.3948 20.0195 12.141 20.1337 11.8793C20.186 11.7604 20.286 11.6478 20.3938 11.5717C20.9663 11.1688 21.615 10.9388 22.2954 10.7977C22.7855 10.6962 23.2787 10.6137 23.81 10.5154C23.9227 10.3679 24.0527 10.195 24.1859 10.0253C24.6601 9.42104 25.0979 8.78189 25.6197 8.22044C26.4365 7.3418 27.3294 6.54087 28.4221 6.00321C28.4665 5.98101 28.5094 5.95246 28.5506 5.92391C28.5617 5.91598 28.5649 5.90012 28.5871 5.86047C28.5125 5.83351 28.4443 5.79862 28.3714 5.78593C27.4071 5.61623 26.446 5.42432 25.4769 5.28634C24.0226 5.07858 22.5682 5.06113 21.1376 5.47825C20.3605 5.70504 19.6452 6.04128 19.0743 6.63603C18.7206 7.00398 18.4605 7.42268 18.378 7.93813C18.2432 8.78506 18.8237 9.37346 19.6753 9.25451C20.0274 9.20535 20.3478 9.08005 20.6523 8.90559C21.2471 8.56302 21.7403 8.11101 22.1289 7.5448C22.1368 7.53212 22.1432 7.51943 22.1527 7.50833C22.2843 7.31801 22.4017 7.25298 22.5412 7.2958C22.6935 7.3418 22.768 7.47343 22.7585 7.70023C22.7554 7.77795 22.7458 7.862 22.7173 7.93337C22.2161 9.15301 21.4786 10.1807 20.2939 10.8262C19.5849 11.2132 18.8237 11.3639 18.0227 11.1799C17.0315 10.9515 16.3305 10.0475 16.2988 9.00868C16.2607 7.78588 16.7746 6.82 17.6564 6.02383C18.5096 5.25303 19.5278 4.79151 20.6238 4.48224C21.5738 4.2142 22.5476 4.13015 23.5309 4.11429C25.1344 4.08891 26.7204 4.26178 28.3 4.51237C29.8479 4.7582 31.3943 5.01989 32.9438 5.2451C34.7297 5.50521 36.5266 5.60195 38.3315 5.50838C39.5146 5.44653 40.6851 5.28317 41.8413 5.01989C42.1506 4.95011 42.3615 5.01989 42.4249 5.24352C42.4662 5.38943 42.4598 5.56072 42.4297 5.71139C42.3773 5.97466 42.2077 6.18084 42.011 6.35848C41.3591 6.9453 40.5868 7.30056 39.7493 7.52101C38.747 7.78429 37.7256 7.80174 36.6995 7.72085C35.0326 7.58921 33.4355 7.12134 31.8336 6.68202C31.0723 6.47267 30.3063 6.27759 29.4959 6.0619C29.5752 6.35055 29.3928 6.45364 29.2278 6.57735C28.3349 7.24029 27.461 7.92862 26.7299 8.77237C26.3699 9.1879 26.0622 9.64784 25.7339 10.0903C25.6879 10.1506 25.6609 10.2251 25.6022 10.3393C26.4365 10.2949 27.2295 10.2537 28.0145 10.2125C28.0383 9.92063 28.0304 9.6637 28.0827 9.41946C28.2207 8.78664 28.5823 8.32512 29.2199 8.1348C30.0034 7.90165 30.6521 8.49958 30.4982 9.30051C30.3761 9.93174 30.0097 10.3711 29.4181 10.6232C29.3325 10.6597 29.2484 10.6962 29.1231 10.7501C29.2913 11.0086 29.5609 11.1085 29.7655 11.2957C29.8257 11.4321 29.7893 11.5542 29.6703 11.6525C29.545 11.7572 29.3944 11.7778 29.2643 11.689C28.9836 11.4987 28.7155 11.2909 28.4443 11.0848C28.3872 11.0419 28.3444 10.9817 28.2857 10.9198C28.0034 10.9373 27.7211 10.9452 27.4404 10.9721C26.7251 11.0388 26.0098 11.1181 25.2945 11.1847C25.0662 11.2053 24.9218 11.2973 24.7981 11.5035C23.8909 13.0149 22.979 14.5232 21.9195 15.9363C21.2169 16.8737 20.4525 17.7555 19.5263 18.485C18.7031 19.1337 17.7928 19.5921 16.7428 19.7411C15.972 19.8506 15.2044 19.8506 14.4622 19.581C13.0586 19.0719 12.2592 18.0822 12.1117 16.585C11.9277 14.7056 13.0348 13.0276 14.7572 12.3377C15.0633 12.2156 15.3773 12.1331 15.7135 12.1839C15.8626 12.2061 15.9911 12.2616 16.0846 12.3869C16.2306 12.5835 16.2432 12.8976 15.9419 13.0466C15.4835 13.2734 15.0744 13.5732 14.7239 13.9507C14.3289 14.3773 14.0577 14.8658 14.0292 15.4589C13.9832 16.4026 14.6223 17.2004 15.5549 17.3685C16.3733 17.516 17.1235 17.2971 17.8435 16.9323C18.5049 16.5977 19.0552 16.114 19.5849 15.6017C20.822 14.4058 21.8656 13.0498 22.8584 11.6494C22.8711 11.6383 22.8759 11.6161 22.8981 11.5637ZM28.8646 10.011C29.3277 9.87464 29.6212 9.61612 29.7655 9.19583C29.7845 9.14191 29.7877 9.08164 29.7861 9.02454C29.7829 8.83581 29.6671 8.71844 29.4816 8.74858C29.3737 8.76602 29.258 8.81836 29.1771 8.89132C28.909 9.13081 28.7853 9.43849 28.8091 9.8001C28.8139 9.86036 28.8408 9.91905 28.8646 10.011Z" fill="white"/>
</svg>
