<svg width="67" height="27" viewBox="0 0 67 27" fill="none" xmlns="http://www.w3.org/2000/svg">
<path d="M50.4531 26.7055C50.4531 25.215 50.469 23.7404 50.469 22.25C50.469 17.3505 50.469 12.4351 50.469 7.53559C50.469 7.37703 50.469 7.20261 50.469 7.01234C52.118 7.01234 53.7353 7.01234 55.3843 7.01234C55.3843 7.67829 55.3843 8.34424 55.3843 9.12119C55.4953 8.97848 55.5429 8.93092 55.5746 8.86749C56.1296 7.67829 57.1126 7.04405 58.3494 6.74279C61.6475 5.94999 64.9931 7.821 65.881 11.5947C66.0554 12.3241 66.1189 13.0852 66.2298 13.8304C66.2298 14.2902 66.2298 14.7659 66.2298 15.2257C66.1664 15.5904 66.1189 15.9551 66.0554 16.3198C65.8017 17.8578 65.3102 19.3007 64.2637 20.5058C62.805 22.1865 60.9181 22.6622 58.7775 22.3609C57.5249 22.1865 56.4308 21.6791 55.5905 20.6961C55.5746 20.6802 55.527 20.6802 55.4795 20.6644C55.4795 22.6939 55.4795 24.6918 55.4795 26.6896C53.8146 26.7055 52.1339 26.7055 50.4531 26.7055ZM55.2892 14.5915C55.3685 15.3843 55.4002 15.9868 55.4953 16.5577C55.8125 18.4762 57.0175 19.1739 58.9837 18.9043C59.9826 18.7616 60.5217 18.0006 60.8071 17.0809C61.2828 15.5904 61.3145 14.0841 60.9815 12.5619C60.6644 11.1032 59.7606 10.4055 58.3018 10.358C57.0175 10.3104 56.0662 11.0081 55.6698 12.4034C55.4478 13.1803 55.3843 13.989 55.2892 14.5915Z" fill="white"/>
<path d="M0.189172 12.0703C1.67964 12.0703 3.18596 12.0703 4.70813 12.0703C4.88255 12.0703 5.05696 12.0703 5.2948 12.0703C5.2948 12.8631 5.27895 13.6083 5.2948 14.3536C5.31066 14.7183 5.32652 15.0988 5.4058 15.4476C5.78634 16.9064 7.14996 17.7309 8.76727 17.5089C10.6066 17.2552 11.4945 16.2563 11.4945 14.4011C11.4945 9.97731 11.4945 5.55349 11.4945 1.12967C11.4945 0.955251 11.4945 0.780835 11.4945 0.574707C13.2704 0.574707 15.0304 0.574707 16.8538 0.574707C16.8538 0.701555 16.8538 0.828402 16.8538 0.95525C16.8538 5.4425 16.8697 9.9456 16.8538 14.4328C16.838 16.4624 16.283 18.3176 14.7767 19.7763C13.6826 20.8387 12.3349 21.4095 10.8603 21.679C8.76727 22.0596 6.67427 22.012 4.613 21.3778C2.06018 20.585 0.411156 18.6188 0.205028 15.9392C0.109892 14.7024 0.189172 13.4181 0.189172 12.0703Z" fill="white"/>
<path d="M33.043 15.3366C29.7291 15.3366 26.4469 15.3366 23.1647 15.3366C22.8793 16.4782 23.5452 17.9845 24.5125 18.4285C25.7492 18.9993 27.2238 18.6346 28.0008 17.5881C28.0959 17.4613 28.2703 17.3186 28.413 17.3186C29.8876 17.3027 31.3622 17.3027 32.8369 17.3027C32.8844 17.3027 32.9478 17.3186 33.0271 17.3344C33.0747 17.8577 32.8844 18.3017 32.6466 18.7298C31.9648 19.9348 30.9341 20.7752 29.6974 21.3301C27.3982 22.3608 25.0357 22.5193 22.6732 21.6631C20.1679 20.7435 18.7567 18.8249 18.281 16.2721C17.7737 13.5924 18.3128 11.103 19.9776 8.89904C21.1986 7.29759 22.8476 6.47308 24.8771 6.37794C26.0505 6.33037 27.208 6.42551 28.3496 6.75849C30.0621 7.26588 31.2988 8.29652 32.1075 9.88212C32.7259 11.2616 33.2333 13.973 33.043 15.3366ZM28.1752 12.3715C28.2545 11.3726 27.7471 10.3261 26.9226 9.91383C25.9395 9.40644 24.9247 9.37472 24.0051 10.0407C23.244 10.5956 23.1013 11.4519 23.1013 12.3715C24.8137 12.3715 26.4786 12.3715 28.1752 12.3715Z" fill="white"/>
<path d="M49.1205 15.3524C45.759 15.3524 42.461 15.3524 39.1312 15.3524C39.1629 16.3038 39.2264 17.1917 39.8606 17.9053C40.8913 19.0786 43.0635 18.9518 43.9673 17.6516C44.1576 17.3662 44.3637 17.3027 44.6808 17.3027C45.981 17.3186 47.2654 17.3027 48.5656 17.3027C48.7083 17.3027 48.8668 17.3027 49.0412 17.3027C49.1205 17.8418 48.9302 18.2858 48.7083 18.6981C48.1216 19.7604 47.2495 20.5532 46.1872 21.124C43.7453 22.3925 41.2084 22.5986 38.6397 21.6473C36.1662 20.7276 34.7867 18.8249 34.311 16.288C33.8036 13.6241 34.3427 11.1348 35.96 8.94662C37.1809 7.2976 38.8617 6.47309 40.9071 6.39381C42.0646 6.34624 43.2062 6.44138 44.332 6.77435C46.0603 7.28174 47.3129 8.31239 48.1057 9.9297C48.9302 11.6263 49.1047 13.4339 49.1205 15.3524ZM44.2527 12.3715C44.1893 11.3409 43.9356 10.4529 43.0001 9.94555C42.0329 9.40645 41.0022 9.37474 40.0826 10.0248C39.2898 10.5798 39.1471 11.4519 39.1312 12.3874C40.8595 12.3715 42.5403 12.3715 44.2527 12.3715Z" fill="white"/>
</svg>
