<svg width="64" height="34" viewBox="0 0 64 34" fill="none" xmlns="http://www.w3.org/2000/svg">
<path d="M31.6407 33.1302C30.7686 33.1302 29.8949 33.1619 29.0244 33.1239C26.998 33.0351 24.9796 32.8385 22.9706 32.5436C20.2624 32.1456 17.6002 31.5494 15.003 30.6948C12.076 29.7307 9.27103 28.4908 6.71821 26.7355C5.51316 25.9062 4.3858 24.985 3.39162 23.9116C2.21352 22.6383 1.25899 21.2208 0.716717 19.5543C0.386912 18.5443 0.215667 17.5042 0.25055 16.4434C0.31556 14.4931 0.948215 12.7252 2.03911 11.1142C2.95241 9.76484 4.08612 8.62638 5.34984 7.61001C7.30171 6.03868 9.47557 4.84472 11.7683 3.85848C14.6478 2.61854 17.643 1.7639 20.7159 1.1693C22.3253 0.858523 23.9442 0.607999 25.5758 0.463709C26.6762 0.365402 27.7797 0.292465 28.8833 0.221113C30.5355 0.114878 32.1893 0.122807 33.8415 0.187816C35.1274 0.238556 36.4117 0.338448 37.6929 0.466881C38.8821 0.585801 40.0681 0.749117 41.2494 0.934633C43.3583 1.26761 45.4322 1.75597 47.4761 2.37753C49.8228 3.09264 52.0886 4.00435 54.2482 5.17136C55.8782 6.05295 57.4051 7.08676 58.7893 8.32829C59.8628 9.29075 60.8078 10.3563 61.5578 11.5883C62.3886 12.9535 62.8992 14.4233 63.0118 16.0311C63.145 17.9069 62.7105 19.6463 61.8226 21.281C60.9854 22.8223 59.8374 24.1098 58.5134 25.2466C56.1667 27.2651 53.4839 28.7064 50.6251 29.8465C47.7884 30.977 44.8535 31.7619 41.8504 32.2962C40.287 32.5737 38.7156 32.7735 37.1364 32.9273C35.3082 33.1017 33.4768 33.1715 31.6407 33.1302ZM31.563 31.5415C32.6206 31.5082 33.5973 31.4955 34.5709 31.44C35.6618 31.3782 36.7526 31.3116 37.8372 31.1863C39.1548 31.0341 40.4677 30.8454 41.7758 30.625C43.7008 30.3015 45.5908 29.8195 47.4523 29.2281C49.6785 28.5209 51.8285 27.633 53.8644 26.4818C55.7212 25.4322 57.4431 24.2049 58.8702 22.5987C59.7153 21.6457 60.4082 20.5977 60.8696 19.4069C61.3405 18.1923 61.4848 16.9302 61.3136 15.6458C61.1408 14.3488 60.6413 13.1644 59.9167 12.0766C59.0335 10.7511 57.9172 9.64909 56.6614 8.68029C54.6874 7.15811 52.4961 6.02282 50.197 5.08573C47.8534 4.1312 45.4306 3.42878 42.9523 2.92773C41.8821 2.71209 40.807 2.52023 39.7272 2.36484C38.6982 2.21738 37.6612 2.11115 36.6242 2.02553C35.4969 1.93198 34.3663 1.84318 33.2358 1.82098C31.9086 1.79561 30.5799 1.83525 29.2528 1.86221C27.6259 1.89392 26.007 2.05248 24.3929 2.25385C22.7391 2.45998 21.1012 2.7438 19.4775 3.11325C16.3824 3.81725 13.3872 4.8035 10.5506 6.24322C8.4259 7.32143 6.4439 8.60418 4.78061 10.3341C3.81656 11.3378 3.01425 12.454 2.49259 13.7526C1.76956 15.5523 1.72199 17.3741 2.35781 19.2087C2.79068 20.4581 3.49945 21.5427 4.36518 22.5305C5.57817 23.9147 7.01631 25.0262 8.57812 25.9839C11.1706 27.5727 13.966 28.6953 16.8787 29.542C18.7783 30.0938 20.708 30.5108 22.663 30.8248C24.3723 31.0991 26.0911 31.2957 27.8178 31.4019C29.091 31.4812 30.3674 31.4987 31.563 31.5415Z" fill="white"/>
<path d="M31.6565 2.85635C32.5809 2.87537 33.5069 2.87062 34.4297 2.91818C36.001 2.99905 37.5676 3.13541 39.1294 3.34312C40.975 3.58889 42.8001 3.92662 44.6045 4.38011C46.6642 4.89701 48.6795 5.55345 50.6266 6.40967C52.2978 7.14539 53.9056 8.00003 55.3961 9.06397C56.6091 9.93129 57.7206 10.908 58.6355 12.0925C59.5361 13.2595 60.1402 14.5533 60.3067 16.0295C60.4034 16.8937 60.2924 17.742 60.0419 18.5744C59.6502 19.8746 58.924 20.9766 58.0202 21.9676C56.6011 23.5246 54.8998 24.717 53.0621 25.7239C50.2239 27.2778 47.1969 28.3306 44.0575 29.0838C42.4116 29.4786 40.7499 29.7814 39.0723 29.9971C37.7832 30.1635 36.4894 30.2888 35.1892 30.3617C33.759 30.4426 32.3288 30.5124 30.897 30.4696C29.5445 30.4283 28.1935 30.3617 26.8442 30.2634C25.7945 30.1873 24.7448 30.0779 23.7047 29.9241C22.5091 29.7465 21.32 29.5277 20.1355 29.2851C18.4516 28.941 16.801 28.4701 15.1789 27.9009C12.7387 27.0447 10.4015 25.9744 8.25619 24.5125C7.11139 23.7324 6.04745 22.8555 5.13573 21.8106C4.23669 20.7815 3.52952 19.6399 3.18068 18.2953C2.80648 16.8556 2.93016 15.4587 3.4978 14.0951C4.08765 12.6712 5.03108 11.5042 6.15686 10.4752C7.96285 8.82296 10.0463 7.60839 12.2614 6.59994C15.1187 5.29975 18.1091 4.42767 21.1836 3.83149C22.6011 3.55718 24.0282 3.35105 25.4631 3.19249C27.5196 2.96417 29.5841 2.85159 31.6565 2.85635ZM31.5534 29.8147C32.5428 29.7814 33.4403 29.7513 34.3377 29.7228C35.6649 29.6815 36.9857 29.5547 38.3033 29.4025C40.0364 29.2027 41.752 28.9141 43.4533 28.5272C46.0363 27.9405 48.5463 27.1382 50.9564 26.0283C53.0018 25.0865 54.9188 23.9448 56.5995 22.4337C57.6048 21.53 58.4626 20.5072 59.0493 19.2752C59.5963 18.1241 59.7676 16.9222 59.5599 15.6632C59.3648 14.4756 58.813 13.4529 58.1011 12.5079C57.2227 11.3409 56.1223 10.4086 54.941 9.5666C53.1905 8.32032 51.2814 7.37213 49.2915 6.58251C46.3042 5.39648 43.2028 4.62429 40.0284 4.15654C38.8583 3.98371 37.6818 3.8521 36.5037 3.75062C35.3113 3.64756 34.1157 3.57145 32.9202 3.54767C31.685 3.5223 30.4467 3.55876 29.2115 3.59523C28.3933 3.6206 27.5751 3.68561 26.7586 3.74904C25.3061 3.8632 23.8617 4.0503 22.4251 4.28973C20.3829 4.63222 18.3707 5.10314 16.3967 5.72786C14.3195 6.38589 12.3137 7.21516 10.4078 8.27751C8.78578 9.18289 7.27312 10.2357 5.98403 11.5867C5.2055 12.4017 4.55223 13.3039 4.1146 14.3535C3.67698 15.4016 3.55489 16.4846 3.72455 17.604C3.87201 18.5744 4.26365 19.4481 4.79958 20.2615C5.52262 21.3603 6.44543 22.2752 7.46656 23.0918C9.25987 24.5267 11.2625 25.5986 13.3713 26.485C15.9844 27.5822 18.699 28.3338 21.4801 28.8665C23.6175 29.2756 25.7707 29.5388 27.9398 29.6784C29.1703 29.7576 30.4086 29.7735 31.5534 29.8147Z" fill="white"/>
<path d="M33.8261 7.89863C34.473 7.89863 35.093 7.89863 35.7145 7.89863C35.678 8.24112 33.6675 14.1998 33.2172 15.2986C32.9239 15.3652 32.6131 15.3224 32.3055 15.3287C32.0074 15.3351 31.7077 15.3303 31.3716 15.3303C31.0576 13.7638 30.7452 12.2083 30.4345 10.6544C30.4059 10.6528 30.3758 10.6512 30.3473 10.6496C29.8224 12.194 29.2976 13.7368 28.7743 15.2733C28.4842 15.343 27.3917 15.3573 26.916 15.297C27.0397 14.9276 27.1586 14.5629 27.2823 14.1982C27.8864 12.4398 28.4905 10.6814 29.0946 8.92293C29.0994 8.91024 29.1041 8.89914 29.1089 8.88646C29.2342 8.58044 29.2849 8.28234 29.0011 8.04926C29.055 7.84313 29.204 7.88118 29.3277 7.88118C29.9524 7.8796 30.5772 7.88277 31.2019 7.88277C31.3557 7.88277 31.5079 7.88277 31.676 7.88277C31.9329 9.20358 32.1818 10.4879 32.4307 11.7738C32.7494 11.1539 32.9461 10.5022 33.1649 9.86002C33.39 9.2115 33.6057 8.55824 33.8261 7.89863Z" fill="white"/>
<path d="M34.5059 15.2797C34.6628 14.8119 34.8119 14.3553 34.9673 13.9018C35.5317 12.2527 36.0978 10.6037 36.6623 8.95311C36.667 8.94043 36.6718 8.92933 36.6765 8.91664C36.8034 8.60111 36.8906 8.29033 36.5767 8.04615C36.6353 7.84478 36.7812 7.88283 36.9065 7.88283C37.5835 7.88125 38.2606 7.88125 38.9392 7.88125C39.2785 7.88125 39.6178 7.87174 39.9556 7.88759C40.4709 7.91138 40.9561 8.03822 41.3874 8.33949C41.7964 8.62331 42.0184 9.01337 42.1231 9.49222C42.223 9.95046 42.1707 10.4024 42.093 10.8495C41.9312 11.7787 41.6331 12.665 41.1908 13.499C40.9767 13.9034 40.7151 14.2728 40.3615 14.5741C39.7891 15.0608 39.1089 15.2812 38.3826 15.3019C37.1332 15.3383 35.8822 15.3193 34.6327 15.3225C34.6089 15.3241 34.5851 15.3082 34.5059 15.2797ZM37.1269 13.5672C37.482 13.5672 37.7516 13.5609 38.0211 13.5688C38.8694 13.591 39.3229 13.0979 39.5925 12.3685C39.7542 11.9309 39.9175 11.4917 40.0523 11.0461C40.1252 10.8003 40.1617 10.5371 40.1728 10.2803C40.1886 9.91874 40.0507 9.76177 39.7019 9.67456C39.3055 9.57626 38.9059 9.62858 38.4857 9.62858C38.0386 10.924 37.5962 12.2068 37.1269 13.5672Z" fill="white"/>
<path d="M26.2802 24.5743C25.9646 24.5283 25.5603 24.5013 25.1718 24.4046C24.0524 24.1271 23.5466 23.2804 23.6227 22.1911C23.7067 20.9702 24.0889 19.8238 24.6549 18.7393C25.1924 17.7118 26.0265 17.0871 27.1824 16.9333C27.9324 16.8334 28.6855 16.7921 29.4244 17.0316C29.7241 17.1283 30.0016 17.2631 30.2378 17.4803C30.6913 17.8989 30.8736 18.4412 30.8499 19.0278C30.8292 19.5432 30.7389 20.0616 30.6215 20.5643C30.4265 21.4031 30.1221 22.2054 29.6718 22.9458C29.1279 23.8385 28.324 24.3301 27.2997 24.4744C26.9921 24.5172 26.6797 24.5346 26.2802 24.5743ZM26.4768 22.7889C27.2505 22.8158 27.7548 22.4337 28.0481 21.7677C28.2637 21.281 28.4366 20.7752 28.6046 20.2709C28.695 20.0014 28.7489 19.7176 28.7933 19.4353C28.8441 19.1039 28.6839 18.8011 28.3906 18.7123C27.8325 18.5458 26.8985 18.5839 26.453 19.3275C26.3927 19.4274 26.3293 19.5289 26.2833 19.6351C26.0027 20.2805 25.7426 20.9321 25.5968 21.6219C25.5571 21.8106 25.5476 22.0103 25.5571 22.2022C25.5682 22.4258 25.6824 22.6034 25.9091 22.6684C26.0962 22.7223 26.2881 22.7508 26.4768 22.7889Z" fill="white"/>
<path d="M19.4452 21.8375C19.1994 21.8375 18.9933 21.8375 18.7427 21.8375C18.4526 22.6826 18.1576 23.5357 17.8627 24.3951C17.192 24.3951 16.5451 24.3951 15.8633 24.3951C15.8839 24.292 15.8902 24.2064 15.9172 24.1287C16.3707 22.8142 16.8289 21.5013 17.284 20.1869C17.5519 19.4131 17.8136 18.6377 18.0768 17.8624C18.1529 17.6356 18.1925 17.4168 18.0054 17.2044C17.9024 17.0886 17.9642 16.9824 18.1164 16.9649C18.1941 16.9554 18.2718 16.9602 18.3511 16.9602C19.3786 16.9602 20.406 16.957 21.4351 16.9633C21.8537 16.9649 22.2612 17.0426 22.6465 17.2186C23.2712 17.5024 23.5297 18.0273 23.4995 18.6694C23.4615 19.4987 23.2157 20.2772 22.7178 20.9622C22.4213 21.3713 22.0233 21.6171 21.5366 21.7297C21.4874 21.7408 21.4382 21.7582 21.3891 21.7756C21.378 21.7788 21.3701 21.7915 21.332 21.8264C21.6364 22.6604 21.9456 23.5087 22.2659 24.3887C21.573 24.3887 20.9166 24.3887 20.2221 24.3887C19.9636 23.5499 19.7084 22.708 19.4452 21.8375ZM19.8225 18.6679C19.656 19.1832 19.4467 19.662 19.3199 20.2202C19.7179 20.2202 20.0794 20.236 20.4377 20.217C21.1528 20.1774 21.3606 19.9855 21.5033 19.2783C21.508 19.253 21.5191 19.2292 21.5223 19.2038C21.5683 18.8914 21.4272 18.6869 21.1148 18.6726C20.6914 18.6536 20.2649 18.6679 19.8225 18.6679Z" fill="white"/>
<path d="M48.7989 21.7789C49.1208 22.6684 49.4237 23.5056 49.7281 24.3475C49.4205 24.4252 48.1346 24.4379 47.7001 24.3697C47.4464 23.5405 47.1895 22.7001 46.9295 21.847C46.6901 21.847 46.4744 21.847 46.2192 21.847C45.9322 22.6922 45.6452 23.5373 45.355 24.3935C44.6764 24.3935 44.0168 24.3935 43.3223 24.3935C43.3873 24.1906 43.4396 24.0098 43.5014 23.8306C44.1674 21.9009 44.8349 19.9713 45.5009 18.04C45.5088 18.0146 45.5199 17.9909 45.5294 17.9671C45.6547 17.6626 45.7086 17.3645 45.4232 17.133C45.4692 16.9158 45.623 16.965 45.7435 16.965C46.7202 16.9618 47.6969 16.9586 48.6737 16.9666C48.9718 16.9697 49.273 16.9872 49.5648 17.0427C49.8042 17.0887 50.0436 17.1759 50.2577 17.2884C50.6493 17.4946 50.8983 17.8386 50.9427 18.2779C51.0489 19.3085 50.7524 20.2329 50.1213 21.0479C49.8074 21.457 49.3745 21.6853 48.7989 21.7789ZM47.31 18.6679C47.2133 18.9486 47.1293 19.1912 47.0453 19.4353C46.9628 19.6748 46.8835 19.9158 46.7836 20.2107C47.3576 20.2155 47.8714 20.263 48.3803 20.1536C48.5627 20.114 48.7085 20.0014 48.8021 19.8333C48.9305 19.6034 49.0114 19.3592 49.0114 19.0944C49.013 18.8185 48.902 18.6822 48.6182 18.6711C48.1932 18.6552 47.7667 18.6679 47.31 18.6679Z" fill="white"/>
<path d="M24.4443 15.2844C24.4443 14.7485 24.4443 14.2332 24.4443 13.6988C23.6753 13.6988 22.938 13.6988 22.1737 13.6988C21.9185 14.1444 21.6473 14.5883 21.4063 15.0466C21.2953 15.259 21.1637 15.3431 20.9211 15.3367C20.3376 15.3209 19.7541 15.332 19.123 15.332C19.1833 15.2099 19.2166 15.1322 19.2594 15.0608C20.447 13.0725 21.6346 11.0857 22.8223 9.09739C22.8825 8.9975 22.9317 8.88968 22.9903 8.78979C23.141 8.53292 23.2393 8.27447 22.9951 7.98589C23.087 7.94308 23.1521 7.88917 23.2155 7.88917C24.1256 7.88441 25.0357 7.886 25.9697 7.886C25.9887 7.98906 26.0125 8.0731 26.0172 8.15872C26.0775 9.2623 26.1346 10.3659 26.1948 11.471C26.2471 12.4319 26.3011 13.3928 26.3581 14.3537C26.3756 14.6629 26.4025 14.9705 26.4247 15.2733C26.1219 15.3431 24.9168 15.3542 24.4443 15.2844ZM24.3698 9.9885C24.3397 9.98057 24.308 9.97265 24.2778 9.96313C23.8576 10.6798 23.4486 11.4029 23.0427 12.1687C23.512 12.1687 23.9338 12.1687 24.3714 12.1687C24.3698 11.4282 24.3698 10.7084 24.3698 9.9885Z" fill="white"/>
<path d="M42.1456 24.3873C40.4728 24.3873 38.8254 24.3873 37.1367 24.3873C37.2065 24.1875 37.2683 24.021 37.3254 23.8529C37.9929 21.9106 38.6605 19.9666 39.3264 18.0243C39.3312 18.0116 39.3359 18.0005 39.3407 17.9878C39.4755 17.6818 39.5088 17.3869 39.1932 17.1062C39.2931 17.0459 39.3597 16.9746 39.4311 16.9698C39.6515 16.954 39.8735 16.9619 40.0939 16.9603C41.5003 16.9603 42.9051 16.9587 44.3116 16.9587C44.4004 16.9587 44.4876 16.9587 44.6287 16.9587C44.4558 17.5581 44.2275 18.0877 44.0293 18.6569C43.0859 18.6569 42.152 18.6569 41.1959 18.6569C41.0579 19.0549 40.9279 19.4291 40.7773 19.8572C41.6668 19.8572 42.5056 19.8572 43.4046 19.8572C43.2032 20.409 43.0225 20.9037 42.8338 21.4222C41.9633 21.4222 41.1071 21.4222 40.2382 21.4222C40.097 21.8376 39.9654 22.2277 39.8259 22.6384C40.1668 22.7097 40.4776 22.6685 40.7852 22.6764C41.1102 22.6843 41.4353 22.6796 41.7619 22.6812C42.0695 22.6828 42.3787 22.6875 42.7323 22.6907C42.5246 23.2916 42.3359 23.8402 42.1456 24.3873Z" fill="white"/>
<path d="M38.6779 16.9762C37.2984 19.4799 35.9491 21.9297 34.5934 24.3905C33.7546 24.3905 32.9238 24.3905 32.058 24.3905C32.0295 24.0337 31.9914 23.6754 31.974 23.3155C31.9328 22.4323 31.9074 21.5475 31.8678 20.6628C31.8249 19.7273 31.7695 18.7918 31.7235 17.8563C31.7108 17.5962 31.6474 17.3711 31.4095 17.222C31.3651 17.1951 31.3239 17.1126 31.3334 17.0666C31.3429 17.0238 31.4222 16.9683 31.4714 16.9683C32.1722 16.962 32.873 16.9636 33.6056 16.9636C33.6246 17.1681 33.6531 17.3457 33.6579 17.5233C33.6738 18.148 33.6769 18.7727 33.6912 19.3975C33.7118 20.3076 33.7388 21.2193 33.7641 22.1294C33.7657 22.1675 33.7784 22.204 33.7895 22.2563C33.929 22.2499 33.9401 22.1294 33.9798 22.0502C34.7742 20.4979 35.5654 18.944 36.3582 17.3901C36.4279 17.2521 36.5041 17.1174 36.5817 16.9762C37.2683 16.9762 37.9422 16.9762 38.6779 16.9762Z" fill="white"/>
<path d="M15.5204 7.97637C15.6266 7.92721 15.671 7.88916 15.7154 7.88916C16.5066 7.88599 17.2963 7.88599 18.1398 7.88599C17.4881 9.78395 16.8523 11.6328 16.207 13.5117C17.2011 13.6576 18.1573 13.5149 19.1546 13.5608C18.9358 14.1872 18.7392 14.7469 18.541 15.3114C16.8539 15.3114 15.1922 15.3114 13.4766 15.3114C13.5669 15.0259 13.6415 14.7707 13.7287 14.5186C14.3708 12.6475 15.0098 10.7765 15.6615 8.91028C15.7757 8.58365 15.8328 8.28397 15.5204 7.97637Z" fill="white"/>
<path d="M15.3308 19.8666C15.093 20.5151 14.8884 21.0748 14.6823 21.6345C13.0317 21.6345 11.4096 21.6345 9.75586 21.6345C9.78599 21.5235 9.80184 21.4379 9.83038 21.357C9.99053 20.9036 10.1586 20.4517 10.3156 19.9966C10.3663 19.8491 10.4519 19.7572 10.6026 19.708C12.3594 19.1356 14.1147 18.5585 15.8699 17.9845C15.8921 17.9766 15.9191 17.9892 15.973 17.994C15.9159 18.3508 15.7685 18.5759 15.3832 18.6948C14.3509 19.0119 13.3346 19.3766 12.3118 19.7239C12.2532 19.7445 12.1961 19.7746 12.1469 19.865C13.1887 19.8666 14.232 19.8666 15.3308 19.8666Z" fill="white"/>
<path d="M43.5352 12.2859C43.7445 11.7056 43.9459 11.1475 44.152 10.5735C45.7963 10.5735 47.4294 10.5735 49.1054 10.5735C48.9405 11.0333 48.7645 11.4519 48.644 11.8864C48.5314 12.2907 48.3031 12.4873 47.8972 12.6126C46.272 13.1184 44.6594 13.667 43.0421 14.1982C42.9945 14.214 42.9438 14.2188 42.8613 14.2362C42.8693 14.0444 42.9596 13.9032 43.0135 13.751C43.0659 13.6036 43.2117 13.5941 43.3307 13.5544C44.217 13.2531 45.105 12.9566 45.9913 12.6585C46.2228 12.5809 46.4527 12.4984 46.6795 12.389C46.3417 12.2843 46.0008 12.3414 45.6647 12.3319C45.3142 12.3208 44.9622 12.3335 44.6102 12.324C44.2646 12.3161 43.9142 12.3684 43.5352 12.2859Z" fill="white"/>
</svg>
