<?xml version="1.0" encoding="UTF-8"?>
<svg id="Layer_1" data-name="Layer 1" xmlns="http://www.w3.org/2000/svg" viewBox="0 0 2500 2500">
  <defs>
    <style>
      .cls-1 {
        fill: #fff;
      }

      .cls-1, .cls-2 {
        fill-rule: evenodd;
      }

      .cls-2 {
        fill: rgba(255, 255, 255, 0);
      }
    </style>
  </defs>
  <path class="cls-2" d="m0,0h2500v2500H0V0Z"/>
  <path class="cls-1" d="m1784.91,36.77H726.1L36.76,726.1v1050.55l683.83,686.59h1053.3l689.34-689.34V720.6L1784.91,36.77h0Zm468.77,1643.39l-573.54,573.54h-860.3L246.32,1682.92v-863.06L819.84,249.08h871.31l562.51,565.26v865.81h.01Z"/>
  <path class="cls-1" d="m734.81,974.25l-146.14-297.8-217.84,204.05v730.7l209.57,212.31v-711.4l181.99,405.33,206.79-540.44v1133.27h231.61V384.18h-245.39l-220.59,590.07Zm627.94-590.07v1726.11h264.71l501.84-499.08v-363.98h-386.03v209.57h143.38c38.61-5.53,41.36,38.61,13.77,71.68-27.56,33.09-306.06,306.07-306.06,306.07V659.91l325.36,339.15v82.72h209.57v-193.02l-496.33-504.59h-270.21,0Z"/>
</svg>