<svg width="63" height="53" viewBox="0 0 63 53" fill="none" xmlns="http://www.w3.org/2000/svg">
<path fill-rule="evenodd" clip-rule="evenodd" d="M62.1629 22.0188C62.1311 20.068 60.6403 20.0363 60.6403 20.0363C59.768 19.8936 58.864 19.7667 57.9758 19.6557C54.7562 8.56952 44.1301 0.41748 31.5055 0.41748C18.9761 0.41748 8.41333 8.44264 5.11445 19.4019C4.38489 19.5446 3.71877 19.6874 3.02093 19.8301C1.08601 20.179 0.943271 21.543 0.943271 21.6382C0.499191 23.3986 0.768811 29.2668 0.943271 31.2493C1.07015 33.3587 2.79889 33.1842 2.87819 33.2318C3.51259 33.3746 4.24215 33.5014 5.00343 33.6125C8.19129 44.7303 18.8334 52.8982 31.4738 52.8982C44.0666 52.8982 54.677 44.7938 57.9124 33.7393C59.5618 33.5332 60.4817 33.3746 60.4817 33.3746C62.036 33.2477 62.0836 31.3762 62.0836 31.3603C62.4008 28.6324 62.1787 22.0188 62.1629 22.0188ZM31.5055 6.82492C40.0858 6.82492 47.4289 11.7891 50.6009 18.8785C35.5181 17.6097 19.5946 18.1648 12.5845 18.5137C15.8358 11.6146 23.0838 6.82492 31.5055 6.82492ZM45.3354 29.4889H43.226L42.5916 28.3152H39.2293L38.7059 29.4889H36.5966L39.5465 22.907H42.1793L45.3354 29.4889ZM31.0138 27.0464C31.0138 27.0464 29.745 26.9354 29.5389 25.3494V25.0322C29.5389 25.0322 29.4278 23.3352 31.22 22.907H35.9622V24.604H31.6482V25.5556H35.2326C35.2326 25.5556 36.5014 25.9838 36.5014 27.2526V27.5698C36.5014 27.5698 36.6124 28.9496 35.3436 29.473H29.6657V27.887H34.6141V27.0306H31.0138V27.0464ZM23.4328 27.0464C23.4328 27.0464 22.164 26.9354 21.9578 25.3494V25.0322C21.9578 25.0322 21.8468 23.3352 23.6389 22.907H28.3811V24.604H24.0672V25.5556H27.6515C27.6515 25.5556 28.9203 25.9838 28.9203 27.2526V27.5698C28.9203 27.5698 29.0313 28.9496 27.7625 29.473H22.0847V27.887H27.033V27.0306H23.4328V27.0464ZM20.7048 22.907V29.4889H18.3893V22.907H20.7048ZM11.4426 25.1432V29.4889H9.44423V22.907H12.8066L15.2331 27.5698V22.907H16.9143V29.4889H13.8692L11.4426 25.1432ZM31.5055 46.4749C22.9094 46.4749 15.5503 41.4949 12.3942 34.3896C21.4027 35.0716 31.7751 35.1192 31.7751 35.1192C39.0707 35.2302 45.605 34.8971 50.5851 34.4848C47.3972 41.5425 40.054 46.4749 31.5055 46.4749ZM53.5509 29.4889H50.3948L47.873 25.0322V29.4889H45.8747V22.907H49.348L51.5525 27.4746V22.907H53.5509V29.4889Z" fill="white"/>
</svg>
