<svg width="48" height="47" viewBox="0 0 48 47" fill="none" xmlns="http://www.w3.org/2000/svg">
<path d="M25.5532 0.496582C25.6325 0.509267 25.7102 0.528294 25.791 0.534636C27.5479 0.666241 29.3079 0.759791 31.06 0.937379C33.6318 1.19742 36.164 1.69212 38.674 2.30575C41.5154 3.00024 44.2966 3.88184 47.027 4.93309C47.0888 4.95688 47.1475 4.98542 47.2299 5.02188C47.2077 5.09482 47.195 5.16617 47.1649 5.2296C46.797 5.98434 46.4244 6.7375 46.0597 7.49383C45.9773 7.66349 45.8885 7.68411 45.7157 7.608C44.0381 6.87545 42.3209 6.24438 40.572 5.70528C38.2935 5.00127 35.9753 4.46534 33.6207 4.07528C31.756 3.76609 29.8819 3.55679 27.9982 3.43153C27.0865 3.37128 26.1716 3.33798 25.2567 3.32688C24.0469 3.31261 22.8371 3.29992 21.6288 3.34115C19.447 3.41567 17.2732 3.6107 15.112 3.93416C12.5481 4.31788 10.0222 4.87442 7.54077 5.626C5.70306 6.18096 3.90023 6.83422 2.14021 7.60007C1.94043 7.68728 1.85163 7.66825 1.7565 7.46688C1.43621 6.78666 1.09689 6.11595 0.768669 5.4389C0.708417 5.31364 0.670363 5.17886 0.613281 5.02506C0.840022 4.93626 1.04932 4.85064 1.26021 4.77136C4.93245 3.38713 8.68715 2.29148 12.5497 1.5732C14.435 1.22279 16.3313 0.938965 18.2452 0.804189C19.7309 0.699539 21.2182 0.625016 22.7054 0.536222C22.7705 0.533051 22.8339 0.512438 22.8973 0.498168C23.7821 0.496582 24.6668 0.496582 25.5532 0.496582Z" fill="white"/>
<path d="M38.9476 13.6825C38.8968 13.4335 38.862 13.2147 38.8065 13.0023C38.5322 11.9637 37.8408 11.3041 36.872 10.9061C36.0507 10.5699 35.1834 10.4272 34.3049 10.3765C33.3266 10.3178 32.3451 10.3067 31.3637 10.2734C31.1274 10.2655 30.8927 10.256 30.6565 10.2417C30.5154 10.2338 30.4488 10.283 30.4218 10.4336C29.9239 13.2433 29.4197 16.0514 28.9187 18.8595C28.3621 21.9799 27.804 25.102 27.249 28.2224C26.6354 31.6775 26.0281 35.1341 25.4145 38.5891C24.9293 41.3179 24.4378 44.0451 23.9145 46.7803C23.8891 46.6582 23.8606 46.5361 23.8384 46.4124C23.1122 42.4009 22.3844 38.3893 21.6614 34.3761C21.0557 31.0099 20.4531 27.6421 19.8522 24.2743C19.3575 21.5011 18.8691 18.7279 18.376 15.9562C18.0541 14.1486 17.7275 12.3426 17.412 10.5351C17.3787 10.3496 17.3168 10.2703 17.1155 10.2766C15.885 10.3147 14.6514 10.3194 13.4226 10.3765C12.5806 10.4161 11.753 10.5779 10.9665 10.9029C9.84865 11.3659 9.12561 12.154 8.93851 13.3812C8.92583 13.4684 8.90522 13.554 8.87985 13.6809C6.40631 12.6312 4.20233 11.2644 2.64844 8.97325C2.89738 8.86226 3.12253 8.75761 3.35086 8.66089C6.34764 7.38923 9.43639 6.40933 12.6345 5.78619C14.3518 5.45163 16.0801 5.20903 17.8274 5.09487C18.1429 5.07426 18.4585 5.04255 18.774 5.00608C19.0182 4.97912 19.1942 5.07109 19.3464 5.26136C20.3152 6.46166 21.2872 7.6572 22.2623 8.85116C22.776 9.47906 23.3025 10.0974 23.8225 10.7206C23.8463 10.7491 23.8622 10.784 23.8812 10.8141C23.9145 10.8316 23.9462 10.8474 23.9795 10.8649C24.016 10.7919 24.0398 10.7111 24.0905 10.6492C25.4113 9.04143 26.7337 7.43522 28.0577 5.83059C28.2495 5.59751 28.443 5.36284 28.6523 5.14561C28.7189 5.07743 28.841 5.02193 28.9345 5.02669C31.9234 5.20111 34.8742 5.63239 37.7774 6.37445C40.2763 7.01345 42.7023 7.86809 45.0648 8.90348C45.1045 8.92092 45.1409 8.94471 45.2012 8.97959C43.6346 11.2486 41.4386 12.6407 38.9476 13.6825Z" fill="white"/>
</svg>
