<svg width="57" height="20" viewBox="0 0 57 20" fill="none" xmlns="http://www.w3.org/2000/svg">
<path d="M9.63627 0.312008C10.0344 0.312008 10.4309 0.312008 10.8289 0.312008C10.8765 0.321524 10.9241 0.337385 10.9733 0.340557C12.277 0.434131 13.5156 0.775121 14.6655 1.39366C15.2269 1.695 15.7535 2.05819 16.3133 2.40394C16.3149 2.40236 16.3498 2.3754 16.3847 2.34843C17.828 1.23189 19.452 0.56101 21.2696 0.369104C21.4218 0.353244 21.5741 0.329455 21.7263 0.310423C22.1244 0.310423 22.5209 0.310423 22.919 0.310423C22.9603 0.319939 23.0031 0.335798 23.0443 0.33897C24.5653 0.44999 25.98 0.900414 27.2821 1.69183C27.6516 1.91704 28.0021 2.17397 28.3669 2.4198C28.3955 2.3976 28.4304 2.37222 28.4637 2.34526C29.8483 1.26995 31.4089 0.618108 33.1455 0.388138C33.3565 0.35959 33.569 0.335799 33.7815 0.310423C34.1796 0.310423 34.5761 0.310423 34.9742 0.310423C35.0218 0.319939 35.0694 0.335798 35.1185 0.33897C36.151 0.408754 37.1423 0.651413 38.097 1.04633C38.9376 1.39525 39.7116 1.85836 40.4237 2.43249C40.4792 2.38967 40.5316 2.35002 40.5839 2.31037C42.0145 1.21603 43.6211 0.559425 45.4148 0.367519C45.5671 0.351659 45.7194 0.32787 45.8716 0.308838C46.2697 0.308838 46.6662 0.308838 47.0643 0.308838C47.1182 0.31994 47.1706 0.332626 47.2245 0.33897C47.6019 0.389722 47.9826 0.41827 48.3537 0.492812C50.1189 0.84649 51.6732 1.62997 52.9912 2.85754C54.6882 4.43719 55.6985 6.38005 56.0125 8.67975C56.0537 8.9795 56.0759 9.28084 56.1061 9.58059C56.1061 9.82325 56.1061 10.0659 56.1061 10.3086C56.0966 10.3784 56.0839 10.4481 56.0759 10.5179C56.0284 10.9223 56.0077 11.3331 55.9284 11.7328C55.4431 14.1784 54.2092 16.1625 52.2172 17.6644C50.8865 18.6668 49.3878 19.2726 47.7352 19.4883C47.4465 19.5264 47.1563 19.5518 46.866 19.5835C46.6012 19.5835 46.3363 19.5835 46.0714 19.5835C46.0128 19.574 45.9525 19.5581 45.8938 19.5549C44.3697 19.4693 42.947 19.0395 41.6322 18.2687C41.2151 18.0245 40.8218 17.7406 40.4158 17.4741C40.143 17.6644 39.8638 17.8722 39.572 18.0593C38.3809 18.8254 37.0836 19.3012 35.68 19.4867C35.3802 19.5264 35.0789 19.5518 34.7775 19.5851C34.5127 19.5851 34.2478 19.5851 33.983 19.5851C33.9243 19.5756 33.8656 19.5597 33.8053 19.5565C32.3795 19.4741 31.0362 19.095 29.7912 18.4003C29.2932 18.1228 28.8221 17.7945 28.3225 17.4773C28.248 17.5344 28.1465 17.6105 28.045 17.6851C26.7143 18.6652 25.2314 19.2726 23.5915 19.4899C23.3028 19.528 23.0126 19.5534 22.7224 19.5851C22.4575 19.5851 22.1926 19.5851 21.9278 19.5851C21.8627 19.5756 21.7977 19.5597 21.7327 19.5565C20.3814 19.482 19.0999 19.1362 17.9073 18.5018C17.3395 18.2005 16.8082 17.8326 16.2388 17.482C16.1738 17.5312 16.0738 17.6073 15.9723 17.6819C14.6417 18.662 13.1588 19.2711 11.5189 19.4883C11.2239 19.528 10.9289 19.5534 10.6339 19.5851C10.369 19.5851 10.1041 19.5851 9.83928 19.5851C9.76949 19.5756 9.69971 19.5629 9.62834 19.5549C9.3381 19.5232 9.04469 19.5074 8.75604 19.463C7.14625 19.2092 5.68237 18.5986 4.39454 17.5978C2.30261 15.9722 1.06553 13.8406 0.692817 11.2142C0.649995 10.9144 0.629376 10.6131 0.597656 10.3133C0.597656 10.0596 0.597656 9.80581 0.597656 9.55205C0.607172 9.48226 0.621447 9.41248 0.627791 9.34111C0.656339 9.06197 0.670613 8.77966 0.713435 8.50211C1.01636 6.55926 1.82205 4.85114 3.1638 3.41105C4.79421 1.66011 6.80209 0.640312 9.18426 0.370692C9.33335 0.354832 9.48401 0.332626 9.63627 0.312008ZM41.8749 3.87734C43.2801 5.65683 44.016 7.67581 44.0144 9.95013C44.0128 12.2229 43.2769 14.2403 41.8717 16.0182C44.7773 18.2719 49.2974 18.1688 52.1252 15.0428C54.8595 12.0183 54.7453 7.31103 51.7144 4.42609C48.7264 1.58081 44.4046 1.85043 41.8749 3.87734ZM14.8272 3.87099C11.9344 1.63473 7.47297 1.73941 4.65623 4.7544C1.89342 7.7107 1.93466 12.3339 4.76567 15.2474C7.61888 18.1846 11.9978 18.2116 14.8272 16.0182C13.4236 14.2403 12.6861 12.2229 12.6846 9.95013C12.683 7.67422 13.4189 5.65683 14.8272 3.87099ZM29.7991 3.87892C31.2075 5.65683 31.9402 7.67739 31.9386 9.94855C31.937 12.2181 31.2027 14.2387 29.7959 16.015C32.6666 18.2465 36.6554 17.9119 38.9709 16.0039C37.561 14.226 36.8314 12.2007 36.833 9.9311C36.8346 7.66471 37.5705 5.64256 38.9804 3.86941C36.1463 1.6839 32.2082 1.94083 29.7991 3.87892ZM26.8999 16.0182C24.1133 12.6067 23.9753 7.45059 26.8935 3.87575C24.3401 1.82029 20.318 1.79809 17.7217 3.87892C19.1332 5.65524 19.8644 7.67898 19.8644 9.94855C19.8628 12.2165 19.1301 14.2403 17.7185 16.015C20.3529 18.0689 24.2275 18.0942 26.8999 16.0182ZM28.3431 5.29681C27.1536 6.89391 26.6287 8.66547 26.7984 10.6305C26.9253 12.096 27.4455 13.414 28.3463 14.5892C30.4557 11.8708 30.4525 8.01204 28.3431 5.29681ZM40.4221 5.31108C38.2128 8.13892 38.4285 12.0976 40.4269 14.5749C42.5474 11.9025 42.5156 7.93591 40.4221 5.31108ZM16.2753 5.31108C14.1659 7.96446 14.1691 11.9326 16.2721 14.5749C18.2895 12.0595 18.4655 8.11196 16.2753 5.31108Z" fill="white"/>
</svg>
