<?xml version="1.0" encoding="UTF-8"?>
<svg id="Layer_1" data-name="Layer 1" xmlns="http://www.w3.org/2000/svg" viewBox="0 0 24 7.77">
  <defs>
    <style>
      .cls-1 {
        fill: #fff;
      }
    </style>
  </defs>
  <path class="cls-1" d="m11.53,0c-.51.04-1.01.16-1.49.34-.13.05-.27.14-.41.08-.65-.15-1.33-.1-1.99-.02-.86.09-1.72,0-2.58-.05-.78-.03-1.57,0-2.35.05-.71.04-1.43-.01-2.14-.09-.09,0-.18-.02-.26,0-.14.09-.22.23-.31.36v.07c.19.16.4.26.63.36-.06.15-.1.31-.13.47.26.12.54.23.8.37-.03.1-.07.19-.08.28,0,.06.02.12.08.14.21.11.45.14.67.23.02.01.05.02.05.05.02.13.02.26.05.39.02.02.04.03.06.03.29.1.59.13.88.2.03.11.02.25.11.34.38.2.82.1,1.21.23.1.1.07.29.22.34.3.09.61.01.92.05.07.08.08.19.14.27.04.05.1.07.17.08.29,0,.56-.09.85-.12.06.1.09.25.21.28.23.05.45-.04.66-.12.08.26.17.52.3.76.47.86,1.29,1.5,2.2,1.84.13.04.17.18.24.28.13-.05.25-.1.38-.13l.2.3c.12-.06.24-.12.36-.18.08.09.16.19.24.28l.31-.22c.09.08.17.16.25.25h.03c.1-.09.19-.18.28-.26.11.08.21.16.32.23.08-.1.16-.19.25-.28.12.06.24.12.36.18.06-.1.12-.2.19-.3.14.03.27.09.4.14.03-.07.06-.14.1-.2.05-.14.22-.16.34-.23.97-.45,1.78-1.29,2.1-2.32.16.06.34.13.52.06.09-.05.12-.14.17-.23.24.05.48.15.73.1.13-.04.19-.16.25-.27.23.03.46.1.69.07.1-.01.25,0,.32-.1.06-.1.07-.22.12-.31.32-.04.65.04.95-.07.1-.11.1-.27.18-.38.25-.02.5,0,.74-.02.09,0,.17-.05.22-.12.06-.11.06-.23.1-.34,0-.02.02-.05.04-.06.24-.1.53-.02.75-.18.11-.12.02-.31.09-.44.21-.12.48-.09.67-.24.13-.11.03-.28.01-.42.23-.08.47-.12.66-.28-.05-.14-.11-.27-.17-.41.21-.1.42-.21.61-.34v-.09c-.07-.13-.16-.24-.27-.34-.07-.05-.17-.01-.25-.02-.7.06-1.4.13-2.09.09-.42-.02-.83-.06-1.25-.06-.52,0-1.04-.02-1.56.03-.77.05-1.54.1-2.31.02-.66-.08-1.34-.11-1.98.05-.1.04-.21,0-.31-.04C13.45.17,12.89.05,12.33,0h-.8Zm.52.15c.33.01.65.05.97.12.31.07.62.15.91.29-.1.06-.23.16-.35.11-.55-.19-1.13-.29-1.72-.29-.33.02-.65.05-.97.12-.2.04-.4.12-.61.15-.1-.03-.18-.07-.27-.12.65-.25,1.34-.38,2.03-.38Zm11.47.28c.17-.01.31.13.4.26-.34.17-.71.26-1.09.25-1.65.03-3.3.1-4.95.14,0,.03,0,.05,0,.08-.02-.05-.03-.1-.05-.15.36-.05.72-.12,1.09-.14.67-.05,1.34-.07,2.01-.07.09,0,.17-.02.25-.07-.53-.06-1.07-.03-1.6-.01-.37.03-.74.03-1.11.08-.5.06-.99.15-1.49.16-.31,0-.62.03-.94.01-.39,0-.79-.04-1.17.05-.11.03-.24.07-.28.19-.09.19.01.4.1.57.1.22.28.43.25.68-.02.09-.09.15-.16.2-.07-.08-.14-.16-.2-.25.04-.08.11-.15.09-.25-.03-.2-.18-.36-.31-.5-.2-.19-.41-.37-.55-.61-.04-.07-.07-.17,0-.23.22-.16.49-.21.75-.25.72-.1,1.44-.02,2.15.02.35.03.71.03,1.06,0,.84-.05,1.68-.14,2.52-.08.38.02.76.04,1.14.05.69.03,1.38-.06,2.07-.1.01,0,.02,0,.03,0Zm-22.97,0c.2,0,.39.03.59.04.54.05,1.09.08,1.63.06.67,0,1.35-.09,2.02-.05.69.02,1.37.1,2.06.12.53-.02,1.05-.06,1.57-.08.53-.02,1.09-.01,1.59.19.1.04.22.09.24.21-.02.16-.14.28-.24.4-.18.22-.43.36-.57.6-.11.14-.13.35,0,.49-.07.09-.14.17-.22.24-.08-.08-.16-.17-.15-.29.04-.35.35-.59.38-.94.03-.12-.03-.24-.11-.33-.15-.07-.3-.12-.47-.12-.56-.05-1.13.03-1.69,0-.56,0-1.11-.09-1.66-.17-.7-.06-1.41-.1-2.12-.11-.19,0-.39.02-.59.03.06.05.14.09.22.08.73.01,1.47.02,2.2.09.31.03.61.08.92.13l-.02.08c-.54-.03-1.07-.03-1.61-.05-.96-.03-1.93-.06-2.89-.08-.41-.03-.84.02-1.23-.13-.11-.04-.21-.09-.32-.14.08-.09.15-.2.27-.24.06-.01.13-.01.19-.01Zm11.46.11c.55,0,1.09.1,1.6.3,0,.1-.03.22.02.31.04.08.1.16.16.23.18.21.41.38.59.6.07.08.13.17.16.27-.37-.33-.8-.59-1.27-.76-1.04-.36-2.19-.26-3.16.28-.17.1-.33.22-.49.35l-.15.13c.01-.05.03-.1.06-.15.22-.31.56-.53.78-.85.11-.13.1-.31.08-.47.52-.16,1.07-.24,1.61-.24Zm5.76.45s.03.09.04.13c-.31.18-.69.14-1.03.09-.08,0-.12-.07-.16-.14.38-.04.76-.04,1.14-.08Zm-11.55.02c.39,0,.77.02,1.15.06-.03.05-.05.12-.12.13-.2.03-.41.04-.61.05-.16.01-.3-.06-.44-.13l.02-.12h0Zm1.21.06c.15,0,.31,0,.46.01.41.02.83-.02,1.23.1.1.03.21.08.26.18.04.17-.06.32-.14.46-.08.15-.2.29-.23.46-.05.16.05.29.12.42-.11,0-.25.05-.34-.04-.04-.08,0-.18.02-.26l-.16.14h-.19c-.02-.22.14-.36.22-.53-.14.12-.28.3-.48.28-.08,0-.14-.1-.09-.17.11-.14.26-.25.36-.4-.12.1-.25.19-.4.25-.11.03-.23.01-.33-.04.02-.2.23-.28.35-.42-.13.05-.24.15-.39.15-.06,0-.11-.02-.17-.03-.01-.17.17-.23.27-.34-.09.02-.18.06-.27.06-.06-.02-.11-.07-.16-.11.01-.07.03-.13.06-.19h0Zm9.16,0c.02.08.09.18,0,.24-.1.12-.27.02-.39,0,.11.1.28.17.28.34-.1.02-.2.05-.3.01-.09-.04-.17-.08-.26-.12.03.03.06.05.08.08l.09.08c.06.05.11.1.16.16.02.07-.03.14-.11.14-.23.06-.41-.13-.58-.25.09.12.19.23.3.34.05.05.05.14.06.2-.08.01-.17.04-.26,0-.13-.05-.23-.15-.33-.24.09.16.23.31.22.5h-.21s-.09-.08-.14-.12c0,.08.06.18,0,.25-.06.07-.16.06-.25.06-.03,0-.06,0-.09,0,.05-.12.14-.22.14-.36-.04-.35-.36-.59-.41-.93-.01-.15.15-.22.27-.26.55-.15,1.13-.07,1.7-.12h0Zm-15.88,0c.77,0,1.54.04,2.31.05.96.02,1.93.03,2.89.05.2-.01.36.12.53.21l-.02.19s-.06.03-.09.04l.03-.07c-.9.02-1.8.09-2.69.11-.57.01-1.13.06-1.7.05-.36.01-.72-.03-1.06-.12-.12-.03-.25-.05-.34-.14,0-.14.07-.26.14-.38h0Zm22.62.02c.06.11.13.22.18.34-.43.14-.89.13-1.34.12-.83,0-1.66-.06-2.48-.08-.7-.03-1.4-.06-2.1-.1.14-.1.31-.2.49-.2,1.75,0,3.5-.08,5.25-.08h0Zm-16.07.21c.08,0,.14.07.19.12.03.03.05.07.05.12-.08.06-.18.07-.27.09-.19.03-.37.09-.56.1-.07-.03-.14-.06-.18-.12-.02-.08.01-.2.1-.22.21-.04.43-.05.64-.09.01,0,.02,0,.03,0Zm9.47,0c.24,0,.47.03.7.07.11.02.11.15.13.23-.09.05-.18.13-.29.11-.16-.02-.32-.07-.49-.1-.09-.02-.19-.03-.26-.09,0-.11.12-.18.2-.23h0Zm-4.78.14c.91-.02,1.84.29,2.49.94.36.36.62.86.61,1.38.01.47-.2.93-.51,1.27-.57.64-1.41.98-2.26,1.05-.76.06-1.52-.12-2.17-.51-.35-.22-.66-.5-.87-.86-.25-.41-.33-.9-.23-1.36.1-.41.36-.77.67-1.06.56-.51,1.32-.77,2.07-.83.06,0,.12,0,.18,0Zm5.64.02c.22,0,.43.02.65.03,1.44.09,2.88.14,4.32.22.09.01.2,0,.28.04.06.08.07.19.09.28-.3.19-.68.14-1.01.15-.42-.03-.85-.08-1.27-.12-.14-.01-.28-.03-.42-.04-.87-.09-1.75-.14-2.61-.26,0-.11,0-.21-.02-.32h0Zm-5.55.01c-.12,0-.23,0-.35.02-.81.08-1.63.39-2.16,1.02-.31.35-.52.81-.48,1.28.02.67.45,1.27.98,1.65.88.62,2.06.75,3.08.44.46-.15.9-.38,1.24-.73.43-.41.71-1.02.64-1.62-.06-.49-.35-.94-.72-1.27-.61-.54-1.43-.8-2.23-.79Zm-5.91.18c.06,0,.12,0,.18,0,.15.04.25.17.36.27-.03.08-.05.15-.07.23.07.06.15.11.23.15-.52.08-1.03.19-1.54.29l-.46.1-.47.1c-.31.06-.62.12-.93.17-.4.07-.83.05-1.22-.07-.11-.03-.14-.16-.1-.26.02-.1.14-.09.21-.1,1.28-.13,2.55-.3,3.82-.45.18-.02.38-.02.51-.16-.7.06-1.4.14-2.1.22l-1.05.11c-.35.04-.7.07-1.05.1-.39.04-.8,0-1.17-.15.04-.11.08-.22.14-.33,1.39-.06,2.79-.09,4.18-.19.18,0,.36-.02.54-.03Zm1.26.06s.08,0,.12,0c.08.02.16.07.24.1,0,.13-.14.17-.24.21-.12.05-.25.11-.38.15-.16.05-.32-.03-.47-.09.02-.07.03-.14.07-.2.09-.06.19-.1.3-.12.12-.03.24-.06.36-.07Zm9.25,0c.18,0,.35.05.52.11.06.03.14.04.19.09.03.06.04.13.06.19-.15.05-.3.15-.46.09-.22-.08-.43-.17-.63-.27.02-.12.14-.18.25-.21.03,0,.05,0,.08,0Zm.89.17c.24,0,.47.04.71.07.76.09,1.52.17,2.28.25.54.07,1.09.11,1.63.19.01.11.13.31-.03.35-.37.06-.75.07-1.12.02-1.18-.18-2.36-.39-3.54-.57,0-.1-.01-.2-.02-.31.03,0,.07,0,.1,0Zm-5.38.11c.25,0,.5.03.75.1.28.08.57.23.73.48.11.16.12.37.09.55-.06.23-.26.36-.44.49v.04c.27.18.56.43.55.78.02.25-.11.49-.29.66-.13.1-.27.18-.42.24-.43.15-.89.17-1.34.14-.55-.07-1.13-.22-1.54-.63.07-.09.16-.17.22-.27.02-.54.02-1.08,0-1.61-.07-.1-.16-.18-.23-.27.27-.38.73-.55,1.17-.64.25-.05.5-.07.75-.07Zm4.16.06s.06,0,.09,0c.17.06.33.14.49.23.04.02.09.04.11.08,0,.08-.03.17-.11.2-.11.05-.25.08-.37.02-.19-.08-.36-.2-.54-.31.02-.04.02-.1.05-.13.01-.01.02-.02.04-.03.08-.04.16-.07.25-.07Zm-8.56,0c.1,0,.19.03.28.08.06.03.08.14.02.18-.16.11-.33.21-.51.28-.14.05-.29,0-.42-.05l-.04-.19c.17-.09.34-.17.51-.25.05-.03.11-.04.17-.04Zm4.37.17c-.09,0-.19,0-.28.02-.14.02-.26.07-.36.17-.16.17-.18.42-.15.64.02.22.16.41.37.49.23.08.49.07.73.01.25-.09.38-.36.38-.61.01-.21-.04-.46-.23-.59-.13-.08-.29-.12-.45-.12h0Zm5.29.09c.27,0,.54.05.81.1.83.15,1.67.3,2.5.46.21.04.42.08.63.14-.03.12-.04.32-.2.34-.51.06-1.03-.05-1.52-.19-.81-.22-1.64-.41-2.45-.64-.05-.01-.1-.01-.15,0,.01-.05.02-.11.04-.15.06-.05.15-.05.23-.05h.12Zm-10.39.06c.03.11.05.23.1.34-.63.19-1.27.39-1.9.57-.34.1-.67.22-1.02.27-.32.03-.64.01-.95-.07-.13-.03-.16-.17-.16-.28.89-.19,1.78-.4,2.67-.58.42-.09.84-.2,1.27-.25Zm8.9.05c.06,0,.13.02.18.06.15.1.3.2.45.3,0,.01-.01.03-.01.04v.05s-.03.06-.06.08c-.13.01-.27.04-.4,0-.14-.09-.28-.2-.4-.32-.05-.04-.04-.12,0-.16.01-.01.03-.02.05-.03.06,0,.13-.01.19-.01h0Zm-7.71,0c.05,0,.1,0,.15.01.07.02.12.12.05.17-.16.16-.32.35-.56.36-.08,0-.16,0-.24-.02-.06-.04-.05-.12-.07-.18.17-.11.34-.23.52-.33.05-.01.1-.02.15-.02h0Zm8.86.2c.16.02.32.07.47.11.77.23,1.53.45,2.3.67.14.04.29.08.43.14-.04.1-.07.2-.16.26-.37.08-.75.05-1.1-.07-.27-.1-.53-.23-.79-.35-.48-.2-.96-.42-1.44-.61.1-.05.19-.12.3-.15Zm-1.56.04c.1,0,.19.08.27.15.07.07.17.13.21.23.02.09-.06.16-.08.23-.1-.02-.23.02-.32-.07-.13-.11-.24-.25-.32-.4-.02-.09.08-.14.16-.14h.03s.03,0,.05,0Zm-6.89,0c.08,0,.16.03.23.08-.08.17-.2.33-.34.45-.07.09-.2.07-.3.05-.06-.05-.09-.13-.12-.2.12-.13.24-.26.39-.36.05-.02.1-.03.15-.03Zm-1.33.12s.07,0,.11,0c.1.02.11.14.15.21-.18.06-.34.15-.51.24-.43.21-.86.44-1.29.64-.3.16-.64.13-.97.13-.09,0-.19,0-.27-.05-.05-.07-.07-.15-.1-.23.24-.12.52-.18.77-.28.46-.17.92-.31,1.38-.47.24-.07.47-.18.72-.19h0Zm7.69.01c.09.02.21.02.28.09.1.13.2.27.25.43-.02.12-.15.2-.27.19-.04-.25-.15-.48-.26-.71Zm-5.89,0c-.11.23-.19.47-.24.72-.1-.02-.21-.05-.26-.15-.03-.05,0-.1.02-.15.06-.12.14-.24.23-.35.07-.05.17-.05.25-.08Zm7.51.03c.18.03.34.13.51.21.66.31,1.32.62,1.98.94-.01.07-.01.15-.06.21-.16.06-.34.04-.51.02-.21-.02-.42-.05-.6-.16-.51-.31-.98-.69-1.51-.97.11-.04.15-.16.2-.26Zm-8.83.25c.09,0,.18.01.27.04-.19.23-.46.39-.7.57-.28.19-.54.42-.85.55-.24.08-.5.12-.76.1-.11-.01-.16-.12-.17-.22.59-.32,1.19-.61,1.77-.93.13-.08.28-.12.43-.12h0Zm8.43.02c.12.01.23.06.32.13.45.34.9.67,1.35,1.01.06.03.09.09.12.15-.13.05-.26.12-.4.08-.04-.01-.08-.02-.13-.03-.13-.02-.25-.06-.36-.13-.43-.27-.77-.65-1.21-.91.09-.08.12-.21.21-.29.04,0,.07-.01.11,0Zm-8.16.18c.11.18.33.12.51.16-.38.27-.67.65-1.04.93-.23.17-.58.23-.81.04.11-.18.29-.29.45-.42.3-.24.59-.48.9-.71Zm7.55.12c.11.02.23.03.32.12.28.24.55.5.84.74.1.09.23.17.24.31-.09.03-.2.07-.3.03-.02,0-.05-.01-.07-.02-.16-.06-.3-.18-.42-.3-.24-.24-.5-.47-.77-.68.06-.07.11-.14.17-.2Zm-7.07.18c.1.03.2.06.3.09.01.1.02.2.03.3-.17.18-.31.41-.54.51-.16.06-.33.08-.49.06-.06-.01-.1-.06-.14-.1.28-.29.54-.6.84-.87Zm6.73.07c.15,0,.25.12.34.22.2.23.42.43.62.65-.04.06-.09.14-.18.11-.11,0-.21-.01-.31-.05-.21-.1-.35-.29-.52-.43,0,0,.05-.49.05-.49Zm-3.1.13c-.09,0-.17,0-.26.01-.27.03-.54.23-.58.52-.03.27-.02.6.2.8.15.12.34.16.52.18.26,0,.56-.03.72-.26.18-.26.18-.62.05-.91-.13-.24-.4-.32-.66-.33h0Zm-3.3.33c.07.17.11.35.16.52-.12-.02-.3-.01-.37-.14-.03-.16.12-.27.21-.38h0Zm6.35.15c.09.08.2.18.17.31-.07.12-.22.12-.34.13.06-.15.11-.29.16-.44Zm-6.69.32c.09.08.19.16.32.18.08.02.17.02.24.06.16.19.29.4.49.56.3.28.66.47.99.69-.06.24-.21.44-.34.64-.92-.35-1.72-1.07-2.09-1.99.13-.04.25-.09.38-.14h0Zm6.99.06c.09.04.19.07.28.11-.19.51-.53.95-.94,1.3-.3.26-.64.47-1.01.6-.08-.14-.17-.28-.24-.42-.02-.05-.05-.12-.01-.16.1-.1.23-.16.35-.22.25-.15.48-.33.69-.53.14-.13.23-.31.36-.46.11-.04.24-.02.35-.07.07-.04.12-.09.18-.14Zm-7.67.07h.2c.17.43.42.84.76,1.16.21.19.41.38.65.53.23.15.48.26.73.38-.02.07-.05.14-.09.2-.24-.1-.48-.21-.7-.35-.3-.18-.55-.42-.8-.66-.26-.25-.43-.58-.6-.89-.07-.11-.11-.24-.15-.36h0Zm8.03.06l.22.02c-.17.51-.46.96-.85,1.33-.37.34-.78.66-1.27.82-.03-.07-.07-.14-.1-.21.31-.14.61-.29.87-.5.48-.39.91-.87,1.13-1.45Zm-1.35.43c-.19.27-.48.42-.75.61-.12.09-.29.15-.34.31.01.09.09.16.13.24.11.19.22.37.3.57.05.12,0,.25-.05.37-.16-.04-.33-.11-.4-.27-.13-.24-.13-.54-.31-.76-.02.32.22.58.26.89-.02.11-.08.2-.14.3-.14-.08-.31-.16-.34-.33-.1-.26-.04-.56-.19-.8-.06.22.05.44.09.66.02.13.08.3-.02.42-.03.05-.07.09-.11.13-.1-.07-.24-.15-.27-.28-.06-.26-.02-.53-.06-.79-.01-.03-.04-.06-.06-.09-.07.31.09.62.05.93-.04.11-.14.23-.26.25-.11-.08-.22-.2-.22-.35-.02-.27.09-.53.07-.81h-.07c-.04.23-.02.46-.03.7,0,.11-.04.21-.1.29-.06.05-.13.1-.2.14-.06-.07-.14-.13-.17-.22-.03-.13.01-.26.04-.39.05-.19.11-.38.11-.58h-.07c-.08.26-.08.53-.15.79-.04.13-.14.24-.27.3-.05.02-.12-.01-.14-.07-.1-.12-.05-.29,0-.42.09-.22.19-.44.24-.67l-.07-.03c-.14.26-.17.56-.32.82-.06.12-.18.21-.31.24-.05.02-.08-.02-.1-.06-.05-.1-.05-.23,0-.33.11-.24.27-.46.38-.7.02-.07.06-.15,0-.21-.22-.23-.55-.3-.77-.52.23.14.46.3.72.39.92.37,1.99.38,2.91.01.39-.14.73-.39,1.03-.67Z"/>
</svg>