<svg width="64" height="58" viewBox="0 0 64 58" fill="none" xmlns="http://www.w3.org/2000/svg">
<path d="M60.6208 15.6462C57.3439 7.82129 49.0882 2.35625 41.4667 0.207764C40.1784 0.38218 38.8677 0.816898 38.1806 2.04442C43.4778 3.90617 48.561 6.59773 52.5263 11.3955C57.8526 17.4221 59.2981 27.2079 56.0292 34.6642C51.9647 44.298 41.8935 50.2295 31.9412 51.0936C25.5328 50.5492 19.851 48.3003 14.8789 44.3258C7.08564 37.9715 3.78231 27.8329 7.13453 18.3087C9.70585 10.4679 17.9193 4.30522 25.439 2.04574C24.7347 0.810291 23.3698 0.398035 22.0709 0.209084C19.1071 1.19083 16.2227 2.37343 13.5324 3.99074C5.51194 8.77397 0.900483 17.0085 0.575435 25.9738C-0.235864 38.019 7.29441 48.8315 17.8188 54.1076C22.3801 56.3393 27.339 57.7122 32.8028 57.6726C44.5098 56.9604 56.1203 49.5754 60.8718 38.4049C63.9783 31.752 63.6308 22.2357 60.6208 15.6462ZM31.9426 51.6896C42.0613 50.8082 52.3202 44.8992 56.5114 35.0487C60.235 26.7216 58.2952 16.0836 51.7784 9.66058C48.0232 5.66883 43.5426 3.30497 38.8122 1.62555C38.9417 1.36789 39.3196 1.20669 39.597 1.02435L42.7114 2.07745C41.9094 1.9506 41.1007 1.76165 40.2736 1.82904C42.7114 3.11734 45.2206 4.19687 47.9902 4.73862C49.6683 5.81022 51.2671 7.04434 52.7945 8.49384C51.9647 7.94021 50.8218 7.74993 49.8625 7.32314C51.2975 9.22586 53.3059 10.6569 55.3579 11.5369L55.7054 11.7813C57.0928 13.6523 58.134 15.6726 58.9268 17.8066C58.1829 16.6663 57.0492 15.7519 56.0292 14.8653C56.6687 17.2503 58.064 19.3975 59.8134 21.3702C60.3023 22.4868 60.2812 23.7843 60.4147 25.029C60.4741 26.575 60.4741 28.183 60.2706 29.6656C60.0936 28.0416 59.4382 26.5591 58.7934 25.1717C58.1116 27.9994 58.6005 31.1243 59.4659 33.6956C58.8383 36.0939 57.7152 38.3018 56.4546 40.4318C56.9514 38.973 56.8352 36.9527 56.7017 35.2892C55.9565 36.5497 55.2813 37.8327 54.8941 39.2294L54.2916 43.3004C52.8342 45.1463 50.9407 46.8812 49.0882 48.2118C50.5099 46.7055 51.0451 44.8358 51.526 42.9423C50.0541 44.1091 48.524 45.6577 47.8131 47.3331L46.5697 49.878C44.2045 51.3156 41.69 52.3912 39.0513 53.1787C40.9105 52.1124 42.7246 50.3325 43.8808 48.5104C41.8764 49.4142 39.6895 50.2163 38.1304 52.1864C37.5041 52.7255 37.2438 53.7522 36.336 53.8843C34.9261 54.1763 33.4317 54.3177 31.9426 54.4525V51.6896ZM46.0755 3.96696C44.7172 3.62605 43.1541 3.00503 41.7984 2.29811C43.2928 2.66016 44.6657 3.34461 46.0755 3.96696ZM48.1619 3.852C49.4621 4.85886 50.8812 5.95292 51.9224 7.32447C50.6645 6.15773 49.2454 5.20901 48.1619 3.852ZM54.8954 10.9621C53.4261 10.382 52.0823 9.41349 50.9262 8.17012C52.2686 9.03955 53.6508 9.84028 54.8954 10.9621ZM59.5703 20.5708C58.3124 19.2548 57.3016 17.6295 56.6581 15.962C57.739 17.4551 58.8238 18.9324 59.5703 20.5708ZM59.6377 32.8473C59.6721 30.568 59.3497 28.4539 59.0312 26.2988C59.9297 28.2042 60.416 30.7425 59.6377 32.8473ZM54.7871 42.7336C55.5918 40.7502 56.045 38.6572 56.5101 36.5339C56.6687 38.9017 56.3489 41.0806 54.7871 42.7336ZM56.3053 44.6759C54.9906 46.5575 52.858 47.5551 50.6394 47.7916C52.5884 46.9129 54.5215 45.9735 56.3053 44.6759ZM47.3189 49.3825C48.746 47.6727 49.811 45.8109 50.9552 43.973C50.5099 46.0818 49.2679 48.114 47.3189 49.3825ZM37.405 53.6121C39.3434 52.2934 41.1879 50.7104 43.0669 49.2107C41.6174 51.1927 39.6116 52.9342 37.405 53.6121ZM2.77149 37.8763C-1.07887 28.1672 0.690391 15.8854 8.2286 8.45024C12.3102 4.42282 17.0696 2.03385 22.1739 0.453532C22.6879 0.518277 23.1716 0.645125 23.6235 0.849932C20.6095 1.80658 17.54 3.18076 14.7798 4.9857C15.4074 4.37789 15.9135 3.71723 16.298 3.00635C14.4574 3.9075 12.0142 5.09405 11.2994 7.32579L10.9955 7.99834C9.47461 9.41481 8.09646 10.9515 7.0645 12.6151C7.42655 11.6399 7.85598 10.3662 7.97754 9.19547C5.64671 11.0493 4.55793 13.5268 4.92659 16.4919C3.91973 18.8108 3.29606 21.2989 3.02254 23.931C2.8838 22.5647 2.41209 21.3147 1.99058 20.0767C0.774957 22.7933 1.39202 26.3622 2.9763 28.7169C3.27888 31.7414 3.96201 34.6007 5.16971 37.2527C4.4258 35.8851 2.74639 34.6959 1.74217 33.3957C1.89677 36.0595 3.42291 38.685 5.92155 40.0446C7.37105 40.3327 7.6525 41.9896 8.60518 42.904C9.53407 43.9624 10.4167 45.0736 11.5174 46.0197C9.9939 44.9481 8.17442 44.6944 6.52408 43.9254V44.076C8.14535 46.9129 11.0814 48.0202 14.1019 48.2118C16.0165 49.6296 18.0329 50.8571 20.1589 51.7926C18.4161 51.1227 16.1606 51.4583 14.209 51.3711C14.7163 51.8798 15.4946 52.2353 16.1883 52.5748C18.1809 53.4734 20.7852 53.4482 22.9866 52.9937C24.5457 53.4734 26.1274 53.9292 27.7724 54.2397C25.5936 54.0349 23.8653 54.9387 21.9493 55.3748C24.9355 56.5468 28.9524 56.3222 31.6545 54.7313L31.71 57.4664C19.5709 57.0449 7.50186 49.4552 2.77149 37.8763ZM11.6997 7.32447C12.7119 5.95292 14.135 4.89717 15.4074 3.852C14.4415 5.18258 12.9365 6.15773 11.6997 7.32447ZM12.6881 8.1688C11.5174 9.36989 10.2291 10.4204 8.75713 10.9317C9.88423 9.93013 11.3417 9.01709 12.6881 8.1688ZM5.3177 15.4665C5.80395 13.5572 6.54786 11.7496 7.56397 10.0398C7.23892 12.0337 6.16996 13.6986 5.3177 15.4665ZM2.90495 27.9359C2.41077 25.7425 2.13329 23.4606 2.0659 21.0928C2.9208 23.1303 2.88909 25.5404 2.90495 27.9359ZM4.57775 26.2975C4.26724 28.4526 3.94616 30.5667 3.9739 32.846C3.20224 30.7425 3.68189 28.2042 4.57775 26.2975ZM6.13693 39.8689C4.03733 38.8303 2.56272 36.6528 2.15971 34.4832C3.18375 36.4044 4.54472 38.1816 6.13693 39.8689ZM7.08697 36.5339C7.56397 38.6572 8.03172 40.7502 8.83113 42.7336C7.27063 41.0806 6.94558 38.9017 7.08697 36.5339ZM12.9761 47.7916C10.751 47.5234 8.66596 46.6196 7.27063 44.6759C9.07822 45.9457 11.0113 46.9129 12.9761 47.7916ZM12.6419 43.973C13.7861 45.8017 14.8353 47.6568 16.2451 49.3561C14.4098 48.2012 13.0937 46.0818 12.6419 43.973ZM21.9995 52.8233C19.7044 53.2818 17.1146 53.0215 15.233 51.7926C17.3947 52.3661 19.7044 52.5748 21.9995 52.8233ZM30.6344 54.9057C28.4437 55.9905 25.5011 56.0896 23.091 55.4448C25.5632 55.4223 28.1834 55.2479 30.6344 54.9057ZM31.714 54.4155C30.0478 54.3666 28.4001 54.1459 26.8515 53.7878C25.7151 52.5986 24.7638 51.1518 23.3473 50.281C22.1885 49.6085 20.9768 49.0363 19.7665 48.4668V48.6056C20.9293 50.3999 22.7197 52.0754 24.5114 53.1813C21.9824 52.4123 19.3912 51.3183 17.0392 49.8806C16.0337 47.9964 15.4285 45.9312 13.6791 44.3548L12.1173 42.9053C12.4225 44.3707 12.8797 45.8598 13.7082 47.1627L14.5287 48.2131C12.6709 46.905 10.8607 45.1622 9.3187 43.3757C9.03329 41.5496 8.9593 39.6456 8.28806 37.9754C7.90883 37.0584 7.42258 36.1692 6.91123 35.2892C6.78438 36.9527 6.65093 38.973 7.15964 40.4318C5.87398 38.319 4.83409 36.0939 4.15096 33.7406C5.01644 31.1389 5.50797 27.9994 4.81824 25.1717C4.16153 26.5591 3.53522 28.0271 3.33042 29.6325C3.00272 27.1286 3.156 24.1847 3.62243 21.69C4.62004 20.1876 6.00744 18.8491 6.69057 17.2067C7.01429 16.4377 7.36709 15.6911 7.60889 14.9036C6.57825 15.6753 5.43926 16.6808 4.67553 17.8092C5.4789 15.6594 6.5254 13.647 7.9313 11.7523C9.53011 10.8247 11.2082 10.1376 12.5837 8.68147L13.7835 7.35618C12.8136 7.68915 11.7037 7.93228 10.8026 8.5282C12.3393 6.99149 14.0332 5.73622 15.7998 4.66858C18.502 4.19951 20.9266 3.04599 23.3433 1.83036C22.5109 1.76297 21.693 1.95192 20.9002 2.07877L23.9604 1.02567C24.2854 1.14327 24.5457 1.37318 24.8325 1.58591C17.285 3.96696 9.10728 10.2605 6.52408 18.1607C3.33306 27.1828 6.10521 37.0043 13.0105 43.4828C18.3143 48.4417 24.629 50.9787 31.7127 51.6909V54.4155H31.714ZM26.2067 53.6121C23.9974 52.9342 21.9995 51.1927 20.554 49.2107C22.4237 50.7104 24.263 52.2934 26.2067 53.6121ZM4.04658 20.5999C4.75085 18.9482 5.87795 17.4551 6.9469 15.962C6.31266 17.6467 5.30581 19.1834 4.04658 20.5999ZM17.5414 3.96696C18.8098 3.40803 20.3043 2.63241 21.8251 2.29811C20.4377 2.95349 19.0424 3.5983 17.5414 3.96696ZM59.9152 39.8967C54.4528 50.5717 43.454 56.926 31.9412 57.4981V54.7299C34.6592 56.3208 38.68 56.5468 41.6451 55.3734C39.7213 54.9387 38.0194 54.0349 35.8392 54.2384C37.5027 53.9279 39.1029 53.472 40.6964 52.9924C43.7156 53.7099 47.0639 53.2659 49.4317 51.3962C47.496 51.4266 45.3039 51.1359 43.4871 51.7926C45.477 50.8994 47.6413 49.5569 49.6101 48.1801C52.6413 48.0374 55.5733 46.7927 57.1272 43.973C55.5033 44.6746 53.6177 44.9402 52.1246 46.0184C53.8318 44.4249 55.3685 42.5367 56.5828 40.6379C59.5241 39.5425 61.7386 36.4308 61.8615 33.3931C60.8599 34.6959 59.2189 35.7979 58.4221 37.2778C59.6549 34.5545 60.3684 31.6211 60.6855 28.5358C62.2962 26.2407 62.7931 22.722 61.6131 20.0727C61.1612 21.2962 60.782 22.5608 60.593 23.8834C60.3248 21.3597 59.6721 18.7857 58.6745 16.4628C58.9401 13.9998 58.356 11.7813 56.5524 10.1164C56.2498 9.80329 55.9142 9.48749 55.6301 9.19283C55.7966 10.3516 56.119 11.5197 56.5841 12.6124C55.3923 10.3516 52.4946 8.55727 51.6304 6.07713C50.5773 4.47699 48.8332 3.87578 47.3506 2.96935V3.1147C47.7735 3.75951 48.2254 4.42017 48.8332 4.98306C46.0452 3.1768 43.0893 1.80393 39.9472 0.847289C41.2659 -0.0168635 42.5806 0.905427 43.8412 1.27144C50.1532 3.49788 56.7889 8.29432 59.8861 14.6922C63.718 21.8988 63.8343 32.6901 59.9152 39.8967ZM32.9798 54.9057C35.4269 55.2466 37.9546 55.4223 40.5471 55.4448C38.1211 56.0724 35.156 56.0249 32.9798 54.9057ZM41.6174 52.8629C43.8478 52.5299 46.2209 52.411 48.3681 51.7926C46.4799 53.0096 43.9707 53.2659 41.6174 52.8629ZM57.5051 39.8187C58.9823 38.2569 60.4411 36.3846 61.4321 34.4832C61.0317 36.633 59.6007 38.7999 57.5051 39.8187ZM60.6855 27.9359C60.7054 25.5404 60.6776 23.1289 61.5418 21.0928C61.481 23.4619 61.1863 25.7439 60.6855 27.9359ZM58.2939 15.4665C57.4179 13.7078 56.378 12.0205 56.0595 10.0398C57.0492 11.7496 57.8156 13.5585 58.2939 15.4665Z" fill="white"/>
<path d="M10.0684 15.8854L13.7866 22.2912L13.9293 25.1704L14.4869 32.7139L14.9097 35.7173C15.2017 37.6134 17.1031 38.9559 18.7337 39.6165C22.9633 41.2788 27.4016 42.4653 31.8307 43.6545C36.1052 42.505 40.3401 41.3118 44.4534 39.791C46.1408 39.1528 48.2258 37.9081 48.6183 35.9313C49.3767 31.567 49.6106 26.9859 49.789 22.3731L53.5402 15.8854L52.5889 15.7519L39.6279 14.1531L31.5929 13.3511L25.3364 14.017L10.0684 15.8854ZM31.943 13.9681L45.6783 15.4982L52.5281 16.3941L49.1851 22.1208C48.9988 26.2103 48.7477 30.2906 48.313 34.2678C48.0739 35.6591 47.8598 37.0875 46.5306 37.9754C45.2105 38.9453 43.6791 39.3946 42.1807 39.9416C38.8364 41.1123 35.3745 42.0134 31.943 42.982L31.9074 40.2891C36.2929 39.1765 41.014 38.8858 45.0877 37.0029C46.2663 36.4704 46.6706 35.2588 46.7459 34.0934L47.0644 21.5684C47.7739 20.3568 48.5126 19.1359 49.1838 17.907L31.9417 17.8846V13.9681H31.943ZM32.1558 35.1161H46.2769C45.8791 36.7955 44.0425 37.0584 42.7423 37.6253L39.2328 38.5145L32.1888 39.8967L32.1558 35.1161ZM31.7144 18.1607H31.9074V22.907L39.2817 22.9347L39.3438 22.8343V18.1594H48.6909L47.8149 19.7212H39.5975C39.4627 20.1586 39.5579 20.6858 39.5248 21.1707L39.6292 21.2421H46.89C46.6151 21.7812 46.7459 22.4855 46.7142 23.1104L39.5579 23.158L39.5248 28.039L39.6292 28.1104H46.5993V28.2861H31.98L31.906 28.3971V31.7956L46.5028 31.8273C46.5583 31.8577 46.5279 31.9449 46.5279 32.0004L31.9417 32.0334L31.906 34.6166L32.0051 34.6959H46.3971L46.3205 34.8703H31.943L31.9074 39.898C31.8796 39.9482 31.7937 39.935 31.7422 39.9429L31.7144 33.4908L24.3401 33.4512L24.2634 33.5648V38.4842C22.3237 38.0428 20.3655 37.6477 18.6399 36.7096H24.015C24.1472 36.259 24.0573 35.7199 24.0983 35.2191L23.9635 35.1636H17.3172C17.2062 34.5466 17.1256 33.9203 17.1137 33.2702L24.0137 33.2477L24.097 33.146V28.3627L23.9622 28.2887H16.9948V28.113H31.6246L31.7118 28.0007V24.6128L16.9261 24.5599V24.3895L31.6563 24.3578L31.7118 21.768L16.9036 21.7455C16.8309 21.6887 16.8613 21.5936 16.8613 21.5222H31.6563L31.7144 18.1607ZM46.5715 28.5636L46.5292 31.5472H32.1558V28.5636H46.5715ZM16.9287 24.8559H31.4515V27.821H16.9974L16.9287 24.8559ZM16.7226 21.2751L14.9097 18.1607H31.4502V21.2434L16.7226 21.2751ZM31.6259 13.9681V17.8832H14.4592L14.4882 18.0894L16.5733 21.6239L16.8296 33.6666C16.9287 34.6721 16.9604 35.7041 17.7466 36.4321C19.3111 37.6028 21.1847 38.019 23.0214 38.5145L31.5942 40.2495H31.6272C31.692 41.1361 31.6497 42.0769 31.6589 42.982C27.2655 41.7214 22.8034 40.597 18.5936 38.8687C16.9089 38.2556 15.4462 36.6079 15.3748 34.7659C14.8912 30.646 14.5754 26.4481 14.4261 22.1921C13.3545 20.2365 12.1455 18.3444 11.095 16.3941L25.3602 14.6499L31.6259 13.9681Z" fill="white"/>
<path d="M39.2319 24.8796H31.9805V26.3767L39.3099 26.3397C39.2795 25.8442 39.3786 25.3236 39.2319 24.8796Z" fill="white"/>
<path d="M31.6574 30.0605H24.3398V31.5021H31.6574V30.0605Z" fill="white"/>
</svg>
