<svg width="69" height="26" viewBox="0 0 69 26" fill="none" xmlns="http://www.w3.org/2000/svg">
<path d="M34.5915 25.2066C30.9944 25.2066 27.3974 25.2066 23.8003 25.2066C22.7361 25.2066 22.3444 24.8149 22.3428 23.7443C22.3412 22.9101 22.3444 22.0742 22.3428 21.24C22.3412 20.4581 22.1572 20.2662 21.3611 20.263C19.8877 20.2551 18.4159 20.2599 16.9425 20.2599C12.0846 20.2614 7.22664 20.2345 2.3703 20.2836C0.944491 20.2979 0.528958 19.4256 1.14115 18.2663C3.14903 14.4646 5.08395 10.6249 7.03156 6.79313C7.43599 5.99696 8.05453 5.63218 8.93476 5.63218C13.0425 5.63694 17.1487 5.63218 21.2564 5.6306C22.162 5.6306 22.3428 5.44821 22.3428 4.53626C22.3444 3.7163 22.3396 2.89475 22.346 2.07478C22.3523 1.09622 22.7409 0.694965 23.7052 0.694965C30.9706 0.691793 38.2361 0.690208 45.5016 0.69338C46.5055 0.69338 46.8719 1.07878 46.8735 2.0954C46.875 2.95819 46.8735 3.82097 46.8735 4.68534C46.875 5.42283 47.0876 5.63694 47.8409 5.63694C52.6132 5.63853 57.3871 5.63694 62.1593 5.63694C63.7168 5.63694 65.2758 5.63377 66.8333 5.63694C67.9593 5.64011 68.4161 6.39981 67.907 7.39423C65.9388 11.2323 63.9531 15.061 62.0213 18.9181C61.5376 19.884 60.8493 20.2916 59.8041 20.2836C57.6091 20.2646 55.4141 20.2805 53.219 20.2821C51.4491 20.2837 49.6791 20.2821 47.9075 20.2852C47.0432 20.2868 46.875 20.4613 46.875 21.3336C46.875 22.1678 46.8766 23.0036 46.875 23.8379C46.8735 24.8149 46.4865 25.2082 45.5127 25.2082C41.8712 25.2082 38.2313 25.2066 34.5915 25.2066ZM16.4905 16.4915C19.3944 16.4915 22.2968 16.4899 25.2008 16.4931C25.9478 16.4931 26.1333 16.6818 26.1333 17.4178C26.1349 18.4502 26.1302 19.4843 26.1349 20.5168C26.1381 21.1782 26.3728 21.4161 27.031 21.4161C32.0872 21.4176 37.1433 21.4176 42.1995 21.4161C42.8403 21.4161 43.0766 21.1766 43.0798 20.5469C43.0845 19.5287 43.0813 18.5089 43.0813 17.4907C43.0813 16.6771 43.2606 16.4979 44.0821 16.4979C46.8576 16.4963 49.6347 16.4979 52.4102 16.4963C54.3784 16.4963 56.3482 16.4915 58.3165 16.4995C58.7907 16.501 59.1031 16.3345 59.3236 15.8904C60.207 14.1189 61.1221 12.3616 62.0198 10.5979C62.3988 9.85253 62.1355 9.43224 61.2886 9.43065C59.5329 9.42748 57.7756 9.42907 56.0199 9.42907C52.0533 9.42907 48.0883 9.42907 44.1233 9.42907C43.2748 9.42907 43.0798 9.22923 43.0798 8.37438C43.0798 7.38313 43.0829 6.39346 43.0782 5.40221C43.075 4.71548 42.8482 4.4744 42.1615 4.47282C37.1338 4.46806 32.1046 4.46965 27.077 4.47282C26.3586 4.47282 26.1349 4.70437 26.1318 5.41649C26.127 6.40774 26.1302 7.3974 26.1302 8.38865C26.1302 9.23716 25.9367 9.42907 25.0787 9.42907C22.6854 9.42907 20.2921 9.42907 17.8972 9.42907C15.504 9.42907 13.1091 9.44493 10.7158 9.41796C10.1211 9.41162 9.75631 9.60511 9.53585 10.157C9.36932 10.5757 9.13301 10.9675 8.92683 11.3703C8.23692 12.7168 7.54225 14.0618 6.86027 15.413C6.58272 15.965 6.82696 16.4043 7.43599 16.482C7.58983 16.501 7.74684 16.4931 7.90227 16.4931C10.7682 16.4915 13.6293 16.4915 16.4905 16.4915Z" fill="white"/>
</svg>
