<svg width="70" height="16" viewBox="0 0 70 16" fill="none" xmlns="http://www.w3.org/2000/svg">
<path d="M0.458984 4.27844C0.458984 5.93539 0.458984 8.4816 0.458984 11.0371C0.458984 13.5846 1.98248 15.1107 4.63175 15.1107H17.709C20.4494 15.1107 22.187 13.718 22.187 11.1692V5.831H11.4815V9.15416H18.5176V10.5098C18.5176 11.3899 18.0327 11.633 17.3932 11.633H5.37699C4.50094 11.633 4.22346 11.1798 4.22346 10.4715V4.67748C4.22346 3.90714 4.65422 3.65213 5.12593 3.65213H22.1883V0.170411H4.5974C1.89131 0.16909 0.458984 1.82472 0.458984 4.27844Z" fill="white"/>
<path d="M37.7629 15.1108L43.7737 3.77775V15.1108H47.55V0.169189H41.7454L36.0214 10.9011L30.2895 0.169189H24.498V15.1108H28.2652V3.77775L34.2812 15.1108H37.7629Z" fill="white"/>
<path d="M69.6627 15.1108V11.353H54.6511C53.7777 11.353 53.4975 10.9011 53.4975 10.1981V4.95242C53.4975 4.18868 53.927 3.92177 54.4026 3.92177H69.6627V0.169189H53.8662C51.1614 0.169189 49.7344 1.82614 49.7344 4.27853C49.7344 5.93549 49.7344 8.4817 49.7344 11.0372C49.7344 13.5847 51.2499 15.1108 53.9005 15.1108H69.6627Z" fill="white"/>
</svg>
