<svg width="62" height="51" viewBox="0 0 62 51" fill="none" xmlns="http://www.w3.org/2000/svg">
<path d="M30.7962 50.4548C27.7677 50.3755 24.7234 50.3596 21.6949 50.1852C18.381 49.9791 15.0512 49.8522 11.7849 49.1229C9.9456 48.7106 8.20144 47.9971 6.64755 46.9347C4.77654 45.6504 3.6032 43.8111 2.96896 41.6388C2.0176 38.3883 1.43093 35.0744 1.01867 31.713C0.416142 26.7659 0.162446 21.8188 0.273438 16.8559C0.321006 14.6995 0.38443 12.5272 0.891822 10.4025C1.82733 6.48606 4.25329 3.98082 8.04288 2.74405C10.2627 2.01467 12.5618 1.71341 14.8768 1.49142C21.0924 0.873041 27.3079 0.746193 33.5552 0.841329C38.4071 0.920609 43.2749 1.09502 48.0951 1.64998C50.0613 1.87197 52.0116 2.23666 53.8826 2.91846C57.8307 4.36136 60.0506 7.21544 60.7324 11.2904C61.319 14.7946 61.3983 18.3305 61.2398 21.8664C61.0971 25.1644 60.8434 28.4466 60.5579 31.7288C60.2567 35.0427 59.6383 38.3091 58.6711 41.4961C57.8466 44.2233 56.2293 46.3163 53.6606 47.6482C51.6469 48.6947 49.5063 49.2973 47.2548 49.551C41.7844 50.1693 36.2983 50.5023 30.7962 50.4548ZM30.7011 48.3776C34.8237 48.1715 38.9462 47.9971 43.0529 47.7434C44.7337 47.6324 46.4303 47.4738 48.0793 47.1091C51.1395 46.4273 53.6923 44.9369 55.0876 41.9559C55.4999 41.0839 55.8487 40.1484 56.0548 39.2129C57.0696 34.8049 57.7356 30.3811 57.8149 25.8304C57.8783 21.3907 58.0051 16.951 57.5136 12.5431C57.1013 8.83275 55.373 6.07381 51.7103 4.77362C51.0919 4.55163 50.4577 4.36136 49.8076 4.23451C45.7643 3.41 41.6417 3.12459 37.535 2.99774C30.7011 2.79162 23.8513 2.79162 17.0332 3.47343C14.9719 3.67955 12.8948 3.98082 10.8652 4.42479C7.13909 5.2493 4.71312 7.53256 4.11059 11.3856C3.76176 13.6213 3.6032 15.8887 3.53977 18.1561C3.47635 20.7089 3.58734 23.2776 3.66662 25.8304C3.79347 30.492 4.44357 35.0744 5.56934 39.5934C6.53656 43.5257 9.01009 46.0151 12.9107 46.9664C14.6865 47.3945 16.5417 47.6165 18.381 47.7434C22.4718 48.0129 26.5944 48.1715 30.7011 48.3776Z" fill="white"/>
<path d="M49.0781 5.23335C48.1267 18.9647 47.1912 32.5532 46.2398 46.2211C45.3043 46.3321 44.4798 46.459 43.6553 46.5224C42.704 46.6017 41.7526 46.6334 40.8012 46.6809C40.0084 46.7127 39.9926 46.7127 39.8182 45.904C39.2156 43.0499 38.3118 40.3068 37.1861 37.6272C36.6311 36.3111 35.6163 35.5659 34.2686 35.3439C31.9377 34.9634 29.5752 35.0109 27.2444 35.3598C25.8966 35.5659 24.8977 36.3428 24.3427 37.6589C23.2328 40.3227 22.329 43.0341 21.7106 45.8564C21.663 46.1101 21.5679 46.3638 21.4569 46.7285C19.4273 46.6017 17.4136 46.459 15.3365 46.3321C14.179 32.6167 13.3545 18.9964 12.4824 5.34435C13.9253 4.9638 15.3206 5.12236 16.7953 5.10651C17.0172 6.07372 17.2234 7.02508 17.4453 7.96059C18.7138 13.3516 19.9823 18.7427 21.2825 24.1178C21.5203 25.0851 21.8692 26.0364 22.218 26.9719C23.2169 29.6199 25.0721 31.2055 27.9579 31.4909C29.9716 31.697 31.9694 31.6812 33.9673 31.3799C36.2981 31.0152 38.0423 29.715 38.8985 27.511C39.6596 25.5607 40.3256 23.5312 40.8329 21.5016C42.1014 16.3008 43.2589 11.0842 44.4798 5.86759C44.6542 5.10651 44.6542 5.09065 45.3995 5.10651C46.557 5.13822 47.7145 5.18579 49.0781 5.23335Z" fill="white"/>
</svg>
