<svg width="63" height="33" viewBox="0 0 63 33" fill="none" xmlns="http://www.w3.org/2000/svg">
<path d="M33.8841 0.377686C34.8198 0.456986 35.7714 0.520427 36.7071 0.599727C41.8458 0.996227 46.8734 1.96369 51.6314 4.00963C54.9144 5.42117 57.912 7.22921 60.1799 10.0681C63.1775 13.7952 63.5581 18.2519 61.2426 22.4548C59.5773 25.4682 57.0555 27.5934 53.9945 29.1001C50.8067 30.6861 47.3968 31.5743 43.9234 32.2563C42.6705 32.4942 41.4176 32.6845 40.1646 32.8907C39.9902 32.9224 39.7998 32.9224 39.5937 32.9383C36.8975 25.1034 34.2171 17.2844 31.4733 9.30687C31.3465 9.63993 31.2672 9.81439 31.2196 9.98885C28.682 17.4748 26.1285 24.9448 23.5909 32.4307C23.4799 32.7638 23.3847 33.0017 22.9248 32.9224C18.9281 32.3356 14.9789 31.5426 11.1725 30.0993C7.95297 28.8781 5.09817 27.1176 2.94121 24.3739C1.22833 22.201 0.213287 19.7586 0.197427 16.9514C0.181567 14.049 1.33935 11.6224 3.22669 9.51305C5.46295 7.00717 8.28603 5.326 11.3311 4.02549C15.4072 2.28089 19.6894 1.31343 24.0984 0.853486C25.5734 0.694886 27.0801 0.615586 28.5551 0.504566C28.7137 0.488706 28.8723 0.456986 29.0309 0.425266C30.6803 0.377686 32.2822 0.377686 33.8841 0.377686ZM31.4892 5.64321C31.6478 5.84939 31.7588 5.99213 31.8698 6.13487C36.0886 11.7969 40.3074 17.443 44.5103 23.1209C44.7323 23.4223 44.9385 23.5491 45.3191 23.454C46.4135 23.2002 47.5395 23.0575 48.618 22.7403C51.0129 22.0266 53.265 21.0115 55.073 19.2352C57.3093 17.0465 57.6899 14.4296 56.1832 11.6859C55.0255 9.59235 53.265 8.13323 51.2666 6.91201C47.2065 4.45371 42.7181 3.28007 38.0711 2.67739C33.8206 2.12229 29.586 2.10643 25.3355 2.64567C21.2278 3.18491 17.2628 4.18409 13.5515 6.02385C11.2518 7.16577 9.12661 8.56145 7.52475 10.6232C6.25595 12.2568 5.54225 14.0649 6.01805 16.1584C6.38283 17.7444 7.38201 18.918 8.61909 19.8855C11.2201 21.9156 14.2494 22.9465 17.469 23.4698C17.9606 23.5491 18.262 23.4381 18.5633 23.0258C22.7186 17.3955 26.8898 11.7652 31.061 6.15073C31.1879 6.00799 31.3147 5.84939 31.4892 5.64321Z" fill="white"/>
</svg>
