<svg width="52" height="59" viewBox="0 0 52 59" fill="none" xmlns="http://www.w3.org/2000/svg">
<path d="M25.8513 0.485596C30.5874 0.518893 35.2872 0.905781 39.9377 1.80957C42.6967 2.34551 45.4001 3.07647 47.9973 4.16895C49.4466 4.7794 50.631 5.68954 51.1749 7.21647C51.4095 7.87449 51.5951 8.59118 51.603 9.28409C51.687 16.9885 50.6437 24.5233 48.0972 31.8186C45.7172 38.6383 42.018 44.6731 37.2073 50.0419C35.0557 52.4425 32.7565 54.6941 30.3163 56.7982C29.7122 57.3198 29.0367 57.7813 28.3343 58.1586C26.7043 59.0323 25.0347 58.9942 23.4142 58.1111C22.8053 57.7781 22.2107 57.3864 21.6875 56.9314C17.6236 53.405 13.8911 49.5647 10.7357 45.1868C6.40863 39.1837 3.51491 32.5448 1.89443 25.3383C1.04454 21.5646 0.530809 17.7433 0.33578 13.8807C0.261257 12.4172 0.21686 10.9506 0.237472 9.48546C0.269184 7.11975 1.31727 5.3518 3.49588 4.33702C5.48264 3.41261 7.57087 2.78313 9.69558 2.2694C13.214 1.41951 16.788 0.929564 20.3968 0.712337C22.2139 0.60293 24.0342 0.558533 25.8513 0.485596ZM26.0748 2.02521C22.2472 2.03314 18.6653 2.25513 15.1041 2.77203C12.2088 3.19222 9.35309 3.78523 6.58304 4.73659C5.52545 5.09969 4.45675 5.45011 3.50381 6.05898C2.64917 6.60443 2.07201 7.36869 1.89284 8.37237C1.77709 9.0193 1.70732 9.68366 1.71525 10.3401C1.76599 14.959 2.21313 19.5366 3.15973 24.0619C4.45675 30.2663 6.69562 36.0966 10.065 41.4797C13.5026 46.9738 17.8789 51.6418 22.7593 55.8611C23.2382 56.2749 23.8042 56.6095 24.3719 56.8965C25.3898 57.4102 26.4601 57.4245 27.4702 56.8981C28.1345 56.5524 28.783 56.1338 29.3475 55.6439C32.0874 53.2686 34.6561 50.719 37.0186 47.9648C43.4149 40.5046 47.3425 31.8947 49.0454 22.24C49.5132 19.5857 49.8398 16.9156 49.992 14.2264C50.0792 12.6868 50.1189 11.144 50.122 9.6028C50.1252 8.59277 49.9032 7.62238 49.2262 6.81531C48.733 6.22705 48.0956 5.8481 47.3996 5.55476C45.1068 4.58754 42.722 3.92001 40.2897 3.41579C35.5266 2.42479 30.7032 2.04107 26.0748 2.02521Z" fill="white"/>
<path d="M27.7739 37.7614C27.9404 37.4966 27.9452 37.059 28.4018 37.2492C28.5921 37.3301 28.8141 37.4728 28.7364 37.6821C28.6793 37.8359 28.4383 37.9231 28.2432 38.0674C28.3003 38.1974 28.4573 38.3433 28.6777 38.3132C29.1407 38.2513 29.6021 38.1705 30.054 38.0547C30.3236 37.9849 30.4583 37.7312 30.5122 37.4696C30.5883 37.1049 30.6645 36.7355 30.6867 36.3645C30.7231 35.7223 30.9721 35.1816 31.37 34.6948C31.8616 34.0955 32.4594 33.6182 33.1158 33.2155C33.3838 33.0506 33.5312 32.8349 33.582 32.5321C33.6375 32.2023 33.685 31.8693 33.7722 31.5458C33.888 31.1177 34.0941 31.0543 34.4636 31.2842C34.9741 31.6029 35.2833 32.0802 35.3991 32.6446C35.5418 33.3455 35.6195 34.0606 35.6892 34.7725C35.8018 35.9142 35.8811 37.0605 35.9826 38.2038C35.9952 38.3433 36.0317 38.4939 36.1015 38.6144C36.2997 38.9617 36.2696 39.3073 36.1633 39.6689C36.0317 40.1144 35.8066 40.2365 35.3404 40.097C35.3198 39.7323 35.3198 39.7323 35.0169 39.6197C34.9852 39.8084 34.9535 39.9891 34.9234 40.1715C34.3018 40.1826 33.8261 39.6467 33.9482 39.0536C33.9863 38.8681 34.0545 38.6858 34.1242 38.5082C34.2321 38.2371 34.3193 37.9897 34.1639 37.6869C34.0878 37.5394 34.1575 37.3127 34.1702 37.124C34.1908 36.8179 34.2289 36.5135 34.2352 36.2075C34.2384 36.0791 34.2146 35.9284 34.1464 35.8238C33.7913 35.2815 33.4186 34.7519 33.046 34.2112C32.0487 34.7408 31.4271 35.5336 31.2702 36.6641C31.2131 37.0716 31.1496 37.4791 31.0973 37.8866C31.0054 38.597 30.6565 39.0108 29.9446 39.0584C29.2913 39.1028 28.627 39.0632 27.9737 38.9997C27.4679 38.9506 27.1159 38.6255 26.9637 38.134C26.8257 37.6884 26.7195 37.2334 26.599 36.7783C26.174 36.8021 26.0107 36.9622 26.0313 37.3935C26.0408 37.6028 26.0821 37.8105 26.1154 38.0182C26.1566 38.2624 26.0868 38.44 25.8252 38.4908C25.5652 38.5415 25.535 38.689 25.6096 38.9125C25.6762 39.1123 25.7332 39.3153 25.7729 39.523C25.8252 39.7973 25.7142 39.986 25.4431 40.0351C24.9436 40.1239 24.441 40.1937 23.9383 40.2492C23.8305 40.2619 23.6593 40.2127 23.6133 40.1366C23.5737 40.07 23.6402 39.8988 23.7084 39.8131C23.8511 39.6387 23.7798 39.5214 23.6212 39.3612C23.5419 39.4913 23.4833 39.6181 23.3961 39.7196C23.3326 39.7925 23.2248 39.8766 23.1471 39.8686C23.0758 39.8607 22.9886 39.745 22.96 39.6593C22.8696 39.3882 22.9188 39.1234 23.09 38.8967C23.2692 38.6604 23.4928 38.4559 23.6577 38.2117C23.9923 37.7138 24.303 37.2001 24.6186 36.6895C24.6661 36.6134 24.6804 36.5167 24.7296 36.3771C24.3538 36.4374 24.0953 36.588 23.9843 36.8956C23.7576 37.5299 23.3596 38.0119 22.8459 38.4448C22.5589 38.6858 22.3543 39.0536 22.1894 39.4025C21.9294 39.9543 21.7233 40.5346 21.5124 41.1086C21.1746 42.0298 20.6752 42.0948 19.8063 42.19C19.5954 42.2122 19.6049 42.0409 19.6001 41.8919C19.5938 41.7143 19.7048 41.5002 19.5034 41.4083C19.3211 41.5319 19.172 41.6588 19.0008 41.7396C18.8216 41.8237 18.7043 41.7317 18.6868 41.5351C18.6107 40.6836 18.7376 39.9051 19.486 39.3549C19.903 39.0489 20.3121 38.7333 20.7354 38.4368C21.0906 38.1879 21.2523 37.8851 21.2714 37.43C21.3142 36.3867 21.1588 35.3608 21.0922 34.327C21.0874 34.2572 20.9986 34.1605 20.9273 34.1367C20.8765 34.1192 20.7624 34.1843 20.7275 34.2413C20.1789 35.1721 19.6366 36.1076 19.1007 37.0463C19.0579 37.1224 19.061 37.2318 19.0626 37.3253C19.0785 38.264 18.8184 39.0663 17.9654 39.5816C17.7989 39.6831 17.7164 39.8179 17.7275 40.0304C17.7529 40.4981 17.7513 40.9675 17.7577 41.4368C17.7608 41.6857 17.6927 41.8982 17.4929 42.0742C17.3946 42.1614 17.3343 42.3089 17.2931 42.4405C17.2535 42.5657 17.2503 42.7053 17.2471 42.8385C17.2313 43.5583 17.2027 43.5996 16.4686 43.6519C16.1182 43.6772 15.7662 43.6566 15.3935 43.6566C15.4031 43.4537 15.4364 43.2523 15.411 43.0589C15.3967 42.9526 15.2841 42.8591 15.216 42.7592C15.1811 42.8559 15.1303 42.951 15.1161 43.0509C15.0954 43.2016 15.1161 43.3585 15.0875 43.5076C15.0748 43.5758 14.9987 43.655 14.9321 43.6804C14.8972 43.6931 14.8085 43.6107 14.7688 43.5536C14.5088 43.1778 14.4358 42.7719 14.6737 42.3675C14.8608 42.0504 15.097 41.7634 15.3111 41.4622C15.3476 41.4098 15.4046 41.3591 15.411 41.302C15.5014 40.5235 15.9977 40.0098 16.5669 39.5547C16.727 39.4263 16.7968 39.3153 16.7572 39.1028C16.708 38.8317 16.7001 38.551 16.6937 38.2735C16.6842 37.9231 16.7461 37.5917 16.9601 37.2952C17.4358 36.634 17.3898 35.8951 17.282 35.1404C17.2249 34.744 17.1678 34.3349 17.2043 33.9401C17.2392 33.5611 17.366 33.1806 17.504 32.8222C17.6831 32.3608 17.8465 31.9073 17.7593 31.4047C17.5833 30.3978 17.7386 29.429 18.1874 28.5284C18.5013 27.8974 18.8961 27.3012 19.302 26.7224C19.6747 26.1928 19.7508 25.6395 19.7032 25.01C19.662 24.4629 19.7016 23.8985 19.7952 23.3562C19.8411 23.0866 20.0425 22.8044 20.2518 22.6126C20.7085 22.194 21.1953 21.8023 21.7074 21.4551C22.1482 21.1554 22.6334 20.9144 23.1138 20.6781C23.6371 20.4213 24.0699 20.0772 24.4822 19.6586C24.8913 19.2416 25.3987 18.9102 25.8981 18.5962C26.3056 18.3394 26.7464 18.4884 27.1714 18.6375C28.0561 18.9466 28.9377 19.2638 29.8352 19.5333C30.3172 19.6792 30.8246 19.7585 31.3257 19.8235C31.8679 19.8948 32.0519 19.6681 31.9456 19.1353C31.7664 18.2442 31.4588 17.9461 30.5566 17.7654C29.6497 17.583 28.7332 17.5513 27.812 17.5814C26.7306 17.6163 25.6476 17.675 24.5662 17.656C23.9019 17.6449 23.2375 17.5196 22.5779 17.4197C22.3956 17.3928 22.2164 17.2929 22.0515 17.1977C21.3142 16.776 21.2079 15.9705 21.8422 15.406C22.5747 14.7543 23.4405 14.3547 24.4172 14.2311C25.9251 14.0392 27.3743 14.3135 28.7871 14.8241C28.9615 14.8875 29.1344 14.9969 29.266 15.1269C29.4832 15.3394 29.4039 15.5931 29.1106 15.6645C28.7475 15.7532 28.4018 15.7342 28.0577 15.5376C27.8786 15.4345 27.6423 15.3933 27.433 15.3949C27.1603 15.3965 26.9193 15.3838 26.7449 15.1444C26.7211 15.1127 26.6672 15.1032 26.6148 15.0762C26.4927 15.2982 26.526 15.4726 26.7496 15.5519C26.9431 15.6216 27.1555 15.6407 27.3601 15.674C27.4441 15.6867 27.5614 15.6391 27.6122 15.6803C27.72 15.7707 27.8183 15.8912 27.869 16.0196C27.8833 16.0545 27.7248 16.2162 27.636 16.2273C26.729 16.3352 25.8141 16.4097 24.9389 16.0751C24.5884 15.9403 24.2618 15.7263 23.9526 15.5075C23.7164 15.3394 23.4928 15.2712 23.2343 15.3949C23.0361 15.4885 22.8395 15.5931 22.6619 15.72C22.5541 15.7976 22.4828 15.9261 22.3956 16.0323C22.5145 16.1163 22.6239 16.248 22.7555 16.2781C23.2121 16.3811 23.6767 16.4525 24.1381 16.5286C25.8458 16.8124 27.5583 16.6253 29.2707 16.5873C29.905 16.573 30.563 16.6237 31.1718 16.7855C32.5053 17.1359 33.3521 18.5566 33.0524 19.8267C33 20.0471 32.8906 20.2532 32.7939 20.5021C33.333 21.2521 33.8642 22.0608 34.4699 22.8123C35.0915 23.5845 35.3055 24.4344 35.166 25.3905C35.0835 25.9518 35.1739 26.4925 35.2659 27.0427C35.3784 27.7118 35.4244 28.3905 35.4942 29.0659C35.5021 29.1484 35.4847 29.234 35.4783 29.3387C35.1977 29.3387 34.9329 29.3387 34.7046 29.3387C34.6094 28.9312 34.5476 28.5157 34.416 28.1225C34.1797 27.4185 34.1496 26.7161 34.3319 26.001C34.5127 25.3001 34.454 24.6057 34.0767 24C33.4757 23.0343 32.8082 22.1099 32.1613 21.1744C32.1216 21.1157 32.0043 21.0539 31.9488 21.0729C31.5778 21.1871 31.2131 21.3219 30.85 21.4567C30.8167 21.4693 30.8024 21.5296 30.7643 21.5914C30.8912 21.6311 31.0085 21.6438 31.0973 21.7008C31.2226 21.7833 31.3859 21.8784 31.4271 22.0021C31.5952 22.5079 31.7554 23.0216 31.8521 23.5449C31.925 23.9365 31.7458 24.0729 31.3368 24.0697C30.888 24.0665 30.5107 23.8985 30.2237 23.5607C29.9446 23.2325 29.6941 22.8805 29.4213 22.5475C28.7538 21.7325 28.0815 20.9207 27.4045 20.1136C27.3442 20.0423 27.2269 20.0185 27.1365 19.9741C27.1444 20.1025 27.1032 20.2659 27.1666 20.3515C27.6249 20.9651 28.1069 21.5613 28.5778 22.1654C29.5197 23.3784 30.2189 24.7262 30.7628 26.1548C30.8595 26.4101 30.9039 26.6907 30.9308 26.9634C30.9515 27.1743 30.8135 27.2425 30.6724 27.0919C30.5075 26.9159 30.3775 26.7002 30.2633 26.4846C30.1 26.177 29.9652 25.8535 29.8177 25.538C29.7416 25.5697 29.7163 25.5713 29.7115 25.5824C29.5133 26.0454 29.3135 26.1532 28.8061 26.066C28.7411 26.0549 28.6761 26.0168 28.6127 26.0184C28.4969 26.0216 28.3479 26.0089 28.2765 26.0723C28.2179 26.1247 28.202 26.3181 28.2528 26.3784C28.3114 26.4497 28.4621 26.4592 28.5746 26.4703C28.7823 26.4893 28.998 26.4624 29.2009 26.5004C29.5086 26.5591 29.6306 26.7351 29.6639 27.1585C29.5276 27.0919 29.4324 27.0173 29.3294 27.0031C29.1185 26.9714 28.8997 26.9492 28.6904 26.9745C28.6301 26.9825 28.5921 27.1696 28.5255 27.3123C28.6904 27.3456 28.8077 27.3805 28.9251 27.39C29.1153 27.4042 29.3072 27.4027 29.499 27.4058C30.1919 27.4169 30.3759 27.5454 30.601 28.1986C31.0054 28.1986 31.416 28.2176 31.8251 28.1955C32.9017 28.1336 33.7564 28.5633 34.481 29.326C34.5571 29.4053 34.6982 29.4243 34.8092 29.4687C35.0518 29.5686 35.3277 29.6241 35.5307 29.7763C35.8573 30.0221 36.1364 30.3328 36.436 30.6135C37.0941 31.2335 37.8948 31.3191 38.7399 31.2113C38.8366 31.1986 38.9207 31.1066 39.0174 31.0749C39.1062 31.0464 39.2045 31.0479 39.298 31.0353C39.3044 31.1399 39.3456 31.262 39.3076 31.3476C39.2537 31.465 39.1506 31.5649 39.0507 31.6521C38.2198 32.3688 37.2732 32.6034 36.2474 32.188C35.7701 31.9945 35.3388 31.6695 34.917 31.3635C34.6522 31.1716 34.4271 30.9481 34.0798 30.8941C33.9958 30.8815 33.8864 30.7229 33.8753 30.6214C33.8468 30.3566 33.8658 30.0871 33.8658 29.8207C33.1095 29.6383 32.4863 29.0215 31.592 29.2689C31.6856 29.3593 31.7585 29.4481 31.8489 29.5099C32.0138 29.6225 32.1993 29.7081 32.3595 29.8302C32.4213 29.8762 32.4324 29.9888 32.4657 30.0712C32.3912 30.1013 32.3135 30.1648 32.2437 30.1568C31.7427 30.1013 31.2258 30.0902 30.9023 29.5829C30.8373 29.4814 30.6407 29.4639 30.452 29.3862C30.4647 29.8603 30.1476 29.8302 29.8606 29.8667C29.7765 29.8778 29.6528 29.946 29.6322 30.0125C29.6053 30.1061 29.6227 30.2631 29.6861 30.3202C29.8082 30.4327 29.9684 30.5421 30.1269 30.5691C30.8325 30.6896 31.5413 30.7911 32.2516 30.8735C32.4229 30.8926 32.6036 30.799 32.7812 30.7768C32.8938 30.7625 33.0127 30.7816 33.1285 30.7847C33.0873 30.8926 33.0698 31.0226 32.9985 31.1066C32.6528 31.5189 32.2041 31.7646 31.6713 31.8392C30.4567 32.012 29.3405 31.7948 28.4034 30.9544C27.8532 30.4613 27.5884 29.8603 27.7501 29.1024C27.8135 28.8027 27.9705 28.6093 28.2543 28.5427C28.7078 28.4365 29.1692 28.3572 29.6544 28.262C29.6735 28.0971 29.5989 27.9846 29.3849 27.9529C28.8838 27.8783 28.4066 27.9782 27.9594 28.1828C27.6867 28.308 27.4647 28.2906 27.1967 28.1828C26.9859 28.0987 26.7401 28.0908 26.507 28.0813C26.461 28.0797 26.3627 28.2176 26.3675 28.2874C26.3818 28.5253 26.396 28.7742 26.4753 28.9946C26.5562 29.2182 26.6894 29.437 26.8495 29.6146C27.1127 29.9047 27.4314 30.1426 27.6962 30.4311C28.0958 30.8672 28.0879 31.3207 27.7787 31.8201C27.3347 32.5368 26.9256 33.2773 26.7623 34.1177C26.7084 34.3951 26.7544 34.6917 26.7544 34.9786C26.7956 34.9913 26.8368 35.0024 26.878 35.0151C26.9605 34.9232 27.062 34.8407 27.1222 34.7361C27.2443 34.5204 27.3379 34.2873 27.4552 34.0701C27.5614 33.8735 27.6851 33.6721 27.9626 33.7561C28.2496 33.8418 28.2797 34.0733 28.2195 34.3127C28.156 34.5711 28.0657 34.8248 27.9674 35.0738C27.8437 35.3846 27.6899 35.6842 27.563 35.9934C27.3506 36.5103 27.4013 37.0241 27.6185 37.5283C27.655 37.5949 27.7089 37.6583 27.7739 37.7614ZM26.2359 35.5701C25.9869 35.1087 25.7745 34.717 25.562 34.3254C25.3717 33.9734 25.145 33.6372 24.9975 33.2678C24.7851 32.735 24.8881 32.2324 25.2877 31.8059C25.5303 31.5474 25.7745 31.2921 26.0218 31.0384C26.4182 30.6341 26.4325 30.4137 26.1392 29.9253C25.998 29.6907 25.8997 29.4306 25.7808 29.1817C25.6444 28.8995 25.5255 28.6045 25.3606 28.3397C25.2211 28.1146 25.0023 28.0765 24.7311 28.1574C24.3506 28.2716 24.1445 28.5173 24.0271 28.8757C23.8987 29.2673 23.6307 29.4941 23.2153 29.5464C22.8189 29.5971 22.4859 29.4639 22.1752 29.2293C21.7899 28.9375 21.5108 29.0104 21.3047 29.4449C21.2143 29.6352 21.1477 29.8365 21.051 30.0221C20.9003 30.3091 20.5816 30.4185 20.293 30.2773C20.1773 30.2203 20.0726 30.1251 19.9902 30.0252C19.8412 29.8445 19.7254 29.8524 19.5764 30.0268C19.3686 30.2678 19.2434 30.5231 19.2339 30.8529C19.2275 31.0955 19.1593 31.3413 19.0864 31.5759C18.8327 32.3878 18.541 33.1885 18.3142 34.0083C18.2112 34.3793 18.2048 34.782 18.2016 35.1705C18.2001 35.3037 18.3396 35.4369 18.4157 35.5717C18.5425 35.4892 18.7043 35.4353 18.7883 35.3211C19.1134 34.8835 19.4162 34.4284 19.7222 33.9781C19.8507 33.7894 20.0013 33.6055 20.0822 33.3962C20.1694 33.1679 20.3026 33.0331 20.5356 33.0252C21.1651 33.0014 21.7962 32.9681 22.4257 32.9887C22.681 32.9982 22.9458 33.1124 23.1773 33.2345C23.2851 33.2916 23.3834 33.485 23.3723 33.6071C23.3644 33.7007 23.1899 33.8227 23.0694 33.8545C22.8506 33.9131 22.6175 33.929 22.3892 33.9353C22.1942 33.9401 22.0927 34.0178 22.1165 34.2096C22.1783 34.7154 22.2497 35.2212 22.3194 35.7334C23.6402 35.6779 24.8818 35.6256 26.2359 35.5701ZM27.3268 23.1247C27.3331 23.1564 27.341 23.1865 27.3474 23.2183C27.2522 23.2579 27.1587 23.3245 27.062 23.3308C26.8638 23.3435 26.6624 23.3245 26.4626 23.3134C26.2248 23.3007 26.0821 23.3768 26.071 23.6464C26.0599 23.9159 26.1566 24.038 26.4357 24.0047C26.5768 23.9873 26.7369 24.0301 26.8622 23.9793C27.2221 23.8366 27.3997 24.0237 27.5916 24.2854C27.7929 24.5613 28.0181 24.8261 28.2718 25.0512C28.5049 25.2589 28.7697 25.1796 28.906 24.8974C28.9615 24.7817 28.9932 24.6421 28.998 24.5121C29.0281 23.6765 28.1148 22.7394 27.2776 22.7457C27.211 22.7457 27.1302 22.8155 27.0873 22.8758C27.0715 22.898 27.1413 22.9931 27.1872 23.0407C27.2205 23.0819 27.2792 23.0993 27.3268 23.1247ZM21.7645 25.8519C21.7597 25.8979 21.7486 25.9439 21.7486 25.9915C21.7566 26.3292 21.7581 26.632 21.514 26.9444C21.1889 27.363 21.4505 27.9291 21.9738 27.9941C22.4209 28.0496 22.8792 28.0052 23.3897 28.0052C23.2946 27.8577 23.2454 27.7039 23.1408 27.6357C22.5541 27.2584 22.2703 26.6875 22.0895 26.0485C22.0435 25.8789 21.9833 25.7885 21.7645 25.8519ZM35.0027 34.8486C34.9535 34.2873 34.9139 33.8021 34.8695 33.3169C34.8568 33.1837 34.8536 33.0458 34.8156 32.9205C34.7838 32.8175 34.7077 32.7303 34.6507 32.6351C34.5634 32.6986 34.454 32.7461 34.3906 32.827C34.2923 32.9538 34.2225 33.1045 34.1433 33.2456C34.0228 33.4644 33.8547 33.7022 33.9974 33.9417C34.2035 34.2905 34.4493 34.6219 34.7188 34.9232C34.8298 35.0484 34.9852 34.9691 35.0027 34.8486ZM17.7339 38.6969C18.0922 38.6604 18.4569 38.1958 18.403 37.8422C18.3681 37.6123 18.1557 37.5219 17.9622 37.6567C17.6847 37.8486 17.5928 38.2688 17.7339 38.6969ZM23.2232 37.162C23.2217 36.9702 23.1075 36.8592 22.9204 36.8671C22.6889 36.8766 22.3559 37.2476 22.3527 37.5061C22.3496 37.7122 22.5034 37.763 22.6588 37.7645C22.8982 37.7677 23.2248 37.4062 23.2232 37.162ZM25.229 15.6565C25.4986 15.739 25.7475 15.8262 26.0044 15.8928C26.1487 15.9308 26.2882 15.9261 26.3183 15.7168C26.3485 15.5154 26.3199 15.3822 26.0789 15.3727C25.9663 15.3679 25.8522 15.3442 25.7412 15.3204C25.4891 15.2681 25.3162 15.3505 25.229 15.6565Z" fill="white"/>
<path d="M15.7685 10.3686C15.7685 9.37446 15.7685 8.41041 15.7685 7.44478C15.7463 7.44002 15.7241 7.43527 15.7019 7.43051C15.3356 8.5769 14.9694 9.72329 14.5777 10.9442C14.148 9.74707 13.7437 8.62129 13.3394 7.49552C13.3188 7.4971 13.2981 7.50028 13.2775 7.50186C13.2775 7.66676 13.2775 7.83008 13.2775 7.99498C13.2791 8.81949 13.2775 9.64242 13.2855 10.4669C13.287 10.6271 13.2537 10.7111 13.0762 10.7317C12.832 10.7603 12.591 10.8205 12.3262 10.8713C12.3262 8.85596 12.3262 6.86921 12.3262 4.86184C12.6496 4.80158 12.9652 4.74292 13.3061 4.67791C13.7072 5.75453 14.1036 6.81847 14.5206 7.94107C14.5761 7.78251 14.6158 7.67786 14.6507 7.57163C14.9773 6.5616 15.3055 5.55157 15.6226 4.53838C15.6765 4.36554 15.7558 4.28944 15.9366 4.27199C16.1823 4.24821 16.4249 4.1943 16.6945 4.1499C16.7024 4.25772 16.7119 4.33859 16.7119 4.42104C16.7135 6.26034 16.7088 8.09963 16.7167 9.93893C16.7183 10.1546 16.6644 10.2497 16.4392 10.2624C16.2252 10.2751 16.0111 10.329 15.7685 10.3686Z" fill="white"/>
<path d="M41.961 5.56106C42.0007 5.55948 42.0197 5.55313 42.0371 5.55789C42.3622 5.63876 42.7634 5.63083 42.9901 5.82586C43.2152 6.0193 43.2707 6.4157 43.3881 6.72648C43.7813 7.76346 44.1682 8.80203 44.6011 9.83742C44.6011 8.64505 44.6011 7.45268 44.6011 6.21909C44.915 6.32056 45.1909 6.3935 45.4509 6.50608C45.5191 6.53462 45.5667 6.68525 45.5683 6.78039C45.5746 7.90141 45.5699 9.02243 45.5683 10.1434C45.5667 10.9949 45.5683 11.848 45.5683 12.7438C45.2194 12.6455 44.8976 12.5694 44.5868 12.4568C44.5028 12.4267 44.4377 12.2951 44.4013 12.1952C43.9383 10.9584 43.4832 9.71851 43.025 8.48015C42.9964 8.40246 42.9631 8.32635 42.8886 8.25658C42.8886 9.46481 42.8886 10.673 42.8886 11.9336C42.581 11.848 42.3083 11.7798 42.0435 11.691C41.9943 11.6751 41.9436 11.5768 41.9436 11.5166C41.9373 9.55202 41.9357 7.58904 41.9357 5.62449C41.9341 5.60704 41.9484 5.5896 41.961 5.56106Z" fill="white"/>
<path d="M20.599 6.63772C21.1762 7.34172 21.3015 8.2471 20.9098 8.97806C20.6371 9.48704 20.2248 9.82477 19.6413 9.91198C19.0452 10.0008 18.4474 10.0705 17.8496 10.1467C17.8052 10.153 17.7592 10.1467 17.6974 10.1467C17.691 10.0468 17.6799 9.96272 17.6799 9.88027C17.6752 8.00451 17.6752 6.12874 17.6641 4.25298C17.6625 4.02465 17.7212 3.93586 17.9574 3.91841C18.3189 3.89146 18.6773 3.81852 19.0372 3.77413C20.5229 3.58702 21.3807 4.66206 20.867 6.07325C20.7972 6.2651 20.691 6.44586 20.599 6.63772ZM18.644 9.10174C18.9246 9.06369 19.1688 9.02087 19.4162 9.00185C19.7412 8.97806 19.9727 8.80841 20.0663 8.51824C20.1424 8.28199 20.1693 8.01243 20.1456 7.76349C20.1107 7.38136 19.9077 7.23232 19.5192 7.24976C19.2814 7.26086 19.042 7.2894 18.8073 7.33538C18.7439 7.34807 18.6535 7.45272 18.6519 7.51614C18.6392 8.03305 18.644 8.54995 18.644 9.10174ZM18.6678 6.40622C18.9151 6.37768 19.1308 6.33963 19.348 6.32853C19.9109 6.29999 20.2565 5.38351 19.9648 4.97284C19.8665 4.83489 19.6699 4.7128 19.5034 4.68902C19.2735 4.65572 19.0293 4.71438 18.793 4.74927C18.7455 4.75561 18.6741 4.83013 18.6725 4.87295C18.6646 5.37717 18.6678 5.88139 18.6678 6.40622Z" fill="white"/>
<path d="M29.9593 9.95164C28.9794 10.0388 28.9794 10.0388 28.6829 9.17786C28.5053 8.66254 28.3135 8.15039 28.1517 7.63032C28.0836 7.40992 27.9821 7.31003 27.7474 7.34332C27.6174 7.36235 27.4842 7.3465 27.3114 7.3465C27.3114 7.80473 27.3114 8.23285 27.3114 8.65937C27.3114 9.07956 27.3114 9.49974 27.3114 9.93895C26.9974 9.93895 26.7057 9.93895 26.3965 9.93895C26.3965 7.83169 26.3965 5.73711 26.3965 3.58862C27.2543 3.65998 28.1216 3.46178 28.9509 3.79317C29.6089 4.05638 29.9149 4.57487 29.9752 5.26143C30.0386 5.99081 29.8325 6.61553 29.2204 7.04682C29.0381 7.17525 29.0254 7.27514 29.0936 7.46224C29.3838 8.28041 29.6644 9.10334 29.9593 9.95164ZM27.3383 6.39989C27.6539 6.39989 27.9409 6.39989 28.2263 6.39989C28.6433 6.39989 28.9525 6.12083 29.0222 5.6832C29.1063 5.15044 28.9192 4.74294 28.4879 4.64939C28.1216 4.57011 27.7379 4.56852 27.3383 4.53047C27.3383 5.18215 27.3383 5.77199 27.3383 6.39989Z" fill="white"/>
<path d="M35.207 4.18481C35.5273 4.23397 35.827 4.27837 36.1568 4.3291C36.1568 5.24875 36.1568 6.15413 36.1568 7.07219C36.7165 7.18001 37.2493 7.28149 37.8122 7.38931C37.8122 6.45698 37.8122 5.54526 37.8122 4.58756C38.1388 4.6383 38.4337 4.68428 38.735 4.73026C38.735 6.83435 38.735 8.9099 38.735 11.0299C38.4258 10.9791 38.1293 10.9315 37.7916 10.876C37.7916 10.7191 37.7916 10.57 37.7916 10.421C37.7916 9.79942 37.7884 9.17628 37.7931 8.55473C37.7947 8.39617 37.7583 8.31689 37.5807 8.28993C37.1177 8.21858 36.6594 8.12344 36.16 8.02989C36.16 8.89563 36.16 9.74076 36.16 10.6287C35.8207 10.5795 35.5242 10.5351 35.207 10.4892C35.207 8.38983 35.207 6.30793 35.207 4.18481Z" fill="white"/>
<path d="M25.7045 6.73919C25.5666 7.40039 25.4794 8.07585 25.2732 8.71485C25.1591 9.07002 24.899 9.41093 24.6231 9.67255C23.9984 10.2608 23.009 10.1958 22.4794 9.52033C22.2098 9.17626 21.9894 8.7529 21.8832 8.33113C21.6279 7.31635 21.6327 6.2762 21.9149 5.26458C22.0227 4.8777 22.213 4.48922 22.4588 4.1721C23.1739 3.2477 24.4011 3.3254 25.0465 4.29895C25.3541 4.76512 25.5063 5.2852 25.5634 5.83381C25.5951 6.12874 25.6046 6.42524 25.6252 6.72175C25.6538 6.72651 25.6791 6.73285 25.7045 6.73919ZM22.6015 6.84226C22.6887 7.46857 22.703 8.08219 23.0201 8.63715C23.3737 9.25554 23.9413 9.28091 24.2632 8.6435C24.4551 8.26137 24.566 7.81899 24.6215 7.39087C24.7183 6.64881 24.7183 5.89724 24.4265 5.1853C24.2886 4.85074 24.1332 4.48764 23.6813 4.49557C23.2405 4.50508 23.0423 4.85233 22.9424 5.1964C22.7854 5.73392 22.7093 6.29364 22.6015 6.84226Z" fill="white"/>
<path d="M33.3378 7.94582C33.0619 7.94582 32.8558 7.94582 32.6259 7.94582C32.6259 7.62077 32.6259 7.3211 32.6259 7.00081C33.1602 7.00081 33.6914 7.00081 34.2638 7.00081C34.2575 7.79519 34.351 8.60385 33.9879 9.35542C33.712 9.92465 33.2173 10.1958 32.591 10.1974C31.9013 10.199 31.3733 9.89294 31.0466 9.2809C30.7739 8.77033 30.701 8.20903 30.6804 7.64139C30.6486 6.73918 30.6391 5.83698 30.9896 4.98075C31.3067 4.20698 31.9362 3.84705 32.721 3.96438C33.6343 4.10074 34.1703 4.76987 34.1481 5.77038C33.85 5.77038 33.5503 5.77038 33.2379 5.77038C33.1983 5.62292 33.1666 5.47546 33.1174 5.33117C32.9795 4.9205 32.5799 4.75084 32.2295 4.99978C32.0408 5.13297 31.8553 5.35654 31.7982 5.57377C31.5461 6.53147 31.5413 7.50661 31.7491 8.47541C31.8283 8.84644 32.0123 9.15881 32.4372 9.23174C32.8067 9.29517 33.0921 9.14136 33.1951 8.78302C33.2681 8.52932 33.2871 8.26136 33.3378 7.94582Z" fill="white"/>
<path d="M11.5915 11.0377C11.2712 11.1201 10.9794 11.1946 10.6703 11.2739C10.5513 10.7713 10.4403 10.3004 10.3246 9.81042C9.98686 9.88494 9.66816 9.9452 9.35738 10.034C9.28444 10.0546 9.21151 10.1704 9.18931 10.2544C9.08149 10.6809 9.00379 11.1154 8.88804 11.5387C8.8595 11.6402 8.74534 11.7575 8.64386 11.794C8.39334 11.8844 8.12854 11.932 7.83203 12.0065C7.8463 11.9082 7.85106 11.8384 7.86691 11.7702C8.31088 9.78188 8.75802 7.79354 9.19723 5.80519C9.23053 5.65139 9.29554 5.57528 9.45093 5.54991C9.71414 5.5071 9.97576 5.44685 10.285 5.38501C10.7178 7.26395 11.1507 9.13812 11.5915 11.0377ZM9.81879 7.61753C9.80293 7.61595 9.78866 7.61595 9.77281 7.61436C9.67133 8.06943 9.56985 8.52608 9.45886 9.02555C9.71414 8.96371 9.90441 8.91614 10.1074 8.86699C10.0075 8.43253 9.91234 8.02503 9.81879 7.61753Z" fill="white"/>
<path d="M5.40572 11.8194C6.06692 11.5721 6.68847 11.339 7.34332 11.0948C7.34332 11.4215 7.34967 11.7069 7.33857 11.9907C7.3354 12.0494 7.2799 12.1381 7.22757 12.1588C6.30793 12.5044 5.38352 12.8406 4.4274 13.1926C4.4274 13.0578 4.4274 12.9642 4.4274 12.8707C4.42899 11.0219 4.43375 9.17308 4.42582 7.32585C4.42423 7.10704 4.4718 6.99446 4.70647 6.96275C4.93163 6.93263 5.15044 6.8581 5.40731 6.79468C5.40572 8.47066 5.40572 10.1213 5.40572 11.8194Z" fill="white"/>
<path d="M40.8072 11.4754C40.479 11.4041 40.1825 11.3406 39.8828 11.2756C39.8828 9.16361 39.8828 7.07062 39.8828 4.94116C40.2047 5.00776 40.4996 5.0696 40.8072 5.13302C40.8072 7.24345 40.8072 9.33645 40.8072 11.4754Z" fill="white"/>
<path d="M47.5685 13.3194C47.5115 13.3337 47.502 13.34 47.494 13.3384C46.6219 13.1466 46.6219 13.1466 46.6219 12.2602C46.6204 10.5953 46.6188 8.93044 46.6172 7.26715C46.6172 7.1625 46.6172 7.05785 46.6172 6.89771C46.9216 6.99126 47.2039 7.06261 47.4702 7.16884C47.5257 7.19104 47.5543 7.34484 47.5543 7.4384C47.5622 9.15084 47.5638 10.8633 47.567 12.5757C47.5701 12.8215 47.5685 13.0689 47.5685 13.3194Z" fill="white"/>
<path d="M28.8165 32.5576C28.8529 32.629 28.8831 32.7051 28.9275 32.7717C29.0971 33.0301 29.2779 33.2822 29.4428 33.5439C29.5078 33.6469 29.5443 33.769 29.5934 33.8832C29.4682 33.9228 29.3366 34.0084 29.2176 33.9926C28.9243 33.9561 28.6563 33.8277 28.5469 33.528C28.4185 33.1744 28.5786 32.8668 28.7277 32.5655C28.7578 32.564 28.7864 32.5608 28.8165 32.5576Z" fill="white"/>
</svg>
