<svg width="67" height="11" viewBox="0 0 67 11" fill="none" xmlns="http://www.w3.org/2000/svg">
<path d="M58.9623 10.3765C58.9623 10.3765 58.9623 8.5367 58.9623 7.79789C58.9623 6.2 58.1693 5.74931 55.8881 5.74931C55.8657 5.74931 51.3931 5.74931 51.3931 5.74931V10.3765H54.236V7.24808C54.236 7.24808 54.7978 7.24808 54.996 7.24808C55.8445 7.24808 56.1313 7.7437 56.1313 8.27237C56.1313 8.54728 56.1313 10.3765 56.1313 10.3765H58.9623ZM50.8539 7.28112C50.8539 7.22561 50.8539 7.15953 50.8539 7.09345C50.8539 6.33349 50.4138 5.74931 48.4405 5.74931C47.9119 5.74931 46.1488 5.74931 45.5315 5.74931C43.6918 5.74931 42.9318 6.3771 42.9318 7.7437C42.9318 8.00804 42.9318 8.30541 42.9318 8.55917C42.9318 9.71563 43.6918 10.3765 45.3227 10.3765H50.5116V9.02176H46.3245C45.9175 9.02176 45.7628 8.90016 45.7628 8.58164V8.53803C46.0933 8.53803 48.2304 8.53803 49.0128 8.53803C50.16 8.53671 50.8539 8.15078 50.8539 7.28112ZM48.1656 7.39082C48.1656 7.59964 48.0771 7.71066 47.7467 7.71066H45.7523V7.54545C45.7523 7.28112 45.862 7.10534 46.1818 7.10534C46.5017 7.10534 47.7348 7.10534 47.7348 7.10534C47.9898 7.09345 48.1656 7.19257 48.1656 7.39082ZM40.8502 7.14895H42.6239V5.74931C42.6239 5.74931 40.4101 5.74931 38.9774 5.74931C38.3932 5.74931 38.0298 6.05726 38.0298 6.56478C38.0298 6.80664 38.0298 10.3765 38.0298 10.3765H40.8502V7.14895ZM37.4139 8.58032C37.4139 8.31599 37.4139 7.82036 37.4139 7.57717C37.4139 6.42071 36.6539 5.75988 35.023 5.75988H29.9557V7.10402H34.0317C34.4388 7.10402 34.5934 7.23618 34.5934 7.54413V7.58775C34.263 7.58775 32.1259 7.58775 31.3435 7.58775C29.9663 7.58775 29.5143 8.17192 29.5143 8.92131C29.5143 8.97682 29.5143 8.99796 29.5143 9.06405C29.5143 9.40504 29.6134 9.69184 29.8116 9.87952C30.2081 10.2654 30.9681 10.3751 32.0043 10.3751C32.533 10.3751 34.2075 10.3751 34.8247 10.3751C36.6539 10.3765 37.4139 9.94692 37.4139 8.58032ZM34.5829 8.58032C34.5829 8.84465 34.4732 9.02043 34.1533 9.02043C33.8335 9.02043 32.6215 9.02043 32.6215 9.02043C32.3572 9.02043 32.2025 8.94378 32.2025 8.73363C32.2025 8.52349 32.3017 8.39264 32.6215 8.39264H34.5829V8.58032ZM29.0847 10.3765V8.97682H26.904V5.0105H24.073V10.3751H29.0847M18.8722 10.3765C19.5767 10.3765 23.4439 10.3765 23.4439 10.3765V8.97682C23.4439 8.97682 20.0287 8.97682 19.6983 8.97682C19.3348 8.97682 18.9713 8.77857 18.9713 8.0847V7.98557C18.9713 7.38025 19.2793 7.13706 19.6758 7.13706C19.8516 7.13706 22.4856 7.13706 23.4439 7.13706V5.73741C22.0997 5.73741 18.7942 5.73741 18.7837 5.73741C16.8884 5.73741 16.1179 6.56345 16.1179 7.84151V8.27105C16.1073 9.78171 16.9333 10.3765 18.8722 10.3765ZM12.6921 10.3765H15.535V5.01182C15.535 5.01182 14.7195 5.01182 13.8829 5.01182C13.1996 5.01182 12.7146 5.29862 12.252 5.7057C11.7339 6.15771 9.86109 7.78732 9.86109 7.78732V5.0105C9.86109 5.0105 9.10113 5.0105 8.18654 5.0105C7.2389 5.0105 6.76574 5.33034 6.23708 5.74799C5.87362 6.03479 0.298828 10.3751 0.298828 10.3751H3.6704L7.00629 7.63268V10.3765H9.70513L12.6908 7.65515V10.3765H12.6921Z" fill="white"/>
<path d="M64.2284 0.923828C62.7745 0.923828 60.7141 1.36394 58.4884 2.16884C56.638 2.85214 54.7983 3.71122 52.8145 4.96681C53.9709 4.49365 56.2733 3.95309 58.158 3.95309C60.7141 3.95309 62.5313 4.93377 59.8431 8.35953C67.7638 3.18256 67.5444 0.923828 64.2284 0.923828Z" fill="white"/>
</svg>
