<svg width="52" height="51" viewBox="0 0 52 51" fill="none" xmlns="http://www.w3.org/2000/svg">
<path d="M26.067 0.428955C40.0441 0.457496 51.2765 11.7533 51.2685 25.6559C51.2606 39.5822 39.9886 50.8621 26.0416 50.851C12.101 50.8399 0.83377 39.5299 0.849626 25.6178C0.865482 11.7898 12.0471 0.451153 26.067 0.428955ZM46.6053 37.7904C46.5244 37.7556 46.4578 37.7239 46.3896 37.6969C39.6762 34.9728 32.9628 32.2504 26.2525 29.5247C26.1193 29.4708 26.0099 29.4724 25.8783 29.5279C24.2261 30.216 22.5723 30.8978 20.9202 31.5812C15.9065 33.6568 10.8928 35.7323 5.87915 37.8079C5.79353 37.8428 5.7079 37.8824 5.62228 37.9205C9.13756 44.0678 16.3615 49.2464 25.2235 49.535C34.9908 49.8537 42.8363 44.3707 46.6053 37.7904ZM26.4111 1.89405C26.4174 1.9654 26.419 2.03834 26.4285 2.10969C26.5792 3.18156 26.7314 4.25342 26.8836 5.32687C27.0675 6.61755 27.253 7.90823 27.437 9.19891C27.6066 10.3945 27.7731 11.5916 27.9428 12.7871C28.1267 14.0857 28.3154 15.3827 28.4993 16.6814C28.6547 17.7754 28.8069 18.8695 28.9623 19.9635C29.132 21.1591 29.3064 22.3546 29.4713 23.5518C29.4903 23.696 29.5442 23.7912 29.6568 23.8784C35.3539 28.2832 41.0493 32.6912 46.7448 37.0975C46.8019 37.1419 46.8622 37.1816 46.9224 37.226C51.0561 29.7657 51.0529 20.1697 45.8252 12.4082C40.4738 4.45955 32.0748 1.8449 26.4111 1.89405ZM5.30041 37.3766C5.37017 37.3227 5.42884 37.2783 5.48592 37.2339C8.6809 34.6541 11.8743 32.0728 15.0693 29.493C17.5016 27.5284 19.9323 25.5639 22.3646 23.6009C22.4756 23.5121 22.5327 23.4154 22.5533 23.2743C22.7166 22.1659 22.8879 21.0592 23.0544 19.9524C23.3271 18.1465 23.5966 16.3389 23.8678 14.5329C24.1754 12.4859 24.4846 10.4388 24.7954 8.39184C25.1125 6.29409 25.4328 4.19634 25.7499 2.09859C25.761 2.02883 25.7578 1.95747 25.7626 1.88771C19.2029 1.86392 10.6027 5.11599 5.61118 13.4689C0.681552 21.7156 1.59961 31.0358 5.30041 37.3766Z" fill="white"/>
</svg>
