<svg width="67" height="30" viewBox="0 0 67 30" fill="none" xmlns="http://www.w3.org/2000/svg">
<path d="M33.4954 29.1166C33.2576 29.1008 33.0197 29.0849 32.7819 29.069C30.7206 28.9263 28.7703 28.3555 26.9469 27.3725C24.7904 26.1991 23.0304 24.5977 21.6985 22.5364C21.5875 22.3778 21.4924 22.3144 21.3021 22.3144C19.669 22.3302 18.0358 22.3144 16.4026 22.3144C16.3075 22.3144 16.2441 22.2827 16.1806 22.2193C15.5623 21.6009 14.9439 20.9825 14.3255 20.3641C14.2938 20.3324 14.2621 20.3007 14.2145 20.2531C16.3075 20.2531 18.3688 20.2531 20.43 20.2531C20.1764 19.4445 19.9227 18.6517 19.669 17.8271C19.6531 17.8271 19.5897 17.8271 19.5421 17.8271C17.0052 17.8271 14.4682 17.8271 11.9312 17.8271C11.8361 17.8271 11.7568 17.7954 11.6934 17.732C11.0909 17.1136 10.4725 16.5111 9.86995 15.9086C9.83824 15.8769 9.80653 15.8451 9.75896 15.7976C12.9777 15.7976 16.1806 15.7976 19.3836 15.7976C19.3677 15.3853 19.336 14.9889 19.336 14.5925C19.336 14.1961 19.3677 13.7997 19.3836 13.3716C19.3201 13.3716 19.2726 13.3716 19.2091 13.3716C15.3086 13.3716 11.408 13.3716 7.49155 13.3716C7.3647 13.3716 7.28542 13.3399 7.20614 13.2606C6.60362 12.6581 6.00109 12.0556 5.39856 11.4372C5.36685 11.4055 5.35099 11.3738 5.30342 11.3262C7.72939 11.3262 10.1395 11.3262 12.5338 11.3262C14.928 11.3262 17.3381 11.3262 19.7007 11.3262C19.9702 10.5175 20.2239 9.72473 20.4935 8.91607C20.4459 8.91607 20.3825 8.91607 20.3191 8.91607C14.5633 8.91607 8.8076 8.91607 3.05187 8.91607C2.92502 8.91607 2.84574 8.88436 2.76646 8.78922C2.16394 8.17084 1.54555 7.56831 0.943023 6.96578C0.911311 6.93407 0.863743 6.91822 0.832031 6.8865C0.847887 6.87065 0.847887 6.85479 0.863743 6.83894C0.911311 6.83894 0.974735 6.83894 1.0223 6.83894C7.82453 6.83894 14.6268 6.83894 21.4448 6.83894C21.5875 6.83894 21.6668 6.79137 21.7461 6.68038C23.522 4.01657 25.9162 2.1297 28.9289 1.01979C30.1656 0.559961 31.45 0.290407 32.766 0.195271C32.9563 0.179415 33.1624 0.163561 33.3527 0.147705C33.6698 0.147705 33.9869 0.147705 34.304 0.147705C34.4943 0.163561 34.6846 0.179415 34.859 0.195271C37.7131 0.417255 40.2976 1.38447 42.5809 3.11278C43.8969 4.1117 45.0068 5.31676 45.9265 6.69623C45.9899 6.79137 46.0533 6.82308 46.1802 6.82308C52.9983 6.82308 59.8164 6.82308 66.6186 6.82308C66.6661 6.82308 66.7296 6.82308 66.8088 6.82308C66.7613 6.87065 66.7296 6.90236 66.6979 6.93407C66.0953 7.5366 65.4769 8.15498 64.8744 8.75751C64.7793 8.85265 64.7 8.88436 64.5573 8.88436C58.8016 8.88436 53.0458 8.88436 47.2901 8.88436C47.2267 8.88436 47.1791 8.88436 47.0998 8.88436C47.1157 8.93193 47.1315 8.9795 47.1474 9.01121C47.4487 9.70887 47.6865 10.4382 47.8609 11.1676C47.8926 11.2786 47.9402 11.2945 48.0353 11.2945C52.7287 11.2945 57.438 11.2945 62.1313 11.2945C62.1948 11.2945 62.2423 11.2945 62.3216 11.2945C62.2899 11.3262 62.274 11.3579 62.2582 11.3738C61.6239 12.008 61.0056 12.6264 60.3713 13.2606C60.3237 13.3082 60.2286 13.324 60.1652 13.324C56.2488 13.324 52.3482 13.324 48.4317 13.324C48.3683 13.324 48.3208 13.324 48.2732 13.324C48.2732 14.1327 48.2732 14.9255 48.2732 15.7342C51.4602 15.7342 54.6473 15.7342 57.8661 15.7342C57.8344 15.7817 57.8185 15.7976 57.7868 15.8293C57.1684 16.4635 56.5342 17.0819 55.9158 17.7162C55.8524 17.7796 55.7889 17.7954 55.7096 17.7954C53.1568 17.7954 50.6199 17.7954 48.0671 17.7954C47.9561 17.7954 47.9085 17.8271 47.8768 17.9381C47.7182 18.6675 47.4804 19.381 47.195 20.0787C47.1791 20.1104 47.1791 20.1421 47.1633 20.2055C49.2404 20.2055 51.3017 20.2055 53.3947 20.2055C53.363 20.2531 53.3471 20.2848 53.3154 20.3007C52.6812 20.9349 52.0469 21.5692 51.4127 22.2034C51.3651 22.251 51.2858 22.2827 51.2224 22.2827C49.5417 22.2827 47.8768 22.2827 46.196 22.2827C46.0851 22.2827 46.0375 22.3144 45.9741 22.3937C44.4836 24.6928 42.5175 26.4369 40.0598 27.6261C38.712 28.2762 37.3008 28.7044 35.8262 28.9105C35.303 28.9739 34.7639 29.0056 34.2406 29.0532C34.2089 29.0532 34.1613 29.069 34.1296 29.069C33.8918 29.1166 33.6857 29.1166 33.4954 29.1166ZM33.7808 2.1297C26.8676 2.1297 21.2704 7.72687 21.2704 14.6401C21.2704 21.5374 26.8834 27.1505 33.7808 27.1505C40.694 27.1505 46.2912 21.5533 46.2912 14.6401C46.2912 7.72687 40.694 2.1297 33.7808 2.1297Z" fill="white"/>
<path d="M30.7845 17.8748C30.3247 17.8748 29.8966 17.8748 29.4526 17.8748C29.4526 16.2099 29.4526 14.545 29.4526 12.8643H29.4368C29.4209 12.896 29.4051 12.9277 29.4051 12.9594C28.9611 14.5609 28.5171 16.1465 28.0573 17.7479C28.0256 17.8431 27.9939 17.8906 27.8829 17.8906C27.4706 17.8748 27.0425 17.8906 26.6144 17.8906C26.1387 16.2257 25.6789 14.545 25.2191 12.8801H25.2032C25.2032 14.545 25.2032 16.2099 25.2032 17.8748C24.7434 17.8748 24.2994 17.8748 23.8555 17.8748C23.8555 15.7183 23.8555 13.5619 23.8555 11.4055C23.903 11.4055 23.9506 11.4055 23.9982 11.4055C24.6324 11.4055 25.2667 11.4055 25.9009 11.4055C25.996 11.4055 26.0277 11.4372 26.0595 11.5165C26.4717 12.896 26.884 14.2755 27.2804 15.6708C27.2962 15.7183 27.3121 15.7501 27.3279 15.8293C27.3914 15.6074 27.4548 15.4012 27.5182 15.211C27.867 13.99 28.2317 12.7691 28.5806 11.5482C28.6123 11.4372 28.6598 11.4055 28.7708 11.4055C29.4051 11.4055 30.0393 11.4055 30.6735 11.4055C30.7845 11.4055 30.8163 11.4372 30.8163 11.5482C30.8163 13.6254 30.8163 15.6866 30.8163 17.7638C30.8004 17.7796 30.7845 17.8272 30.7845 17.8748Z" fill="white"/>
<path d="M35.0645 17.8748C35.0645 15.7183 35.0645 13.5619 35.0645 11.4055C35.112 11.4055 35.1596 11.4055 35.2072 11.4055C35.5877 11.4055 35.9682 11.4055 36.3488 11.4055C36.4439 11.4055 36.5073 11.4372 36.5549 11.5165C37.4746 12.8643 38.3942 14.2279 39.3139 15.5756C39.3456 15.6074 39.3614 15.6549 39.409 15.7183C39.409 14.2596 39.409 12.8484 39.409 11.4055C39.8688 11.4055 40.3128 11.4055 40.7568 11.4055C40.7568 13.5619 40.7568 15.7025 40.7568 17.8748C40.7092 17.8748 40.6616 17.8748 40.6141 17.8748C40.2177 17.8748 39.8213 17.8748 39.4249 17.8748C39.3297 17.8748 39.2821 17.8431 39.2187 17.7638C38.3149 16.4319 37.3953 15.1158 36.4915 13.7839C36.4598 13.7522 36.4439 13.7046 36.3964 13.6412C36.3964 15.0683 36.3964 16.4477 36.3964 17.8589C35.9524 17.8748 35.5243 17.8748 35.0645 17.8748Z" fill="white"/>
<path d="M32.2109 17.8748C32.2109 15.7025 32.2109 13.5619 32.2109 11.4055C32.6866 11.4055 33.1623 11.4055 33.6697 11.4055C33.6697 11.4531 33.6697 11.5007 33.6697 11.5482C33.6697 13.6095 33.6697 15.6708 33.6697 17.7162C33.6697 17.8431 33.638 17.8748 33.5111 17.8748C33.1306 17.8589 32.7342 17.8748 32.3536 17.8748C32.3061 17.8748 32.2585 17.8748 32.2109 17.8748Z" fill="white"/>
<path d="M42.2793 17.8748C42.2793 15.7183 42.2793 13.5619 42.2793 11.4055C42.755 11.4055 43.2307 11.4055 43.7222 11.4055C43.7222 13.5619 43.7222 15.7025 43.7222 17.8748C43.2465 17.8748 42.7708 17.8748 42.2793 17.8748Z" fill="white"/>
</svg>
