<svg width="44" height="57" viewBox="0 0 44 57" fill="none" xmlns="http://www.w3.org/2000/svg">
<path d="M21.7554 53.9619C21.7713 53.9523 21.7872 53.9428 21.803 53.9333C21.803 51.6691 21.803 49.4033 21.803 47.1216C18.4304 47.1216 15.0531 47.1216 11.6758 47.1216C14.7947 49.7616 18.0911 52.1337 21.7554 53.9619Z" fill="white"/>
<path d="M28.4208 34.8252C29.036 33.6931 29.2691 32.4659 29.2691 31.1879C29.2707 27.4094 29.2707 23.6293 29.2723 19.8508C29.2723 19.8033 29.2723 19.7541 29.2723 19.7002C24.598 19.7002 19.941 19.7002 15.2746 19.7002C15.273 19.7509 15.2683 19.7953 15.2683 19.8381C15.2683 23.5897 15.2667 27.3428 15.2683 31.0943C15.2683 31.792 15.3365 32.4833 15.5077 33.1604C15.9786 35.0171 17.014 36.4568 18.7011 37.3844C20.5261 38.3865 22.4606 38.5673 24.4521 37.9869C26.1978 37.4748 27.5456 36.4346 28.4208 34.8252ZM27.5123 20.6183C27.9293 20.6183 28.3447 20.6183 28.7728 20.6183C28.7728 20.7182 28.7728 20.8228 28.7728 20.9481C28.6365 20.9481 28.4954 20.9481 28.3384 20.9481C28.3384 21.5236 28.3384 22.0802 28.3384 22.6431C28.202 22.6431 28.0815 22.6431 27.9467 22.6431C27.9467 22.0802 27.9467 21.5236 27.9467 20.9512C27.7929 20.9512 27.6566 20.9512 27.5123 20.9512C27.5123 20.8355 27.5123 20.7324 27.5123 20.6183ZM26.1677 20.6468C26.461 20.6468 26.7575 20.6278 27.0509 20.6531C27.2475 20.6706 27.368 20.845 27.3775 21.0464C27.3854 21.2462 27.3981 21.4507 27.1777 21.5823C27.4663 21.8931 27.3077 22.2863 27.4172 22.6431C27.303 22.6431 27.1872 22.651 27.0763 22.6383C27.0445 22.6351 27.0033 22.567 26.997 22.5257C26.9795 22.3925 26.9795 22.2562 26.97 22.1214C26.9478 21.7995 26.8907 21.752 26.5467 21.7884C26.5467 22.0675 26.5467 22.3481 26.5467 22.6351C26.4119 22.6351 26.2961 22.6351 26.1693 22.6351C26.1677 21.9692 26.1677 21.3048 26.1677 20.6468ZM24.9389 20.6183C25.1053 20.6183 25.2528 20.6183 25.4114 20.6183C25.5826 21.2858 25.7523 21.9502 25.9283 22.6383C25.7951 22.6383 25.6841 22.6415 25.5747 22.6351C25.5493 22.6336 25.5239 22.5987 25.5017 22.5765C25.4938 22.5685 25.4938 22.5511 25.4891 22.5384C25.3892 22.1801 25.3828 22.1737 24.9991 22.2181C24.9674 22.2213 24.923 22.2609 24.9119 22.2942C24.8738 22.4052 24.8501 22.5194 24.8168 22.6415C24.6836 22.6415 24.5504 22.6415 24.4045 22.6415C24.5837 21.9613 24.7613 21.2906 24.9389 20.6183ZM22.968 21.113C23.0314 20.6595 23.3675 20.4534 23.7861 20.5485C24.0636 20.6119 24.2475 20.8926 24.2 21.2002C24.1461 21.2002 24.089 21.2002 24.0319 21.2002C23.9748 21.2002 23.9161 21.2002 23.8607 21.2002C23.8416 21.1177 23.8289 21.0464 23.8067 20.9782C23.7766 20.8815 23.7068 20.8307 23.6038 20.8307C23.5039 20.8307 23.4278 20.8735 23.3913 20.9671C23.3707 21.021 23.3437 21.0797 23.3437 21.1352C23.3437 21.4364 23.3517 21.7393 23.3596 22.0405C23.3612 22.0834 23.377 22.1293 23.3961 22.169C23.4436 22.2736 23.5166 22.3577 23.6434 22.3402C23.7719 22.3212 23.8353 22.2261 23.8496 22.104C23.8591 22.0247 23.8511 21.9422 23.8511 21.8503C23.7703 21.8455 23.7037 21.8408 23.6434 21.8376C23.6339 21.8217 23.626 21.8138 23.6244 21.8075C23.6022 21.5442 23.6022 21.5442 23.8686 21.5442C23.9843 21.5442 24.1017 21.5442 24.2269 21.5442C24.2269 21.9153 24.2269 22.272 24.2269 22.6367C24.1365 22.6367 24.0525 22.6367 23.9574 22.6367C23.9479 22.6018 23.9383 22.5622 23.9257 22.5099C23.7861 22.6288 23.6387 22.6843 23.4595 22.6589C23.2676 22.6304 23.1344 22.5321 23.052 22.364C23.0171 22.2911 22.9711 22.2134 22.9695 22.1373C22.9553 21.7948 22.922 21.4475 22.968 21.113ZM21.6154 20.6151C22.0404 20.6151 22.4622 20.6151 22.8966 20.6151C22.8966 20.7023 22.9045 20.7847 22.8918 20.8624C22.8871 20.8942 22.8395 20.9417 22.8078 20.9449C22.6921 20.9544 22.5747 20.9481 22.4431 20.9481C22.4431 21.5157 22.4431 22.0723 22.4431 22.6367C22.3099 22.6367 22.191 22.6367 22.0531 22.6367C22.0531 22.0786 22.0531 21.5221 22.0531 20.9481C21.8913 20.9481 21.7566 20.9481 21.6123 20.9481C21.6154 20.8339 21.6154 20.7293 21.6154 20.6151ZM20.1503 20.6151C20.5753 20.6151 20.9971 20.6151 21.4252 20.6151C21.4252 20.7213 21.4252 20.8228 21.4252 20.9385C21.2793 20.9385 21.1366 20.9385 20.9812 20.9385C20.9812 21.5109 20.9812 22.0675 20.9812 22.6351C20.8496 22.6351 20.7307 22.6351 20.5911 22.6351C20.5911 22.0754 20.5911 21.5141 20.5911 20.9417C20.4342 20.9417 20.2946 20.9417 20.1503 20.9417C20.1503 20.8276 20.1503 20.7261 20.1503 20.6151ZM20.9511 23.2107C20.9067 23.3502 20.8718 23.4739 20.8258 23.5928C20.7624 23.7546 20.5642 23.8037 20.3644 23.7149C20.3977 23.5928 20.6863 23.3423 20.9511 23.2107ZM18.7043 20.6198C18.8264 20.6198 18.9453 20.6198 19.0817 20.6198C19.0817 21.0987 19.0801 21.568 19.0817 22.0374C19.0817 22.2086 19.1704 22.3006 19.3227 22.299C19.467 22.2958 19.5526 22.207 19.5542 22.0405C19.5589 21.6981 19.5557 21.354 19.5557 21.0115C19.5557 20.8815 19.5557 20.7514 19.5557 20.6167C19.6874 20.6167 19.8015 20.6167 19.9315 20.6167C19.9315 20.7847 19.9315 20.9465 19.9315 21.1082C19.9315 21.4237 19.9379 21.7409 19.9284 22.0564C19.9157 22.4798 19.57 22.7398 19.1578 22.6462C18.8977 22.5876 18.7106 22.3783 18.7059 22.1071C18.6995 21.6156 18.7043 21.1225 18.7043 20.6198ZM17.2725 20.6135C17.6927 20.6135 18.1097 20.6135 18.533 20.6135C18.533 20.7197 18.533 20.8212 18.533 20.9401C18.3903 20.9401 18.2492 20.9401 18.0938 20.9401C18.0938 21.5141 18.0938 22.0707 18.0938 22.6383C17.9606 22.6383 17.8401 22.6383 17.7085 22.6383C17.7085 22.0802 17.7085 21.5236 17.7085 20.9512C17.5595 20.9512 17.4215 20.9512 17.2725 20.9512C17.2725 20.8307 17.2725 20.7261 17.2725 20.6135ZM15.8994 22.0088C16.023 22.0088 16.1372 22.0088 16.2545 22.0088C16.2625 22.0564 16.264 22.0976 16.2751 22.1357C16.3084 22.2451 16.3687 22.3339 16.494 22.3466C16.6145 22.3592 16.708 22.3101 16.7587 22.2007C16.8111 22.0881 16.7984 21.9755 16.708 21.8899C16.6509 21.836 16.5764 21.7964 16.5066 21.7583C16.4353 21.7203 16.3576 21.6933 16.2847 21.66C15.977 21.522 15.8534 21.2446 15.9564 20.929C16.0468 20.6516 16.3608 20.4803 16.6636 20.5453C16.9982 20.6167 17.1726 20.8434 17.125 21.1526C17.0283 21.1526 16.9316 21.1526 16.8222 21.1526C16.8158 21.1241 16.8095 21.0908 16.8016 21.0575C16.7746 20.9465 16.7112 20.872 16.5923 20.8577C16.4702 20.8418 16.3782 20.8957 16.3259 21.0004C16.2751 21.105 16.3037 21.2129 16.3861 21.2842C16.4591 21.346 16.5558 21.3809 16.643 21.4253C16.7587 21.484 16.8904 21.522 16.9887 21.6029C17.1932 21.7694 17.2217 22.142 17.0695 22.3878C16.9189 22.632 16.5637 22.7445 16.2656 22.6399C15.9945 22.5463 15.8613 22.3228 15.8994 22.0088ZM24.0287 36.5631C24.089 36.3506 24.1445 36.1365 24.2158 35.9288C24.2412 35.8559 24.2999 35.7924 24.3506 35.729C24.3839 35.6878 24.4267 35.6513 24.4711 35.6212C24.9801 35.2597 25.3686 34.7935 25.6968 34.2671C25.8617 34.0039 25.7967 33.6931 25.5255 33.5393C25.4907 33.5187 25.4542 33.4981 25.4161 33.4886C25.1164 33.4156 24.8818 33.2365 24.655 33.0398C24.5028 32.9082 24.4204 32.9289 24.3855 33.1286C24.3569 33.2856 24.3649 33.4521 24.3776 33.6122C24.3998 33.8897 24.3887 33.9246 24.1397 34.0404C23.8892 34.1545 23.6355 34.2623 23.3881 34.3797C23.1725 34.4812 22.987 34.6239 22.8475 34.8189C22.7301 34.9838 22.5763 35.0631 22.3749 35.0567C22.3083 35.0551 22.2386 35.0599 22.1736 35.0742C22.0134 35.1106 21.9484 35.1963 21.9785 35.3564C22.0055 35.5055 21.9548 35.6085 21.8263 35.6656C21.709 35.7195 21.5837 35.7623 21.4585 35.7924C21.3253 35.8257 21.2587 35.7703 21.2825 35.6402C21.33 35.3865 21.4046 35.1392 21.6059 34.9553C21.7185 34.8522 21.8327 34.7444 21.9595 34.6619C22.0784 34.5858 22.2116 34.5176 22.348 34.4891C22.7365 34.4066 23.0663 34.2259 23.3453 33.9516C23.691 33.6122 23.7195 33.1049 23.4103 32.7703C23.3279 32.6815 23.2581 32.58 23.1868 32.4817C23.0409 32.2835 22.9347 32.0774 23.1281 31.8158C23.0393 31.8094 22.9806 31.7999 22.922 31.7999C22.2624 31.8142 21.6139 31.7508 20.9907 31.5224C20.8211 31.4606 20.6688 31.348 20.5166 31.2434C20.3454 31.126 20.3168 31.1355 20.1456 31.2354C20.0362 31.2989 19.8935 31.3369 19.765 31.3369C19.2656 31.3369 18.7788 31.2275 18.3047 31.0832C18.0811 31.015 17.8925 31.107 17.8925 31.3797C17.8925 31.5763 17.8782 31.7745 17.8814 31.9712C17.8814 32.0187 17.9099 32.0853 17.9464 32.1107C18.143 32.2407 18.1493 32.4373 18.1477 32.6403C18.1461 32.7307 18.135 32.821 18.143 32.9098C18.1588 33.0731 18.2365 33.1271 18.3998 33.1017C18.5822 33.0731 18.6837 33.135 18.671 33.3157C18.6599 33.4711 18.5949 33.6249 18.5394 33.774C18.5283 33.8025 18.4427 33.8327 18.4078 33.82C18.1842 33.7391 18.0098 33.6059 17.9194 33.3681C17.8798 33.2602 17.8037 33.1477 17.7117 33.0827C17.5341 32.9542 17.4707 32.7846 17.4596 32.5848C17.4548 32.4865 17.4564 32.385 17.4675 32.2867C17.5151 31.8903 17.4818 31.505 17.3629 31.1229C17.3248 30.9992 17.3137 30.8565 17.3296 30.7265C17.347 30.5742 17.4485 30.5092 17.6023 30.4965C18.0621 30.4617 18.514 30.3871 19.0024 30.2318C18.8882 30.1319 18.7962 30.0462 18.6995 29.9685C18.6773 29.9511 18.6329 29.9463 18.6044 29.9559C18.3967 30.0224 18.3047 30.005 18.2001 29.8052C18.0891 29.5959 18.0019 29.3724 17.9178 29.1504C17.8385 28.9379 17.7054 28.7936 17.4802 28.7556C17.4073 28.7429 17.3105 28.7524 17.2503 28.792C17.1329 28.8713 17.014 28.9633 16.9316 29.0758C16.8682 29.1631 16.819 29.2978 16.8349 29.4009C16.865 29.5991 16.7968 29.7323 16.6604 29.8544C16.6271 29.8845 16.597 29.9194 16.5669 29.9527C16.4289 30.1049 16.3956 30.2698 16.4876 30.4632C16.5796 30.6599 16.559 30.7312 16.3782 30.847C16.2767 30.912 16.1626 30.958 16.0516 31.0055C15.9485 31.0499 15.8708 31.0182 15.8502 30.9025C15.8169 30.7058 15.7884 30.514 15.9342 30.338C16.0627 30.181 16.1166 29.9876 16.1308 29.7846C16.1435 29.5959 16.1943 29.4215 16.3084 29.2677C16.6002 28.8666 16.8872 28.4606 17.1853 28.0642C17.3438 27.8533 17.4501 27.8486 17.6594 28.0151C17.7799 28.1102 17.8877 28.2212 18.0145 28.3084C18.1509 28.402 18.2968 28.4876 18.449 28.5526C18.6202 28.6255 18.7185 28.57 18.7598 28.3909C18.8058 28.1927 18.8232 27.9897 18.8724 27.7931C18.9072 27.6567 18.9485 27.5077 19.0325 27.3999C19.2545 27.116 19.5098 26.8592 19.7349 26.5769C19.8713 26.4073 19.9902 26.2186 20.0885 26.0236C20.1678 25.865 20.1155 25.8063 19.9363 25.7889C19.6731 25.7651 19.4543 25.8349 19.3068 26.0696C19.245 26.1679 19.1625 26.2313 19.0404 26.2249C18.9263 26.2186 18.8803 26.1504 18.9183 26.0426C18.9247 26.0252 18.9358 26.0109 18.9389 25.9934C18.9548 25.9268 18.9675 25.8618 18.9818 25.7952C18.9183 25.8032 18.8533 25.8079 18.7899 25.8174C18.7407 25.8254 18.6948 25.8444 18.6456 25.8523C18.5521 25.8682 18.4807 25.8365 18.4649 25.7366C18.4506 25.6462 18.4664 25.5542 18.5727 25.5336C18.6884 25.5114 18.7265 25.4432 18.7439 25.3402C18.7518 25.2942 18.7756 25.2419 18.8089 25.2117C19.0055 25.0326 19.2085 24.8597 19.4099 24.6853C19.4828 24.6219 19.5605 24.6013 19.6588 24.6235C19.7682 24.6473 19.8824 24.6584 19.9934 24.6584C20.052 24.6584 20.1123 24.6203 20.171 24.5997C20.1725 24.5854 20.1741 24.5712 20.1757 24.5569C20.0647 24.484 19.9537 24.411 19.8427 24.3365C19.7333 24.2636 19.708 24.1859 19.8031 24.1002C19.8808 24.0305 19.9934 23.9892 20.0964 23.9623C20.1757 23.9417 20.2661 23.9623 20.3517 23.967C20.5896 23.9845 20.8036 23.9163 21.0145 23.7577C21.0097 23.8243 21.0193 23.8735 21.0034 23.91C20.9209 24.0891 21.0161 24.1938 21.1493 24.2921C21.6376 24.6536 21.9373 25.1404 22.0293 25.7334C22.0927 26.1457 22.0927 26.569 22.1197 26.986C22.1212 27.0177 22.1197 27.0495 22.1498 27.0875C22.1688 27.0114 22.191 26.9353 22.2053 26.8576C22.2972 26.3375 22.3179 25.8174 22.1672 25.3021C22.0245 24.8153 21.7137 24.4348 21.3665 24.0812C21.3126 24.0257 21.2523 23.9797 21.2888 23.8862C21.3411 23.753 21.3728 23.6024 21.5235 23.5405C21.6107 23.504 21.6836 23.5722 21.6614 23.6737C21.6329 23.8069 21.6963 23.864 21.8105 23.8767C21.9072 23.8878 22.0087 23.8894 22.1038 23.8751C22.3004 23.8465 22.4923 23.799 22.6889 23.7688C22.7317 23.7625 22.7809 23.8006 22.8268 23.818C22.7888 23.8529 22.7555 23.8989 22.7095 23.9211C22.6667 23.9433 22.6096 23.9337 22.5652 23.9544C22.4828 23.9908 22.4146 24.0527 22.4415 24.1541C22.4685 24.2556 22.5541 24.2556 22.6397 24.2382C22.8379 24.1985 23.0377 24.1557 23.2375 24.124C23.3533 24.1066 23.4706 24.1034 23.5879 24.1018C23.6212 24.1018 23.6545 24.1351 23.6878 24.1526C23.6672 24.189 23.6561 24.2509 23.6276 24.2604C23.5086 24.3 23.385 24.3222 23.2629 24.3523C23.1804 24.3714 23.0916 24.3793 23.0155 24.4158C22.9743 24.4348 22.9569 24.503 22.9299 24.549C22.9711 24.5727 23.0124 24.614 23.0568 24.6187C23.2121 24.6362 23.228 24.6568 23.1535 24.7868C23.098 24.8835 23.1297 24.9739 23.2565 24.985C23.4151 24.9993 23.5784 24.9787 23.737 24.9612C23.8115 24.9533 23.8828 24.9073 23.9574 24.9025C24.0097 24.8994 24.062 24.9406 24.1159 24.9628C24.0842 25.0199 24.0668 25.1007 24.0192 25.1293C23.9399 25.1769 23.84 25.188 23.7512 25.2197C23.6704 25.2482 23.5927 25.2847 23.5166 25.3211C23.4325 25.3608 23.3961 25.4306 23.4183 25.5209C23.4405 25.6081 23.4833 25.6795 23.5863 25.689C23.7338 25.7033 23.8828 25.716 24.0303 25.7334C24.089 25.7397 24.1524 25.7429 24.2 25.7715C24.2475 25.8 24.3014 25.8555 24.3062 25.9046C24.311 25.9395 24.2444 26.003 24.1984 26.0172C24.0874 26.0505 23.9685 26.0585 23.8543 26.0854C23.7845 26.1028 23.7179 26.1346 23.6498 26.1615C23.6498 26.179 23.6514 26.1948 23.6514 26.2123C23.7021 26.2265 23.7528 26.2424 23.8052 26.2535C23.8939 26.2709 23.9859 26.2725 24.0684 26.3026C24.1128 26.3185 24.1381 26.3819 24.173 26.4247C24.127 26.4517 24.0842 26.4961 24.0351 26.5024C23.848 26.5278 23.6609 26.5421 23.4738 26.5611C23.4468 26.5643 23.4183 26.5706 23.3977 26.5865C23.3723 26.6055 23.3548 26.6372 23.3342 26.6626C23.358 26.68 23.3802 26.7022 23.4072 26.7117C23.5737 26.7672 23.5784 26.772 23.4928 26.9194C23.4389 27.013 23.4532 27.078 23.561 27.0986C23.6529 27.116 23.7481 27.1176 23.8416 27.1224C23.886 27.124 23.9399 27.1002 23.9748 27.1192C24.024 27.1446 24.0588 27.1985 24.1001 27.2397C24.0636 27.2698 24.0271 27.3222 23.9891 27.3238C23.8369 27.3349 23.6831 27.3269 23.5293 27.3333C23.4849 27.3349 23.4405 27.3618 23.3961 27.3761C23.4183 27.4173 23.4357 27.4633 23.4627 27.5013C23.4864 27.5331 23.5261 27.5521 23.553 27.5822C23.5784 27.6108 23.6181 27.6583 23.6101 27.6742C23.5879 27.7122 23.5451 27.7614 23.5055 27.7646C23.404 27.7725 23.2993 27.7646 23.1963 27.7535C23.0187 27.7328 22.9521 27.7725 22.9267 27.9501C22.9061 28.0944 22.8316 28.1657 22.6889 28.1784C22.5874 28.1879 22.4907 28.2101 22.4574 28.329C22.4241 28.4479 22.4701 28.5399 22.5557 28.6192C22.5922 28.6525 22.6286 28.689 22.6715 28.7127C23.3009 29.0521 23.9304 29.3866 24.6867 29.2994C25.2163 29.2376 25.6968 29.3803 26.1201 29.7085C26.2724 29.8258 26.4452 29.8575 26.6323 29.829C26.878 29.791 26.9843 29.5832 26.859 29.3692C26.8083 29.282 26.7274 29.2106 26.6545 29.1377C26.6037 29.0869 26.5435 29.0441 26.4832 29.0061C26.239 28.8507 26.1154 28.6398 26.1249 28.3401C26.1344 28.0484 26.0599 27.7709 25.9378 27.5029C25.8997 27.4189 25.8981 27.3095 25.9092 27.2144C25.9235 27.0907 26.0155 27.0542 26.1106 27.1319C26.1867 27.1937 26.2565 27.189 26.3152 27.1303C26.404 27.0431 26.4959 26.9527 26.5593 26.8465C26.9145 26.2582 26.9129 26.2582 27.5995 26.2012C27.7295 26.1901 27.858 26.1663 27.988 26.1441C28.0086 26.1409 28.026 26.125 28.0546 26.1108C27.9436 25.9157 27.9071 25.7112 28.0181 25.5162C28.0641 25.4369 28.1592 25.3671 28.248 25.3354C28.3463 25.299 28.3986 25.3798 28.3527 25.4797C28.3336 25.5209 28.294 25.5542 28.2861 25.5955C28.2686 25.6795 28.2496 25.7683 28.2623 25.8507C28.2781 25.9554 28.332 26.0553 28.3527 26.1615C28.3749 26.2788 28.3257 26.3613 28.2004 26.393C28.0038 26.4438 27.8072 26.4945 27.6138 26.5547C27.4076 26.6198 27.2396 26.7403 27.165 26.9527C27.146 27.0051 27.1666 27.0716 27.1682 27.1303C27.2316 27.1224 27.3077 27.1351 27.3553 27.1034C27.4758 27.0241 27.5741 26.9147 27.6962 26.8386C27.7803 26.7862 27.8849 26.7561 27.9848 26.7418C28.0276 26.7355 28.0783 26.7926 28.1259 26.8211C28.0958 26.8671 28.0736 26.921 28.0339 26.9575C27.9483 27.0352 27.85 27.0986 27.766 27.1779C27.7327 27.2096 27.7263 27.2667 27.6962 27.338C27.9943 27.3111 28.1767 27.0574 28.489 27.059C28.4193 27.1811 28.359 27.2746 28.3114 27.3729C28.2861 27.4252 28.2861 27.4887 28.2734 27.5473C28.3289 27.5489 28.386 27.5505 28.4414 27.5537C28.5001 27.5584 28.5572 27.5648 28.6143 27.5711C28.6 27.633 28.5905 27.698 28.5699 27.7566C28.5588 27.7883 28.5302 27.8185 28.5033 27.8407C28.3289 27.9802 28.1782 28.134 28.137 28.3703C28.1275 28.421 28.0577 28.4606 28.0118 28.5034C27.9499 28.5605 27.8786 28.6113 27.8231 28.6747C27.8009 28.7001 27.8072 28.7524 27.8009 28.7936C27.8421 28.7936 27.8897 28.8095 27.923 28.7936C28.0086 28.7524 28.0847 28.6937 28.1687 28.6509C28.248 28.6097 28.332 28.5764 28.4177 28.5478C28.5033 28.5193 28.5429 28.5653 28.5223 28.6461C28.4874 28.7809 28.443 28.9125 28.3971 29.0632C28.4811 29.0885 28.5667 29.1155 28.646 29.1393C28.6349 29.2804 28.6333 29.4136 28.6111 29.5452C28.6048 29.588 28.5556 29.6371 28.5144 29.6593C28.4272 29.7053 28.3273 29.7291 28.2417 29.7767C28.1989 29.8005 28.1576 29.8591 28.1529 29.9067C28.1497 29.9352 28.2163 29.9812 28.2591 29.9987C28.3463 30.032 28.4494 30.0621 28.443 30.1667C28.4367 30.2571 28.4002 30.3665 28.3384 30.4252C28.1671 30.5838 27.9483 30.5996 27.7263 30.56C27.4457 30.5108 27.1714 30.4426 26.9256 30.2872C26.8812 30.2587 26.7908 30.2508 26.756 30.2777C26.7211 30.3047 26.729 30.3871 26.7211 30.4442C26.7195 30.4601 26.7306 30.4791 26.7385 30.495C26.9462 30.9342 26.8432 31.3353 26.599 31.7238C26.4658 31.9379 26.3342 32.1535 26.2169 32.3771C26.0963 32.6038 26.1011 32.8416 26.2232 33.0652C26.3389 33.2777 26.4658 33.487 26.6037 33.6868C26.7496 33.8992 26.748 33.9754 26.5609 34.1482C26.3627 34.3305 26.1566 34.5081 25.9758 34.7079C25.8046 34.8966 25.7015 35.1281 25.6429 35.3802C25.6254 35.4547 25.5683 35.5403 25.5049 35.5816C25.3892 35.6577 25.256 35.7068 25.1275 35.7607C25.0578 35.7909 24.9801 35.8036 24.9087 35.8305C24.6645 35.9193 24.6614 35.9272 24.7311 36.1793C24.7771 36.3474 24.7502 36.4425 24.5948 36.5171C24.4457 36.5884 24.284 36.6344 24.1254 36.682C24.0478 36.6994 24.0034 36.6534 24.0287 36.5631Z" fill="white"/>
<path d="M30.166 30.0988C33.4561 30.0988 36.7415 30.0988 40.0395 30.0988C40.1854 28.2785 40.3313 26.4677 40.4772 24.6506C37.0332 24.6506 33.6068 24.6506 30.166 24.6506C30.166 26.4741 30.166 28.2832 30.166 30.0988Z" fill="white"/>
<path d="M30.1468 31.1627C30.0993 31.6828 30.085 32.2092 29.9994 32.7245C29.6823 34.6273 28.8118 36.2335 27.3387 37.4877C27.1041 37.6875 26.9883 37.9031 26.9693 38.1933C26.9661 38.2329 26.9566 38.2741 26.9519 38.3138C26.9233 38.5865 26.8964 38.8592 26.8662 39.1526C27.0898 39.0701 27.2832 38.9813 27.4862 38.9274C27.6812 38.8751 27.7922 38.7673 27.8731 38.5818C28.1331 37.9856 28.4772 37.4417 28.9513 36.9898C29.4048 36.5569 29.9153 36.216 30.5369 36.0749C30.7319 36.0305 30.9285 36.0258 31.1458 36.1066C31.0855 36.1399 31.0506 36.159 31.0158 36.1796C30.3387 36.6029 29.7853 37.1515 29.3826 37.8429C29.2922 37.9983 29.2446 38.1758 29.1685 38.3629C29.6188 38.29 30.0248 38.2107 30.4354 38.1616C30.6209 38.1394 30.7145 38.0537 30.8065 37.9047C31.1632 37.326 31.6341 36.8709 32.2763 36.6172C32.5126 36.5236 32.7567 36.4777 33.039 36.5205C32.4808 36.9153 32.0591 37.3894 31.8117 38.0046C31.8498 38.0268 31.8577 38.0347 31.8656 38.0347C32.1542 38.0506 32.4428 38.068 32.7298 38.0791C32.7694 38.0807 32.8122 38.049 32.8519 38.0284C33.0532 37.9253 33.2467 37.8096 33.4544 37.7224C33.9428 37.5115 34.447 37.4655 34.9591 37.6367C35.0305 37.6605 35.0955 37.7049 35.1637 37.7398C34.6737 37.7921 34.2266 37.8968 33.8635 38.2694C34.604 38.6563 34.9306 38.8941 35.3016 39.3206C35.7107 39.79 35.8613 40.3402 35.8011 40.9522C35.7932 41.0363 35.7567 41.1171 35.7234 41.236C35.2874 40.1008 34.4359 39.5379 33.345 39.2731C32.6029 39.0923 31.8466 39.0558 31.0998 39.1922C30.2182 39.3524 29.3414 39.5506 28.4756 39.7789C27.5798 40.0151 26.7235 40.364 25.9418 40.8777C25.8689 40.9253 25.8324 40.9744 25.8293 41.0696C25.815 41.4612 25.5724 41.642 25.1887 41.5722C25.0951 41.5548 24.9889 41.5563 24.8985 41.5833C24.7066 41.6404 24.5243 41.634 24.3435 41.5563C24.0914 41.4469 23.9487 41.1409 24.0566 40.892C24.1517 40.67 24.2056 40.4464 24.2326 40.2054C24.2706 39.8566 24.6448 39.6441 24.9619 39.7947C25.1474 39.8819 25.3028 39.8708 25.4693 39.771C25.528 39.7361 25.5898 39.7107 25.6469 39.6742C25.6755 39.6568 25.7119 39.6282 25.7183 39.5997C25.8007 39.1986 25.8784 38.7974 25.964 38.3645C25.8847 38.3994 25.8451 38.4184 25.8055 38.4359C24.8922 38.8497 23.9376 39.1002 22.9387 39.1668C22.8103 39.1748 22.7754 39.2081 22.7754 39.3381C22.7817 44.1868 22.7833 49.0356 22.7865 53.886C22.7865 53.9367 22.7865 53.9874 22.7865 54.0588C22.8578 54.0255 22.9022 54.0065 22.945 53.9827C23.4524 53.7068 23.9646 53.4404 24.4641 53.1534C26.9931 51.701 29.381 50.0425 31.6611 48.2254C33.3196 46.903 34.8386 45.4426 36.1753 43.7936C37.4422 42.2302 38.4395 40.5178 39.0436 38.5881C39.4813 37.1896 39.6414 35.7499 39.7302 34.2975C39.7889 33.3382 39.8666 32.3789 39.9363 31.4212C39.9458 31.2928 39.9506 31.1643 39.9585 31.0264C36.6795 31.0264 33.4227 31.0264 30.1548 31.0264C30.1516 31.0739 30.15 31.1183 30.1468 31.1627ZM30.3688 48.3332C29.8725 48.0224 29.3493 47.7671 28.7674 47.6736C28.3012 47.5975 27.8398 47.6863 27.3895 47.802C26.5903 48.0066 25.8404 48.3364 25.1189 48.7328C25.0396 48.7772 25.0317 48.8342 25.0238 48.9072C24.9968 49.1466 24.8414 49.321 24.6258 49.3337C24.5513 49.3385 24.4752 49.2957 24.399 49.2766C24.3277 49.2576 24.2548 49.2338 24.1818 49.2243C24.074 49.21 23.9503 49.2481 23.8901 49.1101C23.8235 48.9547 23.7759 48.793 23.9012 48.6519C23.99 48.5504 24.0407 48.4394 24.0803 48.3126C24.1469 48.1017 24.3388 48.0161 24.5433 48.0811C24.7098 48.135 24.7526 48.1017 24.7732 47.9209C24.8319 47.3977 24.9572 46.8982 25.3298 46.4987C25.5296 46.2846 25.75 46.1023 26.0512 46.0499C26.0814 46.0452 26.1131 46.0468 26.1654 46.0436C25.7547 46.5589 25.436 47.0822 25.4757 47.7624C25.677 47.672 25.8546 47.5991 25.9434 47.3676C26.1178 46.9077 26.4143 46.5272 26.8092 46.2307C27.0518 46.0483 27.3213 45.9358 27.6432 45.9548C27.6115 45.9802 27.5798 46.0055 27.548 46.0293C27.2151 46.2735 26.9312 46.5605 26.7901 46.9585C26.7552 47.0584 26.7537 47.1694 26.7315 47.3105C26.9392 47.2566 27.0993 47.2169 27.2563 47.1694C27.2928 47.1583 27.3181 47.1107 27.3467 47.0774C27.5623 46.8237 27.7589 46.551 27.9984 46.3226C28.2425 46.0912 28.5565 46.0071 28.8942 46.0816C28.7293 46.2101 28.5565 46.3242 28.4106 46.4638C28.2632 46.6049 28.1315 46.7682 28.0919 47.0076C28.3551 46.9759 28.6072 47.0647 28.8403 46.8792C29.0306 46.7286 29.2637 46.6398 29.5142 46.6207C29.5744 46.616 29.6347 46.6207 29.6981 46.635C29.5047 46.7872 29.2811 46.8919 29.1558 47.1218C29.5871 47.3739 30.0311 47.5991 30.3086 48.0288C30.3752 48.1334 30.4227 48.2492 30.456 48.3792C30.4243 48.3649 30.3958 48.3506 30.3688 48.3332ZM33.4053 44.8718C33.3767 44.8718 33.364 44.875 33.3609 44.8718C32.7314 44.1837 31.9116 43.8919 31.0189 43.7492C29.3636 43.4844 27.8192 43.857 26.3319 44.5531C26.0671 44.6768 25.8166 44.8322 25.5581 44.9701C25.4852 45.0098 25.4392 45.0558 25.4582 45.1493C25.4677 45.2 25.4582 45.2571 25.4471 45.311C25.3805 45.6345 25.1379 45.7661 24.8272 45.6313C24.6908 45.5727 24.5719 45.5536 24.4276 45.5933C24.2579 45.6393 24.0946 45.6234 23.9852 45.4522C23.8695 45.2714 23.8679 45.0637 23.99 44.894C24.0835 44.764 24.1707 44.6483 24.1993 44.4723C24.2421 44.1979 24.5909 44.0505 24.8398 44.1821C24.9746 44.2534 25.0919 44.2709 25.2109 44.1758C25.2616 44.1345 25.3155 44.0774 25.3361 44.0172C25.528 43.4527 25.7135 42.8882 26.0528 42.3888C26.3985 41.8798 26.8345 41.5056 27.464 41.4073C27.4957 41.4025 27.5258 41.3994 27.5576 41.3962C27.5702 41.3946 27.5829 41.3994 27.6004 41.4025C26.9249 41.9971 26.4698 42.7107 26.3366 43.6351C26.6427 43.5003 26.9249 43.3798 27.2024 43.2513C27.242 43.2323 27.2706 43.1816 27.2959 43.1404C27.4973 42.8248 27.6749 42.4918 27.9001 42.1953C28.3805 41.5643 29.0242 41.2186 29.825 41.198C29.9502 41.1948 30.0771 41.217 30.2039 41.2281C29.3651 41.5944 28.696 42.1208 28.2536 42.9675C28.4423 42.9342 28.5945 42.9057 28.7468 42.8803C28.8403 42.8645 28.9354 42.8343 29.0274 42.8391C29.2985 42.8565 29.4698 42.7233 29.6315 42.5188C29.798 42.3079 29.9994 42.1208 30.2008 41.9416C30.5464 41.634 30.9539 41.4897 31.4201 41.5262C31.4724 41.531 31.5231 41.5468 31.5913 41.5611C31.0554 41.8576 30.575 42.1858 30.2721 42.755C30.5432 42.782 30.7827 42.8137 31.0253 42.8248C31.0919 42.828 31.1632 42.7662 31.2298 42.7281C31.5485 42.5442 31.8751 42.3872 32.2494 42.3523C32.5157 42.3285 32.7599 42.3666 32.9692 42.5569C32.7678 42.5981 32.5681 42.6219 32.381 42.6821C32.1891 42.7455 32.0115 42.8486 31.891 43.0389C32.0559 43.1324 32.2176 43.2212 32.3746 43.3164C32.6632 43.4892 32.9296 43.689 33.1309 43.9633C33.2832 44.171 33.3783 44.4025 33.4053 44.6594C33.4116 44.7291 33.4053 44.8021 33.4053 44.8718Z" fill="white"/>
<path d="M22.8203 18.8489C22.8964 18.8489 22.9503 18.8489 23.0027 18.8489C24.9387 18.8473 26.8763 18.8473 28.8123 18.8457C32.7763 18.8425 36.7387 18.8394 40.7027 18.8378C40.7249 18.8378 40.7487 18.8362 40.7709 18.8378C40.8549 18.8473 40.8882 18.8172 40.8946 18.7268C40.9263 18.259 40.9643 17.7913 40.9992 17.3235C41.088 16.1534 41.1768 14.9832 41.2656 13.8146C41.2767 13.6782 41.283 13.5403 41.291 13.4055C35.1246 13.4055 28.974 13.4055 22.8203 13.4055C22.8203 15.221 22.8203 17.0254 22.8203 18.8489Z" fill="white"/>
<path d="M27.2453 2.71529C25.7898 2.62649 24.3326 2.5599 22.8754 2.52977C20.2053 2.47586 17.5399 2.58209 14.8824 2.83896C13.5902 2.96422 12.2963 3.10693 11.0104 3.2861C9.77362 3.45893 8.53844 3.65713 7.31435 3.90607C5.76839 4.21843 4.23512 4.59422 2.6955 4.9383C2.60195 4.95891 2.57341 4.99696 2.58134 5.09369C2.61622 5.46154 2.64318 5.83099 2.67489 6.20043C2.7621 7.24852 2.8493 8.2966 2.9381 9.34468C2.96505 9.66338 2.99359 9.98209 3.02055 10.3056C3.07129 10.296 3.11251 10.2897 3.15057 10.2802C5.60349 9.67131 8.0802 9.18612 10.5807 8.82302C12.3312 8.56773 14.088 8.35685 15.8544 8.24427C17.3766 8.14597 18.9019 8.07303 20.4257 8.03339C22.4394 7.97948 24.4531 8.03497 26.4621 8.17768C27.5609 8.25696 28.6597 8.32989 29.7522 8.46626C31.287 8.65653 32.8187 8.88168 34.3441 9.13221C36.223 9.43982 38.075 9.87744 39.9111 10.3801C40.4106 10.5164 40.9069 10.6639 41.419 10.8098C41.4254 10.7796 41.4301 10.7622 41.4317 10.7448C41.4888 10.0978 41.5459 9.44933 41.6045 8.8024C41.7044 7.69248 41.8059 6.58256 41.909 5.47264C41.9153 5.40446 41.8979 5.37592 41.8313 5.35848C41.687 5.32043 41.5475 5.27286 41.4048 5.23005C38.3905 4.33735 35.324 3.68726 32.2114 3.24646C30.5624 3.00704 28.9071 2.81518 27.2453 2.71529ZM7.95494 6.49218C7.83602 6.79028 7.61245 6.96311 7.2985 7.03922C6.40898 7.25486 5.52421 7.48477 4.63469 7.69724C4.49357 7.73054 4.47137 7.7892 4.48723 7.91764C4.5348 8.32989 4.57127 8.74374 4.61566 9.17819C4.30964 9.26064 4.00996 9.33992 3.70077 9.42237C3.66272 8.99902 3.62625 8.58518 3.59136 8.17292C3.52318 7.38646 3.45659 6.60001 3.38207 5.81355C3.37097 5.70414 3.39951 5.66926 3.50416 5.64389C4.66323 5.37434 5.82072 5.09844 6.97979 4.8273C7.41107 4.72583 7.74881 4.89073 7.93274 5.29506C8.10874 5.68828 8.11508 6.09103 7.95494 6.49218ZM13.6885 6.91713C13.6615 7.21522 13.4284 7.4594 13.0812 7.52441C12.4517 7.64333 11.8222 7.75432 11.188 7.84629C10.6663 7.9224 10.1399 7.96996 9.61347 8.01753C9.23293 8.05241 8.92374 7.82409 8.86666 7.4483C8.77945 6.8648 8.71602 6.27813 8.64309 5.69304C8.66211 5.69146 8.68114 5.68987 8.70017 5.68829C8.70017 5.47106 8.69065 5.25542 8.70175 5.03819C8.71761 4.729 8.95703 4.45469 9.26147 4.38809C10.3999 4.13915 11.5479 3.95522 12.7086 3.85216C12.8719 3.83789 13.0511 3.87436 13.208 3.92668C13.3983 3.99011 13.5172 4.14232 13.5569 4.3437C13.7249 5.19516 13.7646 6.05297 13.6885 6.91713ZM19.4648 7.08044C19.1604 7.08044 18.8718 7.08044 18.5531 7.08044C18.5531 6.91078 18.5547 6.72685 18.5531 6.54292C18.5515 6.38912 18.5499 6.23532 18.5452 6.0831C18.5372 5.85477 18.385 5.71207 18.1599 5.72793C17.4178 5.77866 16.6742 5.83416 15.9321 5.88807C15.7577 5.90076 15.5833 5.91344 15.3946 5.92771C15.412 6.39229 15.431 6.84577 15.4485 7.31194C15.1456 7.34207 14.8523 7.37219 14.5447 7.4039C14.4813 6.17982 14.4178 4.97318 14.3544 3.75227C14.5003 3.73958 14.6382 3.72531 14.7762 3.7158C15.9289 3.63018 17.0801 3.54455 18.2328 3.46369C18.4167 3.451 18.6054 3.43515 18.783 3.46527C19.1255 3.52553 19.3633 3.80459 19.3887 4.15184C19.403 4.33577 19.3998 4.52128 19.3919 4.70521C19.3824 4.91927 19.311 5.11113 19.1366 5.26176C19.3633 5.44252 19.4394 5.68828 19.4489 5.95784C19.4616 6.27813 19.4616 6.59842 19.4664 6.91871C19.4664 6.96152 19.4648 7.00592 19.4648 7.08044ZM25.1381 6.45413C25.0953 6.79662 24.8891 6.97896 24.5387 7.03605C24.4404 7.0519 24.3421 7.063 24.2422 7.063C22.9056 7.06459 21.5705 7.06459 20.2338 7.06459C20.2021 7.06459 20.1704 7.06142 20.126 7.05983C20.126 6.75381 20.126 6.45096 20.126 6.12908C20.1767 6.12908 20.2291 6.12908 20.2814 6.12908C21.4151 6.12908 22.5472 6.12908 23.6809 6.12908C23.7253 6.12908 23.7713 6.13067 23.8157 6.12591C23.9378 6.11164 24.0044 6.03712 24.0091 5.91978C24.0139 5.8072 23.9521 5.7311 23.8411 5.70573C23.7935 5.69463 23.7428 5.69621 23.6936 5.69621C22.8263 5.69621 21.9605 5.69621 21.0932 5.69463C20.9933 5.69463 20.895 5.69304 20.7951 5.68511C20.4003 5.65023 20.1244 5.40288 20.0531 5.01599C19.996 4.7068 20.0007 4.39602 20.0626 4.08842C20.1308 3.75227 20.3876 3.51601 20.7301 3.46686C20.8237 3.45417 20.9188 3.44783 21.0139 3.44783C22.3363 3.44942 23.6587 3.45259 24.9811 3.45576C25.0255 3.45576 25.0683 3.46052 25.1222 3.4621C25.1222 3.76178 25.1222 4.05353 25.1222 4.36272C25.0699 4.36272 25.0176 4.36272 24.9653 4.36272C23.7237 4.36114 22.4822 4.36114 21.2423 4.35955C21.0615 4.35955 20.9854 4.44359 21.0092 4.61801C21.0266 4.74802 21.0853 4.79718 21.2312 4.79718C21.8591 4.79718 22.4854 4.79718 23.1133 4.79718C23.4827 4.79718 23.8538 4.79718 24.2232 4.79718C24.7924 4.79718 25.1064 5.05722 25.1619 5.62169C25.1904 5.89283 25.173 6.17824 25.1381 6.45413ZM30.6655 4.89549C30.3119 4.85585 29.9726 4.81303 29.6333 4.77815C28.8706 4.70046 28.1079 4.62435 27.3437 4.55141C27.2644 4.54348 27.1803 4.54824 27.1026 4.56727C26.9742 4.59898 26.8902 4.67826 26.8822 4.82255C26.8648 5.19199 26.8426 5.56144 26.8299 5.93088C26.8236 6.10847 26.9473 6.2369 27.1248 6.25276C28.257 6.36216 29.3875 6.46999 30.5196 6.57781C30.5418 6.57939 30.5624 6.58415 30.5957 6.58891C30.5767 6.90444 30.5577 7.21205 30.5371 7.54027C30.2675 7.52282 30.0075 7.51172 29.749 7.48794C28.7247 7.39281 27.7004 7.29926 26.6777 7.19143C26.508 7.17399 26.3336 7.11215 26.183 7.03287C25.9864 6.92823 25.9023 6.73161 25.8944 6.51121C25.8675 5.72475 25.8944 4.93988 26.0276 4.16294C26.0894 3.80776 26.3939 3.56834 26.7966 3.5731C27.212 3.57785 27.6275 3.59529 28.0397 3.63652C28.9007 3.72214 29.7617 3.82838 30.6211 3.9251C30.6512 3.92827 30.6813 3.93937 30.7226 3.94888C30.7051 4.26283 30.6861 4.57044 30.6655 4.89549ZM37.1442 4.98745C38.4524 5.30457 39.743 5.61693 41.048 5.93405C41.0195 6.22263 40.9909 6.50804 40.9624 6.81248C39.9904 6.57781 39.0327 6.34631 38.0576 6.11164C38.0369 6.3257 38.0179 6.52865 37.9973 6.74588C38.9598 6.98055 39.9175 7.21522 40.8831 7.44989C40.8593 7.69724 40.8371 7.93508 40.8117 8.19353C39.854 7.96521 38.9058 7.73847 37.937 7.50697C37.918 7.69565 37.8942 7.87324 37.8895 8.05083C37.8879 8.07937 37.9624 8.12694 38.01 8.13804C38.7742 8.33307 39.5385 8.52492 40.3043 8.71837C40.4534 8.75642 40.6009 8.79448 40.7658 8.8357C40.7404 9.10842 40.7166 9.38115 40.6912 9.6729C39.3926 9.36688 38.1051 9.06244 36.8113 8.75801C36.9191 7.50063 37.0317 6.25276 37.1442 4.98745ZM35.3858 6.06249C35.4191 5.59315 35.4524 5.13015 35.4857 4.64338C35.8187 4.70521 36.1437 4.76547 36.4926 4.83047C36.3927 6.0609 36.2912 7.29133 36.1897 8.54395C35.8567 8.4837 35.5364 8.42503 35.2066 8.36478C35.2431 7.89227 35.278 7.43086 35.3145 6.95359C34.3266 6.79028 33.3451 6.62696 32.3462 6.46206C32.3066 6.9314 32.2685 7.38646 32.2289 7.85739C31.9054 7.80982 31.5946 7.76225 31.2633 7.7131C31.3394 6.48108 31.4139 5.25383 31.49 4.01072C31.8198 4.05829 32.1385 4.10586 32.4762 4.15501C32.4429 4.62752 32.4112 5.09369 32.3763 5.57729C33.3864 5.73902 34.379 5.89917 35.3858 6.06249Z" fill="white"/>
<path d="M28.3439 0.955348C26.652 0.833257 24.9555 0.755562 23.2589 0.715922C20.4175 0.649327 17.5808 0.760319 14.7505 1.02353C13.4662 1.14245 12.1819 1.27405 10.9023 1.44371C9.64649 1.60862 8.39545 1.81474 7.146 2.02721C4.95787 2.40142 2.79511 2.88819 0.645038 3.44474C0.549902 3.47011 0.513433 3.50341 0.522947 3.60806C0.556244 4.00446 0.580029 4.40086 0.608569 4.79726C0.675165 5.74703 0.741759 6.69681 0.808354 7.64817C0.876535 8.62014 0.946302 9.5937 1.01448 10.5657C1.08108 11.5154 1.14767 12.4652 1.21427 13.4166C1.29196 14.5106 1.36966 15.6047 1.44735 16.6988C1.51395 17.6533 1.58054 18.6078 1.64714 19.5624C1.72483 20.6707 1.80411 21.7774 1.88181 22.8858C1.9484 23.8308 2.015 24.7774 2.08159 25.7224C2.14977 26.6992 2.21954 27.6759 2.28931 28.6542C2.3559 29.5992 2.4225 30.5458 2.48909 31.4908C2.56679 32.5944 2.64289 33.698 2.72376 34.8C2.76657 35.3898 2.7967 35.9813 2.87598 36.5663C3.05674 37.9078 3.48168 39.181 4.03664 40.4114C5.45416 43.5557 7.5202 46.2115 10.1428 48.4361C12.518 50.4499 15.0423 52.2638 17.6982 53.8938C19.187 54.8071 20.7156 55.6474 22.3487 56.2817C22.4058 56.3039 22.4914 56.3007 22.5453 56.2738C23.0622 56.0074 23.5792 55.741 24.0897 55.4619C27.2768 53.7194 30.2815 51.7056 33.1292 49.4509C34.8179 48.1127 36.3591 46.6333 37.6783 44.9256C38.9769 43.2449 40.0567 41.4405 40.8035 39.4458C41.1936 38.4025 41.4806 37.3338 41.5805 36.2207C41.636 35.596 41.674 34.9696 41.7184 34.3433C41.7882 33.3666 41.8564 32.3899 41.9245 31.4116C41.9911 30.4523 42.0577 29.493 42.1243 28.5337C42.202 27.4254 42.2797 26.3186 42.3574 25.2103C42.424 24.251 42.4906 23.2917 42.5572 22.3324C42.6254 21.3557 42.6951 20.3789 42.7633 19.4006C42.8299 18.4413 42.8965 17.4821 42.9631 16.5228C43.0313 15.5508 43.1011 14.5772 43.1692 13.6053C43.2358 12.6412 43.3024 11.6772 43.369 10.7147C43.4372 9.72847 43.507 8.74223 43.5767 7.75599C43.6354 6.91403 43.6957 6.07208 43.7543 5.23013C43.7845 4.79884 43.813 4.36597 43.8431 3.92993C43.7971 3.91249 43.7559 3.89505 43.7131 3.88237C41.5519 3.20214 39.3622 2.64084 37.1424 2.18736C34.236 1.58959 31.3026 1.1694 28.3439 0.955348ZM42.8965 4.73542C42.8664 5.15877 42.8378 5.57737 42.8077 5.99597C42.7491 6.80621 42.6888 7.61645 42.6301 8.42669C42.5509 9.50332 42.4732 10.5784 42.3955 11.655C42.3289 12.573 42.2623 13.4911 42.1957 14.4107C42.118 15.4826 42.0387 16.5529 41.961 17.6248C41.8944 18.5476 41.8278 19.4704 41.7612 20.3932C41.6835 21.4603 41.6058 22.5274 41.5281 23.5945C41.4615 24.5174 41.395 25.4402 41.3284 26.363C41.2507 27.4301 41.173 28.4972 41.0953 29.5643C41.0287 30.4872 40.9653 31.41 40.8939 32.3328C40.7972 33.5965 40.729 34.865 40.5847 36.124C40.3865 37.8459 39.8458 39.4727 39.0625 41.0187C38.0842 42.95 36.7698 44.6307 35.2825 46.1909C34.1837 47.3421 32.9469 48.3299 31.6958 49.3035C29.2191 51.2284 26.6267 52.9789 23.8551 54.4551C23.4301 54.6818 22.9972 54.8959 22.5628 55.1068C22.4994 55.1385 22.4042 55.1448 22.3376 55.1226C21.2261 54.7627 20.186 54.2426 19.1728 53.6702C17.0782 52.4858 15.1216 51.0968 13.222 49.6269C11.9076 48.6106 10.6121 47.5704 9.41816 46.4113C7.79926 44.8416 6.41345 43.0958 5.39391 41.0742C4.62172 39.5441 4.09372 37.9331 3.89076 36.2286C3.78928 35.3819 3.73854 34.5304 3.67353 33.679C3.59108 32.6119 3.51656 31.5447 3.43886 30.4776C3.37227 29.5548 3.30567 28.632 3.23908 27.7092C3.16138 26.6373 3.08211 25.567 3.00441 24.4952C2.93782 23.5723 2.87122 22.6495 2.80463 21.7267C2.72693 20.6548 2.64924 19.5846 2.56996 18.5127C2.50336 17.5946 2.43677 16.6766 2.37017 15.7569C2.29248 14.6803 2.2132 13.6053 2.1355 12.5286C2.06891 11.6106 2.0039 10.6925 1.9373 9.77287C1.85961 8.69625 1.78033 7.62121 1.70263 6.54459C1.65348 5.87388 1.60591 5.20317 1.55834 4.53246C1.55517 4.47855 1.55834 4.42623 1.55834 4.35963C2.03561 4.23913 2.51129 4.11862 2.98697 4.00129C4.89286 3.53512 6.81302 3.12921 8.74904 2.8216C10.1967 2.59169 11.6507 2.39824 13.1047 2.21273C14.7933 1.99709 16.4915 1.875 18.1897 1.78937C20.1828 1.6879 22.1791 1.65777 24.1738 1.71802C25.252 1.75132 26.3302 1.79255 27.4068 1.86865C28.5453 1.94793 29.6821 2.06051 30.8174 2.18102C32.644 2.37604 34.4564 2.6678 36.2576 3.02456C38.4664 3.46218 40.6465 4.01238 42.7919 4.69261C42.8252 4.70846 42.8585 4.72273 42.8965 4.73542Z" fill="white"/>
<path d="M21.7533 41.2804C21.7533 40.5732 21.7533 39.8851 21.7533 39.2001C21.4901 39.1763 21.2522 39.1652 21.016 39.1303C19.8807 38.9638 18.831 38.5579 17.8559 37.957C16.9965 37.4258 16.2544 36.7693 15.7359 35.8893C15.6868 35.8053 15.6233 35.8164 15.5536 35.8164C12.0637 35.8148 8.57535 35.8132 5.08544 35.8101C5.03629 35.8101 4.98872 35.8101 4.9364 35.8101C4.93481 35.8418 4.93164 35.8592 4.93164 35.8767C4.95225 36.1097 4.96177 36.3444 4.99348 36.5775C5.22022 38.2313 5.77201 39.7677 6.66153 41.1821C6.71068 41.2614 6.76301 41.2883 6.85497 41.2883C11.7798 41.2867 16.7047 41.2867 21.6296 41.2867C21.6787 41.2851 21.7247 41.2804 21.7533 41.2804Z" fill="white"/>
<path d="M14.4503 30.0195C14.4503 28.9127 14.4503 27.8075 14.4503 26.7008C14.4503 26.4201 14.4503 26.4201 14.176 26.3298C14.1712 26.3282 14.1664 26.3282 14.1633 26.3266C13.3499 26.0967 12.5238 26.0808 11.6945 26.2124C10.9873 26.3234 10.3499 26.6342 9.75371 27.0084C9.25108 27.3239 8.80235 27.7219 8.32509 28.0787C8.19348 28.177 8.1364 28.3022 8.13323 28.4608C8.13164 28.5147 8.13006 28.5686 8.1253 28.6225C8.09993 28.9301 7.7289 29.206 7.42447 29.0998C7.26591 29.0443 7.07722 29.0522 6.90598 29.0649C6.73473 29.0776 6.60788 29.0364 6.49847 28.9079C6.35101 28.7335 6.34467 28.5448 6.40968 28.3371C6.45884 28.1802 6.50799 28.0184 6.52226 27.8551C6.55397 27.4999 6.89171 27.1971 7.29286 27.3858C7.3436 27.4096 7.42922 27.3858 7.48947 27.362C7.65121 27.2954 7.66072 27.1559 7.65279 27.0021C7.60998 26.1744 7.83514 25.4133 8.24898 24.7045C8.45352 24.3541 8.73258 24.075 9.10679 23.9054C9.20985 23.8594 9.32877 23.8451 9.47306 23.8087C8.91652 24.6871 8.61684 25.594 8.56134 26.6025C8.85151 26.4249 9.10996 26.2695 9.36366 26.1046C9.40171 26.0808 9.42391 26.019 9.43501 25.9698C9.54283 25.5068 9.69187 25.0581 9.91703 24.6379C10.166 24.1749 10.5418 23.8499 11.0365 23.6675C11.1237 23.6358 11.2188 23.6311 11.3393 23.6073C10.7336 24.4366 10.3515 25.2785 10.4308 25.5798C10.6258 25.5259 10.8192 25.4656 11.0159 25.4212C11.0951 25.4038 11.1268 25.3689 11.1554 25.3007C11.2347 25.1184 11.3139 24.936 11.4059 24.7616C11.6485 24.3018 11.9973 23.945 12.4651 23.7119C12.5935 23.6485 12.7378 23.62 12.9059 23.5645C12.7251 23.8562 12.5571 24.102 12.4143 24.362C12.2701 24.6237 12.1496 24.8995 12.1353 25.2135C12.297 25.2056 12.4413 25.1818 12.584 25.1945C12.779 25.2119 12.9154 25.1421 13.0359 24.9931C13.3514 24.6015 13.7367 24.2923 14.1839 24.0592C14.2711 24.0148 14.3599 23.972 14.4487 23.9276C14.4487 22.9064 14.4471 21.8901 14.4503 20.8753C14.4503 20.7754 14.3916 20.7564 14.325 20.7548C13.9334 20.7437 13.537 20.6961 13.1517 20.7389C12.4017 20.823 11.6818 21.0561 10.9667 21.2939C10.101 21.5825 9.25266 21.9075 8.45986 22.3673C8.31399 22.453 8.22202 22.5465 8.23788 22.7257C8.24422 22.805 8.22519 22.8874 8.20934 22.9667C8.11896 23.4408 7.69877 23.6422 7.27859 23.417C7.26273 23.4091 7.24529 23.4012 7.23102 23.3916C7.1121 23.3092 6.98843 23.2854 6.84889 23.3472C6.78388 23.3758 6.70936 23.3901 6.63801 23.3916C6.38748 23.398 6.15916 23.3393 6.02121 23.1062C5.88326 22.8732 5.89278 22.5513 6.06402 22.3705C6.22575 22.2009 6.33991 22.0201 6.3748 21.7886C6.37797 21.7712 6.38748 21.7553 6.39383 21.7379C6.51909 21.4334 6.7823 21.2907 7.101 21.3637C7.21834 21.3906 7.33409 21.435 7.44508 21.481C7.60364 21.5476 7.68768 21.5111 7.72573 21.3383C7.76537 21.1575 7.80659 20.9768 7.83355 20.7944C7.97467 19.87 8.36948 19.0598 8.94664 18.3336C9.3034 17.8833 9.76957 17.5963 10.3245 17.4536C10.4498 17.4219 10.583 17.4171 10.7114 17.3997C10.629 17.5202 10.5402 17.609 10.4545 17.7009C10.269 17.8975 10.0613 18.0799 9.90593 18.2971C9.43818 18.9504 9.13533 19.6813 8.95933 20.4646C8.93713 20.5613 8.95615 20.6692 8.95615 20.7786C9.28437 20.6581 9.57137 20.5328 9.86946 20.4519C10.0899 20.3933 10.1945 20.2775 10.2516 20.0635C10.3959 19.5212 10.6401 19.0233 10.9921 18.5857C11.4265 18.0482 11.9545 17.6375 12.6347 17.4504C12.7331 17.4234 12.8361 17.4187 12.9376 17.4044C12.2082 18.1148 11.6215 18.8838 11.4646 19.9208C11.7452 19.8605 12.0021 19.7796 12.2637 19.7574C12.4809 19.7384 12.5729 19.6195 12.6744 19.4594C12.8678 19.1565 13.0629 18.8505 13.288 18.5714C13.5639 18.2289 13.908 17.9673 14.3472 17.8547C14.5073 17.8135 14.6691 17.7865 14.8197 17.8278C14.5866 18.091 14.3361 18.3383 14.1268 18.6174C13.9191 18.8965 13.7558 19.2088 13.7034 19.5577C13.9667 19.5577 14.2108 19.5577 14.4566 19.5577C14.4566 19.3024 14.4566 19.0741 14.4566 18.8283C16.9286 18.8283 19.3957 18.8283 21.8693 18.8283C21.8693 15.4224 21.8693 12.0435 21.8693 8.65666C15.4793 8.64398 9.19875 9.35432 3.03711 11.081C3.49852 17.4488 3.96152 23.8102 4.42292 30.178C7.76854 30.178 11.0983 30.178 14.4439 30.178C14.4503 30.1241 14.4503 30.0718 14.4503 30.0195ZM5.43771 16.878C5.49162 16.7844 5.56773 16.7036 5.61847 16.6084C5.68506 16.4816 5.73422 16.3484 5.7913 16.2168C5.83887 16.1058 5.86899 15.9837 5.934 15.8838C6.16391 15.5366 6.54763 15.4732 6.9583 15.7253C7.08515 15.803 7.18187 15.8045 7.28176 15.7094C7.31506 15.6793 7.34518 15.6333 7.35311 15.5905C7.45459 15.1101 7.52119 14.6201 7.65596 14.1476C7.86051 13.4277 8.08725 12.711 8.5661 12.1117C8.9514 11.6297 9.39695 11.2222 9.97887 10.9875C10.1834 10.905 10.3943 10.8543 10.6575 10.867C10.5877 10.9304 10.5449 10.9716 10.4989 11.0129C10.0058 11.4632 9.55551 11.9452 9.27645 12.5652C9.04653 13.0741 8.92127 13.6148 8.81504 14.1587C8.77064 14.3838 8.72941 14.6106 8.68819 14.8373C8.68185 14.8706 8.68185 14.9055 8.68026 14.9404C9.10996 14.7676 9.52697 14.5868 9.95508 14.4346C10.1422 14.368 10.2278 14.2713 10.2801 14.0794C10.4641 13.4024 10.6987 12.7412 11.1142 12.1688C11.5946 11.5092 12.2177 11.0335 13.0185 10.8194C13.1168 10.7925 13.2214 10.7893 13.3356 10.7909C12.898 11.2063 12.4952 11.6408 12.2019 12.1688C11.9085 12.6952 11.6786 13.2454 11.5851 13.8717C11.6866 13.8384 11.7674 13.8099 11.8515 13.7861C12.1385 13.7068 12.4239 13.6243 12.7124 13.553C12.7949 13.5324 12.8425 13.4943 12.8789 13.4182C13.1025 12.9394 13.3467 12.4716 13.6828 12.0594C14.0348 11.6265 14.4725 11.3221 15.0242 11.2015C15.1527 11.173 15.2875 11.1746 15.4302 11.1825C15.1432 11.506 14.788 11.7533 14.5835 12.1402C14.3821 12.5208 14.2822 12.9283 14.1649 13.3485C14.3662 13.358 14.5502 13.3659 14.7325 13.377C14.8815 13.3865 15.0306 13.3913 15.1765 13.4166C15.2605 13.4309 15.3049 13.4119 15.3588 13.3485C15.7283 12.9029 16.1722 12.5572 16.724 12.3606C17.057 12.2417 17.4328 12.21 17.6643 12.2766C17.4486 12.4478 17.2108 12.6064 17.011 12.8046C16.8144 12.9996 16.64 13.2216 16.4862 13.4515C16.3688 13.6291 16.4021 13.6751 16.575 13.8003C17.1521 14.2142 17.6706 14.6851 18.0258 15.3114C18.1447 15.5191 18.2287 15.7395 18.2446 15.9885C18.0194 15.8061 17.8054 15.6285 17.585 15.4573C16.6971 14.7644 15.6648 14.5614 14.5708 14.5614C13.5909 14.5614 12.6601 14.812 11.7436 15.1196C10.4466 15.554 9.23998 16.1819 8.06822 16.8828C8.02541 16.9081 7.99528 16.9668 7.97625 17.0175C7.91442 17.1872 7.87478 17.3648 7.80343 17.5281C7.60047 17.9911 7.16601 18.1829 6.69985 17.9943C6.45566 17.896 6.21782 17.8468 5.9562 17.8373C5.45832 17.8246 5.18877 17.3093 5.43771 16.878Z" fill="white"/>
</svg>
