<?xml version="1.0" encoding="utf-8"?>
<!-- Generator: Adobe Illustrator 24.2.0, SVG Export Plug-In . SVG Version: 6.00 Build 0)  -->
<svg version="1.1" id="Layer_1" xmlns="http://www.w3.org/2000/svg" xmlns:xlink="http://www.w3.org/1999/xlink" x="0px" y="0px"
	 viewBox="0 0 500 500" style="enable-background:new 0 0 500 500;" xml:space="preserve">
<style type="text/css">
	.st0{display:none;}
	.st1{display:inline;}
	.st2{fill:#FFFFFF;}
</style>
<g id="Background" class="st0">
	<rect class="st1" width="500" height="500"/>
</g>
<g id="Ford" class="st0">
	<g id="_x31_18hSs.tif" class="st1">
		<g>
			<path class="st2" d="M250,174.6c10.8,0.4,21.6,0.6,32.4,1.2c15,0.8,30,2.5,44.9,4.8c18.5,2.9,36.7,6.9,54.5,12.7
				c12.5,4.1,24.6,8.9,36,15.4c7.6,4.3,14.7,9.1,20.8,15.4c4.7,4.8,8.6,10.1,10.8,16.5c2.8,8.3,2,16.2-2,23.9
				c-3.5,6.8-8.7,12.3-14.6,17.1c-9.2,7.5-19.6,13-30.5,17.8c-14.9,6.5-30.4,11.1-46.2,14.8c-13,3-26.2,5.4-39.4,7.1
				c-12.5,1.6-25.1,2.8-37.7,3.5c-13.5,0.7-26.9,1-40.4,0.6c-8.2-0.2-16.5-0.5-24.7-1.1c-10.5-0.8-21-1.9-31.4-3.2
				c-13.7-1.6-27.3-4.2-40.8-7.5c-17.4-4.2-34.4-9.5-50.6-17.4c-9.9-4.8-19.3-10.4-27.5-17.9c-4.7-4.3-8.7-9.1-11.4-15
				c-4.8-10.3-3.9-20.2,1.8-29.9c3.7-6.3,8.9-11.4,14.6-15.9c8.6-6.8,18.2-11.9,28.2-16.3c15.4-6.8,31.5-11.6,47.9-15.4
				c12.6-2.9,25.4-5.2,38.2-6.8c9.5-1.2,19.1-2.1,28.7-2.8c7.8-0.6,15.7-0.9,23.6-1.2c5-0.2,10,0,15,0
				C250,174.9,250,174.8,250,174.6z M246.9,318.8c15.8,0,28.7-0.3,41.4-1.4c9.5-0.8,19-1.7,28.4-2.9c12.8-1.6,25.4-3.9,38-6.8
				c15.3-3.6,30.2-8,44.6-14.3c9.6-4.2,18.8-9.1,27-15.7c5-4,9.3-8.5,12.5-14.1c3.4-6,4.6-12.5,3.1-19.3c-1.2-5.1-3.8-9.6-7.1-13.6
				c-4.7-5.7-10.4-10.1-16.6-14.1c-9.9-6.3-20.5-11-31.4-14.9c-22.2-8-45.2-12.8-68.6-15.9c-10.2-1.3-20.5-2.2-30.7-3.1
				c-10.9-0.9-21.8-1.2-32.6-1.3c-12.9-0.1-25.7,0.1-38.6,1.1c-10.2,0.8-20.4,1.7-30.6,2.9c-10,1.1-19.9,2.8-29.8,4.8
				c-16.6,3.3-32.9,7.6-48.6,13.8c-10.6,4.2-20.8,9.1-30.1,15.8c-5.5,4-10.5,8.5-14.4,14.2c-7,10.4-7.1,21.4-0.3,31.8
				c2.7,4,6,7.5,9.6,10.6c7.1,6,15.1,10.7,23.4,14.7c11.5,5.5,23.5,9.6,35.8,13.1c16,4.5,32.3,7.6,48.8,9.9
				c11.1,1.5,22.2,2.7,33.3,3.5C225.6,318.4,237.8,318.9,246.9,318.8z"/>
			<path class="st2" d="M344.8,257.1c0.3-0.4,0.6-0.7,0.9-1c6.4-9.8,12.8-19.6,19.2-29.4c0.3-0.5,1-0.9,1.5-0.9
				c3.8-0.1,7.5,0,11.3,0c0.2,0,0.3,0.1,0.8,0.2c-0.3,0.6-0.4,1.1-0.7,1.6c-3.7,5.7-7.4,11.4-11.1,17.2
				c-7.5,11.9-15.1,23.8-22.6,35.7c-0.8,1.2-1.4,2.6-1.8,4c-0.7,2.1,0.6,3.6,2.8,3.7c1.8,0,3.4-0.5,4.7-1.6c2.8-2.1,5.6-4.2,8.1-6.6
				c3.3-3.1,6.3-6.4,9.4-9.6c2.2,0.5,3.1,2,4.4,3.2c-0.2,0.4-0.3,0.7-0.6,1c-5.4,6.5-11,12.6-17.9,17.5c-3.4,2.4-7.1,4.4-11.3,5
				c-1.2,0.2-2.6,0.2-3.8,0c-3.7-0.5-6.2-3.1-6.9-6.8c-0.1-0.6-0.2-1.2-0.4-2.1c-0.6,0.4-1,0.6-1.3,0.9c-3.2,2.9-6.6,5.4-10.8,6.6
				c-4.9,1.5-9.4,1-13.4-2.5c-2.7-2.4-4-5.5-4.4-9c-0.2-2.1,0-4.3,0-6.4c0-0.4,0-0.8,0-1.5c-0.8,0.4-1.3,0.7-1.8,1
				c-3.2,2-6.6,3.5-10.5,3.7c-5.5,0.2-9.5-3.2-10.4-8.6c-0.1-0.8-0.3-1.7-0.5-2.9c-0.5,0.6-0.7,0.9-1,1.3c-4.9,7.6-9.9,15.3-14.7,23
				c-0.8,1.2-1.6,1.8-3.1,1.7c-2.9-0.1-5.8,0-8.7,0c-0.5,0-1-0.2-1.7-0.3c0.5-0.9,0.8-1.6,1.1-2.2c3.9-6.3,7.9-12.5,11.8-18.8
				c2.4-3.8,4.6-7.7,6.8-11.6c0.5-0.9,0.9-2,1.2-3c0.6-2.3-1-3.8-3.2-3c-1.7,0.6-3.4,1.6-4.9,2.7c-4.6,3.4-8.2,7.6-11.7,12.1
				c-2.8,3.6-5.5,7.3-8.3,11c-3.5,4.5-7.4,8.5-12.5,11.2c-4.9,2.6-10.1,3.7-15.6,2.2c-5.4-1.5-8.9-5-10.8-10.2
				c-0.2-0.5-0.4-1-0.8-1.8c-2.8,2.9-5.4,5.6-8.8,7.4c-1.5-1.1-2.4-2.5-3.2-4c-0.4-0.7,0.1-1.2,0.6-1.7c1.4-1.3,2.8-2.6,4.3-3.9
				c2.6-2.4,4.4-5.3,5.7-8.6c1.5-4,3.5-7.7,6.1-11.2c5.2-7.2,12.3-11.7,21-13.5c1.1-0.2,2.2-0.3,3.3-0.3c1.3,0,2.3,0.6,2.7,1.9
				c0.3,1.1,0.7,2.1,1.1,3.3c-0.7,0.3-1.2,0.6-1.7,0.8c-5.5,2.3-10.6,5.3-14.4,10c-2.7,3.4-4.6,7.1-5,11.4c-0.1,1.3-0.1,2.7,0.2,3.9
				c1,4.7,5,7.1,9.8,6c3.4-0.8,6.2-2.7,8.5-5.3c5.2-5.7,7.2-12.5,6.7-20.1c-0.1-2-0.6-4.1-1-6.1c-0.2-1.2-0.1-2.2,1-2.9
				c1.2-0.8,2.5-1.6,3.8-2.2c1.3-0.6,2.5-0.1,3.4,1.3c1.7,2.7,2.4,5.8,2.7,9c0.1,0.8,0.2,1.6,0.3,2.4c0.1,0,0.2,0.1,0.4,0.1
				c0.5-0.5,1.1-1.1,1.6-1.6c2.9-3,5.8-6.1,8.9-9c2.8-2.5,6.1-4.3,9.8-4.9c1.1-0.2,2.3-0.2,3.4-0.1c3.4,0.4,5.6,2.7,6.1,6.3
				c0.2,1.3,0.3,2.7,0.5,4.4c0.6-0.6,1-1,1.3-1.4c2.5-3.2,5.5-5.8,9.3-7.2c2.3-0.9,4.6-1.1,7-0.6c5.8,1.4,8.2,7.8,5,13.1
				c-1.7,2.9-4.2,4.6-7.7,4.3c-3.4-0.3-5.7-3.1-5.4-6.5c0-0.5,0-0.9,0-1.4c-0.4,0.1-0.5,0-0.6,0.1c-2.9,2.9-4.7,6.3-3.9,10.6
				c0.6,3.4,3.6,5.4,7,4.8c2.3-0.4,4.3-1.3,6.2-2.5c4.2-2.6,7.8-6,11.5-9.3c3-2.6,6-5.1,9.1-7.5c3.1-2.3,6.7-4,10.6-4.6
				c2.9-0.5,5.9-0.4,8.6,0.7c3.4,1.4,5.9,3.6,6.6,7.4c0,0.1,0.1,0.2,0.1,0.2C344.5,256.8,344.6,256.9,344.8,257.1z M335.9,267.5
				c0.1-0.5,0.2-1,0.5-1.6c0.7-1.6,1.4-3.3,1.4-5.1c0-2.3-1.2-3.9-3.5-4.5c-1.8-0.5-3.5,0-5,0.7c-2.6,1.2-4.7,3-6.6,5
				c-3.8,4-7,8.5-8.4,13.9c-0.5,2-0.9,4.1-0.5,6.2c0.6,2.6,2.3,4,5,3.9c1.8,0,3.4-0.8,4.9-1.6c5.6-3.2,9.4-8.2,12.5-13.7
				c0.4-0.7,0.7-1.5,1.1-2.2C336.8,268.2,336.4,268,335.9,267.5z"/>
			<path class="st2" d="M190.4,243.1c-2.2-0.1-4.2,0.2-6.1,0.8c-2.6,0.7-4.9,2-7.1,3.5c-0.6,0.4-1.3,0.7-2,0.8
				c-1.8,0.2-3-1.4-2.2-3.1c0.3-0.8,1-1.5,1.6-1.9c3.6-2.5,7.7-4,12-4.9c3.1-0.6,6.2-1.2,9.6-1.8c0.7-0.9,1.5-2,2.4-3.1
				c3-3.8,5.8-7.8,9-11.4c5.1-5.5,10.8-10.6,17.7-14c0.3-0.1,0.6-0.3,0.8-0.5c0.1-0.1,0.1-0.1,0.2-0.4c-0.5-0.2-0.9-0.4-1.4-0.5
				c-6.1-1.1-12.1-2.3-18.2-3.1c-9.2-1.3-18.3-1.4-27.4,1.2c-4.9,1.4-9.4,3.6-13,7.3c-2.2,2.3-3.9,5-4.4,8.2
				c-0.9,5.3,2.8,9.1,8.2,8.3c2.2-0.3,4.2-1.1,6.2-2.2c3.8-2.2,6.9-5,9.3-8.6c0.1-0.1,0.1-0.2,0.1-0.2c0.8-1.2,1.6-1.6,2.4-1.3
				c1,0.3,1.4,1.1,1.4,2.6c0,0.5-0.1,1-0.3,1.5c-3.2,7.7-7.8,14.2-15.3,18.2c-4.5,2.4-9.3,3.4-14.3,2.2c-6.2-1.4-10.7-7.1-10.9-13.7
				c-0.2-7.7,3-13.8,8.6-18.8c5.4-4.9,11.8-7.8,18.7-9.7c6-1.7,12.1-2.2,18.3-2.3c10.1-0.2,20.1,0.9,30.1,2.5
				c9.8,1.6,19.5,3.2,29.3,4.6c11.3,1.6,22.6,2.2,34,1.7c7.5-0.4,14.8-1.4,22.1-3.1c2-0.4,3.3,0,3.7,1.4c0.3,0.9,0.2,2,0,2.9
				c-0.3,1.7-1.4,3-2.6,4.1c-4.1,3.7-9,5.9-14.3,7.3c-6.3,1.7-12.8,1.8-19.2,1.3c-10.5-0.8-20.6-3.8-30.7-6.6
				c-4.8-1.3-9.6-2.6-14.7-3.9c0.5,1.8-0.6,2.5-1.7,3.2c-5.6,4.2-11.1,8.5-15.8,13.8c-2.3,2.6-4.2,5.5-6.3,8.3
				c-0.3,0.4-0.5,0.9-0.8,1.6c5.3-0.3,10.3-0.5,15.2-0.8c0.1-1.8,0.1-3.5,0.4-5c0.9-4,3.1-6.9,7.2-8.1c4.9-1.5,9,2.3,8.1,7.4
				c-0.8,4-3.1,6.8-6.8,8.3c-0.5,0.2-1.1,0.5-1.9,0.8c1.1,1.6,2.8,2.3,4.1,3.4c0.4,0.9,0.1,1.6-0.6,2.2c-0.8,0.7-1.7,0.8-2.6,0.2
				c-1.8-1.2-3.5-2.5-5.2-3.8c-0.4-0.3-0.6-0.6-1-1c-1.8,0.1-3.6,0.2-5.3,0.3c-4.5,0.4-9,0.9-13.5,1.3c-1.4,0.1-2.4,0.7-3.1,2
				c-5.7,9.5-11.5,19-18.1,27.9c-4.4,5.9-9.2,11.5-15.1,16.1c-5.2,4.1-10.9,7-17.6,7.9c-4.9,0.7-9.7,0.7-14.4-1
				c-8.9-3.2-13.9-9.5-14.8-18.9c-1.2-11.9,5.8-22.4,16.7-26.8c1.9-0.8,3.9-1.3,6-1c0.9,0.1,1.8,0.5,2.3,1.3c0.9,1.2,1,3.2-0.9,4.2
				c-2.9,1.4-5.5,3.3-7.7,5.7c-2.5,2.7-4.2,5.8-4.4,9.5c-0.3,6,3.7,11,9.6,12c5.2,0.9,9.9-0.5,14.4-2.8c4.2-2.1,7.6-5.2,11-8.4
				c7.8-7.5,14.4-16.1,20.6-24.9C190.2,243.6,190.3,243.5,190.4,243.1z M228,233.4c2.9-0.9,4.8-2.5,5.7-5.1c0.1-0.3,0.1-0.7,0.1-1.1
				c0-1.2-0.8-1.9-1.9-1.7c-0.7,0.1-1.4,0.4-1.9,0.9c-1.7,1.5-2.5,3.4-2.3,5.7C227.7,232.4,227.9,232.8,228,233.4z"/>
		</g>
	</g>
</g>
<g id="Mercedes" class="st0">
	<g id="scvLJM.tif" class="st1">
		<g>
			<path class="st2" d="M250.1,91c88.2,0.2,159,71.4,158.9,159.1c0,87.8-71.1,159-159.1,158.9C162,408.9,90.9,337.6,91,249.9
				C91.1,162.6,161.6,91.1,250.1,91z M379.6,326.6c-0.5-0.2-0.9-0.4-1.4-0.6c-42.3-17.2-84.7-34.4-127-51.5c-0.8-0.3-1.5-0.3-2.4,0
				c-10.4,4.3-20.9,8.6-31.3,13c-31.6,13.1-63.2,26.2-94.9,39.3c-0.5,0.2-1.1,0.5-1.6,0.7c22.2,38.8,67.7,71.4,123.6,73.2
				C306.3,402.7,355.8,368.1,379.6,326.6z M252.2,100.2c0,0.4,0.1,0.9,0.1,1.4c0.9,6.8,1.9,13.5,2.9,20.3c1.2,8.1,2.3,16.3,3.5,24.4
				c1.1,7.5,2.1,15.1,3.2,22.6c1.2,8.2,2.4,16.4,3.5,24.6c1,6.9,1.9,13.8,2.9,20.7c1.1,7.5,2.2,15.1,3.2,22.6
				c0.1,0.9,0.5,1.5,1.2,2.1c35.9,27.8,71.9,55.6,107.8,83.4c0.4,0.3,0.7,0.5,1.1,0.8c26.1-47,26-107.6-6.9-156.5
				C340.9,116.4,287.9,99.9,252.2,100.2z M119.1,324c0.4-0.3,0.8-0.6,1.2-0.9c20.1-16.3,40.3-32.5,60.4-48.8
				c15.3-12.4,30.7-24.8,46-37.2c0.7-0.6,1.1-1.2,1.2-2.1c1-7,2.1-14,3.2-20.9c1.7-11.4,3.4-22.8,5.1-34.2
				c1.9-12.9,3.9-25.8,5.9-38.7c2-13.2,4-26.5,6-39.7c0.1-0.4,0.1-0.9,0.1-1.3c-41.4-0.2-95.6,20.4-127.1,73
				C89.9,225.2,95.7,284,119.1,324z"/>
		</g>
	</g>
</g>
<g id="Chevy" class="st0">
	<g class="st1">
		<path class="st2" d="M250.6,327.3c-22.7,0-45.4,0-68,0c-6.7,0-9.2-2.5-9.2-9.2c0-5.3,0-10.5,0-15.8c0-4.9-1.2-6.1-6.2-6.2
			c-9.3,0-18.6,0-27.9,0c-30.6,0-61.3-0.2-91.9,0.1c-9,0.1-11.6-5.4-7.8-12.7c12.7-24,24.9-48.2,37.1-72.3c2.6-5,6.4-7.3,12-7.3
			c25.9,0,51.8,0,77.7,0c5.7,0,6.9-1.1,6.9-6.9c0-5.2,0-10.4,0-15.5c0-6.2,2.5-8.7,8.6-8.7c45.8,0,91.6,0,137.4,0
			c6.3,0,8.6,2.4,8.6,8.8c0,5.4,0,10.9,0,16.3c0,4.6,1.4,6,6.1,6c30.1,0,60.2,0,90.3,0c9.8,0,19.6,0,29.5,0c7.1,0,10,4.8,6.8,11.1
			c-12.4,24.2-24.9,48.3-37.1,72.7c-3,6.1-7.4,8.7-14,8.6c-13.8-0.1-27.7,0-41.5,0c-11.2,0-22.3,0-33.5,0c-5.5,0-6.5,1.1-6.5,6.6
			c0,5.3,0,10.5,0,15.8c0,6.2-2.5,8.6-8.6,8.6C296.5,327.3,273.6,327.3,250.6,327.3z M136.5,272.3c18.3,0,36.6,0,54.9,0
			c4.7,0,5.9,1.2,5.9,5.8c0,6.5,0,13,0,19.5c0,4.2,1.5,5.7,5.6,5.7c31.9,0,63.8,0,95.6,0c4,0,5.5-1.5,5.5-5.5c0-6.4,0-12.9,0-19.3
			c0-5.1,1.1-6.3,6.3-6.3c17.5,0,35,0,52.5,0c12.4,0,24.8,0,37.2,0c3,0,5-1,6.4-3.8c5.6-11.2,11.3-22.2,17-33.4
			c2.4-4.7,0.7-7.4-4.6-7.4c-11.1,0-22.1,0-33.2,0c-25,0-50,0-75,0c-5.4,0-6.6-1.3-6.6-6.6c0-6.2,0-12.5,0-18.7
			c0-4.3-1.5-5.9-5.8-5.9c-31.7,0-63.4,0-95.1,0c-4.5,0-5.9,1.5-6,5.9c0,6.2,0,12.5,0,18.7c0,5.4-1.2,6.6-6.6,6.6
			c-15.1,0-30.2,0-45.3,0s-30.2,0.1-45.3-0.1c-3.8,0-6.1,1.2-7.4,4.7c-1.1,2.6-2.5,5.1-3.8,7.6c-4.3,8.5-8.7,17-13,25.5
			c-1.8,3.5-0.2,6.2,3.6,6.7c1,0.1,2,0.1,2.9,0.1C100.4,272.3,118.5,272.3,136.5,272.3z"/>
	</g>
</g>
<g id="Tesla" class="st0">
	<g class="st1">
		<path class="st2" d="M260.3,104c0.5,0.1,1,0.2,1.5,0.2c11.1,0.8,22.2,1.4,33.2,2.5c16.2,1.6,32.2,4.8,48,8.6
			c17.9,4.4,35.5,9.9,52.7,16.6c0.4,0.1,0.8,0.3,1.3,0.6c-0.1,0.5-0.2,0.9-0.4,1.3c-2.3,4.8-4.7,9.5-7,14.3
			c-0.5,1.1-1.1,1.2-2.2,0.7c-10.6-4.6-21.4-8.6-32.4-12c-14.4-4.4-29-7.8-43.8-10.3c-11.8-1.9-23.6-3.3-35.5-4.1
			c-5.8-0.4-11.5-0.6-17.3-0.7c-7.6-0.1-15.3-0.2-22.9,0.1c-13.8,0.5-27.5,1.7-41.1,3.7c-16.2,2.4-32.1,5.9-47.8,10.7
			c-11.6,3.5-23,7.6-34.1,12.4c-1.3,0.6-1.8,0.4-2.4-0.8c-2-4.3-4.2-8.5-6.2-12.8c-0.4-0.8-0.6-1.6-1-2.6c1.4-0.6,2.8-1.1,4.1-1.6
			c23.2-8.7,46.8-15.6,71.2-20.2c11.9-2.2,23.9-4,35.9-4.8c9.4-0.7,18.8-1.1,28.1-1.7c0.4,0,0.8-0.2,1.2-0.2
			C249.1,104,254.7,104,260.3,104z"/>
		<path class="st2" d="M344.8,187.2c-0.3-1.6-0.5-2.9-0.9-4.3c-1.7-6.6-6.1-10.7-12.2-13.2c-5.2-2.1-10.6-3-16.2-3.3
			c-6.2-0.4-12.4-0.4-18.5-0.6c-1.5-0.1-3-0.1-4.5-0.2c-0.9-0.1-1.3,0.3-1.5,1.2c-3.1,17.7-6.3,35.4-9.5,53.1
			c-3.5,19.7-7,39.4-10.5,59.1c-3.9,21.8-7.7,43.6-11.6,65.4c-3.1,17.2-6.2,34.4-9.5,51.7c-0.2-0.8-0.3-1.5-0.5-2.3
			c-4.6-25.3-9.2-50.6-13.7-75.9c-3.8-21.2-7.6-42.5-11.4-63.7c-3.1-17.5-6.2-35-9.3-52.5c-2-11.4-4.1-22.8-6.1-34.2
			c-0.2-1.2-0.6-1.7-1.9-1.6c-7.8,0.2-15.5,0.3-23.3,0.6c-5.3,0.2-10.5,1.3-15.5,3.3c-7.1,2.9-11.6,7.9-12.8,15.6
			c-0.1,0.6-0.2,1.1-0.4,1.9c-15.6-6.6-29.5-15.2-39.3-29.7c1.6-0.7,3-1.4,4.4-2c18.9-8,38.4-14.2,58.5-18.1
			c10.8-2.1,21.7-3.6,32.8-4.4c2-0.1,4-0.3,6-0.6c1.5-0.2,2.6,0.4,3.6,1.6c6.1,7.6,12.2,15.1,18.4,22.6c3.2,4,6.6,7.9,9.8,11.8
			c0.1,0.2,0.2,0.4,0.4,0.6c0.2,0.1,0.4,0.2,0.6,0.3c0.2-0.5,0.4-1,0.7-1.4c8.3-10.1,16.7-20.3,25-30.4c1.2-1.5,2.4-2.9,3.8-4.3
			c0.4-0.4,1.2-0.8,1.8-0.8c18.9,1.1,37.5,3.8,55.8,8.5c15.8,4,31.1,9.4,46,15.9c0.2,0.1,0.5,0.3,0.9,0.5
			C374.3,171.9,360.5,180.6,344.8,187.2z"/>
	</g>
</g>
<g id="Lamborghini" class="st0">
	<g class="st1">
		<path class="st2" d="M249.6,66.1c29.9,0.2,59.5,2.7,88.8,8.3c17.4,3.4,34.5,8,50.8,14.9c9.1,3.8,16.6,9.6,20,19.2
			c1.5,4.2,2.6,8.7,2.7,13c0.5,48.6-6,96.1-22.1,142.1c-15,43-38.3,81.1-68.7,114.9c-13.6,15.1-28.1,29.3-43.5,42.6
			c-3.8,3.3-8.1,6.2-12.5,8.6c-10.3,5.5-20.8,5.3-31-0.3c-3.8-2.1-7.6-4.6-10.9-7.4c-25.6-22.2-49.2-46.5-69.1-74.1
			c-27.3-37.9-45.5-79.7-55.8-125.2c-5.4-23.8-8.6-47.9-9.8-72.3c-0.5-9.2-0.8-18.5-0.6-27.7c0.2-14.9,6.8-26.1,20.5-32.5
			c12.5-5.8,25.7-9.8,39.1-13c22.2-5.4,44.7-8.4,67.5-9.8C226.6,66.9,238.1,66.6,249.6,66.1z M251,75.8c-24.1,0.1-46.7,1.4-69.2,4.7
			c-18.3,2.7-36.3,6.4-53.7,12.4c-6.7,2.3-13.4,4.5-19.4,8.3c-5.4,3.4-9,8.3-10.2,14.6c-0.7,4.1-1.2,8.3-1.1,12.4
			c0.3,29.1,3.1,58,9.1,86.5c8.2,39.1,22.3,75.9,43.5,109.9c21.7,34.6,49.3,64.1,80.1,90.7c3,2.6,6.6,4.7,10.2,6.5
			c6.4,3.2,13.2,3.3,19.5,0c4.2-2.2,8.3-4.8,11.8-7.9c17.3-15,33.5-31.1,48.4-48.4c40.3-47,65.1-101.4,75.9-162.2
			c3-16.7,5-33.6,6-50.5c0.5-9.7,0.8-19.4,0.8-29.2c0-6.4-1.4-12.5-5.6-17.6c-3.1-3.7-7.1-6.1-11.5-7.9C371,92,356,87.8,340.6,84.6
			C310.6,78.4,280.2,75.9,251,75.8z"/>
		<path class="st2" d="M261.7,301.2c1-1.7,1.1-4.4,4-3.2c1.2,0.5,2.6,1.4,2.1,2.7c-0.4,1-1.9,1.5-3.1,2.4c0.4,0.8,1.4,1.7,2.7,1.5
			c2.9-0.4,5.8-0.9,8.7-1.6c1.7-0.4,2.5-2,2.9-3.7c0.5-2.3,1-4.6,1.1-7c0.2-4,1.8-7.5,4.3-10.5c3.1-3.8,6.9-6.8,11-9.3
			c1.7-1,2.6-2.4,2.9-4.3c0.4-2.1,0.6-4.2,1.2-6.2c0.7-2.7,2-3.1,4.4-1.6c3.2,2,5.2,5,5.9,8.6c0.9,4.4,1.4,8.9,1.8,13.4
			c0.7,7.2,1.2,14.4,1.9,21.6c0.1,0.9,0.3,1.8,0.8,2.6c1.2,2.2,1.1,4.4,0.4,6.6c-0.8,2.8-2.2,3.6-5.2,2.7c-0.1-2.3-0.1-2.3-2-3
			c-0.2,1.2-0.4,2.3-0.6,3.5c-3.9,0.1-6.9-3.3-6.1-7c0.2-1.2,0.7-2.3,1.1-3.4c0.7-1.7,1.2-3.3,0.2-5.2c-0.5-0.9,0-2.4,0-3.5
			c0.1-1.9,0.4-3.9,0.4-5.8c0-0.8-0.1-1.8-0.6-2.4c-2.2-3.4-4.6-6.8-6.9-10.2c-6.3,3.3-10.2,8.3-11.2,15.5c-0.4,2.6-0.8,5.1-1.1,7.7
			c-0.6,4.5-2.8,7.1-7.3,7.4c-4.1,0.3-8.3,0-12.4-0.4c-3.2-0.3-5.4-2.4-6.4-5.5c-0.9-2.8-1.5-5.7-2.3-8.5c-2.7,0.1-3.7,1.2-3.6,3.9
			c0.1,1.3,0.3,2.6,0.5,3.9c0.3,1.5-0.2,2.7-1.8,3s-1.8,1.2-1.4,2.7c0.4,1.3,0.8,2.5,1,3.9c0.3,1.7-0.4,2.9-2.1,3.2
			c-3.1,0.6-6.3,1-9.5,1.4c-0.7,0.1-1.8-0.2-2.1-0.7c-0.2-0.4,0.2-1.5,0.6-2c0.9-1.1,0.4-1.8-0.6-2.9c-0.5,0.8-0.9,1.6-1.4,2.3
			c-0.4,0.5-1.1,1-1.6,0.9c-0.4,0-1-0.8-1.2-1.3c-0.6-1.7-0.3-3.4,0.8-4.8c1.1-1.5,2.5-2.8,3.6-4.3c2.1-3.1,4.1-6.4,6.1-9.6
			c0.3-0.5,0.4-1.1,0.7-2c-2.4,0.4-4,1.3-4.7,3.3c-1.4,4-3.9,7-7.2,9.8c-1.8,1.5-3.1,3.8-4.1,6c-1.6,3.5-2.9,7.1-4.3,10.8
			c-2.1,5.8-5.3,6.2-10.8,6.8c-1.3,0.1-1.3-0.9-1.3-1.9c0-1.1,0.7-2.5-0.6-3c-1.1,0.8-2.1,1.6-3.2,2.1c-1.1,0.5-1.9,0-2-1.3
			c-0.5-5.4,0.3-10.3,5-13.8c2.6-1.9,5.2-3.9,7.9-5.8c2.2-1.6,3.3-3.5,3.4-6.4c0.3-6.6-0.7-13-1.1-19.6c0-0.4-0.6-1-1-1.2
			c-0.3-0.1-1,0.3-1.3,0.7c-3.5,5.9-6.9,11.8-10.3,17.7c-0.3,0.5-0.2,1.2-0.2,1.8c0.1,5.9-1.5,11-6.9,14.2c-1.1,0.6-1.6,1.5-1.5,2.8
			c0.2,3,0.1,5.9,0.2,8.9c0,1.6-0.4,2.9-1.7,4c-0.6,0.5-1,1.5-1.3,2.3c-0.2,0.8-0.3,1.7-0.3,2.5c-0.1,4.5-0.3,4.8-4.9,5.1
			c-2.2,0.2-4.4,0-6.8,0c0.1-1.3,0.3-2.5,0.1-3.8c-0.1-0.7-0.8-1.3-1.2-1.9c-0.2,0.6-0.5,1.2-0.6,1.8c-0.1,1,0,1.9-0.2,2.9
			c-0.1,0.4-0.6,0.9-1,1.1c-0.2,0.1-0.8-0.4-1-0.8c-1.6-2.4-2.1-4.9-0.6-7.5c1.2-2,2.7-3.8,4-5.7c0.2-0.3,0.6-0.6,0.6-1
			c0.6-4.9,3.7-8.1,7.3-11c1-0.8,1.4-1.5,1.2-2.9c-0.3-1.7-0.4-3.5-0.4-5.2c-0.1-2.2,0.3-4.3,1.7-6.2c3-4.2,2.7-8.8,2-13.6
			c-0.4-2.5-0.7-5.1-0.5-7.6c0.2-2.4,1-4.8,1.9-7c1.1-2.9,2.2-5.8,1.6-8.9c-1.1-6.4-0.1-12.5,2.7-18.1c2-4,4.5-7.7,7-11.4
			c2.4-3.3,2.8-6.8,2.5-10.8c-0.3-3.4,0-7,0.6-10.4c0.3-1.7,1.6-3.5,2.9-4.7c2.9-2.6,5.9-5.1,9.2-7.3c2.8-1.9,5.8-3.4,8.9-4.9
			c3.3-1.6,6-3.8,8.6-6.4c2.6-2.6,5.8-4.7,8.9-6.7c2.6-1.6,5.4-0.7,8,0.3c5.6,1.9,11.1,3.9,16.8,5.6c3,0.9,6.2,1.4,9.4,1.8
			c3.4,0.4,4.6-1,3.9-4.3c-1.1-5.6-3.1-7.5-8.8-8.6c-5.7-1.1-11.5-1.4-17.3-1.2c-6.8,0.2-13.6,0.6-20.5,0.5
			c-4.2-0.1-8.4-0.9-12.5-1.5c-1.1-0.2-2.3-0.8-3.3-1.4c-4.6-2.7-5.3-7.7-1.3-11.3c4.6-4.1,10.1-6.6,16.2-7.4
			c9.5-1.2,18.6,0.5,27.6,3.7c1.1,0.4,2.2,1.1,3,1.9c1.4,1.3,0.9,2.9-1,3.4c-2.3,0.6-4.5,0.4-6.6-0.8c-1.1-0.6-2.6-0.9-3.9-0.9
			c-1.7,0-3.2-0.1-4.3-1.6c-0.1-0.2-0.5-0.3-0.8-0.4c-0.8,1.4-0.6,2.5,0.9,3c1.2,0.4,2.6,0.6,3.9,0.8c0.5,0.1,1.3-0.2,1.6,0
			c0.7,0.6,1.3,1.3,1.6,2.1c0.1,0.2-0.9,1.2-1.5,1.3c-5.7,0.7-11.5,1.1-17-1c-2.2-0.9-4.3-2.2-6.2-3.6c-1.5-1.1-2.9-1.5-4.5-0.7
			c-1.2,0.6-2.5,1.2-3.6,2.1c-0.7,0.5-1.1,1.3-1.7,2c0.8,0.5,1.4,1.4,2.3,1.6c2.9,0.6,5.8,1.1,8.7,1.6c10.8,1.8,21.6,0.6,32.4,0.4
			c4-0.1,8.1,0.2,12,1.2c8.4,2.2,13.8,11.2,11.9,19.2c-0.3,1.4-1,2.7-1.6,4.3c3.4,4.7,6.8,9.8,10.6,14.6c3.9,4.9,5.3,10.2,4.4,16.3
			c-0.5,3.5,0,6.9,0.6,10.4c0.7,4.2,1,8.5,1.4,12.8c0,0.5-0.1,1.1-0.1,1.7c-1.8,0-3.4,0-4.9,0c-0.6-2.6-1-5.2-1.8-7.7
			c-1.5-4.4-1.7-8.9-0.5-13.4c1.1-4.4,0.8-8.8-1.6-12.6c-3.8-6.1-8-11.9-12.1-17.8c-0.2-0.4-1-0.8-1.3-0.6c-2.3,0.7-4.6,1.6-6.9,2.4
			c-0.2,0.1-0.3,0.5-0.5,0.9c0.8,0.2,1.5,0.3,2.1,0.7c0.8,0.5,1.8,1.1,2.1,1.9c1.1,3.2,2.1,6.4,2.7,9.7c0.5,2.5-0.7,3.3-3.2,3.3
			c-2.8,0-5.2-1.1-7-3.2c-1.8-2.1-3.3-4.3-5.1-6.4c-4.2-5.1-8.5-10.3-12.7-15.4c-0.4-0.4-1.1-0.6-1.7-0.9c0,0.8-0.2,1.8,0.2,2.4
			c2.9,3.9,5.9,7.6,8.9,11.4c5.9,7.6,10.4,16.1,13.8,25.2c0.6,1.6,0.9,3.4,1.1,5.1c0.1,1.3-0.7,1.8-1.6,0.8c-1-1.1-1.9-2.5-2.6-3.8
			c-1-1.9-1.9-4-2.8-6c-0.5,0.2-0.6,0.2-0.7,0.3c-1.2,2.9-2.5,3.6-5.7,3.1c-0.4-0.1-0.8-0.3-1.2-0.3c-0.7,0-1.7-0.1-2.1,0.3
			c-0.4,0.3-0.5,1.6-0.1,1.9c0.4,0.4,1.3,0.5,2,0.6c1.3,0.1,2.7-0.1,4,0.2c1.9,0.4,2.7,1.5,2.9,4.1c-0.9-0.4-1.5-0.9-2.1-1
			c-1.3-0.2-2.7-0.3-4-0.2c-0.4,0.1-0.6,1.2-1,2.1c1,0.2,1.8,0.4,2.5,0.5c1.2,0.1,2.4,0.1,3.6,0.1c4.4,0.1,5.5,0.9,7,5
			c2.5,0,5.1,0.1,7.7,0c6.8-0.4,12.2,2.3,16.8,7.1c0.5,0.5,1.4,0.6,2.1,0.9c1.5,0.6,3.3,1,4.5,1.9c2.1,1.6,3.8,3.5,5.7,5.3
			c4.1,3.9,9.2,4.5,14.5,3.8c0.6-0.1,1.1-0.7,1.8-0.9c0.6-0.2,1.2-0.2,1.8-0.2c0,0.7,0.3,1.4,0.1,2c-0.3,0.7-1,1.4-1.6,1.9
			c-5.2,4.5-11.2,6-17.7,3.4c-3-1.2-5.7-3.3-8.4-5.2c-1.7-1.2-3.1-2.6-5.3-3c-0.5-0.1-1.2-1.1-1.3-1.7c-0.2-1.7-0.1-3.4-0.1-5.1
			c-4.8-1.1-8.7-5-14.3-3.5c0.6,0.6,1,1.1,1.6,1.5c1,0.7,2.2,1.2,3.2,2c0.4,0.3,0.5,1,0.7,1.5c-0.5,0.2-1,0.6-1.4,0.5
			c-3.2-0.4-6.4-0.4-8.5-3.6c-0.4-0.6-1.6-0.8-2.8-1.2c0.1,3-1.9,2.8-3.7,3c-0.5,0.1-1.3,0.5-1.4,0.9c-0.2,0.6-0.1,1.6,0.3,1.9
			c0.8,0.7,1.8,1.4,2.8,1.6c4.5,0.8,8.9,1.4,13.4,1.9c1.1,0.1,2.2-0.5,3.3-0.6c0.7-0.1,1.5,0,2.2,0c-0.3,0.7-0.4,1.5-0.8,2
			c-2.2,2.6-5,4.1-8.4,4.6c-7.7,1.1-14.7-0.3-20.6-5.6c-3.5-3.1-5.1-6.9-4.1-11.7c0.4-1.9,1.4-3.1,3.2-3.5c2.9-0.7,5.8-1.2,8.8-1.8
			c0.1-1-0.4-1.8-1.7-1.9c-3.2-0.5-6.2,0.2-9,1.4c-1.7,0.8-3.1,0.7-4.8,0c-1.3-0.5-2.9-0.6-4.4-0.6c-0.3,0-0.9,0.9-0.9,1.3
			c0.1,1.5,0.2,3.1,0.7,4.5s1.4,2.8,2.4,3.9c1.7,1.8,3.7,3.3,5.3,5.1c2.5,2.8,2.5,5.6,0.5,8.8c-2.8,4.5-5.4,9.2-6.4,14.5
			c-0.3,1.8-0.1,3.6-0.1,5.4c0.3,0.1,0.5,0.1,0.8,0.2c0.5-0.6,1.2-1.1,1.5-1.8c0.8-1.4,1.4-2.8,2.1-4.2c0.7-1.2,1.5-2.5,3.2-2
			c1.8,0.5,2,2,1.6,3.5c-0.4,1.6-1,3.2-1.6,4.8c-0.8,2-1.8,3.9-2.5,5.8c-1.3,3.3-1,6.5,0.4,9.7C260.9,300.2,261.3,300.6,261.7,301.2
			z M252,287.4c-1.6-2.9-2.9-5.4-4.2-7.9c-1.2-2.2-2.6-4.3-3.6-6.7c-1.3-3.4-0.7-6.5,1.8-9.2c1.5-1.6,3.1-3.2,4.6-4.8
			c2.5-2.5,2.6-3.9,0.7-7c-0.9-1.5-1.5-3.1-2.3-4.7c-0.9-1.8-1.6-3.6-2.6-5.3c-0.9-1.4-2.3-1.7-4-1.1c-2.4,0.7-3.7,2.3-4.4,4.5
			c-0.8,2.5-2.5,3.9-5.1,4.2c-2.5,0.3-4.6-0.5-6.6-2c-2.4-1.8-4.2-1.4-5.5,1.4c-0.6,1.2-1,2.5-1.6,3.6c-0.9,1.8-3,2.5-4.8,1.6
			c-0.7-0.4-1.4-1-1.9-1.6c-0.9-1.1-1.7-1.1-2.6,0c-1.3,1.5-2.1,3.1-2.2,5.2c0,1.5-0.5,3.1-0.9,4.6c-1.6,5.1-3.4,10.2-4.9,15.3
			c-0.6,2.3-0.7,4.9-0.7,7.3c0,0.8,0.9,1.7,1.4,2.5c0.8-0.5,1.8-0.9,2.4-1.6c2.1-2.8,4-5.6,5.9-8.5c0.8-1.2,1.8-2.4,2.3-3.7
			c0.6-1.4,1.4-2.3,2.9-2.3c4-0.1,7.9-0.4,11.9-0.2c1.6,0.1,3.3,0.8,4.7,1.5c0.7,0.4,1.3,1.6,1.2,2.4c-0.1,0.6-1.1,1.4-1.9,1.6
			c-1.4,0.4-2.9,0.5-4.3,0.5c-1.2,0-1.9,0.5-1.7,1.7c0.4,3.2,0.8,6.4,1.3,9.6C235.6,288.1,243.4,287.8,252,287.4z M258.9,208.9
			c0,0.2,0.1,0.4,0.1,0.6c-0.6,0.2-1.2,0.7-1.8,0.7c-1.2,0.1-2.5,0-3.8-0.1c-1.5-0.1-2.4,0.4-2.5,2.1c-0.1,1.7,0.5,2.5,2.3,2.3
			c0.9-0.1,1.9,0.2,2.7-0.2c2.3-0.9,3.4,0.3,4.6,1.9c1.3,1.7,2.7,3.4,4.3,4.8c1.5,1.3,3.1,0.8,4-1c0.4-0.7,0.5-1.6,0.6-2.4
			c0.2-5.3-5.6-11.2-10.9-11.1c-0.4,0-0.9,0.4-1.2,0.8c-0.1,0.1,0.3,0.7,0.6,1S258.6,208.8,258.9,208.9z M223.8,226.1
			c0,0.3-0.1,0.6-0.1,0.9c0.1,2.1,0.1,4-1.5,6c-2.1,2.6-0.4,6.2,2.9,6.6c2.8,0.4,5.7,0.1,8.9,0.1c-0.6-0.9-0.9-1.9-1.6-2.3
			c-3.7-2.4-5.5-6-6.6-10C225.6,226.3,225.2,225.7,223.8,226.1z M307.3,282.9c-0.3-3.5-0.6-6.6-0.8-9.7c-0.1-0.8-0.1-1.7-0.3-2.5
			c-0.2-0.6-0.7-1.2-1-1.8c-0.5,0.4-1.2,0.7-1.6,1.2c-0.6,0.8-1.1,1.8-1.6,2.6c-0.8,1.4-1.8,2.9-0.9,4.4c1.3,2.2,2.9,4.3,4.5,6.2
			C306.2,284.1,307.2,283.6,307.3,282.9z M198.4,307.1c2.3-0.2,4.6-3.2,4.2-5.4c-0.2-1.5-1.6-2-2.8-1.2
			C198.1,301.8,197.5,304.4,198.4,307.1z M233,297.4c0-1.2-0.7-1.9-1.9-1.9c-1.5,0.1-3.6,2.4-3.6,4c0,1.3,0.9,1.6,1.9,1.6
			C230.9,301.3,233,299,233,297.4z M245.6,161.8c1.7,0.5,3.3,1.1,4.9,1.5c0.9,0.2,1.8,0.2,2-1.1s0-2.1-1.5-2.2
			c-0.7,0-1.4-0.2-2.1-0.3C247.3,159.4,246.2,159.9,245.6,161.8z"/>
		<path class="st2" d="M186,128.5c0-6.3,0-12.3,0-18.4c-0.1,0-0.3-0.1-0.4-0.1c-2.3,7.2-4.6,14.5-7.1,22.2
			c-2.7-7.6-5.3-14.7-7.8-21.8c-0.1,0-0.3,0-0.4,0c0,1,0,2.1,0,3.1c0,5.2,0,10.4,0.1,15.6c0,1-0.2,1.5-1.3,1.7
			c-1.5,0.2-3.1,0.6-4.7,0.9c0-12.7,0-25.2,0-37.9c2-0.4,4-0.8,6.2-1.2c2.5,6.8,5,13.5,7.7,20.6c0.4-1,0.6-1.7,0.8-2.3
			c2.1-6.4,4.1-12.7,6.1-19.1c0.3-1.1,0.8-1.6,2-1.7c1.6-0.2,3.1-0.5,4.8-0.8c0.1,0.7,0.1,1.2,0.1,1.7c0,11.6,0,23.2,0,34.8
			c0,1.4-0.3,2-1.8,2C188.9,127.9,187.5,128.2,186,128.5z"/>
		<path class="st2" d="M351.2,98.1c0.2,0,0.4-0.1,0.5,0c2,0.5,4.6,0.5,6,1.7s1.8,3.7,2.5,5.7c2.5,6.5,4.9,13.1,7.6,19.6
			c0-7.5,0-15,0-22.8c2,0.6,3.7,1.1,5.4,1.8c0.4,0.2,0.7,1.1,0.7,1.7c0,7.1,0,14.1,0,21.2c0,5.4,0,10.8,0,16.4
			c-2.2-0.6-4.2-1.1-6.2-1.8c-0.5-0.2-0.9-1-1.2-1.6c-2.9-7.8-5.8-15.6-8.7-23.4c-0.2-0.5-0.4-1-0.9-1.4c0,7.6,0,15.2,0,23.2
			c-1.9-0.5-3.7-1-5.3-1.5c-0.3-0.1-0.6-0.7-0.6-1.1c0-12.4,0-24.8,0-37.2C351,98.4,351.1,98.3,351.2,98.1z"/>
		<path class="st2" d="M216.4,104.9c3.6,4.4,4.4,10.2,2,14.8c-1.7,3.2-4.3,5.3-8,5.9c-3.8,0.6-7.5,1-11.3,1.5c-0.3,0-0.6,0-1,0
			c0-0.6-0.1-1.2-0.1-1.7c0-11.8,0-23.7-0.1-35.5c0-1.4,0.4-2,1.9-2.1c2.3-0.2,4.5-0.6,6.8-0.9c9.4-1.2,14.8,5.6,11.5,14.5
			C217.7,102.6,217,103.7,216.4,104.9z M204.1,120.5c1.8-0.2,3.3-0.5,4.9-0.6c2.1-0.2,3.5-1.2,4.1-3.1c0.5-1.5,0.6-3.2,0.5-4.8
			c-0.2-2.4-1.5-3.3-3.9-3.2c-1.5,0.1-3,0.2-4.5,0.5c-0.4,0.1-1,0.7-1,1.1C204.1,113.7,204.1,117,204.1,120.5z M204.3,103.5
			c1.6-0.2,2.9-0.4,4.3-0.5c3.6-0.2,5.7-6,3.9-8.6c-0.6-0.9-1.9-1.6-2.9-1.8c-1.4-0.2-3,0.2-4.5,0.4c-0.3,0-0.8,0.5-0.8,0.8
			C204.2,97,204.3,100.2,204.3,103.5z"/>
		<path class="st2" d="M275.5,125.8c-6.2,0.6-6.2,0.6-8-4.9c-1.1-3.2-2.3-6.5-3.4-9.8c-0.4-1.4-1.1-2-2.5-1.8c-0.8,0.1-1.7,0-2.8,0
			c0,2.9,0,5.6,0,8.3c0,2.7,0,5.3,0,8.1c-2,0-3.8,0-5.8,0c0-13.3,0-26.5,0-40.1c5.4,0.4,10.9-0.8,16.1,1.3c4.1,1.7,6.1,4.9,6.5,9.3
			c0.4,4.6-0.9,8.5-4.8,11.3c-1.1,0.8-1.2,1.4-0.8,2.6C271.9,115.3,273.6,120.5,275.5,125.8z M259,103.4c2,0,3.8,0,5.6,0
			c2.6,0,4.6-1.8,5-4.5c0.5-3.4-0.6-5.9-3.4-6.5c-2.3-0.5-4.7-0.5-7.2-0.8C259,95.8,259,99.5,259,103.4z"/>
		<path class="st2" d="M308.6,89.5c2,0.3,3.9,0.6,6,0.9c0,5.8,0,11.5,0,17.3c3.5,0.7,6.9,1.3,10.4,2c0-5.9,0-11.6,0-17.7
			c2.1,0.3,3.9,0.6,5.8,0.9c0,13.3,0,26.4,0,39.7c-2-0.3-3.8-0.6-6-1c0-1,0-1.9,0-2.9c0-3.9,0-7.8,0-11.8c0-1-0.2-1.5-1.3-1.7
			c-2.9-0.4-5.8-1.1-9-1.6c0,5.5,0,10.8,0,16.4c-2.1-0.3-4-0.6-6-0.9C308.6,116,308.6,102.8,308.6,89.5z"/>
		<path class="st2" d="M248.6,105.6c-0.9,4.2-1.4,8.4-2.7,12.5c-0.7,2.2-2.4,4.4-4.1,6c-3.9,3.7-10.2,3.3-13.5-1
			c-1.7-2.2-3.1-4.8-3.8-7.5c-1.6-6.4-1.6-13,0.2-19.3c0.7-2.4,1.9-4.9,3.4-6.9c4.5-5.8,12.2-5.3,16.3,0.8c1.9,2.9,2.9,6.2,3.3,9.7
			c0.2,1.9,0.3,3.7,0.4,5.6C248.3,105.5,248.5,105.5,248.6,105.6z M229.1,106.2c0.6,3.9,0.6,7.8,2.6,11.3c2.2,3.9,5.8,4.1,7.8,0
			c1.2-2.4,1.9-5.2,2.3-7.9c0.6-4.7,0.6-9.4-1.2-13.9c-0.9-2.1-1.9-4.4-4.7-4.3s-4,2.2-4.7,4.4C230.2,99.2,229.8,102.8,229.1,106.2z
			"/>
		<path class="st2" d="M296.8,113.2c-1.7,0-3,0-4.5,0c0-2.1,0-3.9,0-6c3.4,0,6.7,0,10.3,0c0,5,0.5,10.1-1.7,14.8
			c-1.7,3.6-4.9,5.3-8.8,5.3c-4.4,0-7.7-1.9-9.7-5.8c-1.7-3.2-2.2-6.8-2.3-10.3c-0.2-5.7-0.3-11.4,2-16.8c2-4.9,6-7.2,10.9-6.4
			c5.8,0.9,9.1,5.1,9,11.4c-1.9,0-3.8,0-5.7,0c-0.2-0.9-0.5-1.9-0.8-2.8c-0.9-2.6-3.4-3.7-5.6-2.1c-1.2,0.8-2.4,2.2-2.7,3.6
			c-1.6,6-1.6,12.2-0.3,18.3c0.5,2.3,1.7,4.3,4.3,4.8c2.3,0.4,4.1-0.6,4.8-2.8C296.3,116.9,296.5,115.2,296.8,113.2z"/>
		<path class="st2" d="M159.6,132.7c-2,0.5-3.9,1-5.8,1.5c-0.8-3.2-1.4-6.1-2.2-9.2c-2.1,0.5-4.1,0.8-6.1,1.4
			c-0.5,0.1-0.9,0.9-1.1,1.4c-0.7,2.7-1.2,5.4-1.9,8.1c-0.2,0.6-0.9,1.4-1.5,1.6c-1.6,0.6-3.2,0.9-5.1,1.3c0.1-0.6,0.1-1.1,0.2-1.5
			c2.8-12.5,5.6-25.1,8.4-37.6c0.2-1,0.6-1.4,1.6-1.6c1.7-0.3,3.3-0.7,5.3-1C154.1,108.9,156.9,120.7,159.6,132.7z M148.5,111.1
			c-0.1,0-0.2,0-0.3,0c-0.6,2.9-1.3,5.8-2,8.9c1.6-0.4,2.8-0.7,4.1-1C149.6,116.2,149.1,113.7,148.5,111.1z"/>
		<path class="st2" d="M120.6,137.6c4.2-1.6,8.1-3,12.2-4.6c0,2.1,0,3.9,0,5.6c0,0.4-0.4,0.9-0.7,1.1c-5.8,2.2-11.6,4.3-17.7,6.5
			c0-0.9,0-1.4,0-2c0-11.7,0-23.3,0-35c0-1.4,0.3-2.1,1.8-2.3c1.4-0.2,2.8-0.7,4.4-1.1C120.6,116.5,120.6,126.9,120.6,137.6z"/>
		<path class="st2" d="M343.9,135.4c-2.1-0.4-3.9-0.9-5.8-1.3c0-13.3,0-26.5,0-39.9c2,0.4,3.9,0.8,5.8,1.2
			C343.9,108.8,343.9,121.9,343.9,135.4z"/>
		<path class="st2" d="M386.5,147.1c-0.4,0.1-0.4,0.1-0.5,0.1c-5.5-1.2-5.5-1.2-5.5-6.8c0-10.5,0-21,0-31.5c0-0.7,0-1.3,0-2.3
			c1.9,0.6,3.7,1,5.4,1.7c0.4,0.1,0.5,1.1,0.5,1.7c0,10.8,0.1,21.6,0.1,32.4C386.5,143.9,386.5,145.5,386.5,147.1z"/>
		<path class="st2" d="M268.3,268.4c0.2,0.5,0.4,0.9,0.7,1.4c1.1,1.6,2.2,3.2,3.2,4.9c0.4,0.6,0.6,1.4,1,2.1
			c-0.8,0.2-1.6,0.8-2.4,0.7c-1.9-0.2-3.5-1-4.2-2.9c-0.8-2.2,0.2-4.2,1.1-6.1C267.9,268.4,268.1,268.4,268.3,268.4z"/>
	</g>
</g>
<g id="Audi" class="st0">
	<g id="gwRUC4.tif" class="st1">
		<g>
			<path class="st2" d="M132,189.2c2.5,0,5,0,7.5,0c0.3,0.1,0.6,0.2,0.9,0.2c8.2,0.6,16,2.7,23.3,6.6c3.5,1.9,6.9,4.2,10.4,6.4
				c0,0,0.2-0.2,0.4-0.4c9.1-7,19.3-11.3,30.8-12.5c1-0.1,1.9-0.2,2.9-0.4c2.5,0,5,0,7.5,0c0.3,0.1,0.5,0.2,0.8,0.2
				c9.6,0.7,18.5,3.5,26.7,8.5c2.3,1.4,4.5,3,6.8,4.6c0.2-0.1,0.4-0.3,0.6-0.5c8.7-6.8,18.6-10.9,29.5-12.3c1.3-0.2,2.7-0.3,4-0.5
				c2.5,0,5,0,7.5,0c0.3,0.1,0.6,0.2,0.9,0.2c6.5,0.4,12.8,2,18.8,4.5c5.3,2.2,10.2,5.1,14.7,8.7c0.4-0.3,0.7-0.5,1-0.8
				c9-6.9,19.1-11,30.5-12.2c1-0.1,1.9-0.2,2.9-0.4c2.5,0,5,0,7.5,0c0.3,0.1,0.7,0.1,1,0.2c2.4,0.3,4.8,0.5,7.1,1
				c11.1,2.2,20.9,7.2,29.2,14.9c10.7,10,17.1,22.2,19,36.7c0.3,1.9,0.4,3.8,0.6,5.7c0,1.5,0,3.1,0,4.6c-0.1,0.4-0.1,0.9-0.2,1.3
				c-0.3,2.5-0.4,5.1-0.9,7.7c-3.1,15.4-10.8,27.9-23.4,37.4c-8.4,6.3-17.8,10.1-28.3,11.5c-1.8,0.2-3.6,0.4-5.5,0.6
				c-1.7,0-3.3,0-5,0c-0.4-0.1-0.8-0.2-1.1-0.2c-9.6-0.5-18.6-3.2-26.9-8.1c-2.6-1.5-5.1-3.3-7.7-5c-1.7,1.2-3.5,2.5-5.3,3.7
				c-7.5,4.8-15.7,7.8-24.5,9c-1.9,0.2-3.8,0.4-5.7,0.6c-1.7,0-3.3,0-5,0c-0.4-0.1-0.7-0.2-1.1-0.2c-9-0.5-17.5-2.9-25.3-7.3
				c-3.1-1.8-6.1-3.8-9.3-5.8c-0.5,0.4-1.1,0.8-1.8,1.3c-8.4,6.2-17.7,10-28.1,11.4c-1.8,0.2-3.6,0.4-5.5,0.6c-1.7,0-3.3,0-5,0
				c-0.4-0.1-0.8-0.2-1.2-0.2c-8.5-0.5-16.6-2.6-24.1-6.6c-3.6-1.9-6.9-4.2-10.5-6.4c-0.4,0.3-1,0.8-1.7,1.3
				c-8.4,6.2-17.7,10-28.1,11.4c-1.9,0.2-3.7,0.4-5.6,0.6c-1.7,0-3.3,0-5,0c-0.4-0.1-0.9-0.1-1.3-0.2c-1.8-0.2-3.7-0.3-5.5-0.6
				c-10.2-1.6-19.4-5.5-27.5-11.8C85.8,288,78,274.5,75.6,258c-0.3-1.9-0.4-3.8-0.6-5.7c0-1.6,0-3.2,0-4.8c0.1-0.4,0.2-0.9,0.2-1.3
				c0.2-1.8,0.3-3.5,0.5-5.3c1.9-12.2,7-23,15.4-32.1c10.3-11,22.9-17.5,38-19.2C130.1,189.5,131.1,189.4,132,189.2z M335.3,211.7
				c8.9,11.2,13.5,23.9,13.5,38.3c0,14.3-4.6,27-13.5,38.3c18.3,14.2,46.8,13.6,64.6-6.1c17.2-19.1,16.5-48.8-2.6-66.9
				C378.5,197.2,351.2,198.9,335.3,211.7z M164.7,211.7c-18.2-14.1-46.4-13.4-64.1,5.6c-17.4,18.6-17.2,47.8,0.7,66.2
				c18,18.5,45.6,18.7,63.4,4.9c-8.9-11.2-13.5-23.9-13.5-38.3C151.2,235.6,155.9,222.9,164.7,211.7z M259.1,211.7
				c8.9,11.2,13.5,23.9,13.5,38.3c0,14.3-4.6,27.1-13.5,38.2c18.1,14.1,43.2,12,57.9-0.1c-8.9-11.2-13.5-24-13.5-38.3
				s4.6-27,13.5-38.2C299.2,197.9,274.3,199.5,259.1,211.7z M240.9,288.3c-17.6-21.5-18.4-54,0-76.6c-16.1-13-41.5-13.1-57.8,0
				c8.9,11.2,13.5,24,13.5,38.3s-4.6,27.1-13.5,38.2C199.6,301.2,224,301.4,240.9,288.3z M250,220.7c-7.5,10.1-10.8,21.2-9.7,33.6
				c0.8,9.2,4.1,17.5,9.8,25C263.3,262.1,263.3,237.8,250,220.7z M326.1,220.8c-13.9,17.8-12.6,42.8,0,58.4
				C339.5,262.3,339.3,237.3,326.1,220.8z M173.9,220.8c-13.3,16.7-13.3,41.8,0,58.4C186.6,263.3,187.7,238.4,173.9,220.8z"/>
		</g>
	</g>
</g>
<g id="Land_Rover" class="st0">
	<g id="ty6ga0.tif" class="st1">
		<g>
			<path class="st2" d="M250,354c-5.5,0-11,0.2-16.5,0c-12.8-0.6-25.5-1.8-38.2-3.7c-17.1-2.5-33.9-6.3-50.2-11.7
				c-18.5-6.1-36.2-13.9-52.2-25c-7.6-5.2-14.7-11-21-17.8c-7.4-8-13.5-17-16.9-27.5c-2.1-6.4-3.2-12.9-2.9-19.6
				c0.4-12.3,4.4-23.4,11.3-33.6c5.8-8.5,12.9-15.7,20.9-22.1c12.3-9.9,26-17.4,40.5-23.7c18.2-7.8,37.1-13.2,56.4-17
				c10.1-2,20.4-3.5,30.6-4.4c6.9-0.6,13.9-1.1,20.9-1.5c10.4-0.7,20.9-0.6,31.3-0.2c8.1,0.3,16.2,0.9,24.3,1.8
				c7.5,0.8,15,1.8,22.4,2.9c13.3,2.1,26.4,5.2,39.3,9.1c14.8,4.5,29.1,10.3,42.7,17.6c10.3,5.6,19.9,12.1,28.6,19.9
				c6.8,6.1,12.7,12.8,17.5,20.6c5.2,8.6,8.5,17.9,9.2,28c0.8,11.8-1.9,22.8-7.5,33.1c-5.3,9.7-12.5,17.8-20.9,25
				c-14.8,12.7-31.7,21.8-49.8,29c-17.9,7.1-36.4,12.1-55.3,15.5c-9.9,1.8-19.8,3-29.7,4C273.1,353.8,261.6,354.3,250,354z
				 M249.5,344c6.7-0.2,12.8-0.3,19-0.6c6.9-0.4,13.8-0.8,20.6-1.6c8.3-1,16.6-2.1,24.8-3.5c12.1-2,24.1-5.1,35.8-8.8
				c14-4.5,27.6-10.1,40.4-17.3c11.7-6.6,22.6-14.4,31.6-24.5c5.3-6,9.7-12.6,12.6-20.1c3-7.7,3.9-15.6,2.8-23.7
				c-1.1-8.2-4.2-15.6-8.8-22.5c-5.6-8.4-12.6-15.3-20.5-21.4c-12.5-9.6-26.3-16.8-40.8-22.7c-14.8-6-30.1-10.4-45.7-13.6
				c-6.8-1.4-13.5-2.6-20.3-3.6c-6.5-0.9-13-1.6-19.6-2.1c-7.1-0.6-14.2-1.1-21.4-1.3c-8.4-0.2-16.8,0.1-25.1,0.3
				c-10.3,0.2-20.5,1.2-30.6,2.5c-10.4,1.3-20.8,3.1-31,5.4c-19.5,4.4-38.4,10.7-56.3,19.7c-13.4,6.8-25.9,14.9-36.4,25.8
				c-6.1,6.3-11.1,13.4-14.4,21.6c-4.6,11.4-4.9,22.8-0.8,34.4c2.7,7.9,7.2,14.7,12.7,21c7.7,8.7,16.7,15.7,26.6,21.8
				c16.3,10,34,17.1,52.3,22.4c12,3.5,24.1,6.1,36.5,8.1c10.8,1.7,21.6,3,32.5,3.6C233.9,343.6,242,343.7,249.5,344z"/>
			<path class="st2" d="M250.1,163.1c5.8,0.1,11.7,0.1,17.5,0.4c9.9,0.5,19.8,1.4,29.6,2.7c11.6,1.6,23.1,3.7,34.5,6.5
				c13,3.3,25.7,7.4,38,12.8c10.5,4.6,20.7,10,30.1,16.7c7.6,5.5,14.7,11.6,20.4,19.1c5.7,7.4,9.5,15.5,10.5,24.8
				c0.6,5.4-0.1,10.8-1.7,16.1c-2.5,8.2-7,15.1-12.8,21.4c-9,9.8-19.7,17.3-31.3,23.7c-17.9,9.8-37,16.4-56.8,21.2
				c-10.4,2.5-20.9,4.4-31.4,5.8c-8.1,1-16.3,1.8-24.5,2.3c-9,0.5-18,1-27.1,0.7c-8.5-0.3-17.1-0.7-25.6-1.3
				c-6.6-0.5-13.2-1.2-19.8-2.1c-7.5-1.1-15-2.5-22.5-4c-10.6-2.2-21-5.1-31.3-8.7c-15.4-5.4-30.1-12.1-43.7-21.4
				c-7.2-4.9-13.9-10.5-19.7-17c-5.7-6.5-10.1-13.7-12.3-22.2c-2.4-9.1-1.6-17.9,2-26.5c3.7-9,9.7-16.3,16.8-22.8
				c11.4-10.4,24.5-18.1,38.5-24.4c18-8.2,36.9-13.7,56.3-17.5c8.9-1.7,17.9-3,27-4C224,163.8,237,163,250.1,163.1z M249.4,333.1
				c6.2-0.2,11.9-0.4,17.6-0.6c8.4-0.3,16.7-1.1,25-2c10.9-1.3,21.8-3.1,32.5-5.5c16.3-3.7,32.1-8.8,47.3-15.8
				c12.9-5.9,25-13.1,35.6-22.7c6.3-5.7,11.8-12.1,15.5-19.9c3.5-7.3,4.5-14.8,3.2-22.8c-1.2-7.5-4.7-13.9-9.2-19.9
				c-5.5-7.4-12.5-13.2-19.9-18.6c-11-7.9-23.1-13.8-35.6-18.8c-18.8-7.5-38.4-12.4-58.4-15.3c-7.4-1.1-14.8-1.9-22.2-2.6
				c-7.5-0.6-15.1-1.1-22.6-1.3c-7.8-0.2-15.6,0.1-23.4,0.3c-5.2,0.2-10.3,0.6-15.5,1c-9.2,0.7-18.3,1.9-27.3,3.4
				c-12.9,2.2-25.6,5.1-38,9.1c-13.1,4.1-25.8,9.4-37.8,16.1c-10.2,5.7-19.8,12.4-27.9,20.9c-4.9,5.1-9,10.8-11.8,17.4
				c-2.8,6.6-3.5,13.4-2.5,20.5c0.9,6.1,3.4,11.6,6.8,16.8c4.6,6.9,10.4,12.7,16.8,17.9c11.3,9,23.9,15.8,37.2,21.4
				c16.5,6.9,33.6,11.7,51.1,15c13.5,2.6,27.1,4.2,40.7,5.1C234.4,332.7,242.2,332.8,249.4,333.1z"/>
			<path class="st2" d="M263.8,194.9c4.1,0,8,0,11.9,0c-0.2,2.2-12.9,39.7-15.8,46.7c-1.9,0.4-3.8,0.1-5.8,0.2c-1.9,0-3.8,0-5.9,0
				c-2-9.9-3.9-19.7-5.9-29.5c-0.2,0-0.4,0-0.6,0c-3.3,9.7-6.6,19.5-9.9,29.2c-1.8,0.4-8.7,0.5-11.7,0.1c0.8-2.3,1.5-4.6,2.3-6.9
				c3.8-11.1,7.6-22.2,11.4-33.3c0-0.1,0.1-0.1,0.1-0.2c0.8-1.9,1.1-3.8-0.7-5.3c0.3-1.3,1.3-1.1,2.1-1.1c3.9,0,7.9,0,11.8,0
				c1,0,1.9,0,3,0c1.6,8.3,3.2,16.4,4.8,24.5c2-3.9,3.2-8,4.6-12.1C261,203.1,262.4,199,263.8,194.9z"/>
			<path class="st2" d="M268.1,241.4c1-2.9,1.9-5.8,2.9-8.7c3.6-10.4,7.1-20.8,10.7-31.2c0-0.1,0.1-0.1,0.1-0.2
				c0.8-2,1.4-3.9-0.6-5.5c0.4-1.3,1.3-1,2.1-1c4.3,0,8.5,0,12.8,0c2.1,0,4.3-0.1,6.4,0c3.2,0.1,6.3,0.9,9,2.9
				c2.6,1.8,4,4.2,4.6,7.3c0.6,2.9,0.3,5.7-0.2,8.6c-1,5.9-2.9,11.4-5.7,16.7c-1.4,2.6-3,4.9-5.2,6.8c-3.6,3.1-7.9,4.5-12.5,4.6
				c-7.9,0.2-15.8,0.1-23.6,0.1C268.7,241.7,268.6,241.6,268.1,241.4z M284.6,230.6c2.2,0,3.9,0,5.6,0c5.4,0.1,8.2-3,9.9-7.6
				c1-2.8,2-5.5,2.9-8.3c0.5-1.6,0.7-3.2,0.8-4.8c0.1-2.3-0.8-3.3-3-3.8c-2.5-0.6-5-0.3-7.7-0.3C290.4,213.9,287.6,222,284.6,230.6z
				"/>
			<path class="st2" d="M216.2,300c-2-0.3-4.5-0.5-7-1.1c-7.1-1.8-10.2-7.1-9.8-14c0.5-7.7,2.9-14.9,6.5-21.8
				c3.4-6.5,8.6-10.4,15.9-11.4c4.7-0.6,9.5-0.9,14.1,0.6c1.9,0.6,3.6,1.5,5.1,2.8c2.9,2.6,4,6.1,3.9,9.8c-0.1,3.2-0.7,6.5-1.4,9.7
				c-1.2,5.3-3.1,10.4-6,15c-3.4,5.6-8.5,8.7-15,9.6C220.7,299.7,218.7,299.8,216.2,300z M217.4,288.8c4.9,0.2,8.1-2.2,9.9-6.4
				c1.4-3.1,2.4-6.3,3.5-9.4c0.6-1.7,0.9-3.5,1.2-5.3c0.3-2.1-0.7-4-2.5-4.6c-3.5-1-9.4-0.8-12.2,3.9c-0.4,0.6-0.8,1.3-1.1,1.9
				c-1.8,4.1-3.4,8.2-4.3,12.5c-0.2,1.2-0.3,2.5-0.2,3.7c0.1,1.4,0.8,2.5,2.2,2.9C215,288.4,216.2,288.5,217.4,288.8z"/>
			<path class="st2" d="M173.1,282.8c-1.6,0-2.9,0-4.4,0c-1.8,5.3-3.7,10.7-5.6,16.1c-4.2,0-8.3,0-12.6,0c0.1-0.6,0.2-1.2,0.3-1.7
				c2.9-8.3,5.8-16.6,8.6-24.9c1.7-4.9,3.3-9.8,5-14.7c0.5-1.4,0.7-2.8-0.4-4.1c-0.6-0.7-0.3-1.4,0.7-1.5c0.5-0.1,1,0,1.5,0
				c6.5,0,13,0,19.4,0c2.6,0,5.2,0.5,7.6,1.6c3.9,1.8,5.6,5.1,5.4,9.2c-0.2,5.2-1.8,10.1-4.9,14.5c-1.9,2.6-4.4,4.1-7.4,4.8
				c-0.3,0.1-0.6,0.2-0.9,0.3c-0.1,0-0.1,0.1-0.4,0.3c1.9,5.3,3.9,10.6,5.9,16.2c-4.4,0-8.5,0-12.9,0
				C176.4,293.6,174.7,288.3,173.1,282.8z M175.5,262.8c-1.1,3.2-2.4,6.3-3.2,9.8c2.5,0,4.8,0.1,7.1,0c4.5-0.2,5.8-1.5,6.7-5.9
				c0-0.2,0.1-0.3,0.1-0.5c0.3-2-0.6-3.3-2.6-3.4C180.9,262.7,178.2,262.8,175.5,262.8z"/>
			<path class="st2" d="M358.2,282.4c2,5.6,3.9,10.9,5.9,16.2c-1.9,0.5-10,0.6-12.8,0.1c-1.6-5.2-3.2-10.5-4.9-15.9
				c-1.5,0-2.9,0-4.5,0c-1.8,5.3-3.6,10.7-5.5,16.1c-4.3,0-8.4,0-12.8,0c0.4-1.3,0.7-2.4,1.1-3.5c4.2-12.2,8.4-24.3,12.6-36.5
				c0-0.2,0.1-0.3,0.2-0.5c0.8-1.9,1.1-3.8-0.7-5.3c0.3-1.4,1.3-1.1,2-1.1c6.2,0,12.3,0,18.5,0c1.9,0,3.8,0.1,5.6,0.5
				c1.5,0.3,3,0.8,4.4,1.6c2.5,1.3,4,3.5,4.3,6.2c0.7,6.5-1.2,12.3-5.2,17.5C364.6,280.4,361.8,281.8,358.2,282.4z M348.8,262.8
				c-0.6,1.8-1.1,3.3-1.7,4.8c-0.5,1.5-1,3-1.6,4.9c3.6,0,6.9,0.3,10.1-0.4c1.1-0.2,2.1-1,2.7-2c0.8-1.5,1.3-3,1.3-4.7
				s-0.7-2.6-2.5-2.7C354.4,262.7,351.7,262.8,348.8,262.8z"/>
			<path class="st2" d="M204.6,241.4c0-3.4,0-6.6,0-10c-4.9,0-9.5,0-14.3,0c-1.6,2.8-3.3,5.6-4.8,8.5c-0.7,1.3-1.5,1.9-3.1,1.8
				c-3.7-0.1-7.4,0-11.3,0c0.4-0.8,0.6-1.3,0.9-1.7c7.5-12.5,15-25.1,22.5-37.6c0.4-0.6,0.7-1.3,1.1-1.9c0.9-1.6,1.6-3.2,0-5.1
				c0.6-0.3,1-0.6,1.4-0.6c5.7,0,11.5,0,17.4,0c0.1,0.6,0.3,1.2,0.3,1.7c0.4,7,0.7,13.9,1.1,20.9c0.3,6.1,0.7,12.1,1,18.2
				c0.1,1.9,0.3,3.9,0.4,5.8C215.2,241.8,207.6,241.9,204.6,241.4z M204.1,208.1c-0.2-0.1-0.4-0.1-0.6-0.2
				c-2.6,4.5-5.2,9.1-7.8,13.9c3,0,5.6,0,8.4,0C204.1,217.1,204.1,212.6,204.1,208.1z"/>
			<path class="st2" d="M316.2,298.9c-10.5,0-20.9,0-31.6,0c0.4-1.3,0.8-2.3,1.2-3.4c4.2-12.2,8.4-24.5,12.6-36.8
				c0-0.1,0.1-0.1,0.1-0.2c0.9-1.9,1.1-3.8-0.9-5.6c0.6-0.4,1-0.8,1.5-0.9c1.4-0.1,2.8-0.1,4.2-0.1c8.9,0,17.7,0,26.6,0
				c0.6,0,1.1,0,2,0c-1.1,3.8-2.5,7.1-3.8,10.7c-6,0-11.8,0-17.9,0c-0.9,2.5-1.7,4.9-2.6,7.6c5.6,0,10.9,0,16.6,0
				c-1.3,3.5-2.4,6.6-3.6,9.9c-5.5,0-10.9,0-16.4,0c-0.9,2.6-1.7,5.1-2.6,7.7c2.1,0.5,4.1,0.2,6,0.2c2,0,4.1,0,6.2,0
				c1.9,0,3.9,0,6.1,0.1C318.6,292,317.5,295.4,316.2,298.9z"/>
			<path class="st2" d="M294.4,252.1c-8.7,15.8-17.2,31.2-25.8,46.8c-5.3,0-10.5,0-16,0c-0.2-2.2-0.4-4.5-0.5-6.8
				c-0.3-5.6-0.4-11.1-0.7-16.7c-0.3-5.9-0.6-11.8-0.9-17.7c-0.1-1.6-0.5-3.1-2-4c-0.3-0.2-0.5-0.7-0.5-1c0.1-0.3,0.6-0.6,0.9-0.6
				c4.4,0,8.8,0,13.5,0c0.1,1.3,0.3,2.4,0.3,3.5c0.1,3.9,0.1,7.9,0.2,11.8c0.1,5.7,0.3,11.5,0.5,17.2c0,0.2,0.1,0.5,0.2,0.8
				c0.9,0,1-0.8,1.2-1.3c5-9.8,10-19.6,15-29.4c0.4-0.9,0.9-1.7,1.4-2.6C285.5,252.1,289.7,252.1,294.4,252.1z"/>
			<path class="st2" d="M148.3,195.4c0.7-0.3,0.9-0.6,1.2-0.6c5,0,10,0,15.3,0c-4.1,12-8.1,23.6-12.2,35.5c6.3,0.9,12.3,0,18.6,0.3
				c-1.4,3.9-2.6,7.5-3.9,11c-10.6,0-21.1,0-31.9,0c0.6-1.8,1-3.4,1.6-5c4.1-11.8,8.1-23.6,12.2-35.4
				C149.9,199.2,150.3,197.3,148.3,195.4z"/>
			<path class="st2" d="M147.1,270.4c-1.5,4.1-2.8,7.6-4.1,11.1c-10.4,0-20.6,0-31.1,0c0.2-0.7,0.3-1.2,0.5-1.8
				c1-2.9,2.1-5.7,3.1-8.6c0.3-0.9,0.9-1.5,1.8-1.8c11.1-3.6,22.2-7.2,33.2-10.9c0.1,0,0.3,0,0.6,0.1c-0.4,2.2-1.3,3.7-3.7,4.4
				c-6.5,2-12.9,4.3-19.4,6.5c-0.4,0.1-0.7,0.3-1,0.9C133.6,270.4,140.2,270.4,147.1,270.4z"/>
			<path class="st2" d="M325,222.5c1.3-3.7,2.6-7.2,3.9-10.8c10.4,0,20.7,0,31.2,0c-1,2.9-2.1,5.5-2.9,8.3c-0.7,2.6-2.1,3.8-4.7,4.6
				c-10.2,3.2-20.4,6.6-30.6,10c-0.3,0.1-0.6,0.1-1.1,0.2c0-1.2,0.6-2.1,1-3.1c0.3-0.9,1.2-1,2-1.2c5.6-1.9,11.2-3.8,16.8-5.6
				c1.5-0.5,2.9-1,4.3-1.7c-2.1-0.7-4.3-0.3-6.4-0.4c-2.2-0.1-4.4,0-6.6-0.1C329.6,222.7,327.4,223.1,325,222.5z"/>
		</g>
	</g>
</g>
<g>
	<path class="st2" d="M257.2,372.6c-30.9,0-55.5-3.1-79.6-9.7c-18.8-5.1-36.8-12.4-53.6-22.3c-15.2-9-28.9-19.9-40.2-33.6
		c-8.8-10.8-15.6-22.8-19.2-36.3c-5.8-21.7-2.9-42.4,7.6-62.2c6.4-12,15-22.3,25-31.4c11.4-10.3,24.1-18.6,37.8-25.6
		c20.9-10.6,43.1-17.5,66.1-21.6c16.8-3,33.8-4.5,50.9-4.4c30.8,0.1,60.9,4.7,90.1,15c17.6,6.2,34.2,14.4,49.4,25.2
		c13.5,9.7,25.4,21,34.6,35c10.3,15.9,15.9,33.2,14.9,52.3c-0.7,14.4-5.1,27.6-12.4,40c-10,17-24,30.2-40.2,41.3
		c-16.5,11.2-34.4,19.4-53.3,25.5c-14.3,4.6-28.9,7.9-43.8,9.9C278,371.7,264.7,372.6,257.2,372.6z M394.1,187.3
		c-0.2,1.4-0.3,2.3-0.4,3.2c-0.1,0.9-0.3,1.8-0.5,2.7c-2.1,8.8-7.2,15.7-13.7,21.7c-9.3,8.7-20.4,14.7-32.1,19.6
		c-15.5,6.5-31.7,10.5-48.2,13.2c-1.3,0.2-1.7,0.7-1.7,2c0.3,17.9-1.1,35.7-4.8,53.2c-2.7,12.9-6.5,25.4-12.7,37
		c-4.1,7.6-8.9,14.7-16.2,19.7c-0.1,0.1-0.1,0.2-0.1,0.4c0.7,0,1.4,0,2,0c10.1-0.7,20.1-1.9,30-3.9c17-3.4,33.4-8.7,48.9-16.3
		c16-7.8,30.6-17.8,43-30.7c10.8-11.4,19.2-24.3,23.9-39.4c3.8-12.1,4.8-24.5,3-37c-2.1-14.6-7.9-27.7-16.3-39.7
		C397,191.2,395.6,189.4,394.1,187.3z M108.4,187.6c-1.5,2-2.9,3.9-4.3,5.8c-10,14.3-16.1,30-16.9,47.5c-0.8,16.9,3.5,32.7,12,47.3
		c8.2,14.2,19.4,25.9,32.5,35.7c14.3,10.7,30.1,18.7,47,24.6c17.3,6.1,35.2,9.6,53.4,11.2c2.2,0.2,4.4,0.3,7.1,0.4
		c-1.5-1.2-2.6-2-3.7-2.9c-6.5-5.7-10.9-12.8-14.6-20.4c-8.4-17.6-12.4-36.5-14.5-55.8c-1.2-10.6-1.6-21.3-1.5-32
		c0-0.3,0-0.6-0.1-0.9c-0.2-0.1-0.3-0.2-0.5-0.2c-0.9-0.2-1.9-0.4-2.8-0.5c-15.6-2.7-30.9-6.5-45.6-12.6
		c-11.9-4.9-23.2-11-32.8-19.8c-5.8-5.3-10.6-11.4-13-19C109.5,193.3,109.1,190.6,108.4,187.6z M207.5,216.9
		c0.2-0.8,0.3-1.3,0.4-1.8c2.1-13.5,5.4-26.6,10.6-39.2c3.9-9.4,8.8-18.1,16.2-25.2c9.6-9.1,21.5-9.7,31.8-1.3
		c5.8,4.8,9.9,10.8,13.4,17.4c6.7,12.7,10.7,26.3,13.5,40.4c0.6,3.1,1.1,6.3,1.7,9.5c0.5,0,0.9,0,1.3-0.1c2.7-0.5,5.3-0.9,8-1.5
		c12.9-2.6,25.5-6,37.3-11.9c6.2-3.1,12-6.8,16.4-12.4c5-6.3,5.4-13.3,1-20.1c-2.8-4.3-6.8-7.5-11.1-10.2
		c-9.6-6.1-20.3-9.8-31.2-12.7c-17.9-4.8-36.1-6.9-54.6-7.5c-19.9-0.7-39.7,0.3-59.3,3.8c-13.6,2.4-27,5.8-39.5,11.7
		c-6.5,3-12.6,6.6-17.5,12c-3.7,4.1-6,8.8-5.1,14.5c0.6,3.8,2.4,7,4.9,9.8c4.7,5.2,10.5,8.8,16.7,11.8c9.6,4.6,19.8,7.7,30.2,10
		C197.5,215,202.4,215.9,207.5,216.9z M223,250.2c0,0.6,0,0.9,0,1.2c0.3,10,1.2,20,3.2,29.9c1.8,8.9,4.2,17.6,8.3,25.7
		c2.2,4.3,4.8,8.4,8.6,11.5c5.3,4.3,11.4,4.4,16.6,0c1.9-1.6,3.5-3.4,5-5.4c5-6.9,7.7-14.7,9.9-22.8c2.6-9.7,4-19.5,4.8-29.5
		c0.2-3.4,0.3-6.9,0.5-10.5C260.7,251.8,242,251.8,223,250.2z M277.6,218.9c0-0.5,0-0.7,0-0.8c-1.6-10.2-4-20.2-8.5-29.7
		c-2.2-4.7-4.9-9.2-8.9-12.7c-5.2-4.6-11-4.9-16.6-0.8c-4,2.9-6.6,7-8.8,11.3c-4.2,8.1-6.7,16.8-8.5,25.7c-0.5,2.3-0.8,4.6-1.3,7
		C242.7,220.4,260.1,220.4,277.6,218.9z"/>
</g>
</svg>
