<svg width="76" height="33" viewBox="0 0 76 33" fill="none" xmlns="http://www.w3.org/2000/svg">
<g id="Frame">
<g id="Clip path group">
<mask id="mask0_131_7531" style="mask-type:luminance" maskUnits="userSpaceOnUse" x="0" y="0" width="76" height="33">
<g id="a-1">
<path id="Vector" d="M0 0.391846H75.1189V32.3882H0V0.391846Z" fill="white"/>
</g>
</mask>
<g mask="url(#mask0_131_7531)">
<g id="Group">
<path id="Vector_2" d="M18.4672 12.3278H9.702V14.9293H15.9182C15.6115 18.5769 12.5763 20.1322 9.71267 20.1322C6.0482 20.1322 2.85123 17.249 2.85123 13.2077C2.85123 9.27037 5.89888 6.23872 9.72155 6.23872C12.6697 6.23872 14.4072 8.1185 14.4072 8.1185L16.2284 6.2325C16.2284 6.2325 13.8909 3.63013 9.62734 3.63013C4.19952 3.63013 0 8.21271 0 13.1606C0 18.0107 3.95066 22.739 9.76599 22.739C14.8819 22.739 18.6263 19.2354 18.6263 14.0538C18.6263 12.9606 18.4672 12.3278 18.4672 12.3278Z" fill="#4285F4"/>
<path id="Vector_3" d="M25.649 10.4456C22.0521 10.4456 19.4746 13.2568 19.4746 16.5364C19.4746 19.864 21.9748 22.7277 25.6908 22.7277C29.0557 22.7277 31.8119 20.1564 31.8119 16.6075C31.8119 12.5404 28.606 10.4456 25.649 10.4456ZM25.6846 12.8577C27.4533 12.8577 29.1295 14.2878 29.1295 16.5915C29.1295 18.8473 27.4604 20.3173 25.6766 20.3173C23.7168 20.3173 22.1703 18.7477 22.1703 16.5737C22.1703 14.446 23.6972 12.8577 25.6846 12.8577Z" fill="#EA4335"/>
<path id="Vector_4" d="M39.0778 10.4456C35.4818 10.4456 32.9043 13.2568 32.9043 16.5364C32.9043 19.864 35.4045 22.7277 39.1205 22.7277C42.4845 22.7277 45.2407 20.1564 45.2407 16.6075C45.2407 12.5404 42.0348 10.4456 39.0778 10.4456ZM39.1134 12.8577C40.882 12.8577 42.5583 14.2878 42.5583 16.5915C42.5583 18.8473 40.89 20.3173 39.1054 20.3173C37.1456 20.3173 35.5991 18.7477 35.5991 16.5737C35.5991 14.446 37.1251 12.8577 39.1134 12.8577Z" fill="#FBBC05"/>
<path id="Vector_5" d="M52.2478 10.4514C48.9468 10.4514 46.3516 13.3426 46.3516 16.5876C46.3516 20.285 49.3601 22.7362 52.1909 22.7362C53.9418 22.7362 54.8724 22.0412 55.5594 21.2431V22.4545C55.5594 24.5734 54.2724 25.8425 52.3304 25.8425C50.4551 25.8425 49.5139 24.4471 49.1868 23.6561L46.8262 24.6427C47.6643 26.4131 49.3494 28.26 52.35 28.26C55.6323 28.26 58.1342 26.1918 58.1342 21.8563V10.8203H55.5594V11.8601C54.7684 11.0069 53.6849 10.4514 52.2478 10.4514ZM52.4869 12.8591C54.1053 12.8591 55.7665 14.2403 55.7665 16.6009C55.7665 18.9998 54.1089 20.3223 52.4513 20.3223C50.6915 20.3223 49.0535 18.8931 49.0535 16.624C49.0535 14.2661 50.7546 12.8591 52.4869 12.8591Z" fill="#4285F4"/>
<path id="Vector_6" d="M69.5846 10.4358C66.4703 10.4358 63.8555 12.9137 63.8555 16.5693C63.8555 20.4382 66.7707 22.7322 69.8832 22.7322C72.482 22.7322 74.0765 21.3101 75.0284 20.0374L72.9051 18.6242C72.354 19.4792 71.4333 20.3147 69.8966 20.3147C68.1696 20.3147 67.376 19.3699 66.8836 18.4535L75.1191 15.0362L74.6924 14.0354C73.8961 12.0738 72.0403 10.4358 69.5846 10.4358ZM69.6912 12.7982C70.8138 12.7982 71.6208 13.3946 71.9639 14.11L66.4649 16.4084C66.2276 14.6291 67.9137 12.7982 69.6912 12.7982Z" fill="#EA4335"/>
<path id="Vector_7" d="M59.9297 22.3687H62.6352V4.26587H59.9297V22.3687Z" fill="#34A853"/>
</g>
</g>
</g>
</g>
</svg>
