<?xml version="1.0" encoding="UTF-8"?>
<svg id="Layer_1" data-name="Layer 1" xmlns="http://www.w3.org/2000/svg" viewBox="0 0 122.87 122.87">
  <defs>
    <style>
      .cls-1 {
        fill: #fff;
        fill-rule: evenodd;
      }
    </style>
  </defs>
  <path class="cls-1" d="m1.63,97.99l36.55-36.55L1.63,24.89c-2.17-2.17-2.17-5.73,0-7.9L16.99,1.63c2.17-2.17,5.73-2.17,7.9,0l36.55,36.55L97.99,1.63c2.17-2.17,5.73-2.17,7.9,0l15.36,15.36c2.17,2.17,2.17,5.73,0,7.9l-36.55,36.55,36.55,36.55c2.17,2.17,2.17,5.73,0,7.9l-15.36,15.36c-2.17,2.17-5.73,2.17-7.9,0l-36.55-36.55-36.55,36.55c-2.17,2.17-5.73,2.17-7.9,0l-15.36-15.36c-2.17-2.17-2.17-5.73,0-7.9h0Z"/>
</svg>